<svg xmlns="http://www.w3.org/2000/svg" width="800.1" height="707.98" viewBox="0 0 800.1 707.98"><defs><style>.cls-1{fill:#f9c6ce;}.cls-2{fill:#010101;}.cls-3{fill:#020202;}.cls-4{fill:#040404;}.cls-5{fill:#bcbcbc;}.cls-6{fill:#b5b5b5;}.cls-7{fill:#8f8f8f;}.cls-8{fill:#4a4a4a;}.cls-9{fill:#3e3e3e;}.cls-10{fill:#eee;}.cls-11{fill:#e3e3e3;}.cls-12{fill:#fbfbfb;}.cls-13{fill:#fff;}.cls-14{fill:#f9cbd6;}.cls-15{fill:#f9c6cd;}.cls-16{fill:#342f54;}</style></defs><title>happy404</title><path class="cls-1" d="M23.55 642.8h744.48v65.18h-744.48z"/><path d="M496 324.23c-.3 6.82-2.46 11.9-8.85 13.86-6.17 1.89-12.86-1.82-16-8.91a225 225 0 0 1-12.95-37c-2.57-10.4-5-20.87-6.95-31.4-.86-4.6-2.42-6.27-7-4.53-2 .75-4.21.78-6.31 1.19-12.81 2.45-12.94 2.56-7.94 14.81 6.15 15 12.15 30 19.42 44.5a19.67 19.67 0 0 1-10.09 26.86c-10.92 4.38-22.62-1.08-26.2-12.76-6.03-19.85-12.03-39.65-17.4-59.65-1.64-6.13-4.34-7.08-9.5-5.19-3.78 1.39-7.5 2.94-11.35 4.08-8 2.38-14.56-.54-17.05-7.39s.19-12.94 7.62-16.31a107.17 107.17 0 0 1 16.15-5.58c3.47-.94 4-2.25 2.85-5.54-5.89-16.59-8.87-34.07-15.54-50.45-3.13-7.67.11-15.34 6.79-18.11 6.51-2.7 13 .37 16.61 8.23 7.36 16 12.92 32.77 19 49.3 1.65 4.48 3.35 5.73 8.2 3.86 6.63-2.56 13.68-4.11 20.64-5.73 2.93-.68 3.71-1.45 3.09-4.68-3.28-17.09-6.62-34.16-11.15-51-2.35-8.71.55-15 8.12-16.88 7.31-1.77 12.7 2.13 14.75 10.55 4.5 18.52 9.13 37 13.52 55.54a8.69 8.69 0 0 0 4.8 6.38c8.34 4.61 11 14.21 5.93 22.05-2.42 3.71-2.36 6.8-1.43 10.64 5.25 21.53 10.65 43 17.06 64.23.55 1.85.85 3.73 1.16 5.03zM893 640.77c-.85-3.42-.28-6.45 3.36-7.63s4.13-3.56 3.53-6.71c-1.42-7.42-.83-15-3.12-22.44-2.39-7.72-.15-13.35 5-16.53 6.06-3.76 12.69-1.17 13.58 5.87 1.17 9.24 1.55 18.57 2.24 27.87.18 2.42-.64 5.42 3.38 5.39 2.69 0 5.69 2.26 7.09-2.84 1.46-5.32 6.19-6.15 12-4.22 17.15 5.73 34.4 11.13 52.82 10.67 9.13-.23 17.62-2.42 25.29-7.6 10.29-6.95 20.3-14.34 31.94-19.09 7.49-3.05 12.89-2.25 15.77 3.06s1.21 10.25-5.46 14.59c-11.24 7.31-22.39 14.8-34 21.52-14.06 8.16-29.56 8.86-45.32 7-14-1.67-27.22-6.46-40.18-11.67-4.39-1.77-7.55-1.15-11.34.59-10.82 5-10.69 4.89-9.93 16.65 1.24 19.3-.47 38.07-10.25 55.4a23 23 0 0 1-8.51 8.51c-1.55.94-3.08 1.85-4.81.49-1.91-1.5-1.21-3.24-.72-5.25 2.57-10.74 5.72-21.38 6-32.54 1.17-3.66-1.26-7.11-.65-10.73v-6.91c0-4.42.49-8.85-.39-13.24.57-5.41-4-6.52-7.31-8.63a1.31 1.31 0 0 1-.01-1.58z" transform="translate(-356.94 -118.57)"/><path d="M405.46 92.6c3.11-15.25 4.1-29.28 5.69-43.22.62-5.44.77-10.93 1.2-16.4.71-9.07 5.63-14 13.35-13.35 7.07.57 11.66 6.3 11 14.77-1.87 23.78-2.81 47.64-6.42 71.28-3.22 20.87-8.22 41.16-18.43 59.75-8.78 15.9-18.41 31.28-35.72 39.67-11 5.34-21.9 6-32.79-.25-2.14-1.23-4.25-2.5-3.6-5.47.56-2.56 2.69-3.12 4.89-3.4 4.18-.52 8-2 10.63-5.31 15.06-19.27 32.5-37 40.43-61 .6-1.8 1.46-3.52 2.15-5.29 2.38-6.11 4.36-10.82-5.38-13.43-9.05-2.43-14.08-11.42-17.6-19.71-6.53-15.34-12.07-31.09-10.79-48.33.43-5.76.79-11.33 7.62-12.82 7.24-1.58 10.38 3.16 12.25 9.1 3 9.53 6.06 19 8.75 28.66 2.37 8.58 6.56 16.19 12.77 24.75z"/><path d="M766.94 663.09c-.16 11.63 4.85 18.73 15.82 22.14 4.77 1.48 9.26 4.15 14.59 3.38a2.85 2.85 0 0 1 3.45 2.39 3.38 3.38 0 0 1-1.61 4c-14.63 8.51-32.77 8.63-44-8.61a37.42 37.42 0 0 1-5-30.21c3.3-13.68 8.6-26.19 20.81-34.59 6.34-4.36 19.87-6 26.52 1.11 2.1 2.26 2.88 1.66 4.63-.48 3.62-4.41 7.75-3.88 10.64 1.19 2.57 4.51 4.81 9.2 7.44 14.28 2.43-4 1.26-7.84 1.32-11.38.11-6.29 3.9-9.57 8.74-12 4.25-2.12 8.31.85 8.4 6.3a77.54 77.54 0 0 1-4.32 26.92c-2.36 6.7-2.09 11.66 2.73 16.82a43.06 43.06 0 0 1 8.63 14.44c1.78 4.75.43 6.57-4.57 6.25-6.23-.4-11.86-1.84-15.5-7.63-1.48-2.35-2.93-4.06-6.23-1.18-3 2.65-7.6 2.8-11.63 3.18-4.4.41-6.48-2.36-5-6.63a64.26 64.26 0 0 1 4.7-10.6c4.83-8.54 4.38-11.16-3.84-17.78-3.75 10.69-10.36 18.55-21.7 21.48-5.09 1.32-10 .88-14.07-2.89-.87-1.67-.36-3.44-.38-5.16 1.18-2.37 3.3-3.62 5.5-4.93 5-3 9.72-6.38 12.69-11.62 1.06-1.87 2.35-3.89.33-5.78s-4.35-1.24-6.39.17c-4.9 3.4-6.9 8.71-8.81 14-.92 2.53-1.33 5.25-2.91 7.53-1.28 1.8 0 4.04-.98 5.89zM639.83 533.74c14 14.75 14.22 33.28 1.39 46.61-4.88 5.07-11 8.15-18.27 7.49-10.64-1-20.71-3.45-27.15-13.24-.64-1-1-2.61-3-1.68-5 2.32-7.51-.9-9.54-4.72-2.89-5.41-3.46-11.48-4.86-17.33-.73-3-.84-8.13-4.36-7.8-4.12.39-2.62 5.2-2.44 8.33.45 8 1 15.93 1.6 23.89.35 4.41-.67 8-5.52 8.72s-6.87-2.28-8-6.57c-4.91-18.3-3.9-37.07-4.39-55.7-.13-4.88-2-9.49-1.41-14.43a13.26 13.26 0 0 1 2.4-7c2.71-3.53 6.22-4.83 10.29-3.34 3.89 1.42 3.89 5.23 3.45 8.45-.95 6.8-.74 13.57-.66 20.38 0 3.08.67 4.43 3.93 4.6 9.87.52 15.34 6.65 18.37 15.34 1.65 4.75 3.4 9.56 3.45 14.69 0 3.2 1.14 4.73 4.53 4 5.68-1.22 11.17-.07 16.71 1.21 5.83 1.34 11.23.71 15-4.82 4.33-6.31 3.3-11.72-3.13-15.72-7.26-4.51-10.06-10.75-8.13-18.08 2.61-9.91 9.61-16.72 17.53-17.14 10.39-.55 19.37 12.75 14.19 20.52-2.99 4.4-5.98 5.6-11.98 3.34zM902.34 664v7.31c-1.14 2.18 0 5-2.09 6.94-5.51 16.94-24 22.55-37.31 16.37-6.57-3.06-11.1-9.46-10.7-15.82.24-3.92 1.68-5.81 5.94-4.62 3.36.94 6.82 1.57 10.26 2.21 7.32 1.36 13.21-1.25 15.74-6.91a14.43 14.43 0 0 0-5.09-18.07 87.4 87.4 0 0 1-17.36-15.62c.12 11.17-2.54 21-4.6 30.86-.54 2.59-.85 5.4-4.2 5.23-2.94-.16-3.17-2.88-3.63-5.22-2.17-11.06-4.93-22-4.1-33.47.57-7.74 4.72-11.84 12.2-11.11 2.86.28 2.18-1.68 2.53-2.7 2.32-6.74 6.59-11.31 13.63-13.06 10-2.49 20.54 5.94 20.21 16.14a6.08 6.08 0 0 1-8.59 5.63c-2.64-1-5.1-2.52-8.17-4.07-.28 3 1.26 4.47 2.79 5.68 4.51 3.58 6.92 9.69 13.25 11.07q0 .47-.07.94c4.36 4.46 6.52 10 8.09 15.9.37 2.13.4 4.39 1.27 6.39zM735.39 626.45c-.37 4.26-.81 8.51-1.08 12.78-.18 2.79-1 5.57 2.41 7.63 2.14 1.3 1.5 4.09-.48 5.47-3.47 2.42-3.13 5.87-3.34 9.34-1.24 20.19-2.73 40.35-10.15 59.49-1.5 3.86-3.1 7.6-7.49 9-4.88 1.6-7.07.17-7.08-5 0-7.85 2.88-15.23 4-22.92 1.84-12.71 3.46-25.42 4.36-38.24.2-2.8.26-4.68-3.37-5.1-1.95-.23-3.86-1.77-5.54-3-4.31-3.24-4.17-7.28.22-10.47a27.86 27.86 0 0 0 2.45-1.57c2.32-2.1 7.28-.51 7.85-3.75.92-5.24 1.85-10.78.13-16.16-.85-2.68-1.23-5.33.12-7.93 2.05-3.92 5.33-5.58 9.68-4.75s6.59 3.89 7 8.14a65.76 65.76 0 0 1 0 7zM534.95 497.79c1.87.64 3.91 1.25 5.88 2 3.57 1.39 4.46 3.86 1.9 6.75-2.84 3.2-3.3 6.24-3 10.72.94 14.58 2.64 29.09 3.64 43.66.6 8.83-.59 17.47-1.9 26.14-.61 4-2.46 6.8-6.6 6.71s-6-3.22-6.28-7.11c-1-15.16-1.83-30.33-2.77-45.49l-1.32-19.23c-.24-3.8-1.55-5.66-5.6-3.66-4.68 2.31-9.17.8-13.47-1.16-3.8-1.73-4-4.56-1.24-7.41a26 26 0 0 1 12.51-7.08c6.02-1.47 11.99-3.16 18.25-4.84zM1157 243.46a122 122 0 0 1-10.17 37.17c-3.73 8.51-7.7 16.91-11.57 25.36a21.12 21.12 0 0 1-1.61 3.18c-3.53 5.15-9.27 8.51-14.56 6.83-5.08-1.61-8.12-8.07-6.72-13.69 5.65-22.82 9.82-46.47 29.55-62.75 3.17-2.62 6.15-4.52 10.29-2.63a7.78 7.78 0 0 1 4.79 6.53z" transform="translate(-356.94 -118.57)"/><path class="cls-2" d="M988.45 603.5c0 5.09-3.37 9.83-7.63 10.31-5.12.58-8.22-2.5-9.46-6.83-1.36-4.75-4.07-9.16-3.71-14.44s3.64-9.43 8.59-10.11a9.54 9.54 0 0 1 10.53 7.86c.89 4.34 1.14 8.8 1.68 13.21zM1018.2 599.07c.63 3.45-1.62 6.59-3.66 9.59-2.23 3.27-10.9.41-12.5-4.7a76.07 76.07 0 0 1-3.2-17.61c-.31-4.64 4.12-8.29 8.74-8.5a9.31 9.31 0 0 1 9.42 7.88c.56 4.27.78 8.49 1.2 13.34zM613.76 541.36c.15 5.87-1.28 11.14-2.85 16.35-.49 1.63-1.3 3.34-3.45 3.51s-3.25-1.21-4-2.83c-2.61-5.61-6.15-10.86-7.09-17.14a23.08 23.08 0 0 1-.33-5.81c.51-4.68 5.41-10.51 8.77-10.48 5.65 0 6.34 4.87 8.07 8.67 1.18 2.6.6 5.37.88 7.73z" transform="translate(-356.94 -118.57)"/><path class="cls-3" d="M1118.14 372.25a12.29 12.29 0 0 1-12.43 12 12 12 0 0 1-11.9-11.7 12.24 12.24 0 0 1 11.95-12.49 12.55 12.55 0 0 1 12.38 12.19zM702 636.3c-3.53-.54-4.34-4.18-4.54-7.91-.21-3.89 6.14-9.85 10.21-9.56 3.53.25 5.71 2.33 5.74 6.08a11.15 11.15 0 0 1-11.41 11.39zM603.2 513.54a7.93 7.93 0 0 1-7.84 7.79c-4.14-.12-7.85-4-7.49-8.14.39-4.51 3-7.09 7.57-7.29a7.32 7.32 0 0 1 7.76 7.64z" transform="translate(-356.94 -118.57)"/><path class="cls-4" d="M853.15 603.49c-3.76-.61-6.1-2.55-5.86-6.59s2.72-6.19 6.43-6.17a6 6 0 0 1 6.28 6.33c0 4.05-2.7 6.21-6.85 6.43z" transform="translate(-356.94 -118.57)"/><path class="cls-5" d="M543.3 559.68c.52-2.37.11-5 2.09-6.94 0 3.54.43 7.12-1 10.53z"/><path class="cls-6" d="M214.91 61.61c1.5 1.41 1.52 3.12 1 5.08-1.43-.91-1.82-2.3-2.16-3.72z"/><path class="cls-7" d="M411.06 538.53l-.18 5.9-.44.06h-.44c.48-1.95-1.29-4.35 1.19-5.89z"/><path d="M1099.42 209c1.19-5.08.52-10-3.13-14.13a10.1 10.1 0 0 1-2.4-4.19c-2.54-9-9.8-11.16-16.66-4.82-5.09 4.7-9.74 9.86-14.72 14.67-15.57 15-32.17 28.83-49.57 43.24.61-6.66 1.33-12.11 1.56-17.58.8-19.24-.23-37.43-18.5-50.19-9.58-6.69-18.65-8.53-28.84-2.79-14.28 8-22.9 21.39-32.3 33.87-8.31 11-12.56 24.23-16.28 37.05-12.68-4.41-16.2-12.68-11.42-24.74.86-2.16.71-4.71 1.18-7 3.43-16.81 6.93-33.61 10.34-50.43 2.36-11.64-6.09-19.09-17.43-15.4-1.12.36-2.1 1-3.61.37 5.3-4.94 7.14-11.66 9.52-18.06a7.17 7.17 0 0 0-2.33-8.41 7.26 7.26 0 0 0-8.67-.77c-6.12 3.27-12.07 6.66-16.19 12.59-4.35 6.27-8.85 12.45-13.58 18.45-18.79 23.84-37.41 47.87-65.18 62.38-5.07 2.65-7.69 7.15-6.6 13 1.16 6.18 5.39 9.44 11.4 10.21 21.6 2.76 42.52 8.39 63.38 14.39 4.3 1.24 5.42 2.83 4.24 7.46-5.75 22.63-11.08 45.37-16.52 68.07-2 8.18.06 13 6.27 15.31 5.94 2.2 10.62-.67 14.22-8.29 9.32-19.74 15.34-40.5 19.72-61.81 2-9.76 2-9.28 12.08-8.3 5.28.51 6.56 1.91 6.29 7.24a93.16 93.16 0 0 0 8.89 44.45c11.08 23.9 41.67 27 57.24 5.94a162.9 162.9 0 0 0 22.53-42.84c12.38 9.31 26.74 13.54 39.74 20.46 3.62 1.93 4.17 3.12 2.72 6.85-8.21 21.08-16.06 42.3-24.14 63.43a40.22 40.22 0 0 0-2.72 11.06 8.85 8.85 0 0 0 4.64 9 9.19 9.19 0 0 0 10.72-.86 30.11 30.11 0 0 0 8.06-9.9c11.73-21.59 22.6-43.57 30.08-67 1.28-4 3.09-6 7.5-5.71 2.46.18 5.55.87 7.09-2.07 1.81-3.47-.58-6.08-2.65-8.22-4.35-4.52-4.5-9.26-2.67-15 7.42-23.25 11.17-47.33 16.7-70.98zm-210.57-23.41c-2.46 12.36-5.15 24.68-7.45 37.07-.75 4.06-2.2 4.72-6.07 3.5-10.82-3.41-21.78-6.36-32.9-9.55 16.59-21.23 33-42.79 52-64.34-.23 12.31-3.43 22.73-5.58 33.32zm89.22 91.59a141.65 141.65 0 0 1-14.89 28.4c-1.8 2.64-3 6.34-7.35 5.62s-6.49-3.75-7.77-7.54a91.74 91.74 0 0 1-3.43-45.12 120.74 120.74 0 0 1 14.27-40.12c4.33-7.67 10.33-13.58 18.41-18.7 11.53 26.03 10.79 51.68.76 77.46zm88.81-42c-1.28 12.18-5.27 23.69-8.67 35.36-1.06 3.65-2.58 3.06-5.13 1.92-7.17-3.21-14.42-6.24-21.8-9.41l33.81-31.14c.39-1.15 1.62-2.78 2.17-2.24 1.74 1.64.91 3.69-.37 5.47zM702.63 148c-19.89-19.14-50.63-10.5-56.63 11.84a12.81 12.81 0 0 1-4.66 7 43.93 43.93 0 0 0-17.74-20.84c-17.85-11.28-35.64-5.69-43.77 13.69-.82 2-1.51 4.29-3 5.59-4.69 4.08-5.66 9.14-5 14.88.32.81.93 1.66-.2 2.3l-.93-.95c-3-5.38-5.81-10.8-8.87-16.12-11.94-20.75-39.12-24.69-55.2-7-8 8.83-15.5 18.68-15.81 32.17-.17 7.16.49 14.25.35 21.32-.58 30.79 4.61 60.85 10.14 90.92 1.62 8.84 6.76 13.58 14.17 13 7.73-.58 12.08-6.3 11.83-15.76-.31-11.51-3.32-22.64-5.05-33.95-1.49-9.73-1.86-10.56 7.44-11.64 12.27-1.44 23.85-3.64 33-14.07.8 3.72 1.37 6 1.79 8.36a483.05 483.05 0 0 0 12.53 51.37c3 10.18 12.66 12.55 19.71 4.87 2.08-2.26 3.29-2 5.86-1.51 10.55 2.14 17.54-5.26 15.43-15.94q-.48-2.45-1.12-4.88a515.22 515.22 0 0 1-13.49-68.57c16.66 8.42 28.67 2.57 38.38-12.3 1.35 16.25 1.89 31.24 4.26 46.13s5.64 29.5 8.9 44.16c1.48 6.65 6.46 10 12.57 8.87 6.41-1.22 9.12-5.58 8.92-11.88-.07-2.38-.48-4.75-.68-7.13q-1.85-22.43-3.76-44.93c-1.38-14.4-3-28.78-4-43.2-.51-6.82-2.11-13.55-.54-20.59 1.41-6.3 3-11.68 10.65-12 5.79-.23 11.72 6.07 12.77 13.16s-1.76 13.09-4.73 19c-3.92 7.85-8.33 15.46-12.15 23.35-1.51 3.12-3 6.57-1.63 10.3 10.66 6 20.68 3.48 29.06-3.88 19.96-17.42 20.43-56.7 1.2-75.14zm-180.33 80.59c-4.3 1.07-5.12-.61-5.16-4.6a168 168 0 0 1 4.86-42.49c1.25-5.06 4-8.66 9.31-9.64s7.63 2.68 10 6.45c10.73 17.18 16.33 36.16 20.57 57.87-12.6-11.79-25.88-11-39.58-7.59zm93.45-43.44a47.05 47.05 0 0 1-13.48 20.49c-2.35-12.32-5.29-23.78.54-35.06 1.24-2.39 1.28-6.28 5.15-5.77s7.19 2 8.64 6.35c1.61 4.84.64 9.48-.85 13.99zM688.54 640c-5.61-9.27-16.45-13.63-24.33-9.34-8.69 4.73-14.81 11.69-16.14 22-.69 5.38-1.37 10.76-2.09 16.47-2.32-3.22-4.08-6-6.22-8.52a80.16 80.16 0 0 0-7.06-7c-2.33-2.11-4.67-4.18-5.11-7.52-.3-2.25-1.81-5.14.28-6.56 1.61-1.09 3.74 1.2 5.46 2.28 2.88 1.81 5.78 3.87 9 1.16s3.59-6.34 2.75-10.16c-1.09-5-6.77-9.81-12.81-10.41s-10.7 1.93-13.86 6.9c-2.46 3.87-4.43 8-6.88 12.56a17.68 17.68 0 0 1-1-1.62c-3.44-7.24-9.28-11-17.18-10.77-8.34.26-13.26 5.31-16.38 12.78a83.94 83.94 0 0 0-5.32 19.44c2.08 2.13.49 4.6.38 7l-1.6-6c-.89-4.58-1.36-10.07-5.21-12.56a42 42 0 0 1-11.93-11.77c-4.25-6-14.08-2.56-16.67 5.72-5 16-2.07 31.46 4.71 46.34a20 20 0 0 0 6.08 7c7 5.53 15.46 4.41 20.64-2.88a21.13 21.13 0 0 0 3.8-9.67c.17-1.35.41-2.69.57-4s.26-2.71.49-5.25c4.43 11 10.65 17.82 21.78 18.4 2.39.13 3.8 1.3 5.27 3 12 14.17 35.36 14.8 45.08-1.36.93-1.55 1.71-1.8 3.65-1.06 6.47 2.47 9.83.16 10.82-6.67 1.49-10.24.17-20.65 2.06-30.86.94-5.08 2.58-9.76 6.73-13.17s7-2.71 8.44 2.59a44 44 0 0 1 .46 20.83 29.87 29.87 0 0 0 .8 15.58c.6 1.85 1 3.93 3.23 4.46s3.36-1.26 4.67-2.74c9.22-10.49 10.03-32.38 2.64-44.62zm-131.24 45.37c-5.63-4.83-6.73-11-7-17.42-1.72-3.06-.75-6.42-1.1-9.64-.36-1.17.07-1.44 1.13-1l1.25 4.51c5.74 6.69 10.1 13.72 5.72 23.55zm33.93-39.57c.69-1.14 1.11-2.66 2.78-2.47a3.79 3.79 0 0 1 3.17 2.94c1.16 3.49-.1 6.12-3.1 7.79-2.09 1.16-4 2.9-7 2.89a39 39 0 0 1 4.15-11.15zm45.53 33.47c-1 5.65-5.71 6.94-10.31 8-12.68 2.81-23.13-2.6-32.84-9.67-4.45-3.24-4-4.71 1.12-6.7 8.57-3.34 15.31-8.3 16.67-18.21.21-.7.55-.74 1-.21 3.13 7.2 8.74 11.48 16 14.19 5.47 2.02 9.21 7.91 8.36 12.6z" transform="translate(-356.94 -118.57)"/><path class="cls-8" d="M612.41 652.44a3.75 3.75 0 0 1-1 .21v-7.46h1v7.27z" transform="translate(-356.94 -118.57)"/><path class="cls-9" d="M550.3 657.31l-1.13 1c-1.31-1.35-1.3-2.94-.82-4.79a3.3 3.3 0 0 1 1.95 3.79z" transform="translate(-356.94 -118.57)"/><path d="M851.26 566.25c-6.71-1.75-11.62-6-15.67-11.45-2.24-3-2.68-4.83 1.64-6.56a34.71 34.71 0 0 0 15-11.72c6.29-8.49 5.8-17.18 1-26.21-3.54-6.64-8.58-10.53-16.25-10.09-9.61.55-15.75 6.32-19.53 14.52-2.75 6-4.94 12.34-5.08 19-.08 4-1.53 6.46-5.37 7.73a76.82 76.82 0 0 0-1.31-8.64c-.87-3.29.9-6.06 1.27-9.09a19.43 19.43 0 0 0-3.96-14.74c-5.88-7.66-18.1-7.74-23.06.2-6 9.61-8.48 20.41-5.17 31.32 3 9.87 5.68 15.09 15.55 13.85 2.3-.29 2.66.88 2.83 2.56.95 9.58.89 19-3.45 28-1.61 3.33-4.24 5.26-7.72 5.35-9.17.22-17.37-2-22.37-10.64-1.09-1.89-2-3.88-4.78-3.4-2.5.43-2.64 2.64-3.17 4.41-2.89 9.74.76 17.72 7.76 24 8.83 7.94 19.27 10.89 30.75 6.28s14.49-15.54 17.34-26.05c2.78-10.26 1.63-20.82 1.05-31.27 5.78.26 7.41 4.87 9.79 8.72 7.15 11.53 20.34 16.19 32.89 11.64 2-.74 4.22-1.57 4.08-4.24-.13-2.37-2.06-2.96-4.06-3.48zm-62.76-33.15c-.86-2.3-.88-3.85.83-6.08.9 2.59-.08 3.98-.83 6.08zm1-6.79c-1.35-2.55.27-3.7 1.24-5.43 1.65 2.64-.09 3.75-1.22 5.42zm43.71-4.68c.8-2.1 2.72-4.08 4.85-3.08 2.34 1.09 1.45 3.74.43 5.62-1.8 3.34-4.67 5.65-8.62 7.75 1.22-3.77 2.13-7.09 3.36-10.29z" transform="translate(-356.94 -118.57)"/><path class="cls-10" d="M543.28 539.69l-7.22-16.56c1.22.46 2.47 1.37 3.66 1.3 5.12-.32 5.38 2.66 4.7 6.43-.09 2.99 2.17 6.26-1.14 8.83z"/><path class="cls-11" d="M543.28 539.69c2-2.74.39-5.92 1.11-8.82 1.4 4.78.85 9.69 1 14.56-1.93-1.46-1.72-3.71-2.11-5.74z"/><path d="M773.93 561.75c-1.42-4-2.22-8.33-4.05-12.14-4.09-8.54-1.74-19.07-8.52-26.7 1.51-6.29-2.12-10.35-6.26-14.05a13.23 13.23 0 0 0-17.07-.77c-1.86 1.37-3.1 3.06-2.5 5.44a5 5 0 0 0 5.16 3.91c1.16 0 2.32-.26 3.49-.33 1.8-.11 4 0 4.72 1.59.89 2-.88 3.52-2.45 4.8-4.82 3.92-10.61 6.53-15.78 12.09-1.3-8.65-4.29-15.71-9.89-21.48-8.1-8.36-17.91-11.75-29.18-8.75-10.44 2.79-14.91 10.82-16.69 21-4.65 26.7.49 53.22 1.23 79.81.15 5.24 5.4 8 10.36 6.57s6-5.39 6-10.06c-.1-11.07 0-22.14 0-33.31 13.29 4.22 24.09 0 32.61-11.34 2.34 9 5.76 16.31 14.77 18.75 10.55 2.87 17.08-3.47 22.83-11 .95.81 1.72 1.41 2.42 2.08 2.17 2.09 4.52 4.21 7.65 2.26 3.38-2.18 2.22-5.32 1.15-8.37zm-60.82-19c-4.76 5.61-11.15 8.23-18 10-2 .52-3.4.28-3.14-2.37.5-5.25-1.89-10.34-1-14.52 0-6.71-1.17-13 5.54-15.7s11.85.8 16.33 5.75c5.23 5.76 5.42 10.75.27 16.81zm38.19 8.4a17.91 17.91 0 0 1-2.48 8.86c-1.26 2-2.91 4-5.41 3.91-2.88-.1-3.32-2.91-4-5-2.09-6.33-.12-12.32 5.52-17 1.77-1.49 3.68-2.81 6.44-4.9-.02 5.29.12 9.7-.07 14.1z" transform="translate(-356.94 -118.57)"/><path class="cls-12" d="M768.13 657.2c.1-7.85 3.22-14.57 7.88-20.67a9.44 9.44 0 0 1 5.79-3.61c2.34-.44 4.81 0 6.39 1.84s.58 4.05-.46 6c-4.39 8.07-11.92 12.38-19.69 16.39z" transform="translate(-356.94 -118.57)"/><path d="M536.74 691.36c-2.51-9-5.85-17.81-7.28-26.95a300.12 300.12 0 0 1-3.46-63.26c.21-3.7-1-6.64-4.37-8.16-3.49-1.6-6.76-.86-9.62 1.9-2.71 2.61-2.79 5.79-2.58 9.17.72 11.64 1.38 23.28 2.12 35.71a43.44 43.44 0 0 1-5.42-1.9c-8.21-4.24-15.07-1.06-21.48 3.93-6.2 4.83-9.92 11.42-11.91 18.9-3.33 12.53-4.05 25.4 2 37 7.3 14 27 18.75 42 11.34 3-1.5 5.64-3.42 5.82 2.28.07 2.28 1.45 4.3 4.1 3.94s3-2.53 3-4.88c0-1.79-.6-3.52 1.77-4.94 6.2-3.66 7.25-7.14 5.31-14.08zm-24.86 1.51c-4.52-.37-9.15-.73-13.61-2.19-8.68-2.84-10.42-5-10.62-14.13-.13-5.69.91-11.16 4.13-16 4.64-7 10.31-7.54 16.26-1.53a23.19 23.19 0 0 1 6.07 11c1.32 5.45 1.94 11.09 3.64 16.4 1.92 6.07-.67 7.17-5.88 6.45zM404.75 806h-8.19v-23h8.19q5.6 0 7.43 4.44a17.71 17.71 0 0 1 1.06 6.7q0 8.66-4.31 10.91a9 9 0 0 1-4.18.95zm5.87-11.81q0-6.6-3-8.23a5.93 5.93 0 0 0-2.92-.66h-5.64v18.44h5.64q5.92-.03 5.92-9.58z" transform="translate(-356.94 -118.57)"/><path d="M59.85 679.07q0-4.54 1.63-6.57t5.49-2q3.86 0 5.47 2t1.61 6.57q0 4.54-1.53 6.6t-5.57 2.06q-4 0-5.57-2.06t-1.53-6.6zm2.55 0q0 3.63.88 5.09t3.68 1.46q2.8 0 3.66-1.44t.86-5.09q0-3.65-1-5t-3.57-1.38q-2.6 0-3.58 1.38t-.93 4.93z"/><path d="M437.52 806h-2.52v-16.61h2.45v1.16a10.6 10.6 0 0 1 5.14-1.49q3.32 0 4.46 1.79t1.14 6.37v8.78h-2.45v-8.69a11.21 11.21 0 0 0-.68-4.73q-.68-1.28-2.9-1.28a8.67 8.67 0 0 0-2.24.32 11.14 11.14 0 0 0-1.81.61l-.63.3v13.47z" transform="translate(-356.94 -118.57)"/><path d="M95.01 671.18l1.46-7.26h2.59l-2.12 7.26h-2z"/><path d="M468.33 791.54h-5.27v7.93a10.69 10.69 0 0 0 .41 3.75 2 2 0 0 0 2 .9l3-.2.17 2.06a22.71 22.71 0 0 1-3.38.37q-2.59 0-3.58-1.26t-1-4.81v-8.72h-2.35v-2.16h2.35v-5.07h2.45v5.07h5.27v2.16zM486 789.05q3.35 0 4.69 1.91t1.34 6.68q0 4.78-1.67 6.72t-6.15 1.94q-1.39 0-4.61-.27l-.93-.1v-23.77h2.45v8.06a11.63 11.63 0 0 1 4.88-1.17zm-1.82 15q3.25 0 4.29-1.48t1-5a10.44 10.44 0 0 0-.83-4.93 3.13 3.13 0 0 0-3-1.41 11.6 11.6 0 0 0-3.95.73l-.66.23v11.67q2.26.22 3.15.22zM507.4 803.91l1-.1.07 2a47.66 47.66 0 0 1-6.47.53q-3.58 0-5.07-2.07t-1.49-6.45q0-8.72 6.93-8.72a6.34 6.34 0 0 1 5 1.87q1.66 1.88 1.66 5.89l-.13 1.89h-10.99a6.8 6.8 0 0 0 1 4.08 4.07 4.07 0 0 0 3.47 1.33q2.46-.05 5.02-.25zm-.9-7.2a7.2 7.2 0 0 0-1-4.31 3.78 3.78 0 0 0-3.18-1.26 4.08 4.08 0 0 0-3.32 1.33 6.69 6.69 0 0 0-1.14 4.25h8.62zM525.37 791.28q-3.62 0-3.61 2.52a1.74 1.74 0 0 0 .83 1.64 14 14 0 0 0 3.78 1 10.09 10.09 0 0 1 4.18 1.44q1.23.93 1.23 3.48a4.32 4.32 0 0 1-1.64 3.75 8.09 8.09 0 0 1-4.79 1.19 30 30 0 0 1-4.84-.46l-1-.17.13-2.16a42.24 42.24 0 0 0 5.7.56 5.72 5.72 0 0 0 2.94-.61 2.21 2.21 0 0 0 1-2.06 2.09 2.09 0 0 0-.86-2 12.75 12.75 0 0 0-3.78-1 10 10 0 0 1-4.15-1.36q-1.23-.9-1.23-3.32a4 4 0 0 1 1.71-3.58 7.41 7.41 0 0 1 4.26-1.16 34.87 34.87 0 0 1 5.07.46l.93.17-.07 2.12a43.19 43.19 0 0 0-5.79-.45zM547.29 794.39v8.49q.1 1.23 1.92 1.46l-.1 2a5.35 5.35 0 0 1-3.95-1.33 14.59 14.59 0 0 1-6 1.33 4.51 4.51 0 0 1-3.48-1.29 5.28 5.28 0 0 1-1.19-3.71 4.66 4.66 0 0 1 1.23-3.56 6.51 6.51 0 0 1 3.85-1.41l5.21-.5v-1.43a3.34 3.34 0 0 0-.73-2.42 2.69 2.69 0 0 0-2-.73 47.77 47.77 0 0 0-5.51.33l-1 .1-.1-1.89a33.43 33.43 0 0 1 6.47-.73 4.63 4.63 0 0 1 5.38 5.29zm-10.21 6.77q0 3.05 2.52 3.05a13.41 13.41 0 0 0 4.44-.76l.76-.27v-5.47l-4.91.46a3.19 3.19 0 0 0-2.16.86 3.05 3.05 0 0 0-.65 2.13zM564.94 782.16v23.84h-2.45v-1.13a10.1 10.1 0 0 1-5 1.46 7.36 7.36 0 0 1-2.32-.33 4.75 4.75 0 0 1-1.86-1.19q-1.79-1.79-1.79-6.62t1.61-7q1.61-2.14 5.32-2.14a20.86 20.86 0 0 1 4.08.43v-7.33h2.45zm-8.62 21.69a4.3 4.3 0 0 0 1.54.23 8.3 8.3 0 0 0 2.12-.31 12.61 12.61 0 0 0 1.84-.61l.66-.3v-11.25a21.48 21.48 0 0 0-3.95-.4 3.8 3.8 0 0 0-3.52 1.61 9.74 9.74 0 0 0-1 5q0 3.85 1.16 5.17a2.84 2.84 0 0 0 1.15.86z" transform="translate(-356.94 -118.57)"/><path d="M213.17 687.43v-3.71h2.72v3.71h-2.72zm.2-7.56l-.16-15.44h2.62l-.17 15.39h-2.29zM241.36 687.43h-12.63v-23h2.55v20.66h10.08v2.34z"/><path d="M612.23 803.91l1-.1.07 2a47.66 47.66 0 0 1-6.47.53q-3.58 0-5.07-2.07t-1.49-6.45q0-8.72 6.93-8.72a6.34 6.34 0 0 1 5 1.87q1.66 1.88 1.66 5.89l-.13 1.89h-10.98a6.8 6.8 0 0 0 1 4.08 4.07 4.07 0 0 0 3.47 1.33q2.46-.05 5.01-.25zm-.9-7.2a7.2 7.2 0 0 0-1-4.31 3.78 3.78 0 0 0-3.18-1.26 4.08 4.08 0 0 0-3.32 1.33 6.69 6.69 0 0 0-1.14 4.25h8.62zM626.2 791.54h-5.27v7.93a10.69 10.69 0 0 0 .41 3.75 2 2 0 0 0 2 .9l3-.2.17 2.06a22.71 22.71 0 0 1-3.38.37q-2.59 0-3.58-1.26t-1-4.81v-8.72h-2.35v-2.16h2.35v-5.07h2.45v5.07h5.27v2.16zM639 806h-2.49v-16.61h2.49v1.16a9.4 9.4 0 0 1 4.84-1.49q3.08 0 4.31 1.69a12.16 12.16 0 0 1 2.84-1.18 11 11 0 0 1 3.07-.51q3.32 0 4.46 1.77t1.14 6.38v8.79h-2.49v-8.69a11.46 11.46 0 0 0-.66-4.73q-.66-1.28-2.82-1.28a8.6 8.6 0 0 0-2.26.32 11.24 11.24 0 0 0-1.79.61l-.63.3a16.61 16.61 0 0 1 .43 4.84v8.63h-2.44v-8.56a12.21 12.21 0 0 0-.65-4.86q-.65-1.28-2.84-1.28a7.94 7.94 0 0 0-2.17.32 10.22 10.22 0 0 0-1.71.61l-.56.3v13.47zM675.54 803.91l1-.1.07 2a47.66 47.66 0 0 1-6.47.53q-3.58 0-5.07-2.07t-1.49-6.45q0-8.72 6.93-8.72a6.34 6.34 0 0 1 5 1.87q1.66 1.88 1.66 5.89l-.17 1.85h-10.94a6.8 6.8 0 0 0 1 4.08 4.07 4.07 0 0 0 3.47 1.33q2.47-.01 5.01-.21zm-.9-7.2a7.2 7.2 0 0 0-1-4.31 3.78 3.78 0 0 0-3.18-1.26 4.08 4.08 0 0 0-3.32 1.33 6.69 6.69 0 0 0-1.14 4.25h8.62zM688.31 806v-16.61h2.45v2.26a16.14 16.14 0 0 1 6.07-2.62v2.52a17.84 17.84 0 0 0-2.9.83 19.25 19.25 0 0 0-2.31 1l-.83.43v12.19h-2.49zM710.73 803.91l1-.1.07 2a47.66 47.66 0 0 1-6.47.53q-3.58 0-5.07-2.07t-1.49-6.45q0-8.72 6.93-8.72a6.34 6.34 0 0 1 5 1.87q1.66 1.88 1.66 5.89l-.13 1.89h-10.98a6.8 6.8 0 0 0 1 4.08 4.07 4.07 0 0 0 3.47 1.33q2.46-.05 5.01-.25zm-.9-7.2a7.2 7.2 0 0 0-1-4.31 3.78 3.78 0 0 0-3.18-1.26 4.08 4.08 0 0 0-3.32 1.33 6.69 6.69 0 0 0-1.14 4.25h8.62zM728.94 782.16v23.84h-2.45v-1.13a10.1 10.1 0 0 1-5 1.46 7.36 7.36 0 0 1-2.32-.33 4.75 4.75 0 0 1-1.86-1.19q-1.79-1.79-1.79-6.62t1.61-7q1.61-2.14 5.32-2.14a20.86 20.86 0 0 1 4.08.43v-7.33h2.45zm-8.62 21.69a4.3 4.3 0 0 0 1.54.23 8.3 8.3 0 0 0 2.12-.31 12.61 12.61 0 0 0 1.84-.61l.66-.3v-11.25a21.48 21.48 0 0 0-3.95-.4 3.8 3.8 0 0 0-3.52 1.61 9.74 9.74 0 0 0-1 5q0 3.85 1.16 5.17a2.84 2.84 0 0 0 1.15.86z" transform="translate(-356.94 -118.57)"/><path d="M376.81 667.07v-2.88h2.49v2.88h-2.49zm0 20.33v-16.58h2.49v16.61h-2.49z"/><path d="M741 806v-16.61h2.45v2.26a16.14 16.14 0 0 1 6.07-2.62v2.52a17.84 17.84 0 0 0-2.9.83 19.25 19.25 0 0 0-2.31 1l-.83.43v12.19h-2.48zM763.43 803.91l1-.1.07 2a47.66 47.66 0 0 1-6.47.53q-3.58 0-5.07-2.07t-1.49-6.45q0-8.72 6.93-8.72a6.34 6.34 0 0 1 5 1.87q1.66 1.88 1.66 5.89l-.13 1.89h-10.98a6.8 6.8 0 0 0 1 4.08 4.07 4.07 0 0 0 3.47 1.33q2.46-.05 5.01-.25zm-.9-7.2a7.2 7.2 0 0 0-1-4.31 3.78 3.78 0 0 0-3.18-1.26 4.08 4.08 0 0 0-3.32 1.33 6.69 6.69 0 0 0-1.14 4.25h8.62zM775.11 789.05a28.58 28.58 0 0 1 3.71.4l.8.1-.1 2a38.88 38.88 0 0 0-3.91-.3q-2.82 0-3.83 1.34t-1 5q0 3.63.95 5.06t3.93 1.43l3.91-.3.1 2.06a34.13 34.13 0 0 1-4.61.46q-3.88 0-5.36-2t-1.48-6.72q0-4.73 1.59-6.63t5.3-1.9zM792 791.54h-5.27v7.93a10.69 10.69 0 0 0 .41 3.75 2 2 0 0 0 2 .9l3-.2.17 2.06a22.71 22.71 0 0 1-3.38.37q-2.59 0-3.58-1.26t-1-4.81v-8.72h-2.35v-2.16h2.35v-5.07h2.45v5.07h5.2v2.16z" transform="translate(-356.94 -118.57)"/><path d="M443.8 670.82h2.49l4.15 14.43h1.09l4.18-14.43h2.49l-6.9 23.95h-2.49l2.16-7.36h-2.45zM460.35 679.07q0-4.54 1.63-6.57t5.49-2q3.86 0 5.47 2t1.61 6.57q0 4.54-1.53 6.6t-5.57 2.06q-4 0-5.57-2.06t-1.53-6.6zm2.55 0q0 3.63.88 5.09t3.68 1.46q2.8 0 3.66-1.44t.86-5.09q0-3.65-1-5t-3.57-1.38q-2.6 0-3.58 1.38t-.92 4.93z"/><path d="M845.88 789.39h2.49v16.61h-2.49v-1.16a9.5 9.5 0 0 1-4.88 1.46q-3.38 0-4.49-1.76t-1.11-6.5v-8.66h2.49v8.62a12.2 12.2 0 0 0 .63 4.84q.63 1.23 2.85 1.23a8.24 8.24 0 0 0 2.22-.31 10.12 10.12 0 0 0 1.72-.61l.6-.3v-13.46zM869 791.54h-5.27v7.93a10.69 10.69 0 0 0 .41 3.75 2 2 0 0 0 2 .9l3-.2.17 2.06a22.71 22.71 0 0 1-3.38.37q-2.59 0-3.58-1.26t-1-4.81v-8.72h-2.35v-2.16h2.35v-5.07h2.45v5.07h5.2v2.16z" transform="translate(-356.94 -118.57)"/><path d="M514.41 679.07q0-4.54 1.63-6.57t5.49-2q3.86 0 5.47 2t1.61 6.57q0 4.54-1.53 6.6t-5.57 2.06q-4 0-5.57-2.06t-1.53-6.6zm2.55 0q0 3.63.88 5.09t3.68 1.46q2.8 0 3.66-1.44t.86-5.09q0-3.65-1-5t-3.57-1.38q-2.6 0-3.58 1.38t-.92 4.93z"/><path d="M899.38 806h-2.49v-16.61h2.45v1.16a9.4 9.4 0 0 1 4.84-1.49q3.08 0 4.31 1.69a12.16 12.16 0 0 1 2.84-1.18 11 11 0 0 1 3.07-.51q3.32 0 4.46 1.77t1.14 6.38v8.79h-2.49v-8.69a11.46 11.46 0 0 0-.66-4.73q-.66-1.28-2.82-1.28a8.6 8.6 0 0 0-2.26.32 11.24 11.24 0 0 0-1.79.61l-.63.3a16.61 16.61 0 0 1 .43 4.84v8.63h-2.48v-8.56a12.21 12.21 0 0 0-.65-4.86q-.65-1.28-2.84-1.28a7.94 7.94 0 0 0-2.17.32 10.22 10.22 0 0 0-1.71.61l-.56.3v13.47z" transform="translate(-356.94 -118.57)"/><path d="M565.92 670.82h2.49l4.15 14.43h1.09l4.18-14.43h2.49l-6.9 23.95h-2.49l2.13-7.34h-2.45z"/><path d="M950.22 806h-2.49v-23.84h2.49v8.16a11.89 11.89 0 0 1 5.11-1.26q3.32 0 4.46 1.79t1.14 6.37v8.78h-2.49v-8.69a11.23 11.23 0 0 0-.68-4.73q-.68-1.28-2.87-1.28a11.06 11.06 0 0 0-4 .76l-.63.23v13.71z" transform="translate(-356.94 -118.57)"/><path d="M607.87 679.07q0-4.54 1.63-6.57t5.49-2q3.86 0 5.47 2t1.61 6.57q0 4.54-1.53 6.6t-5.57 2.06q-4 0-5.57-2.06t-1.53-6.6zm2.55 0q0 3.63.88 5.09t3.68 1.46q2.8 0 3.67-1.44t.86-5.09q0-3.65-1-5t-3.57-1.38q-2.6 0-3.58 1.38t-.94 4.93z"/><path d="M985.54 806h-2.49v-16.61h2.45v1.16a9.4 9.4 0 0 1 4.84-1.49q3.08 0 4.31 1.69a12.16 12.16 0 0 1 2.84-1.18 11 11 0 0 1 3.07-.51q3.32 0 4.46 1.77t1.14 6.38v8.79h-2.49v-8.69a11.46 11.46 0 0 0-.66-4.73q-.66-1.28-2.82-1.28a8.59 8.59 0 0 0-2.25.32 11.23 11.23 0 0 0-1.79.61l-.63.3a16.61 16.61 0 0 1 .43 4.84v8.63h-2.49v-8.56a12.22 12.22 0 0 0-.65-4.86q-.65-1.28-2.84-1.28a7.94 7.94 0 0 0-2.17.32 10.18 10.18 0 0 0-1.71.61l-.56.3v13.47zM1022.05 803.91l1-.1.07 2a47.66 47.66 0 0 1-6.47.53q-3.58 0-5.08-2.07t-1.49-6.45q0-8.72 6.93-8.72a6.34 6.34 0 0 1 5 1.87q1.66 1.88 1.66 5.89l-.13 1.89h-10.95a6.8 6.8 0 0 0 1 4.08 4.07 4.07 0 0 0 3.47 1.33q2.44-.05 4.99-.25zm-.9-7.2a7.2 7.2 0 0 0-1-4.31 3.78 3.78 0 0 0-3.18-1.26 4.08 4.08 0 0 0-3.32 1.33 6.69 6.69 0 0 0-1.14 4.25h8.62zM1027.53 813.33v-23.94h2.47v1.19a9.57 9.57 0 0 1 5-1.53 5.23 5.23 0 0 1 4.58 2q1.43 2 1.43 6.62t-1.67 6.62q-1.68 2-5.56 2a17.64 17.64 0 0 1-3.71-.37v7.4h-2.49zm7.06-22.06a7.72 7.72 0 0 0-2.14.33 11 11 0 0 0-1.81.66l-.63.33v11.18a25.41 25.41 0 0 0 3.58.36q2.69 0 3.76-1.53a8.83 8.83 0 0 0 1.08-5 9.19 9.19 0 0 0-1-4.91 3.23 3.23 0 0 0-2.84-1.41zM1056.71 794.39v8.49q.1 1.23 1.92 1.46l-.1 2a5.35 5.35 0 0 1-3.95-1.33 14.59 14.59 0 0 1-6 1.33 4.51 4.51 0 0 1-3.48-1.29 5.28 5.28 0 0 1-1.19-3.71 4.66 4.66 0 0 1 1.23-3.56 6.5 6.5 0 0 1 3.85-1.41l5.21-.5v-1.43a3.34 3.34 0 0 0-.73-2.42 2.69 2.69 0 0 0-2-.73 47.78 47.78 0 0 0-5.51.33l-1 .1-.1-1.89a33.44 33.44 0 0 1 6.47-.73 4.63 4.63 0 0 1 5.38 5.29zm-10.21 6.77q0 3.05 2.52 3.05a13.41 13.41 0 0 0 4.44-.76l.76-.27v-5.47l-4.91.46a3.19 3.19 0 0 0-2.16.86 3.05 3.05 0 0 0-.65 2.13zM1068 813.76q-4 0-5.56-1.08t-1.58-3.93a3.75 3.75 0 0 1 .6-2.21 9.27 9.27 0 0 1 2-1.91 2.57 2.57 0 0 1-.93-2.29 5.7 5.7 0 0 1 .83-2.09l.3-.53q-2.62-1.19-2.62-5 0-5.67 6.2-5.67a12.46 12.46 0 0 1 3 .33l.5.1 4.91-.13v2.12l-3.15-.07a4.51 4.51 0 0 1 1.09 3.32q0 3.12-1.54 4.36a7.71 7.71 0 0 1-4.86 1.24 9.16 9.16 0 0 1-1.62-.13 7 7 0 0 0-.6 1.89 1.21 1.21 0 0 0 .63 1.28 15.73 15.73 0 0 0 3.81.25 8.06 8.06 0 0 1 4.58 1q1.39 1 1.39 3.88 0 5.27-7.38 5.27zm-4.68-5.21a2.76 2.76 0 0 0 1 2.44 6.79 6.79 0 0 0 3.62.68 7.34 7.34 0 0 0 3.78-.73 2.67 2.67 0 0 0 1.14-2.44 2.39 2.39 0 0 0-.83-2.21 7.09 7.09 0 0 0-3.25-.5l-3.58-.17a5.86 5.86 0 0 0-1.48 1.39 2.78 2.78 0 0 0-.38 1.55zm.23-13.83a3.71 3.71 0 0 0 .88 2.79 4.16 4.16 0 0 0 2.9.83 4.09 4.09 0 0 0 2.88-.83 5 5 0 0 0 0-5.61 5.42 5.42 0 0 0-5.79 0 3.77 3.77 0 0 0-.84 2.83zM1089.94 803.91l1-.1.07 2a47.66 47.66 0 0 1-6.47.53q-3.58 0-5.08-2.07t-1.49-6.45q0-8.72 6.93-8.72a6.34 6.34 0 0 1 5 1.87q1.66 1.88 1.66 5.89l-.13 1.89h-10.95a6.8 6.8 0 0 0 1 4.08 4.07 4.07 0 0 0 3.47 1.33q2.44-.05 4.99-.25zm-.9-7.2a7.2 7.2 0 0 0-1-4.31 3.78 3.78 0 0 0-3.18-1.26 4.08 4.08 0 0 0-3.32 1.33 6.69 6.69 0 0 0-1.14 4.25h8.6z" transform="translate(-356.94 -118.57)"/><path d="M738.31 687.43v-3.78h2.75v3.78h-2.72zM745.47 687.43v-3.78h2.72v3.78h-2.72z"/><path class="cls-13" d="M855.7 372.63c.18-1 .34-2 .46-3 1.35-11.28-1.46-21.3-6.53-25.21-.38-2.26 3.11-8.64 2.34-10.67-2.06-5.46-4.95-7.19-9.2-10-2.56-1.72-10-1.4-13.1-1.77a18.94 18.94 0 0 0-3-.09c-.6-15.11-7.3-27-16.82-28.12a13.14 13.14 0 0 0-6.21.8 48.16 48.16 0 0 0-27.53-13.07 47.61 47.61 0 0 0-21 2.2c-.89-.14-1.78-.28-2.68-.38-26.43-3.17-51.66 4.18-67.37 21.54-1.69-.58-3 1.43-4.81 1.21a25.88 25.88 0 0 0-22.46 8.58 90.88 90.88 0 0 0-12.58 3.93 39.28 39.28 0 0 0-38 28.13 36.19 36.19 0 0 0-5.92-1.22c-15.28-1.83-29 6.2-32.33 18.29h-.2c-16.62-2-31.52 8.3-33.28 23-1.14 9.54 3.57 18.57 11.55 24.28a38.29 38.29 0 0 0 14.79 45.61c3.03 9.33 11.18 17.51 22.18 22.33 5.41 7.93 15.9 14 28.51 15.53a49.35 49.35 0 0 0 5.78.35 38.88 38.88 0 0 0 15.26 5 40.49 40.49 0 0 0 12.83-.45 28.25 28.25 0 0 0 6.77 1.69 29.17 29.17 0 0 0 19.4-4.64 12.44 12.44 0 0 0 2.9.72 12.85 12.85 0 0 0 13.28-7.85 14 14 0 0 0 10.14-6.21c5.26.51 11-1.33 12.47-4.73 3.38-.62 12-.2 14.13-1.41 16.64-.18 23.15-9.14 24.41-19.63a13.56 13.56 0 0 0 0-3 26.86 26.86 0 0 0 3.82.77c9.43 1.13 20.47-1.35 26.85-8.38 14.93-.45 26.1-8.26 33.94-18.15a43.6 43.6 0 0 0 41.21-55.98z" transform="translate(-356.94 -118.57)"/><path class="cls-14" d="M429.41 327.24l-65.49 31.57-17.44-1.38 20.73-7.07s97.06-35.34 119.67-89c17.18-40.79-31.57-81.51-31.57-81.51l18.38 19.32 20.27 11.26-1.9 13.15 6.13 6.6.94 52.3-17.9 20.73-22.62 1.88-4.71 9.42z"/><path class="cls-15" d="M665.42 364.48c.16-.9.32-1.57-1-2.16-4.57-2.09-5.43-6-2.21-9.78a57 57 0 0 1 16.55-13.54 22.3 22.3 0 0 0 2.63-1.63c6-4.43 12.69-7.25 20.49-7.45a8.08 8.08 0 0 0 2.26-.43c10.3-3.37 20.94-3.71 31.78-3.21 6.2.29 12.37.55 18.14 2.84a47.38 47.38 0 0 1 9.73 5.29c3.46 2.44 7.46 4 10.47 7.26 5.34 5.74 6.39 17.82 2.05 24.29-4.07 6.06-6.79 12.92-12 18.36-4.39 4.61-8.09 10-14.3 12.67a93 93 0 0 1-11.55 3.86c-4.6 1.29-8.55 4-13.41 4.74a73.84 73.84 0 0 1-8.47 1.2 12.32 12.32 0 0 0-6.49 1.91c-1.69 1.15-2 4.39-4.35 4.17-3.32-1.57 4.05-12.14-1.41-14.13-2.86-1-24.58-15.22-25.38-18.23-1.88-7.31-5.61-13.25-13.53-16.03zM682.81 382.07c1.27 2.92 2.11 6 3.14 9a48.37 48.37 0 0 1-2 21.88c-1.09 3.52-3.6 5.84-7.13 6.07s-4.1 2.28-4 4.83a12.56 12.56 0 0 1-12.59 13.59c-3.42.06-5.49 3.21-8.82 3.62-1.68.21-3.22 1.29-4.72 2.29a13 13 0 0 1-14.18.62 11.09 11.09 0 0 0-7.17-1c-10.21 1.89-10.65-2.06-13.23-8.6-.53-1.34-.39-3-2.4-3-5.44 0-7.52-4.07-9.62-8a25.25 25.25 0 0 1-1.33-3.4c-.44-1.25-1.17-2.22-2.57-2.27a6.87 6.87 0 0 1-5.77-3.46c-.93-1.47-1.83-1.37-3.3-.64a7.47 7.47 0 0 1-8.92-1.16c-2.83-2.52-2.42-5.41-1.14-8.5a35.38 35.38 0 0 1 4.81-8.32c2.79-3.58 5.76-7 8.21-10.85 4.62-7.19 8.3-14.16 16-16.72a57.91 57.91 0 0 1 13.15-2.76 141.66 141.66 0 0 0 14.14-1.83c5.65-1.17 4 3.72 3.78 2.54-1-5.53 2.08-1.62 7.33-2.18 10.43-1.81 26.61 3.18 32.6 7.88 2.21 1.78 3.69 5.68 5.73 10.37zm-83.92 4.57c-.8 5-.24 5.7 4.22 6.27a8.63 8.63 0 0 0 4.85-.82 85.79 85.79 0 0 0 14.57-8.59 4.66 4.66 0 0 0 1.84-4.74 4.28 4.28 0 0 0-3.17-3.44c-6.69-2.48-12.16.48-17.38 4-2.63 1.68-5.17 3.95-4.93 7.32zm62.88 25.71c.51-4-2.2-6.12-6.57-4.92a35.63 35.63 0 0 0-19.69 13.38c-1.67 2.25-1 4 1.88 4.37a22.68 22.68 0 0 0 6-.06c5.74-.76 9.94-4.53 14.32-7.82 1.72-1.3 4.39-2.15 4.06-4.95zm-8.87-39.81c-.8-.07-1.67-.57-2 .5a1.42 1.42 0 0 0 .94 1.58 15.18 15.18 0 0 0 2.65 1.34 35.86 35.86 0 0 1 18 13.73 23.66 23.66 0 0 1 2.49 4.67 1.94 1.94 0 0 0 2.71 1.16c1-.45.44-1.48.22-2.34-.45-1.79-1.85-3-2.74-4.45-5.24-8.5-13.4-12.85-22.27-16.2zM537.17 401.84c2.14 1.69 3 4.63 5.81 5.75.94.37.89 1.9 1.2 3 .83 2.86-.48 5.74.55 8.75.64 1.88-2.05 3.32-3.73 4.55-8.07 6-44.35-4.28-43.43-6.05 2.91-.33 8.49-1.4 10.7-1.8a11.85 11.85 0 0 0 8.73-5.77c2-3.21 5.28-5.36 8.49-7.37 3.68-2.37 7.7-1.74 11.68-1.06z" transform="translate(-356.94 -118.57)"/><path class="cls-16" d="M488.57 246.75c.38-.85-.3-2.71 1.57-2.23 1.37.35.43 2 1.07 2.68-.37 1.07-.63 1.92-.94 2.75-.56 1.53-1.71 3.31-3.16 2.69"/><path class="cls-13" d="M839.51 311.59a4.7 4.7 0 0 1-2.27 1.85c-4 2.18-4.77 1.83-7.61-1.66-4.39-5.39-8.2-11.31-13.56-15.82-2.53-2.13-2.54-4.55-1.87-7.32s4.05-5.76 7.2-6.23 5.38 1 7 3.52c.62 1 1.68 2.18-.54 2.65a1.14 1.14 0 0 0-.53.39c-1.32 1.5-2.88 2.95-2.18 5.25a2.59 2.59 0 0 0 2.65 2.13 4.73 4.73 0 0 0 4.36-3.59c.74-3.73 3-3.22 5.38-2.53 2.12.61 4.37 4.82 3.91 6.76-.29 1.19-1.29 1.07-2.06 1.37-1.56.59-3.14 1.45-2.42 3.31s2.56 1.74 4.22.89a9.39 9.39 0 0 0 .85-.52 2.93 2.93 0 0 1 4.34.75c1.17 1.89-.54 3.18-2 3.91a14.76 14.76 0 0 1-4.46 1.1c-1.41.2-3.25-1-3.92 1.26-.34 1.21.41 1.72 3.51 2.53z" transform="translate(-356.94 -118.57)"/><path class="cls-13" d="M445.6 322.9c-5.43 3-10.94 5.86-16.42 9.13 1.38-4.41 9.99-9.34 16.42-9.13zM393.83 355.08c.19-5.72 3.31-9.87 7.77-13.23z"/><path class="cls-13" d="M688.48 309.78l-.55-1a1.29 1.29 0 0 1 1.4.3z" transform="translate(-356.94 -118.57)"/><path class="cls-13" d="M334.28 366.91c-.37.24-.7 1-1.18.42-.32-.43.24-.87.69-1.13z"/><path class="cls-16" d="M598.89 386.64c-.25-3.37 2.29-5.6 4.93-7.36 5.21-3.47 10.68-6.43 17.38-4a4.28 4.28 0 0 1 3.17 3.44 4.66 4.66 0 0 1-1.84 4.74 85.79 85.79 0 0 1-14.53 8.63 8.63 8.63 0 0 1-4.85.82c-4.5-.57-5.06-1.25-4.26-6.27zm9-2.62c-1.71.33-3.69.57-4.08 2.65-.17.89 1.5 2 2.05 1.64 1.43-1 4.16 0 4.44-2.52.17-1.45-1.25-1.57-2.4-1.79zM661.77 412.35c.32 2.8-2.34 3.66-4.08 5-4.38 3.28-8.58 7.06-14.32 7.82a22.68 22.68 0 0 1-6 .06c-2.85-.39-3.55-2.12-1.88-4.37a35.63 35.63 0 0 1 19.69-13.38c4.4-1.25 7.1.86 6.59 4.87zm-15.23 6.65c-2.69-.41-4.47 0-5.21 2.18a1.35 1.35 0 0 0 1.52 1.93c2-.26 4.2-.55 5-2.71.52-1.46-1-1.4-1.31-1.4zM652.9 372.53c8.88 3.35 17 7.7 22.17 16.2.9 1.49 2.29 2.66 2.74 4.45.22.87.77 1.9-.22 2.34a1.94 1.94 0 0 1-2.71-1.16 23.66 23.66 0 0 0-2.49-4.67 35.86 35.86 0 0 0-18-13.73 15.18 15.18 0 0 1-2.65-1.34 1.42 1.42 0 0 1-.94-1.58c.43-1.04 1.3-.58 2.1-.51z" transform="translate(-356.94 -118.57)"/><path class="cls-13" d="M212.45 352.57c3.37 2.8 5.87 6.23 8.87 9.51-4.03-1.02-8.4-5.75-8.87-9.51zM250.96 265.43c1.15.2 2.57.32 2.41 1.77-.28 2.56-3 1.53-4.44 2.52-.55.38-2.22-.76-2.05-1.64.4-2.06 2.38-2.3 4.08-2.65z"/><path class="cls-13" d="M646.54 419c.31.06 1.83 0 1.31 1.4-.79 2.16-3 2.46-5 2.71a1.35 1.35 0 0 1-1.52-1.93c.75-2.18 2.52-2.63 5.21-2.18z" transform="translate(-356.94 -118.57)"/><path class="cls-16" d="M714.72 480.33c2.69-.12 5.3-.18 7.75-1.53 1.09-.6 2.37-1.15 3.61-.12-2.13 4.55-2.3 5.15-2 7a10.47 10.47 0 0 0 19.58 3.71c1.61-2.64 2.47-5.85 4.36-8.07a75.59 75.59 0 0 0 9.78-13.95c1.2-2.29 2.34-5.3 4.78-6a20.12 20.12 0 0 0 6.18-3.58c1.87-1.38 3.81-2.67 5.75-4 .35-.24.73-.88 1.19.11 1.32 2.84 3.25 1.82 5.22.72 1-.58 1.75-2 3.11-1.69 3.4.66 6-1 8.54-2.78a26.28 26.28 0 0 1 3.81-1.94c3.77-1.8 7.78-3.29 10.89-6.23 1.42-1.34 2.32-2.91-.79-3.51 3.75-3.4 6.16-7.64 10.29-10 1.88-1.05 6.69 1.82 9.1 1.68a3.12 3.12 0 0 0 .94-.3c6.71-2.74 13-6.17 18.2-11.33a24.37 24.37 0 0 1 11-6.5 111.54 111.54 0 0 0 19.32-6.88c5-2.3 10.63-2.38 15.69-1.76 3.95.49 5.49-.94 7.33-3.35 1.5-2 2.18-4.34 3-6.61 2-5.76-.17-12.77-4.84-16-3.3-2.29-7.21-2.19-10.65-1.63-10.13 1.66-19.9-1.62-30-1.07 3.47-7.62 3.7-8.26 2.32-13.69a60.06 60.06 0 0 1-1.44-9.19c-.29-3.08-.88-5.75-3.58-7.72-1-.72-2.29-1.69-1.34-3.58 2.16-4.29 1.36-8.61-.41-12.84-.61-1.45-1.32-3-2.73-3.7-4.1-2.08-8.93-2.34-12.78-5.16-.56-.41-2.05-.09-1.88-1.15.14-.85 1.44-.77 2.35-.76a5.86 5.86 0 0 0 5.73-3.34c1-2.47 2.89-3.63 4.79-5 4.15-3.1 4-6.53-.4-9.47a2.8 2.8 0 0 1-1.56-2.49c-.47-6.09-3.58-9.05-9.75-9.48a3.38 3.38 0 0 1-3-1.84c-2.28-3.46-5.44-6.07-9.87-5.66s-8.63 1.88-10.72 6.62c-.67 1.51-.2 3.26-1.32 5-6.75-5.29-15.18-6.61-22.55-10.71.49-.34-.55-2.16-.32-2.52 2.2-3.43 3.61-13.59 3.61-14.13 0-5.7-12.35-8.46-14.37-8.76-6.84-1-20.89 16.67-20.24 19.76.39 1.86-.27 2.39-2 3-3.73 1.22-7.61 0-11.23.87-6.54 1.62-31.36 6.93-36.75 9.74-7.63 4-15.7 7.33-21.48 14.1a6.16 6.16 0 0 1-5.91 2.23c-9.34-1.23-16.86 3.12-24.19 7.92a4 4 0 0 0-1.29 1.26 20.54 20.54 0 0 0-4.67.13c-6.16 1.16-12.69.62-18.36 4-1.55.92-3.14.71-4.83.59-7.77-.55-15.14-17.2-18.91-18-5.19-1.11-20.35 12.15-14.61 10.84 2.34-.54 11.24 31.17 14.79 27.64-.34 2.58 1.33 3.71 1.85 5.34-1 .76-1.9.23-2.7.08-8.26-1.5-16.55-1.66-24.21 2-7.19 3.44-14.07 7.65-14.92 16.78-2-.24-4-.54-6-.7a20.26 20.26 0 0 0-8.87.76c-5.72 2.06-9.9 6.1-13 10.86-5.3 8.09-7.8 18-1.77 27.55 2.14 1.69 3 4.63 5.81 5.75.94.37.89 1.9 1.2 3 .83 2.86-.48 5.74.55 8.75.64 1.88-2.05 3.32-3.73 4.55a37.89 37.89 0 0 0 2.91 18.83c2.35 5.49 4.89 11.06 10.62 13.91 3 1.5 4.74 3.87 6.82 6.34a21.2 21.2 0 0 1 4.48 10.18 8.29 8.29 0 0 0 1.28 2.64c3.73 6.3 10.51 8.81 15.94 13 4.11 1.07 7.52 3.85 11.87 4.54a54 54 0 0 1 7.42 1.65c3.47 1.07 3-2 3.32-4.05-4.57-.6-8.51-1.92-12.1-5.43a55.57 55.57 0 0 0-10.34-8.56c-3.71-2.19-8.88-4.18-9.23-10 0-.61-.86-1.83-1.59-.94-1.47 1.78-2.33.85-3.23-.36-1.2-1.61-.07-2.37 1.21-3.06a1.89 1.89 0 0 0 1.17-1.86c-.1-1.35-1.29-.9-2-1.21-3.77-1.53-7.57-2.88-10.78-5.61-4-3.4-6.19-7.83-8.62-12.32-5.08-9.38-4.87-19.09-3.21-29.11.32-1.92 1-2 2.65-1.51a19.62 19.62 0 0 0 8 1.42c-1.62-2-3.55-1.38-5-2.08-1.73-.85-5.16-.47-3.4-4.21a.75.75 0 0 0-.51-1.06c-2.68-.38-1.68-1.64-.64-2.78.66-.72 1.89-1.32.75-2.35s-2.26-.5-3.21.55c-1.2 1.32-1.46 3.05-1.86 4.85-4.32-4.22-6.67-8-7-12.65-.75-9.74 3.58-17.25 10.77-23.45 4.51-3.88 9.47-4.58 15.22-3.58 4.5.78 8.85 2.52 14.12 2.39-1.42-.92-2.35-1.63-3.36-2.16-1.67-.86-4.05-.85-3.56-3.86.34-2.05.78-4.11 2.41-5.33s2.81-2.92 4.43-4c3.4-2.21 6.78-4.94 10.9-5.34 5.17-.5 10.4-.78 15.61.24s10.17 2.27 12.58 7.9c.55 1.28 1.48 2.38 1.81 3.84a1.81 1.81 0 0 0 2.22 1.54c1.23-.34 1.71-1.18 1.24-2.56a20.14 20.14 0 0 0-4.69-8.15c-3-3-3.12-3.87-.58-7.2a9 9 0 0 0 2.24-5.43c0-2.86 1.54-5 3.27-7.09 3.32-4 7.73-6.59 12.14-9.1a12.92 12.92 0 0 1 7.7-1.51c3.57.38 12.48-3.6 12.77-3.32 1.55 1.46 8.22-5.67 9.7-6.49 7.46-4.11 26.3-3.77 25.29-4.95 3.56-1.84 7.16-3.52 10.59-5.51a92.36 92.36 0 0 1 24.29-10.17c10-2.44 20-4.6 30.38-5 15-.57 29.74-.38 43.72 6.09a22.17 22.17 0 0 1 6.26 4.26c.95.92 1.92 2.14 3.09 2.44 2.76.72 4.12 2.7 5.63 4.8s2.13 4.94 4.76 6.23c3.43 1.69 7.47 9.28 6.74 13-.85 4.31 2.88 8.23 5 4.41 1.05-1.92 6.13-4 7.5-2.4 3.76 4.3 12.39 2.68 13.06 11.5.13 1.78-5.07 5.67-6.16 6.49-1.94 1.46-3.93 2.86-5.94 4.23-1.15.78-1.88 1.77-1.12 3.05.86 1.45 2.3 1.25 3.51.48a31.1 31.1 0 0 0 3.38-2.7c.76-.65 1.46-1.58 2.57-1.23 1.46.46.24 1.72.58 2.56s.15 2.2 1.23 2.59c1.44.52 1.79-.92 2.46-1.73a2.5 2.5 0 0 1 .66-.4c1.55 5.91 2.87 11.6.31 17.52-1.27 2.94 1 3.12 3.46 2.42a29 29 0 0 1-11.6 15.08c1.78 1 3.56 0 6.14-.3-1.78 2.75-3.89 4.65-3.68 7.46s2.68 4.73 3.8 7.21a2.9 2.9 0 0 1 .43 1.24c-.09 1.18-1 3-1.48 2.85-3.85-1.12-3.09 1.88-3.17 3.6-.13 2.47 0 4.84-1.66 7-1.3 1.73-3.31 2.62-4.68 4.14a13.94 13.94 0 0 1-11.18 4.78c-3.08-.07-11.67-.79-12.16-.42-3.25 2.43-3.86 6.47-6.05 9.43-3.66 4.94-8.64 8.07-15.22 7.55a37.34 37.34 0 0 1-9.4-2.14c-1.43-.5-3.16-.55-4 .73s.94 2 1.63 3a10.06 10.06 0 0 0 1.89 1.88c1.43 1.11 1.21 2.21.1 3.34a5.7 5.7 0 0 1-2.87 2c-.21-.46-.43-.85-.57-1.26-1.26-3.72-2.25-4-5.33-1.48a69.25 69.25 0 0 1-8 5.93 19.82 19.82 0 0 1-9 3c-1.21.06-2.21.08-2.93-1.47a9.8 9.8 0 0 0-9.54-6c-4 .11-7.43 1.73-9.28 5.8-2.37 5.25-4.48 10.59-6.47 16-1.07 2.9-1.62 6.2-4.55 8.1l-8.08 3c2.23-2.46-12.1-4.49-20-.22-.92.5-6.13 7.2-7 7.63-.37.24-.7 1-1.18.42-.32-.43.24-.87.69-1.13.67-1.54-.18-4.12 2.08-4.51 4.46-.77 8.23-3.26 12.14-5.06 11.42-5.23 20.25-16.3 15.24-31.31a3.23 3.23 0 0 1-.06-2.56c3.1-6.83 1.35-12.93-3-18.59-3.82-1.89-6.67-5.49-11.28-6 2.38-3.66 3.43-7.23 2.69-11.32-1.4-7.67-7.32-10.58-13.6-13-3.29-1.25-5.91-2.83-6.8-6.5-2.15-8.87-6.41-16.1-15.52-19.43-8.33-4.32-17.07-6.95-26.55-6.12-3.72.32-8.06-2.79-9.35-1.79-2.15-5.28-13.24-8.47-12.48-8.17a24.5 24.5 0 0 1 10.5 8.27c1.08 1.41-.34 4.78 1.46 5.21 2.07.5.39 2.47.81 3.73.3.91 2.19-3.24 7.45-3.8 7.72-.81 15 .89 22 3.68 2.65.24 4.66 1.79 6.71 3.25 5.16 2.09 7.57 6.6 9.61 11.29 1.27 2.92 2.11 6 3.14 9 2.29 1.47 8.17 5.14 8.17 5.14 4.38 1.54 8.74 3 10.4 8.11 1 3.09 1 6-.92 8.7 0 2.23-4.15 2.93-2.43 5.55 1.27 1.93 4 1.47 6.07 2.31a4 4 0 0 0 .62.25c4.15.93 6.55 4 8.73 7.26a8.2 8.2 0 0 1-1.28 10.63 1.75 1.75 0 0 0-.62 1.07c1.53 2.1 0 5 1.74 6.94 1.43 1.58 1.43 3.4 1.33 5.3-.44 8.46-5.48 13.84-12 18.44-4.5 3.19-9.72 4.79-14.52 7.29-3.47 1.81-4.12 4.95-3.53 7.82.4 2-.26 2.42-1.3 3.15-5.36 3.79-11.81 5.49-17.33 9a7.59 7.59 0 0 1-1.6.29c-4.8 1.56-9.72.85-14.57.56-7.21-.42-14.49.66-21.63-1.07-1.61 1.08-3.38 1.94-4.67 3.45 2.42.37 4.83.82 7.26 1.1 8.86 1 17.79 0 26.68.77 2.25.2 4.69.74 6.94-.28 6.27-2.83 33.59-21.83 39.31-25.45m-128.46 3.28c-4-1-8.41-5.75-8.87-9.51 3.37 2.79 5.88 6.22 8.87 9.5zm251.37-168.88c-4.39-5.39-8.2-11.31-13.56-15.82-2.53-2.13-2.54-4.55-1.87-7.32s4.05-5.76 7.2-6.23 5.38 1 7 3.52c.62 1 1.68 2.18-.54 2.65a1.14 1.14 0 0 0-.53.39c-1.32 1.5-2.88 2.95-2.18 5.25a2.59 2.59 0 0 0 2.65 2.13 4.73 4.73 0 0 0 4.36-3.59c.74-3.73 3-3.22 5.38-2.53 2.12.61 4.37 4.82 3.91 6.76-.28 1.19-1.29 1.07-2.06 1.37-1.56.59-3.14 1.45-2.42 3.31s2.56 1.74 4.22.89a9.41 9.41 0 0 0 .85-.52 2.93 2.93 0 0 1 4.34.75c1.17 1.89-.54 3.18-2 3.91a14.76 14.76 0 0 1-4.46 1.1c-1.41.2-3.25-1-3.92 1.26-.36 1.22.39 1.72 3.49 2.54a4.7 4.7 0 0 1-2.27 1.85c-3.93 2.16-4.75 1.82-7.59-1.67z" transform="translate(-356.94 -118.57)"/><path class="cls-15" d="M585.52 497.41c4.11 1.07 20-4.41 20.36-6.42a16.18 16.18 0 0 1 12.84-9.83c5.48-.85 17.36 6.69 13.72 13.92-4.63 9.18-16.91 13.38-21.92 13-11.69-.84-27.41-6.92-25-10.67z" transform="translate(-356.94 -118.57)"/></svg>