<svg xmlns="http://www.w3.org/2000/svg" viewBox="0 0 310.12 339.66"><defs><style>.cls-1{fill:#39ffb3;}</style></defs><g id="Layer_2" data-name="Layer 2"><g id="Layer_1-2" data-name="Layer 1"><path class="cls-1" d="M267.37,302.73a64,64,0,0,0,5.82-90.33L141.4,62.48A64.15,64.15,0,0,0,86.59,41.09h0A64,64,0,0,0,45.27,147L177.05,296.91a64,64,0,0,0,90.32,5.82Z"/><path d="M289,198.54,157.18,48.62A85,85,0,0,0,45.53,34.45L18.39,3.57A10.5,10.5,0,0,0,2.61,17.43l27.16,30.9a85,85,0,0,0-.28,112.52L161.27,310.77a85,85,0,0,0,120,7.73h0A85,85,0,0,0,289,198.54Zm-15.66,14-74.25-4.85a10.28,10.28,0,0,0-1.24,0l-33.5-38.11,66,4.58a11.27,11.27,0,0,0,1.84,0,10.43,10.43,0,0,0,5.4-2.22l35.61,40.5A.76.76,0,0,0,273.3,212.54ZM77.19,183.31s0-.05,0-.08l7.66-67.95A10.45,10.45,0,0,0,92,119.16l30.42,34.61a11.41,11.41,0,0,0-.2,1.46l-4.42,74.31Zm113.65-62.22a9.4,9.4,0,0,0,1.77-.35l27.84,31.67-75.85-5.25-24.07-27.39,69,1.38A11.45,11.45,0,0,0,190.84,121.09Zm-104.25-80h0A64.15,64.15,0,0,1,141.4,62.48l32.84,37.36-72.51-1.45-42.19-48A63.24,63.24,0,0,1,86.59,41.09ZM43.77,64.26l22.83,26c-.06.3-.11.61-.15.92l-8,70.85L45.27,147A64.1,64.1,0,0,1,43.77,64.26ZM137.53,252l4.52-75.9,49.6,56.43a10.06,10.06,0,0,0-.2,1.46l-4.31,72.21a63.89,63.89,0,0,1-10.09-9.25Zm70.05,64.23,3.66-61.41L258.91,309a63.39,63.39,0,0,1-27,9.3A64.3,64.3,0,0,1,207.58,316.19ZM289,258.77a63.5,63.5,0,0,1-14.3,36.37l-57.32-65.21,65.83,4.3a10.79,10.79,0,0,0,1.8,0c.25,0,.51-.07.76-.12A63.82,63.82,0,0,1,289,258.77Z"/></g></g></svg>