<svg id="Layer_1" data-name="Layer 1" xmlns="http://www.w3.org/2000/svg" xmlns:xlink="http://www.w3.org/1999/xlink" width="421.2" height="100.6" viewBox="0 0 421.2 100.6"><defs><style>.cls-1{fill:none;}.cls-2{clip-path:url(#clip-path);}.cls-3{font-size:90.39px;fill:#231f20;font-family:HelveticaInseratCyr-Upright, Helvetica Inserat Cyrillic Upri;}</style><clipPath id="clip-path" transform="translate(-149.8 -437.4)"><rect class="cls-1" x="426.9" y="442.8" width="42" height="76.9"/></clipPath></defs><title>linkedin-logo</title><path d="M571.1,489v26.6H555.6V490.8c0-6.2-2.2-10.5-7.8-10.5a8.4,8.4,0,0,0-7.9,5.6,10.6,10.6,0,0,0-.5,3.8v25.9H524s.2-42.1,0-46.4h15.4V476h.1v-.2c2.1-3.2,5.7-7.7,13.9-7.7,10.2,0,17.8,6.6,17.8,20.9Zm-63.3-42.2c-5.3,0-8.7,3.5-8.7,8s3.4,8,8.5,8h.1c5.4,0,8.7-3.6,8.7-8s-3.3-8-8.6-8ZM500,515.7h15.4V469.2H500Zm0,0" transform="translate(-149.8 -437.4)"/><g class="cls-2"><path d="M466.9,442.7H457c-11.2,0-18.4,7.4-18.4,18.9v8.7h-10a1.6,1.6,0,0,0-1.6,1.6v12.6a1.6,1.6,0,0,0,1.6,1.6h10V518a1.6,1.6,0,0,0,1.6,1.6h13.1a1.6,1.6,0,0,0,1.6-1.6V486.1h11.7a1.6,1.6,0,0,0,1.6-1.6V471.9a1.6,1.6,0,0,0-.5-1.1,1.6,1.6,0,0,0-1.1-.5H454.7V463c0-3.6.8-5.4,5.5-5.4h6.7a1.6,1.6,0,0,0,1.6-1.6V444.3a1.6,1.6,0,0,0-1.6-1.6Zm0,0" transform="translate(-149.8 -437.4)"/></g><path d="M310.7,503.8V489.4h-6c-4.7,0-4.1.6-4.1-4.1,0-2.5,0-5.1,0-7.6s.4-1.7,1.6-1.7h22.1c1.2,0,1.7.4,1.7,1.7q0,17.2,0,34.4a1.8,1.8,0,0,1-1,1.7,36.6,36.6,0,0,1-13.9,4.6,48,48,0,0,1-18.6-1.1c-9.5-2.6-15.6-8.7-18.6-18-2.3-7.2-2.6-14.5-2.2-22a51,51,0,0,1,3.2-16.1c3.8-9.5,10.8-15.2,20.9-16.6a53.4,53.4,0,0,1,23.4,1.5c4.1,1.2,4.1,1.3,3.1,5.5l-1.7,7.2c-.4,1.9-.6,2-2.4,1.4a38.8,38.8,0,0,0-17.6-1.3c-6.6,1-10.5,5.2-12.2,11.5a42.5,42.5,0,0,0-1.1,15.6,40.8,40.8,0,0,0,1.4,8c2.2,7.2,6.9,10.6,14.4,10.5C305.7,504.2,308.2,504,310.7,503.8Z" transform="translate(-149.8 -437.4)"/><path d="M361.9,481.7h-6.3c-1.1,0-1.7-.3-1.6-1.6s0-5,0-7.5a1.4,1.4,0,0,1,1.3-1.6l5.3-1.3c1-.2,1.5-.6,1.5-1.8-.1-3.6,0-7.2,0-10.9,0-1.9,0-1.9,1.8-1.9h11.4c1.8,0,1.8,0,1.8,1.8q0,5.1,0,10.2V469h8.6c2.2,0,2.3.1,2.3,2.4s0,5.8,0,8.7c0,1.2-.4,1.7-1.7,1.7h-9.2c0,.5-.1,1-.1,1.4q0,8.8,0,17.6c0,3.2,1.4,4.9,4.6,5.3a34.3,34.3,0,0,0,4.8,0c1.4,0,1.7.2,1.7,1.6s0,5.5,0,8.3c0,.8-.2,1.3-1,1.5a26.9,26.9,0,0,1-15.5,0c-5.4-1.7-8.2-5.6-9.1-11a31.7,31.7,0,0,1-.3-4.9c0-6.1,0-12.2,0-18.2Z" transform="translate(-149.8 -437.4)"/><path d="M349.2,493.2q0,10.9,0,21.7c0,2.1-.3,2.4-2.4,2.4H336.4c-2,0-2.4-.4-2.4-2.4q0-21.9,0-43.8c0-1.8.2-2.1,2.1-2.1h11.2c1.7,0,1.9.2,1.9,2Q349.2,482.1,349.2,493.2Z" transform="translate(-149.8 -437.4)"/><path d="M341.8,465.1a8.5,8.5,0,1,1,8.4-8.4A8.4,8.4,0,0,1,341.8,465.1Z" transform="translate(-149.8 -437.4)"/><text class="cls-3" transform="translate(0 81.3)">@</text></svg>