<svg xmlns="http://www.w3.org/2000/svg" width="16.92" height="24.17" viewBox="0 0 16.92 24.17"><defs><style>.cls-1{fill:#d14a4a;}.cls-2{fill:none;stroke:#000;stroke-linecap:round;stroke-linejoin:round;stroke-width:0.8px;}</style></defs><title>location</title><g id="_Group_"><path class="cls-1" d="M3.05 3.09a7.58 7.58 0 0 1 10.72 0 8.72 8.72 0 0 1 .69 10.77l-6.05 8.74-6.06-8.76a8.7 8.7 0 0 1 .7-10.75zm5.36 2.91a2.52 2.52 0 1 0 2.52 2.52 2.52 2.52 0 0 0-2.52-2.52z" transform="translate(.02 .01)"/><path d="M14.46 13.86a8.72 8.72 0 0 0-.69-10.77 7.58 7.58 0 0 0-10.72 0 8.7 8.7 0 0 0-.71 10.75l6.07 8.76zm0-11.39a9.64 9.64 0 0 1 .79 11.91l-6.81 9.77-6.78-9.79a9.64 9.64 0 0 1 .8-11.89 8.46 8.46 0 0 1 11.97-.01z" transform="translate(.02 .01)"/><circle class="cls-2" cx="8.43" cy="8.53" r="2.52"/></g></svg>