<svg xmlns="http://www.w3.org/2000/svg" viewBox="0 0 166.61 36"><defs><style>.cls-1{isolation:isolate;}.cls-2{fill:#2d2d2d;}.cls-3{fill:#4665af;}</style></defs><g id="Layer_2" data-name="Layer 2"><g id="Layer_1-2" data-name="Layer 1"><g id="geckhong." class="cls-1"><g class="cls-1"><path class="cls-2" d="M15.16,8l1-.61c.15-.74-.14-1.12-.86-1.12-1,0-1.55.8-1.55,2.38A11.55,11.55,0,0,0,14,10.8a5.47,5.47,0,0,1,2.74,4.7,5.35,5.35,0,0,1-2,4.44A8.33,8.33,0,0,1,9.4,21.53a15.78,15.78,0,0,1-2.92-.29c-1.06.67-1.58,1.18-1.58,1.51s.76.51,2.3.51h3.67q8.18,0,8.17,5.86a6,6,0,0,1-2.46,5Q14.11,36,8.89,36,0,36,0,32.15c0-1.39.92-2.35,2.77-2.88l2.16,1a7.59,7.59,0,0,0-.29,2c0,2.06,1.54,3.1,4.61,3.1a7.53,7.53,0,0,0,4.32-1,3.07,3.07,0,0,0,1.51-2.59,2.18,2.18,0,0,0-.91-2.07,8.44,8.44,0,0,0-3.66-.52H7a7,7,0,0,1-4.18-1,2.94,2.94,0,0,1-1.26-2.4,3.3,3.3,0,0,1,.9-2.37A15.94,15.94,0,0,1,5.69,21a5.21,5.21,0,0,1-4.18-5.47,5.44,5.44,0,0,1,2-4.36C4.75,10.06,6.7,9.5,9.29,9.5a8.23,8.23,0,0,1,4,.9,8.31,8.31,0,0,1-.21-1.76,3.61,3.61,0,0,1,1.08-2.92,3.67,3.67,0,0,1,2.41-.9,3.14,3.14,0,0,1,2.14.71,2.4,2.4,0,0,1,.81,1.92,2.33,2.33,0,0,1-.65,1.82,2.2,2.2,0,0,1-1.56.59,2.32,2.32,0,0,1-1.51-.48A1.78,1.78,0,0,1,15.16,8ZM7.52,14.72v2a8.46,8.46,0,0,0,.42,3.27,1.33,1.33,0,0,0,1.26.87A1.26,1.26,0,0,0,10.42,20a10.16,10.16,0,0,0,.38-3.47V14.72A11.89,11.89,0,0,0,10.44,11a1.25,1.25,0,0,0-1.21-.88A1.36,1.36,0,0,0,8,11.07,9.91,9.91,0,0,0,7.52,14.72Z"/><path class="cls-2" d="M20.93,25a9.21,9.21,0,0,1-2.32-6.66,8.19,8.19,0,0,1,2.61-6.54A9.78,9.78,0,0,1,27.86,9.5q8.18,0,7.85,8.21H25.56v1.41a12.28,12.28,0,0,0,.9,5.32,3.2,3.2,0,0,0,3.13,1.8c2.79,0,4.61-1.48,5.47-4.46l.65.11a7.49,7.49,0,0,1-2.46,4,8.39,8.39,0,0,1-5.35,1.44Q23.25,27.36,20.93,25Zm4.67-8h3.7V15.23a15.13,15.13,0,0,0-.34-4,1.34,1.34,0,0,0-1.37-1.06,1.61,1.61,0,0,0-1.51,1.13,11.12,11.12,0,0,0-.48,3.91Z"/><path class="cls-2" d="M47.09,10.15a2.35,2.35,0,0,0-2.27,1.73,16.87,16.87,0,0,0-.69,5.72v1.88a12,12,0,0,0,.8,5.11,3,3,0,0,0,2.91,1.55,4.28,4.28,0,0,0,3.39-1.44,7,7,0,0,0,1.62-3.28l.65.07A7.33,7.33,0,0,1,51,26a8.47,8.47,0,0,1-5.15,1.4,8.63,8.63,0,0,1-6.41-2.25q-2.23-2.25-2.23-6.59a8.61,8.61,0,0,1,2.54-6.68A10,10,0,0,1,46.8,9.5a8.15,8.15,0,0,1,4.89,1.25,3.72,3.72,0,0,1,1.7,3.11,3.92,3.92,0,0,1-.81,2.74,2.94,2.94,0,0,1-2.23.86,3.32,3.32,0,0,1-2.29-.76,2.78,2.78,0,0,1-.87-2.23,4.43,4.43,0,0,1,.19-1.29h1.18a4,4,0,0,0,.25-1.3A1.52,1.52,0,0,0,47.09,10.15Z"/><path class="cls-2" d="M65.81,27v-.65h1.65L63.4,18l-.69.18v8.17h1.66V27H54v-.65h2V.65H53.89V0h8.82V17.46l.58-.22,8.1-6.73H68V9.86h7.09v.65H72.57l-4.28,3.64,6.23,12.2h1.29V27Z"/><path class="cls-2" d="M76.35,0H85V13.18a5.94,5.94,0,0,1,1.76-2.67,5.5,5.5,0,0,1,3.6-1q5.58,0,5.58,6V26.35h2V27H87.8v-.65h1.48V14.65A8.34,8.34,0,0,0,89,11.86a1,1,0,0,0-1-.63,2.49,2.49,0,0,0-2,1.51A7.19,7.19,0,0,0,85,16.42v9.93h1.55V27H76.35v-.65h2V.65h-2Z"/><path class="cls-2" d="M101.12,25.06a9,9,0,0,1-2.3-6.61,8.65,8.65,0,0,1,2.46-6.62,9.73,9.73,0,0,1,6.93-2.33q4.47,0,6.66,2.15t2.2,6.53q0,9.18-9.14,9.18Q103.43,27.36,101.12,25.06Zm9-5.15V16.85a24.65,24.65,0,0,0-.38-5.1c-.25-1.06-.83-1.6-1.75-1.6a1.79,1.79,0,0,0-1.27.45,2.77,2.77,0,0,0-.71,1.5,28,28,0,0,0-.32,4.93v2.81a26.36,26.36,0,0,0,.23,4.71,8.36,8.36,0,0,0,.49,1.3,1.54,1.54,0,0,0,1.55.86,1.83,1.83,0,0,0,1.83-1.62A24.38,24.38,0,0,0,110.16,19.91Z"/><path class="cls-2" d="M118.15,9.86h8.68v3.32a5.94,5.94,0,0,1,1.76-2.67,5.46,5.46,0,0,1,3.6-1q5.58,0,5.58,6V26.35h2V27H129.6v-.65h1.47V14.65a8.43,8.43,0,0,0-.28-2.79,1.06,1.06,0,0,0-1-.63c-.77,0-1.44.51-2,1.51a7.19,7.19,0,0,0-.88,3.68v9.93h1.54V27H118.15v-.65h2V10.51h-2Z"/><path class="cls-2" d="M154.69,8l1-.61c.14-.74-.15-1.12-.87-1.12-1,0-1.54.8-1.54,2.38a10.77,10.77,0,0,0,.25,2.16,5.48,5.48,0,0,1,2.73,4.7,5.35,5.35,0,0,1-2,4.44,8.31,8.31,0,0,1-5.36,1.59,15.78,15.78,0,0,1-2.92-.29c-1,.67-1.58,1.18-1.58,1.51s.77.51,2.3.51h3.68q8.16,0,8.17,5.86a6,6,0,0,1-2.47,5Q153.65,36,148.43,36q-8.9,0-8.9-3.85c0-1.39.93-2.35,2.78-2.88l2.16,1a7.19,7.19,0,0,0-.29,2c0,2.06,1.53,3.1,4.61,3.1a7.53,7.53,0,0,0,4.32-1,3.09,3.09,0,0,0,1.51-2.59,2.18,2.18,0,0,0-.92-2.07,8.39,8.39,0,0,0-3.65-.52h-3.5a7,7,0,0,1-4.17-1,2.94,2.94,0,0,1-1.26-2.4,3.3,3.3,0,0,1,.9-2.37,16.11,16.11,0,0,1,3.2-2.36,5.21,5.21,0,0,1-4.17-5.47A5.43,5.43,0,0,1,143,11.16c1.3-1.1,3.24-1.66,5.83-1.66a8.29,8.29,0,0,1,4,.9,7.76,7.76,0,0,1-.22-1.76,3.61,3.61,0,0,1,1.08-2.92,3.68,3.68,0,0,1,2.41-.9,3.17,3.17,0,0,1,2.15.71,2.4,2.4,0,0,1,.81,1.92,2.36,2.36,0,0,1-.65,1.82,2.22,2.22,0,0,1-1.57.59,2.33,2.33,0,0,1-1.51-.48A1.78,1.78,0,0,1,154.69,8Zm-7.63,6.73v2a8.72,8.72,0,0,0,.41,3.27,1.34,1.34,0,0,0,1.26.87A1.27,1.27,0,0,0,150,20a10.24,10.24,0,0,0,.37-3.47V14.72A11.89,11.89,0,0,0,150,11a1.25,1.25,0,0,0-1.2-.88,1.38,1.38,0,0,0-1.28.92A10,10,0,0,0,147.06,14.72Z"/></g><g class="cls-1"><path class="cls-3" d="M163.42,27.36a2.91,2.91,0,0,1-2.34-.92,3.31,3.31,0,0,1-.77-2.23,3.17,3.17,0,0,1,.81-2.21,2.91,2.91,0,0,1,2.28-.9,3.43,3.43,0,0,1,2.34.75,2.85,2.85,0,0,1,.87,2.27,3.35,3.35,0,0,1-.81,2.38A3.14,3.14,0,0,1,163.42,27.36Z"/></g></g></g></g></svg>