<?xml version="1.0" encoding="utf-8"?>
<!-- Generator: Adobe Illustrator 23.0.1, SVG Export Plug-In . SVG Version: 6.00 Build 0)  -->
<svg version="1.1" id="Layer_1" xmlns="http://www.w3.org/2000/svg" xmlns:xlink="http://www.w3.org/1999/xlink" x="0px" y="0px"
	 viewBox="0 0 56 70" style="enable-background:new 0 0 56 70;" xml:space="preserve">
<style type="text/css">
	.st0{fill:#FFFFFF;}
	.st1{fill:#16FFAA;}
</style>
<polygon points="51.9,70 4.8,70 0,65.8 0,0 56,0 56,66.1 "/>
<title>logov6</title>
<path class="st0" d="M14.8,19h14c0.9,0,1.7,0.8,1.7,1.7l0,0c0,0.9-0.8,1.7-1.7,1.7h-14c-0.9,0-1.7-0.8-1.7-1.7l0,0
	C13.2,19.8,13.9,19,14.8,19z"/>
<path class="st0" d="M23.4,13.1v31.7c0,0.9-0.7,1.6-1.6,1.6l0,0c-0.9,0-1.6-0.7-1.6-1.6V13.1c0-0.9,0.7-1.6,1.6-1.6l0,0
	C22.7,11.5,23.4,12.2,23.4,13.1z"/>
<path class="st0" d="M24.3,21.8l5.4,5.4c0.7,0.7,0.7,1.7,0,2.4l0,0c-0.7,0.7-1.7,0.7-2.4,0l-5.4-5.4c-0.7-0.7-0.7-1.7,0-2.4l0,0
	C22.6,21.1,23.6,21.1,24.3,21.8z"/>
<path class="st0" d="M21.9,24.2l-5.4,5.4c-0.7,0.7-1.7,0.7-2.4,0l0,0c-0.7-0.7-0.7-1.7,0-2.4l5.4-5.4c0.7-0.7,1.7-0.7,2.4,0l0,0
	C22.6,22.5,22.6,23.5,21.9,24.2z"/>
<path class="st0" d="M28.4,19h14c0.9,0,1.7,0.8,1.7,1.7l0,0c0,0.9-0.8,1.7-1.7,1.7h-14c-0.9,0-1.7-0.8-1.7-1.7l0,0
	C26.7,19.8,27.5,19,28.4,19z"/>
<path class="st0" d="M37,13.1v31.7c0,0.9-0.7,1.6-1.6,1.6l0,0c-0.9,0-1.6-0.7-1.6-1.6V13.1c0-0.9,0.7-1.6,1.6-1.6l0,0
	C36.3,11.5,37,12.2,37,13.1z"/>
<path class="st0" d="M37.9,21.8l5.4,5.4c0.7,0.7,0.7,1.7,0,2.4l0,0c-0.7,0.7-1.7,0.7-2.4,0l-5.4-5.4c-0.7-0.7-0.7-1.7,0-2.4l0,0
	C36.1,21.1,37.2,21.1,37.9,21.8z"/>
<path class="st0" d="M35.5,24.2l-5.4,5.4c-0.7,0.7-1.7,0.7-2.4,0l0,0c-0.7-0.7-0.7-1.7,0-2.4l5.4-5.4c0.7-0.7,1.7-0.7,2.4,0l0,0
	C36.1,22.5,36.1,23.5,35.5,24.2z"/>
<polygon class="st1" points="33.5,40.6 28.7,43.4 28.7,43.4 28.7,48.5 33.5,45.8 "/>
<path class="st1" d="M28.7,36.7v5.6l4.8-2.7v-4.2c0-0.5-0.1-0.9-0.2-1.3L28.7,36.7L28.7,36.7z"/>
<polygon class="st1" points="27.7,43.6 23,40.8 23,46 27.7,48.7 "/>
<path class="st1" d="M27.7,42.4v-5.6l-4.6-2.7C23,34.5,23,34.9,23,35.3v4.4L27.7,42.4z"/>
<path class="st1" d="M27.7,35.7v-5.6c-1.9,0.2-3.5,1.4-4.3,3.1L27.7,35.7z"/>
<path class="st1" d="M28.7,49.7L28.7,49.7v13.2c2.7-0.2,4.8-2.5,4.8-5.2V46.9L28.7,49.7z"/>
<path class="st1" d="M28.7,35.5L33,33c-0.8-1.7-2.4-2.8-4.3-2.9V35.5z"/>
<path class="st1" d="M27.7,49.9L23,47.1v10.5c0,2.7,2.1,4.9,4.7,5.2V49.9z"/>
</svg>
