<svg xmlns="http://www.w3.org/2000/svg" width="500" height="500" viewBox="0 0 500 500"><defs><style>.cls-1,.cls-12,.cls-4{fill:none;}.cls-2{clip-path:url(#clip-path);}.cls-13,.cls-3{fill:#f9c6ce;}.cls-4{stroke:#f1f2f2;}.cls-12,.cls-13,.cls-4,.cls-7,.cls-8{stroke-miterlimit:10;}.cls-13,.cls-4{stroke-width:2px;}.cls-5{fill:#fff;}.cls-6{fill:url(#linear-gradient);}.cls-7{fill:#cae6ca;stroke-width:1.5px;}.cls-7,.cls-8{stroke:#fff;}.cls-8{fill:#b1c9b1;}.cls-9{fill:#342f54;}.cls-10{fill:#facbd6;}.cls-11{fill:#fefefe;}.cls-12{stroke:#342f54;stroke-linecap:round;stroke-width:11px;}.cls-13{stroke:#f9c6ce;}</style><clipPath id="clip-path"><circle class="cls-1" cx="240.15" cy="204.29" r="185.61"/></clipPath><linearGradient id="linear-gradient" x1="326.96" y1="210.94" x2="349.79" y2="132.46" gradientUnits="userSpaceOnUse"><stop offset="0" stop-color="#342f54"/><stop offset=".13" stop-color="#483e60"/><stop offset=".41" stop-color="#7b6580"/><stop offset=".8" stop-color="#cca4b2"/><stop offset="1" stop-color="#f9c6ce"/></linearGradient></defs><title>mehmehv3_back</title><g class="cls-2" id="Layer_5_copy"><circle class="cls-3" cx="240.15" cy="204.29" r="185.61"/><circle class="cls-4" cx="240.15" cy="204.29" r="175.61"/><circle class="cls-5" cx="152.79" cy="81.5" r="2.5"/><circle class="cls-5" cx="210.79" cy="95" r="2.5"/><circle class="cls-5" cx="240.79" cy="132.83" r="2.5"/><circle class="cls-5" cx="264.12" cy="70.33" r="2.5"/><circle class="cls-5" cx="208.79" cy="52.67" r="2.5"/><circle class="cls-5" cx="296.12" cy="124.33" r="2.5"/><circle class="cls-5" cx="328.12" cy="92.83" r="2.5"/><circle class="cls-5" cx="150.12" cy="127.67" r="2.5"/><circle class="cls-5" cx="407.46" cy="160.33" r="2.5"/><circle class="cls-5" cx="101.46" cy="117.5" r="2.5"/><circle class="cls-5" cx="92.12" cy="195.33" r="2.5"/><circle class="cls-5" cx="375.46" cy="112.83" r="2.5"/><circle class="cls-5" cx="397.46" cy="200.83" r="2.5"/><circle class="cls-5" cx="313.96" cy="167.75" r="2.5"/><circle class="cls-5" cx="187.46" cy="219" r="2.5"/><circle class="cls-5" cx="356.79" cy="200.83" r="2.5"/><circle class="cls-5" cx="403.96" cy="235.5" r="2.5"/><circle class="cls-5" cx="119.96" cy="285.5" r="2.5"/><circle class="cls-5" cx="184.96" cy="253.5" r="2.5"/><circle class="cls-5" cx="250.46" cy="236.5" r="2.5"/><circle class="cls-5" cx="85.46" cy="248.5" r="2.5"/><path class="cls-6" d="M383.46 142.25s-52.59 36.75-59.46 48.08c-3.16 5.18 17.8 13.43 14 18.17-9 11.22-55.75 30.75-55.75 30.75s1.08-4.26 8.92-12.08c5.05-5 16.54-10 19.83-14.33 6.33-8.33-7.29-14.58-4.5-18.83 5.52-8.41 72.75-51.5 72.75-51.5z"/><path class="cls-7" d="M434 116.39a4.29 4.29 0 0 1-.7-.37 38.81 38.81 0 0 0-4.41-2.78 9.45 9.45 0 0 0-2.31-1h-.08a.55.55 0 0 0-.64-.28 2.15 2.15 0 0 1-1.84-.78c-.31-.41-.51-.39-.81-.18a1.37 1.37 0 0 1-1.49.09.44.44 0 0 0-.64 0 2.62 2.62 0 0 1 .11-1.1h.55c.18 0 .34-.06.31-.27s-.2-.19-.37-.15a3.63 3.63 0 0 1-.48 0c-.77-1.34-1.27-2.81-2-4.18l-.2-.44a1.92 1.92 0 0 0-1.76-1.36 1.85 1.85 0 0 1-1-.28 1.19 1.19 0 0 0-.71-.27 6.32 6.32 0 0 0-1.27-.5.17.17 0 0 0-.26.15.83.83 0 0 1 .43.45 1.07 1.07 0 0 0-.9-.33c-.46.14-.91-.25-1.37 0h-.22a3.1 3.1 0 0 0-1.38.1.81.81 0 0 0-.6.26.75.75 0 0 0-.38.27.59.59 0 0 0-.13.73v.23l-.13.25a1.59 1.59 0 0 0-1.48.85c-.34.31-.91.46-.71 1.11l-.13.39h-.11c-.42-.09-.75-.57-1.25-.25a6.35 6.35 0 0 1-2.43 0 1.05 1.05 0 0 0-.78.1l-.11-.11c-.57-.18-1.11-.64-1.73-.12a.46.46 0 0 0-.26-.5c-1.22-.6-2.2-1.61-3.49-2.12a.7.7 0 0 1-.45-.47 2.25 2.25 0 0 0-.6-.89 5.91 5.91 0 0 0-.74-1.43 1.75 1.75 0 0 0-2.06-.64 7.83 7.83 0 0 0-4.36 4.08.53.53 0 0 1-.47.49l-.15-.23.88-1.74a.45.45 0 0 0 .25-.27c.44-.46.85-.94 1.33-1.35a1 1 0 0 1 .36-.52 2.06 2.06 0 0 0 1.12-.66.27.27 0 0 0 .12-.38 2.09 2.09 0 0 0-1.22-1.36 2.63 2.63 0 0 1-.61-.4.73.73 0 0 0-.75-.32h-.23c-.12-.18 0-.4-.09-.59l-.09-.08v-.14a.45.45 0 0 0-.2-.36l-.28-.28a1.27 1.27 0 0 1-.3-.23.24.24 0 0 1 0-.36v-.24a13.36 13.36 0 0 1-.29-1.85 1.17 1.17 0 0 0-1.52-1.09 1.93 1.93 0 0 0-.86.28.48.48 0 0 1-.47.07 1.52 1.52 0 0 0-1.27.27 5.49 5.49 0 0 0-1.23 1l-.38.63a.8.8 0 0 1-.49-.26c.63-1 .51-1.59-.48-2.1a9.45 9.45 0 0 0-2.47-1.34l-.13-.14-.36-.25-1.47-1h-.08a.42.42 0 0 1-.1-.29 3.24 3.24 0 0 0-1.86-.56 1.86 1.86 0 0 1 .63.43 9.26 9.26 0 0 0 1.13.66l-.05.1c-.09.16-.13 0 0 .28a1.06 1.06 0 0 0 .52.4 1.36 1.36 0 0 0 .52.13.84.84 0 0 1 .21.36.53.53 0 0 0-.27.13.33.33 0 0 0-.09.22 1.65 1.65 0 0 0-.76-.67c-.05 0-.34-.49-.73-.84a2.81 2.81 0 0 0-.92-.56c-.39-.33-.08-.17-.66-.27-.1 0-1.19.26-1.3.27a1.42 1.42 0 0 0-.38.47c-.18.3-.16.68-.28.8a.29.29 0 0 0 .08.22.25.25 0 0 0-.31 0 .12.12 0 0 0 .05.06h-.08a.15.15 0 0 1-.1 0l-.09-.1a.28.28 0 0 0-.33-.05.29.29 0 0 1 .07-.12.78.78 0 0 0 .22-.2v-.27c-.53-.12-.64.24-.73.63a2.31 2.31 0 0 1-.62.59c-.2-.21-.37-.09-.49.08a.52.52 0 0 1-.63.18l-.22-.12a4 4 0 0 0-1.26-.62c-.52-.28.14-.74-.17-1.1-.1-.12.28-.08.44-.13a.34.34 0 0 0 .26-.31 1.23 1.23 0 0 1 .45-.7c1-1 .58-1.81-.33-2.47a.61.61 0 0 1-.46-.57c0-.19-.16-.26-.34-.27s-.26.09-.27.29a1.18 1.18 0 0 1-.61.91 1.89 1.89 0 0 0-1.13 1.2.23.23 0 0 1-.3.15 3.91 3.91 0 0 0-1-.21.37.37 0 0 1-.32-.39c.14-.37-.11-1 .58-1a.68.68 0 0 0 .25-.17 3 3 0 0 0 1.64-1.22c.79-.77.81-.94.34-2a1 1 0 0 0-1.47-.47 1.78 1.78 0 0 1-1.41.23.29.29 0 0 0-.12.04l.11.22a.17.17 0 0 1-.06.25 3.18 3.18 0 0 1-.42-2.82.55.55 0 0 1 .32.69.64.64 0 0 0 .28.75c.27.12.41-.2.54-.4a.78.78 0 0 1 .59-.4c.51 0 .35-.28.24-.49-.55-1.1-1.65-1.28-2.68-1.58.09-.12.25-.17 0-.38a3.61 3.61 0 0 0-1.14-.52l-.31-.32a2 2 0 0 0-1.49-.83.67.67 0 0 0-.52.53 1.31 1.31 0 0 1-.83.86 3.31 3.31 0 0 1 .56-1.25c.18-.29.12-.42-.16-.57-.51-.26-1-.55-1.51-.83s-.61-.4-.88.36l-.24.37-.52.76c-.25-.07-.48-.15-.36-.49.08-.07.16-.18.05-.25-.38-.23-.78-.58-1.17 0l-.27.24s-.25.35-.44.14 0-.34.15-.46c.27-.27.55-.52.83-.78.22-.06.48-.11.14-.38a2.53 2.53 0 0 0-1.68-.6c-1.33.06-2.66.16-4 .25a1.22 1.22 0 0 0-.62.24 22.1 22.1 0 0 0-4.31 2.61 17.45 17.45 0 0 0-3.56 2.57 4.53 4.53 0 0 0-1.74 1.33 2.34 2.34 0 0 0-1.22.28c-.41.12-.67.5-1.1.59 0-.13 0-.32-.2-.35a.28.28 0 0 0-.23.25 2.9 2.9 0 0 1-.58.63c-.27.29-.67.58-.34 1.08l-.23.1a.39.39 0 0 0-.37.38.86.86 0 0 0-.24.25c-.33.45-.2 1.12-.72 1.48a4.15 4.15 0 0 0-1.25-.13h.12-.06-.05-1.65c-.37 0-.64.15-.53.6v.12c-.29-.29-.56-.73-1-.14a20.21 20.21 0 0 1-1.81-1.07c-.37-.15-.66-.2-.87.2a6.36 6.36 0 0 1-1.51 0c-.06-.16 0-.41-.26-.42s-.22.24-.25.41a.18.18 0 0 1-.11 0 1 1 0 0 1 0-.7c.48-.45.11-.71-.2-.91-.81-.52-1.36-1.33-2.17-1.84-.65 1-.72 1.18-.55 1.75-.26.26-.2.81-.74.84-.48-.2-.88.26-1.35.14h-.12a.38.38 0 0 1 .23-.36 1.43 1.43 0 0 0 .61-.37c.1-.17.43-.23.11-.55s-.06-.5.28-.53a3.08 3.08 0 0 1 .62.09c-.1-.25-.51-.21-.45-.48s.39-.1.58-.18a.47.47 0 0 0 .34-.68l-.38-.26c-1.15-.38-1.15-.38-1.6.38l-.24.48a.22.22 0 0 1-.26-.23.73.73 0 0 0 .13-.87.51.51 0 0 0 .22-.76.53.53 0 0 0-.71-.31q-1.69.63-3.36 1.31a1.41 1.41 0 0 1-.93.16 1.06 1.06 0 0 0-1.05.43.83.83 0 0 0 .15.91 1.05 1.05 0 0 0 .27.24c-1 .56-1.55 1.6-2.49 2.21l-.58.59a.43.43 0 0 0-.16.08 3.92 3.92 0 0 1-3.16 1.6 1.41 1.41 0 0 0-1.18.62.41.41 0 0 1-.68.19.4.4 0 0 0 .05-.61.52.52 0 0 1-.51.51.32.32 0 0 0-.29.33l-.36.28a.75.75 0 0 0-1 .11c-.66.38-.78 1.25-1.47 1.62a1.23 1.23 0 0 0-.13.52 4.16 4.16 0 0 1-.26 1.18 2 2 0 0 0-.28 2.14c-.26.16-.68 0-.69.49a1.19 1.19 0 0 1-1.35 1.19c-.91-.05-.49 1.28-1.36 1.28-.15 0-.09.24-.05.37v.18a1.51 1.51 0 0 1-.08 1.36.57.57 0 0 0-.11.4c.34.68 0 1.37.07 2a2.81 2.81 0 0 1-.5 1.67l-1.46 2.06c0 .6-.54 1-.61 1.71a6.45 6.45 0 0 0 .85-1.58.53.53 0 0 1 .94-.1.86.86 0 0 0 1.37.06.24.24 0 0 1 .26-.1 4.85 4.85 0 0 0 1.86-.14c.42 0 1.06-.17 1.15.37a1.06 1.06 0 0 0 .74.8.7.7 0 0 0 1.14-.49c.2-.74.29-.77 1-.35.1.06.35.07.2.27s-.15.52-.4.36c-.52-.34-.58.11-.75.36a.9.9 0 0 1-1.35.36.38.38 0 0 0-.42-.08.62.62 0 0 1-.52.95c-.36.06-.1.5-.32.7 0 0 .09.17.2.19a.56.56 0 0 1 .54.8c-.06.18.09.18.21.22s.35-.18.54.05a1.84 1.84 0 0 0-.56 1.23.32.32 0 0 1-.31.32c-.23 0-.63.22-.66 0-.05-.44-.6-.64-.46-1.13a.74.74 0 0 0-.82-1.09 15.34 15.34 0 0 0-2.44.19 2.2 2.2 0 0 1-1.37.06.38.38 0 0 0-.56.14l-.95 1.21a.53.53 0 0 0 0 .78 1.69 1.69 0 0 1 .6 1.29.62.62 0 0 0 .35.6c.12 0 .25.17.13.27a2.37 2.37 0 0 0-.39.84 1.33 1.33 0 0 1-.67-1.26c-.13-.5-.35-.51-.68-.31-.56.35-1.28 0-1.83.46a.59.59 0 0 1-.28-.09l.25-.86a2.14 2.14 0 0 0 .62-1.11 1.51 1.51 0 0 0 .42-.87 2.07 2.07 0 0 0-.54.87 5.29 5.29 0 0 0-.5 1.1 2.59 2.59 0 0 0-.61 1.11 1.13 1.13 0 0 1-.49.62c-.86.14-.89.83-1 1.48-.36.38-.29 1-.61 1.36l.07.07a.18.18 0 0 0-.07-.07c-.42-.51-.77-.18-1.11.11-.08.14-.41.06-.34.27a2.33 2.33 0 0 0 .21 1.11c0 .38.49.28.52.61l-.27.62a.8.8 0 0 0-.35 1c-.34 1.09-.62 2.2-1 3.26-1.15 2.92-2.16 5.88-3.28 8.81a28.88 28.88 0 0 1-1.49 3.49c-.33.36-.66.72-.25 1.22l.13.34a2.17 2.17 0 0 0 .6 1.13l.5.92a.36.36 0 0 1 0 .49c-.53.65-1.11 1.3-.77 2.25a.25.25 0 0 1-.06.22c-.49.39-.77 1.21-1.67.79-.61-.28-.88.1-.93.64a2.78 2.78 0 0 1-.61 1.37 8.91 8.91 0 0 0-1.55 3.35c-.09.44 0 .54.44.55 1 0 1 0 1 1v.31a.26.26 0 0 0 .3.3c.44 0 .57.18.54.6s-.37.41-.66.39-.54.13-.49.54a5.06 5.06 0 0 1 0 1.29c-.06.43.06.57.47.52h.37c.38 0 .43.18.43.49s-.05.51-.43.5h-1.54a.4.4 0 0 0-.49.41.44.44 0 0 0 .43.55 3.43 3.43 0 0 0 .8 0 .75.75 0 0 1 1 .69.56.56 0 0 0 .76.55.77.77 0 0 1 .93.51 4.4 4.4 0 0 1 .53 2.3h.12a2.82 2.82 0 0 0-.21-1.84c-.32-.64-.19-.83.52-.86s1-.28.64-1c-.58-1.22-1.19-2.42-1.74-3.65-.35-.78-.51-1.53.66-1.86a3.31 3.31 0 0 0 1-.59 10.62 10.62 0 0 0 2.5-1.16 4.5 4.5 0 0 0-1.4.52.89.89 0 0 1-.74.19c-.27-.17 0-.48 0-.72v-.55l5-2.48a.53.53 0 0 0 .54-.24.4.4 0 0 0 .34-.22.35.35 0 0 1 .36.43v.77s-.61.26-.75.6c.37-.09.81-.08.84-.63l.12-1.72v-.59c.2-.69 0-1.43.26-2.11a3.72 3.72 0 0 0 .19-.85c.07.67.07.67.74.74.14 0 .28.06.42.08a1.75 1.75 0 0 0 1.86-.9 1.89 1.89 0 0 0-.19-2c-1.29-2.18-2.31-4.5-3.64-6.66a.49.49 0 0 0-.25-.51c-.16-.24-.3-.49-.48-.71-.73-.89-.73-.88-.19-1.88a2.31 2.31 0 0 0 .22-.37c.13-.43.33-.33.54-.08a7.46 7.46 0 0 0 1.47 1.38.39.39 0 0 0 .58 0 12.5 12.5 0 0 0 1.55-1.57c.4-.51.68-.19 1 .07s.07.54-.12.75-.62.6-.89.93c-.88 1-.86 1 .11 2 .36.37.59.34.82-.11a12.21 12.21 0 0 1 1.62-1.74.32.32 0 0 1 .53 0 .29.29 0 0 1-.06.48c-.6.33-.71 1.06-1.27 1.47a6.47 6.47 0 0 0-1.25 1.34c-.09.32.15.34.36.39.17.26.35.46.68.17a.36.36 0 0 1 .62.08.79.79 0 0 0 .5.33c.41.13.59.31.22.68-.09.09-.18.19-.08.32h.31c.34-.32.56-.18.72.19a1.75 1.75 0 0 0 1 .85 2.56 2.56 0 0 1 1.17 1c.17.26.24.89.66.57.69-.54 1.39-1.08 2.06-1.64.29-.24.51-.53 1-.22a3.73 3.73 0 0 0-1-1.08 2.59 2.59 0 0 1-1.21-1.33 12.71 12.71 0 0 1-.21-1.57.25.25 0 0 1 .28-.35 2.69 2.69 0 0 0 .61-.07c.48-.14.56.09.53.49a1.6 1.6 0 0 0 .33 1.27 16.09 16.09 0 0 1 1.27 1.41c.41.57.84.14 1.24.08s.4-.41.37-.74c-.11-1-.24-1.9-.36-2.85 0-.27 0-.62.27-.66s.44.25.46.58c.06.85.17 1.71.24 2.56 0 .45.31.48.64.43.53-.07 1-.18 1.58-.22 1.5-.11 1.5-.1 1.47-1.55 0-1 .2-1.26 1.23-1.31l.14.14a1.56 1.56 0 0 0 1.22 1.11c.16.17.51.14.51.48s.07.49.45.42a4.8 4.8 0 0 1 1.15 0c.49 0 .68-.15.58-.63a3.88 3.88 0 0 1 .14-1.47.51.51 0 0 0 .48-.13.41.41 0 0 1 .38.52v1.47a11.49 11.49 0 0 0 .07 1.94c.3-.27-.06-.83.51-.83h2.27c.16 0 .43.28.49-.07a.62.62 0 0 0-.17-.76c-.53-.38-1-.84-1.5-1.26a.92.92 0 0 0-.74-.31c-.5 0-.64-.3-.43-.82a.67.67 0 0 0 .61 0 .91.91 0 0 0 .61.11 14.77 14.77 0 0 0 3.56 2.59.61.61 0 0 0 .64.18c.18-.12 0-.31-.14-.43a.4.4 0 0 1-.12-.36l-.12-.76a.34.34 0 0 0 .09-.09.86.86 0 0 0 .44-.09 1.92 1.92 0 0 0 .21.27v.09a.86.86 0 0 0 .24.5.61.61 0 0 0 .14.49 24 24 0 0 0 2.71.72c.68.24 1.38.47 1.9-.33a.41.41 0 0 1 .56-.1c.22.13.06.34 0 .49a.43.43 0 0 0 .28.67 5.1 5.1 0 0 0 2.74.32c1.24-.29 1.19-.23.8-1.48a9.35 9.35 0 0 0-1-1.83 2.05 2.05 0 0 1 .61-.57 2.21 2.21 0 0 1 .58 1.35 5.26 5.26 0 0 0 .65 1.24l.11.12c.16.33.4.16.63.11a.45.45 0 0 0 .07.61 5.75 5.75 0 0 0 .76.71c.2.16.54.29.42.67a4.83 4.83 0 0 0-.62 1.11c-.17.3.1.34.26.43 1.08.63 2.15 1.27 3.24 1.88a.52.52 0 0 1 .24.88 6.9 6.9 0 0 0-.6 1c-.16.35-.35.32-.63.16-1.22-.71-2.46-1.4-3.67-2.12a1.43 1.43 0 0 0-2.12.51 5.86 5.86 0 0 1-.35.58c-.29.37-.19.6.19.83 2.14 1.25 4.28 2.5 6.4 3.78.38.23.53.2.74-.19.69-1.23 1.42-2.44 2.14-3.66.09-.15.16-.43.45-.29s.6.16.52.44c-.16.54.22.63.52.81.53.31 1.05.63 1.59.93.36.2.41.39.17.77-.89 1.42-1.73 2.87-2.61 4.3-.18.29-.18.45.13.63.64.36 1.27.75 1.9 1.13.14.09.26.12.35-.05.59-1.1 1.32-2.12 1.83-3.26a1.36 1.36 0 0 0 .45-1.05l-.59 1c-.24 0-.51 0-.59-.28a.69.69 0 0 1 .3-.8 2.66 2.66 0 0 0 1-1.11.39.39 0 0 1 .31-.25c.18.37.69.13.88.48l.37.12c.32.11.35.69.84.51a26.31 26.31 0 0 0 1.82 1.92c.34.25.42.14.41-.21a1.22 1.22 0 0 0 .6-.73h.14a.53.53 0 0 0 .62.24.66.66 0 0 0 .58-.25.68.68 0 0 1 1.06 0c.15.14.31.26.46.38.33.53.48 0 .74-.2-.08.42-.05.69.41.47a1.1 1.1 0 0 1 .42 0c0 .2.22.57-.28.53-.13 0-.27 0-.26.15s.15.16.27.17c.36 0 .61 0 .56-.47h1.22v2.08h-.09l-.38-.24-.49-.26c-.16-.31-.56-.1-.74-.35a.71.71 0 0 0-.87 0 .91.91 0 0 0-.49.23 18.71 18.71 0 0 0-2.08-.21h-.25c-.15 0-.34-.09-.42.09s.1.24.19.33l.36.3a.64.64 0 0 0 .48.38l.62.24a.67.67 0 0 0 .39.36l.11.12a.46.46 0 0 0 .48.39.35.35 0 0 0 .38.36h.11a.58.58 0 0 0 .5.59h.13a.73.73 0 0 0 1.21.34l.37.26a.53.53 0 0 0 .51.37l.13.11c.4.22-.12.65.15.82.47.29.53 1.21 1.38.93a.12.12 0 0 1 .11 0 4.14 4.14 0 0 0 .79.8.88.88 0 0 0 1.12.78 2.74 2.74 0 0 1 1.27-.35 1.11 1.11 0 0 0 1-.94 4.3 4.3 0 0 1 0-1.73.34.34 0 0 1 .42-.4c.31.08.25.32.17.55a1.15 1.15 0 0 0 0 .24v.41c0 .14-.09.4.12.41a.67.67 0 0 0 .49-.4.66.66 0 0 0 .38-.63 6.92 6.92 0 0 0 1.11-1.45.53.53 0 0 0 .18-.66.67.67 0 0 0-.81-.36l-.25.1-.74.15c-.15 0-.39 0-.42-.12-.11-.52-.5-.33-.8-.37a1.18 1.18 0 0 0-1.11.22c-1.31-.72-2.81-.44-4.19-.84a.5.5 0 0 1-.27-.37v-1.14l.54.4.19.11a.61.61 0 0 0 .63.25.94.94 0 0 0 1.23 0l.12.13c-.12.24 0 .32.23.38l.87.24a.44.44 0 0 0 .63 0 6.76 6.76 0 0 1 1.84-.75 1.18 1.18 0 0 1 .37-.2c.69-.09.55-.65.6-1.07a.24.24 0 0 0-.41-.23 1.85 1.85 0 0 1-1.42.17l-.34-.14-.12-.12a1.23 1.23 0 0 0-1-.66 4.06 4.06 0 0 0-2.82.68 1.24 1.24 0 0 0-.48.24l-.13.13a.4.4 0 0 0-.37.23h-.12a3.49 3.49 0 0 1-.1-1 10.26 10.26 0 0 0 2.1-1.13 2.65 2.65 0 0 1 1.61-.48 2.08 2.08 0 0 0 1.2-.1c.76-.12 1.09.54 1.6.87a3.89 3.89 0 0 0 1.47 1.23c.2-.1.2-.23.06-.39l-.69-.86a1.48 1.48 0 0 1 .49-.48 2.59 2.59 0 0 0 .62.63 10.8 10.8 0 0 0 1.23 1.34c.14.15.27.1.31-.06s-.16-.33-.31-.44v-.23a.27.27 0 0 0 .24-.24 17.13 17.13 0 0 0-.11-3.22 1.29 1.29 0 0 1 .76.2l1.46.9a3.44 3.44 0 0 0 .83 1.31c.16.13.23.5.48.34s0-.39-.15-.55-.26-.38 0-.57c1.06-.75 2-1.69 3.1-2.37a1.35 1.35 0 0 0 .9-1.13 9.32 9.32 0 0 1 1.86-1.35 2.33 2.33 0 0 0 1.11-.79 11.57 11.57 0 0 1 2-1.4 5.16 5.16 0 0 1 1.58-1 4.49 4.49 0 0 1 1.59-.91.43.43 0 0 0 .39-.4.42.42 0 0 0 .63 0 7.44 7.44 0 0 1 2.21-.86 22.76 22.76 0 0 0 3.1-.94 31.34 31.34 0 0 1 4-1.29 9.89 9.89 0 0 0 2.14-.48l.61-.22.49-.15c.06.08.09.26.25.11l.36-.1.75-.25.35-.11c1.79-.6 3.48-1.55 5.43-1.63a11.06 11.06 0 0 0 2.61-.7 1.92 1.92 0 0 1 1.34-.52c.13.32.32.1.5.06a10.35 10.35 0 0 1 3.58-.65c.41 0 .47-.21.51-.52h.08c.13.58.38.79.93.36a.75.75 0 0 1 .59-.05 1.07 1.07 0 0 0 1.46-.91l.13.13c-.54.78.28 1.51 0 2.3 2.21-.65 2.32-.53 4.32.18a3.93 3.93 0 0 0 .54.51c.41 0 .8.07 1.22.05 1.28-.07 1.91-1.49 3.22-1.47.33-.55.93-.3 1.38-.47h2.89v1.35c0 .16 0 .39.14.43a2.45 2.45 0 0 0 1.36-.07.34.34 0 0 0-.23-.12c-1.1-.07-1.11-.08-1.15-1.17v-1.53c0-.17 0-.38.23-.36a2.94 2.94 0 0 1 1 0v.87a1.83 1.83 0 0 0 .12-.86c.58-.2.71-.13.74.43a2.32 2.32 0 0 1 0 .43.47.47 0 0 0 .62.62 2.47 2.47 0 0 1 .37 0 15.8 15.8 0 0 1 .33 1.57 3.38 3.38 0 0 0-.08-1.58.73.73 0 0 0 .18-1 3.88 3.88 0 0 1-.07-1.61v-2.42h-.11v1.69c-.49 0-1 0-1.47.09a3.3 3.3 0 0 1-2-.21.91.91 0 0 1-.54-1.16 6.85 6.85 0 0 0 .42-1.65.32.32 0 0 1 .16-.31c.68-.19.66-.8.84-1.31.47-1.34.73-2.78 1.77-3.86a.31.31 0 0 0 .1-.21c-.37-.51.16-.82.27-1.21s.33-.39.6 0a3 3 0 0 1-.16-1.84c0-.29.1-.42.41-.31 1.08.39 2.24.65 2.81 1.84a.44.44 0 0 0 .51.34.26.26 0 0 0 .25-.23.71.71 0 0 0-.42-.68zm-73.56 34.1h.04zm.21-.32zm0 .07a.33.33 0 0 1-.09.22.52.52 0 0 0 .1-.22zm1 .5a.39.39 0 0 1-.14-.06.36.36 0 0 0 .13 0 .14.14 0 0 0 .03.06zm-5.16-.69a.45.45 0 0 0 0-.08.56.56 0 0 0 .39.13.83.83 0 0 0-.06.14c-.05.07-.31-.24-.31-.19zm6.12.37a.28.28 0 0 0-.18-.07.39.39 0 0 0 0 .34l-.18.07a.49.49 0 0 0 .14-.4h.11c.09 0 .12.03.13.06zm55.72-35.82a.11.11 0 0 0-.1 0v-.27h-.23a3.41 3.41 0 0 0-.35 0 .84.84 0 0 1 .56 0 .67.67 0 0 1 .19 0 .29.29 0 0 0-.05.2zm-40.88 23.72zm40.43-23.48a1.08 1.08 0 0 0 .15.41 1.88 1.88 0 0 1-.75-.13h-.06v-.59a1.35 1.35 0 0 1 .28-.16.22.22 0 0 0-.13.2c.03.27.31.3.54.27zm-1.22-.32a1.44 1.44 0 0 0 0 .72h-.46a.56.56 0 0 0 0-.67.25.25 0 0 0-.13.25h-.1a.25.25 0 0 0-.27-.28c0 .06-.25 0-.12.17a.17.17 0 0 0 0 .08h-.37l-.25-.09a.31.31 0 0 0 0 .51l.12-.12h.38a.73.73 0 0 0 .52.11.15.15 0 0 0 .06 0 4 4 0 0 0-1.06.08 2.08 2.08 0 0 0-.38-.11v.1a.57.57 0 0 0-.46-.1l-.12-.07a.52.52 0 0 0-.11-.56v.24a.62.62 0 0 1 0 .24 1.55 1.55 0 0 0-.24-.15v-.23h-.09l-.15-.36a.3.3 0 0 1 .12 0 1.48 1.48 0 0 1 .55 0 .77.77 0 0 0 .65.09c.38-.52.73-.24 1.08 0s.93-.21 1.38.07a.74.74 0 0 0 0 .58 1.18 1.18 0 0 1-.42.1.79.79 0 0 0-.1-.59zm-32 21.15zm26.67-20.19v-.12a2.86 2.86 0 0 0-.13-.61.2.2 0 0 1 0-.24.54.54 0 0 0 .43.2 2.32 2.32 0 0 1-.3.77zm-81.25 12.52v.05a2.84 2.84 0 0 1 .34.16.21.21 0 0 0-.11.08l-.17-.05c-.09 0-.18-.06-.16-.18a.79.79 0 0 1 .1-.06zm48.23-27zm5.81 6.43zm5.13 9.32a.51.51 0 0 0 0 .06.39.39 0 0 0 0-.04zm-75 5.09a.38.38 0 0 0-.11.06.46.46 0 0 0 0-.13c-.17-.27-.3-.24-.41-.1a.5.5 0 0 1 .46-.05.23.23 0 0 0 .05-.3.49.49 0 0 0 .17.08.71.71 0 0 0-.09.43zm16-18.32l12.06 34.26a.11.11 0 0 1 0 .05zm40.68-21.24zm4.53.46a1.15 1.15 0 0 0-.07.21l.06-.32a.66.66 0 0 0 12 34.37zm-54.59 10.51zm-1.87 27.86zm65.47-4v-.16a.57.57 0 0 1-.04.18zm5.86-.26a.1.1 0 0 0 .09.07l-.06.06a1 1 0 0 0-.07-.1zm-45.64 21.31a.07.07 0 0 1 0 .09.4.4 0 0 0-.04-.06zm-33.37-16.55a.31.31 0 0 0 0 .07h-.08zm5.45-12.82zm64.66 7.86a.13.13 0 0 1 0 .21l-.22.19v-.5zm17.13 6.66a.09.09 0 0 0 0-.07v.07zm-4.18-1zm6.53-3.45zm.27-.84a.55.55 0 0 0-.16.44.41.41 0 0 0-.09-.46zm.6.42a.5.5 0 0 0-.31-.07.26.26 0 0 1 .29.12zm-21.37-12.24c-.07 0 0-.06.05 0h-.05zm-64.3 11.8zm56.94-2.21a.42.42 0 0 0 0 .06c0 .34-.16.24-.28.12a1.19 1.19 0 0 1 .28-.14zm1.28.35a.21.21 0 0 0 .14.05h.1a.24.24 0 0 1-.15 0 .23.23 0 0 0-.27.17.18.18 0 0 0-.25-.09l-.14.13a.1.1 0 0 0 0 .09.22.22 0 0 0-.08-.09.78.78 0 0 0-.06-.18 1.83 1.83 0 0 1-.14-.37.17.17 0 0 0 .09-.06.21.21 0 0 0 .13 0 .39.39 0 0 0 .17.21.4.4 0 0 0 .31.06.91.91 0 0 0 .15-.1.29.29 0 0 0 0 .23zm-2.33.32h.17l-.06.06a.27.27 0 0 0-.21 0 .24.24 0 0 0-.07-.09zm-45.06-7.46v-.06.06zm3 7zm3.2 3.67zm12.86-4.48a.25.25 0 0 0 0-.05zm-2.61 2.22zm.88 2.44a.08.08 0 0 1 0-.11.9.9 0 0 1-.05.11zm3.3 5.35zm0 .36zm-1.23-2.12h.11c-.08.02-.14.03-.14-.01zm3.42 2zm-6.1-8.26a1 1 0 0 0 .09.22.38.38 0 0 1-.12-.27zm7.85 8.3zm-5.85-10.24zm-2.28 2.09v-.06l-.04.02zm7.38 8.07a.2.2 0 0 0 .15.2.4.4 0 0 1 .13.08.35.35 0 0 1-.13 0c-.12 0-.26 0-.27.16h-.06a.2.2 0 0 1 .14-.49zm7.06-7.1v.15a.3.3 0 0 1-.04-.19zm3.91-1.2zm-2.25-.16a1 1 0 0 0 .32.25.23.23 0 0 0 .17 0c.25-.29.2 0 .22.1a.23.23 0 0 0-.08.09.29.29 0 0 0-.32-.12.65.65 0 0 0-.12-.14c-.16-.1-.31-.18-.43 0a.47.47 0 0 1 .21-.22zm10.14 7.22l-.03-.04zm-.49 0a.53.53 0 0 0 0-.15.28.28 0 0 1 0-.34c0 .18.06.35.09.48zm-11.13-6.51a.44.44 0 0 1 .18-.42 1.79 1.79 0 0 0-.18.42zm-16.59 12zm-7.41-10.24zm45.8-6.29zm-24.41-1.31l-.11-.14a.11.11 0 0 1 .08.14zm-24.6-3.13zm-3-3.11zm-1.62 8.53zm7.89 9.83zm43.84-18.73a.64.64 0 0 0 .11.1h-.17zm-.49-.7a2 2 0 0 0 0 .63l.08.12c-.37-.09-.33-.33-.06-1h.05a.41.41 0 0 0-.07.25zm-8.08 12.36a.78.78 0 0 1-.61-.27 3.69 3.69 0 0 0 .61.27zm-.74-.35zm1.29.35a1.6 1.6 0 0 0 .9-.95c.12 0 .21-.35.34 0a.33.33 0 0 0 .15 0 .27.27 0 0 0 0 .27.22.22 0 0 0-.1-.08.41.41 0 0 0-.33.08.31.31 0 0 0-.09.14 1.4 1.4 0 0 1-.78.91 2.92 2.92 0 0 0-1.09 2.38 5.61 5.61 0 0 1-.21-.64c0-.09-.06-.18-.09-.26a8.49 8.49 0 0 1 1.3-1.85zm-32.95-8.55zm46.75 9a.51.51 0 0 1 0-.17.62.62 0 0 1 0 .16zm-.93-.12zm-2-.24zm-1.75-11.76a.44.44 0 0 0 0 .07h-.23a.49.49 0 0 0 0-.36h.09a.2.2 0 0 0 .14.29zm-23.36-6.3zm-29.41 6.11a1.36 1.36 0 0 0 .81.55 4.29 4.29 0 0 1-.81-.55zm75.84 13.27a.11.11 0 0 1 .13-.06.28.28 0 0 0-.13.08zm-62.68-9.37zm-26.12 12.75a.34.34 0 0 1-.34.1.87.87 0 0 1-.34-.12 1.08 1.08 0 0 0-.41.05c.16-.11.28-.31.53-.15h.39a.44.44 0 0 1 .35.06.42.42 0 0 0-.17.07zm4 .13l.05.02zm11.61 3.37zm3.95 2.25zm1 1.34zm57.19-.83zm-.74-11a1 1 0 0 0 0-.12h.05a.38.38 0 0 0-.04.08zm-5.32.55zm-.32.07a.74.74 0 0 0 .27 0 .73.73 0 0 1-.26-.03zm-47.71-12.27l-.07-.06a.23.23 0 0 0 .07.06zm-11.27.41a.15.15 0 0 0 .11 0 1 1 0 0 0 0 .11h-.35a.26.26 0 0 1 .25-.14zm-8.45-2.5h.06-.07zm-6.65 6.83zm2.44 15.9v-.07.07zm1.38-4.46h.17a.08.08 0 0 0 0 .07.25.25 0 0 0 0 .06l-.1.19-.09-.3zm1.42.2l.25-.1h.13a.43.43 0 0 1-.34.1zm.62-.17v.09a.18.18 0 0 0-.06-.07zm.67-.23h.08v.15l-.12-.12zm16.36 8.65a.15.15 0 0 0 .09 0 .12.12 0 0 0-.05 0zm52.69-14.83l.07-.17a1.42 1.42 0 0 1-.04.17zm-26.4-25.85zm-16.63-1.38h.06-.07zm2.42 2.52v.06-.07zm.38 0zm-32.75 35.62zm75.4-8.97zm-10.23-16zm-1.72 1.11zm-66.27 4.19zm19.15 21.7zm80.64-15.47zm-1.13 2.06h.23a1.56 1.56 0 0 0 .19 0v.06a.65.65 0 0 0-.28.3.58.58 0 0 1-.26.05.31.31 0 0 1-.24 0 .19.19 0 0 1 0-.28.69.69 0 0 1 .36-.13zm-5.8 3.41zm-5.53-7.57zm-46.8-27.63a.06.06 0 0 1 0 .07zm-23.67 45.2h-.09zm.63 0zm.69.41zm49.83 7.12zm2.56-2.75zm7.51-2zm17.17-13.14zm-54.11-35.33zm-39.18 12.59zm-2.45 12.47zm16.15 21.7zm14 9.62a.36.36 0 0 1-.24.06zm68.56-16.78zm-2.72-4.07zm-75.55-25.53a.11.11 0 0 0-.08 0h.11zm-9.19 37.24zm0 0zm15.2 7.42zm73.7-12.29zm2.46-4.23zm-113.67 6.21zm-.79-1.85zm36.34 10.6zm78.3-15.32zm.49-5.33l-.11-.08a.91.91 0 0 1 .11-.22.57.57 0 0 0-.06.11zm0-.35h.05zm-53.13-30.51zm-55.95 13.41l.14.1a.43.43 0 0 1-.14-.1zm2 10.64zm107.2 11.91zm-7.07-8.71zm-103.13 7.95zm9.18 14.9zm13.61-.63c.17.18.42.46.57.66zm77.31-25.53v-.08h.08zm-69.92-17.84v.09-.09zm-13.69-6.93zm-.7.12zm-15.52 19.59zm.86.11zm-5.09 19.39v-.1a.25.25 0 0 0 .06.07zm12.11 8.83v.05-.06zm74.5 4.46zm33.3-20.85zm-46.15-23.14a.53.53 0 0 0-.17-.06.16.16 0 0 0 0-.07zm-15.29 61.69zm47.85-23zm13.65-14.86a.44.44 0 0 0-.17.06.23.23 0 0 0-.18 0 .86.86 0 0 0-.37-.16l.08-.08h.22l.1.09.26-.32a.43.43 0 0 0 .15.35.85.85 0 0 0 .1-.61h-.1a.2.2 0 0 0-.12 0h.12v-.2a.38.38 0 0 0 .35-.12.33.33 0 0 0 .17 0c0 .12-.08.24-.13.36l-.06.06v.07a.53.53 0 0 1-.41.46zM393.71 93.67c.2.16.28.33.6.17a.59.59 0 0 1 .87.31.56.56 0 0 0 .55.38 3 3 0 0 1 1.63.64 4.41 4.41 0 0 0 1.76.94 2.06 2.06 0 0 1 1.66 1.31.71.71 0 0 0 .94.53h.28a2.18 2.18 0 0 1 .8 1 6.77 6.77 0 0 0 .69.53l.38-.43a1.27 1.27 0 0 1 .84-.44v.09a.41.41 0 0 0-.24.25l-.13.14a1.23 1.23 0 0 0-.48.46.55.55 0 0 0-.07.58c.12.19.3 0 .45.06a3.84 3.84 0 0 0 2-.39 1.67 1.67 0 0 0 1.59-.39.44.44 0 0 1 .46 0 1.25 1.25 0 0 0 1.2-1.41 2.27 2.27 0 0 0 1.31-.46.91.91 0 0 1 1-.07 2.73 2.73 0 0 0 1.43.16c.85-.1 1.7-.25 2.57-.27.28 0 .44-.14.18-.35a1.44 1.44 0 0 1-.2-1.74 1.29 1.29 0 0 0-.37-1.4c-.5-.53-1.21-.06-1.68-.5-.5.44-1.14.2-1.68.36a2.52 2.52 0 0 1-1.61-.06c-.14 0-.3-.18-.45 0h-.25a2.82 2.82 0 0 0-2-.44 29.39 29.39 0 0 0-3 .65c-.34.05-.52.16-.5.47a2.45 2.45 0 0 0-1.8-1 14.93 14.93 0 0 1-1.7-.34.19.19 0 0 1-.16-.23.87.87 0 0 0-.58-.78 4 4 0 0 0-1.46-.57c-.92-.28-1.76-.76-2.68-1.06a1.37 1.37 0 0 0-1.53.31 2.68 2.68 0 0 1-1.43.89c-.56.06-.6.32-.28.81a5.6 5.6 0 0 0 1.09 1.29zm8.27 3.8zM310.32 135.67c.67.21.72-.24.61-.66a2.73 2.73 0 0 0-.92-1.34.42.42 0 0 0-.55.1.38.38 0 0 0-.2.52 2.88 2.88 0 0 1 .29 1.42c.12.78.74.28 1.06.5.1.06.31-.05.25-.16a1.22 1.22 0 0 0-.78-.2l-.07-.07a.25.25 0 0 1 .31-.11zM388.82 95.73h.06a13.41 13.41 0 0 0 1.27 2.09 6.46 6.46 0 0 0 1 .25 1.61 1.61 0 0 0 1.27.73.76.76 0 0 1 .73.35.52.52 0 0 0 .84.28c.39-.3.21-.64-.1-.93l-1.25-1.17a5.64 5.64 0 0 1-.34-.55 2.49 2.49 0 0 0-1.74-1.13v-.07a6.63 6.63 0 0 1-1.47-1.36c-.11-.16-.24-.44-.52-.27a.42.42 0 0 0 0 .65 1.87 1.87 0 0 1 .25 1.13zM293.19 110.47c.37.09.67.59 1.12.23s.79-.7.38-1.28l.33-1.2a2.7 2.7 0 0 0-.46 1c-.26 0-.29.81-.74.22a.36.36 0 0 0-.15 0c.1.44-.33.46-.51.66s-.16.33.03.37zM351.77 149.11a.4.4 0 0 0-.46-.39.53.53 0 0 0-.5.38c0 .26.24.33.53.34.08-.16.49.05.43-.33zM315.43 137.89a.55.55 0 0 0 0-.59.44.44 0 0 0 0 .59zM406.78 105.92a.17.17 0 0 0 .16 0c.15-.16 0-.29-.1-.48-.06.19-.2.32-.06.48zM320.24 83.93a.15.15 0 0 0 .19.1c.1 0 .2-.08.16-.2a.16.16 0 0 0-.19-.11.19.19 0 0 0-.16.21zM305.91 88a.14.14 0 0 0 .09-.18.12.12 0 0 0-.16-.12.16.16 0 0 0-.15.15.17.17 0 0 0 .22.15zM288.05 149l.61-.36a.6.6 0 0 0-.61.36zM294.41 136.8a.35.35 0 0 0 .25-.36c-.1.11-.36.1-.25.36zM354.73 154.68c.11.17.17.31.36.24a.31.31 0 0 0-.36-.24zM415.19 114.22c-.08 0-.18 0-.16.1a.28.28 0 0 0 .17.13c.07 0 .17 0 .16-.1a.17.17 0 0 0-.17-.13zM414.19 114.72a2.11 2.11 0 0 0 0 .48c.27-.07 0-.4.24-.49-.1-.15-.2-.15-.24.01z"/><path class="cls-8" d="M363.82 116.67h-11.82s3.54-8.61 5.79-9c1.73-.33 6.03 9 6.03 9z"/><path class="cls-9" d="M349.53 131.73a13.49 13.49 0 0 1-1.46 3l-1.08-.81a11.93 11.93 0 0 0 1.38-2.74zm4.47-.94h-2.8v5h-1.32v-5h-2.76v-1.25h2.76v-1.18h-2.61v-1.2h1.47a14.88 14.88 0 0 0-.63-1.71l.89-.45h-1.7v-1.2h2.4a4.07 4.07 0 0 0-.45-.92l1.43-.31a10.48 10.48 0 0 1 .56 1.23h2.52v1.2h-1.63l.93.51a15 15 0 0 1-.76 1.66h1.47v1.2h-2.57v1.18h2.8v1.25zm-2.2-5.8h-2.44a15.54 15.54 0 0 1 .79 2.18h.8a13.26 13.26 0 0 0 .85-2.17zm1.94 8.19l-1.08.62a10.26 10.26 0 0 0-1-2.25l1.11-.51a8.59 8.59 0 0 1 .97 2.13zm6.42-4.74h-1.36v7.33h-1.3v-7.33h-1.5q0 5.13-1.71 7.35l-1.09-.89q1.46-2 1.46-6v-5.14a15.65 15.65 0 0 0 4.23-1.11l.92 1.11a18.42 18.42 0 0 1-3.81 1.14v2.3h4.18v1.29zM368.77 124.77q0 3.26-.16 6.37a22.63 22.63 0 0 1-.32 3.59 1.45 1.45 0 0 1-.6.76 2.62 2.62 0 0 1-1.38.28h-.94l-.37-1.35h1a1 1 0 0 0 1.09-.56q.15-.56.32-7.84h-1.75q-.21 6.34-2.6 9.79l-1.13-.8a15.81 15.81 0 0 0 2.39-9h-2v-1.29h2.07l.06-2.15h1.33l-.06 2.15h3.08zm6.06 11h-1.33v-1h-2.45v1h-1.3v-12h5.07v12zm-1.32-2.38v-8.27h-2.45v8.27h2.45zM381.5 127.79h-1.5v3.66q.7-.32 1.26-.62v1.36a28.36 28.36 0 0 1-4 1.86l-.34-1.26q1.19-.46 1.78-.72v-4.29h-1.51v-1.28h1.51v-3.83h1.3v3.83h1.48v1.29zm8.84 7.13l-.84 1a14.44 14.44 0 0 1-3.16-2.07 12.83 12.83 0 0 1-3.21 2l-.94-1.05a11.18 11.18 0 0 0 3.24-1.86 9.44 9.44 0 0 1-1.83-3.84h-.3a10.1 10.1 0 0 1-2.47 6.8l-1.12-.8a8 8 0 0 0 1.7-2.64 11.86 11.86 0 0 0 .58-4.19v-4.17h3.33v-1.41h1.32v1.41h3.36a11 11 0 0 1-1.14 3.44l-1.19-.53a9.68 9.68 0 0 0 .67-1.63h-1.74v2.45h2.75a9.12 9.12 0 0 1-2.12 5.13 11.12 11.12 0 0 0 3.11 1.96zm-5-7.1v-2.45h-2v2.45h2zm2.52 1.27h-2.94a8.15 8.15 0 0 0 1.47 2.92 7.66 7.66 0 0 0 1.44-2.92z"/></g><g id="Layer_1_copy"><path class="cls-5" d="M431.56 350.34c.19-1 .36-2.08.49-3.15 1.43-12-1.55-22.61-6.93-26.75-.41-2.4 3.3-9.17 2.49-11.33-2.18-5.79-5.25-7.63-9.76-10.66-2.71-1.82-10.6-1.48-13.9-1.88a20.1 20.1 0 0 0-3.21-.1c-.64-16-7.75-28.63-17.85-29.84a14 14 0 0 0-6.59.84 51.11 51.11 0 0 0-29.22-13.87 50.53 50.53 0 0 0-22.27 2.4c-.94-.14-1.89-.29-2.84-.41-28-3.36-54.82 4.43-71.49 22.86-1.79-.61-3.15 1.52-5.1 1.29a27.47 27.47 0 0 0-23.83 9.11 96.44 96.44 0 0 0-13.36 4.15c-18.81 0-35.3 12.26-40.32 29.85a38.41 38.41 0 0 0-6.29-1.29c-16.22-1.94-30.78 6.58-34.31 19.41h-.21c-17.64-2.11-33.45 8.81-35.31 24.39-1.22 10.07 3.78 19.64 12.25 25.71a40.64 40.64 0 0 0 15.69 48.4c3.21 9.95 11.84 18.64 23.51 23.76 5.74 8.41 16.87 14.88 30.25 16.48a52.37 52.37 0 0 0 6.14.37 41.26 41.26 0 0 0 16.2 5.33 43 43 0 0 0 13.61-.48 30 30 0 0 0 7.19 1.79 31 31 0 0 0 20.58-4.93 13.2 13.2 0 0 0 3.08.77 13.64 13.64 0 0 0 14.09-8.34 14.82 14.82 0 0 0 10.76-6.6c5.58.54 11.72-1.41 13.24-5 3.59-.66 12.7-.21 15-1.49 17.66-.19 24.57-9.7 25.9-20.83a14.39 14.39 0 0 0 0-3.18 28.5 28.5 0 0 0 4 .82c10 1.2 21.73-1.43 28.5-8.89 15.85-.48 27.7-8.77 36-19.26a46.27 46.27 0 0 0 43.82-59.45z"/><path class="cls-10" d="M358 428l-69.5 33.5-18.5-1.5 22-7.5s103-37.5 127-94.5c18.23-43.29-33.5-86.5-33.5-86.5l19.5 20.5 21.5 12-2 14 6.5 7 1 55.5-19 22-24 2-5 10z"/><path class="cls-3" d="M229.63 341.7c.17-1 .34-1.67-1-2.29-4.85-2.22-5.76-6.33-2.34-10.38a60.48 60.48 0 0 1 17.53-14.42 23.66 23.66 0 0 0 2.79-1.73c6.38-4.7 13.47-7.69 21.74-7.91a8.57 8.57 0 0 0 2.39-.46c10.93-3.58 22.23-3.94 33.72-3.4 6.58.31 13.12.58 19.25 3a50.28 50.28 0 0 1 10.29 5.62c3.67 2.59 7.91 4.26 11.11 7.71 5.66 6.09 6.78 18.92 2.18 25.77-4.32 6.43-7.2 13.71-12.69 19.48-4.66 4.9-8.59 10.62-15.17 13.45a98.7 98.7 0 0 1-12.26 4.09c-4.88 1.37-9.07 4.21-14.23 5a78.37 78.37 0 0 1-9 1.28 13.08 13.08 0 0 0-6.89 2c-1.8 1.22-2.17 4.66-4.62 4.43-3.53-1.66 4.3-12.89-1.5-15-3-1.11-26.09-16.15-26.93-19.34-2-7.65-6-13.95-14.37-16.9zM248.08 360.36c1.35 3.09 2.24 6.39 3.34 9.59a51.33 51.33 0 0 1-2.14 23.22c-1.16 3.73-3.82 6.2-7.57 6.44s-4.35 2.42-4.21 5.12a13.33 13.33 0 0 1-13.36 14.42c-3.63.07-5.83 3.41-9.36 3.84-1.78.22-3.42 1.37-5 2.43a13.84 13.84 0 0 1-15 .66 11.77 11.77 0 0 0-7.61-1c-10.83 2-11.31-2.19-14-9.13-.56-1.42-.41-3.2-2.54-3.21-5.77 0-8-4.31-10.21-8.53a26.8 26.8 0 0 1-1.41-3.61c-.47-1.32-1.24-2.35-2.73-2.41a7.29 7.29 0 0 1-6.12-3.67c-1-1.56-1.94-1.45-3.5-.67a7.93 7.93 0 0 1-9.47-1.23c-3-2.68-2.57-5.74-1.21-9a37.55 37.55 0 0 1 5.1-8.83c3-3.8 6.11-7.48 8.71-11.51 4.9-7.63 8.81-15 16.94-17.75a61.46 61.46 0 0 1 14-2.92 150.33 150.33 0 0 0 15-1.94c6-1.24 4.24 4 4 2.69-1.06-5.87 2.21-1.72 7.78-2.31 11.06-1.92 28.24 3.37 34.6 8.36 2.23 1.84 3.8 5.97 5.97 10.95zm-89.08 4.85c-.85 5.33-.26 6 4.48 6.66a9.16 9.16 0 0 0 5.14-.87 91 91 0 0 0 15.46-9.12 4.94 4.94 0 0 0 1.95-5 4.55 4.55 0 0 0-3.37-3.65c-7.1-2.63-12.91.51-18.44 4.2-2.76 1.84-5.46 4.2-5.22 7.78zm66.73 27.28c.54-4.25-2.33-6.49-7-5.22a37.81 37.81 0 0 0-20.89 14.2c-1.77 2.39-1 4.22 2 4.64a24.07 24.07 0 0 0 6.34-.07c6.1-.8 10.55-4.81 15.2-8.29 1.89-1.37 4.72-2.29 4.37-5.26zm-9.42-42.25c-.85-.07-1.77-.6-2.17.53a1.51 1.51 0 0 0 1 1.68 16.11 16.11 0 0 0 2.81 1.43 38.05 38.05 0 0 1 19.05 14.57 25.11 25.11 0 0 1 2.64 5 2.06 2.06 0 0 0 2.87 1.23c1-.47.47-1.57.23-2.49-.48-1.9-2-3.14-2.91-4.72-5.42-9.06-14.07-13.68-23.49-17.23zM93.53 381.34c2.27 1.8 3.17 4.91 6.17 6.1 1 .4.94 2 1.27 3.15.88 3-.51 6.09.58 9.29.68 2-2.18 3.53-4 4.83-8.57 6.4-47.07-4.55-46.09-6.43 3.08-.35 9-1.49 11.35-1.91a12.57 12.57 0 0 0 9.27-6.13c2.09-3.41 5.6-5.69 9-7.83 3.92-2.41 8.22-1.79 12.45-1.07z"/><path class="cls-9" d="M420.74 342.59c.41-.91-.32-2.87 1.67-2.36 1.45.37.46 2.11 1.14 2.85-.39 1.14-.67 2-1 2.91-.6 1.62-1.82 3.52-3.36 2.86"/><path class="cls-11" d="M414.37 285.56a5 5 0 0 1-2.4 2c-4.2 2.31-5.06 1.95-8.07-1.76-4.65-5.72-8.7-12-14.4-16.79-2.68-2.26-2.7-4.83-2-7.77s4.3-6.11 7.64-6.61 5.71 1 7.43 3.73c.66 1 1.78 2.31-.57 2.81a1.21 1.21 0 0 0-.56.41c-1.4 1.59-3.06 3.13-2.31 5.57a2.75 2.75 0 0 0 2.81 2.26 5 5 0 0 0 4.63-3.81c.79-4 3.15-3.42 5.71-2.69 2.25.65 4.64 5.12 4.15 7.17-.3 1.27-1.37 1.14-2.18 1.45-1.66.63-3.33 1.53-2.57 3.52s2.72 1.85 4.48.95a10 10 0 0 0 .91-.55 3.11 3.11 0 0 1 4.6.8c1.24 2-.57 3.37-2.13 4.14a15.66 15.66 0 0 1-4.74 1.17c-1.49.21-3.45-1.06-4.16 1.34-.36 1.27.44 1.8 3.73 2.66zM375.14 423.4c-5.77 3.18-11.6 6.22-17.42 9.69 1.45-4.69 10.6-9.92 17.42-9.69zM320.2 457.55c.2-6.07 3.51-10.47 8.24-14zM254.09 283.65l-.58-1a1.36 1.36 0 0 1 1.49.31zM257 470.1c-.4.26-.75 1.11-1.25.44-.34-.45.25-.93.73-1.2z"/><path class="cls-9" d="M159 365.21c-.26-3.58 2.43-5.95 5.23-7.81 5.53-3.69 11.34-6.83 18.44-4.2a4.55 4.55 0 0 1 3.37 3.65 4.94 4.94 0 0 1-1.95 5 91 91 0 0 1-15.44 9.15 9.16 9.16 0 0 1-5.14.87c-4.74-.61-5.33-1.33-4.51-6.66zm9.56-2.78c-1.81.35-3.91.6-4.33 2.81-.18.94 1.59 2.15 2.18 1.74 1.52-1.06 4.41 0 4.71-2.68.2-1.53-1.31-1.66-2.53-1.87zM225.75 392.49c.34 3-2.48 3.89-4.33 5.27-4.65 3.48-9.1 7.49-15.2 8.29a24.07 24.07 0 0 1-6.34.07c-3-.41-3.77-2.25-2-4.64a37.81 37.81 0 0 1 20.89-14.2c4.65-1.28 7.52.96 6.98 5.21zm-16.16 7c-2.86-.43-4.74 0-5.53 2.32a1.43 1.43 0 0 0 1.62 2.05c2.1-.27 4.46-.59 5.3-2.88.55-1.49-1.06-1.41-1.39-1.47zM216.34 350.24c9.42 3.55 18.08 8.17 23.53 17.19 1 1.58 2.43 2.82 2.91 4.72.23.92.82 2-.23 2.49a2.06 2.06 0 0 1-2.87-1.23 25.11 25.11 0 0 0-2.64-5 38.05 38.05 0 0 0-19.04-14.53 16.11 16.11 0 0 1-2.81-1.43 1.51 1.51 0 0 1-1-1.68c.37-1.13 1.3-.61 2.15-.53z"/><path class="cls-11" d="M127.72 454.89c3.58 3 6.23 6.61 9.41 10.09-4.28-1.09-8.92-6.11-9.41-10.09zM168.59 362.43c1.22.22 2.73.34 2.56 1.87-.3 2.72-3.19 1.62-4.71 2.68-.58.4-2.35-.8-2.18-1.74.42-2.24 2.52-2.46 4.33-2.81zM209.59 399.51c.33.06 1.94 0 1.39 1.49-.84 2.29-3.2 2.61-5.3 2.88a1.43 1.43 0 0 1-1.62-2.05c.79-2.29 2.67-2.75 5.53-2.32z"/><path class="cls-9" d="M281.94 464.64c2.86-.13 5.63-.19 8.22-1.63 1.16-.64 2.52-1.22 3.83-.13-2.26 4.83-2.44 5.47-2.16 7.43a11.11 11.11 0 0 0 20.78 3.94c1.71-2.8 2.62-6.21 4.62-8.57a80.21 80.21 0 0 0 10.38-14.8c1.27-2.43 2.48-5.63 5.07-6.42a21.35 21.35 0 0 0 6.56-3.79c2-1.46 4-2.83 6.1-4.2.38-.25.77-.94 1.26.12 1.4 3 3.45 1.93 5.54.76 1.1-.62 1.86-2.07 3.3-1.79 3.61.7 6.32-1 9.06-3a27.89 27.89 0 0 1 4-2.06c4-1.91 8.26-3.49 11.56-6.61 1.51-1.42 2.46-3.08-.84-3.72 4-3.61 6.54-8.11 10.92-10.56 2-1.12 7.1 1.93 9.65 1.78a3.31 3.31 0 0 0 1-.32c7.12-2.91 13.83-6.55 19.32-12a25.86 25.86 0 0 1 11.66-6.89 118.37 118.37 0 0 0 20.5-7.3c5.34-2.44 11.28-2.53 16.65-1.87 4.19.52 5.83-1 7.78-3.56 1.59-2.09 2.31-4.6 3.16-7 2.15-6.11-.19-13.55-5.14-17-3.5-2.43-7.65-2.32-11.31-1.72-10.75 1.76-21.12-1.72-31.88-1.13 3.68-8.09 3.92-8.77 2.47-14.53a63.74 63.74 0 0 1-1.52-9.75c-.31-3.27-.93-6.1-3.8-8.2-1-.76-2.43-1.79-1.42-3.8 2.29-4.56 1.44-9.14-.43-13.63-.64-1.54-1.4-3.16-2.9-3.92-4.35-2.21-9.47-2.49-13.56-5.48-.59-.43-2.18-.09-2-1.22.15-.9 1.53-.82 2.49-.8a6.22 6.22 0 0 0 6.08-3.54c1.08-2.62 3.07-3.85 5.08-5.35 4.41-3.29 4.25-6.93-.43-10a3 3 0 0 1-1.66-2.64c-.5-6.47-3.8-9.61-10.35-10.06a3.59 3.59 0 0 1-3.21-2c-2.42-3.67-5.78-6.44-10.47-6s-9.16 2-11.38 7c-.71 1.61-.21 3.46-1.4 5.31-7.16-5.61-16.11-7-23.93-11.37.52-.36-.58-2.29-.34-2.67 2.33-3.64 3.83-14.42 3.83-15 0-6.05-13.1-9-15.25-9.3-7.26-1.09-22.17 17.69-21.48 21 .42 2-.28 2.53-2.13 3.13-4 1.29-8.08 0-11.92.92-6.94 1.72-33.28 7.35-39 10.34-8.1 4.23-16.66 7.78-22.79 15a6.53 6.53 0 0 1-6.27 2.36c-9.91-1.31-17.89 3.31-25.67 8.41a4.2 4.2 0 0 0-1.37 1.33 21.8 21.8 0 0 0-5 .14c-6.54 1.23-13.47.66-19.49 4.23-1.65 1-3.33.75-5.13.63-8.24-.58-16.57-1.18-24.65.78-3.95 1-13.21.72-17.21-.13-5.51-1.17-6.93 20.36-.84 19 2.49-.57 9.12 3.27 11.55 4.38 3.86 1.76 7.51 1.48 11.28-2.27-.36 2.74 1.41 3.93 2 5.67-1.09.8-2 .24-2.86.09-8.77-1.59-17.56-1.77-25.69 2.12-7.63 3.65-14.93 8.12-15.83 17.81-2.13-.25-4.23-.57-6.34-.74a21.5 21.5 0 0 0-9.42.8c-6.07 2.19-10.5 6.47-13.81 11.52-5.63 8.59-8.28 19.12-1.88 29.24 2.27 1.8 3.17 4.91 6.17 6.1 1 .4.94 2 1.27 3.15.88 3-.51 6.09.58 9.29.68 2-2.18 3.53-4 4.83a40.21 40.21 0 0 0 3.09 20c2.49 5.82 5.19 11.73 11.27 14.77 3.19 1.59 5 4.11 7.24 6.73a22.5 22.5 0 0 1 5 10.9 8.8 8.8 0 0 0 1.36 2.81c4 6.69 11.16 9.35 16.92 13.79 4.37 1.13 8 4.09 12.6 4.82a57.32 57.32 0 0 1 7.87 1.75c3.68 1.13 3.16-2.16 3.52-4.3-4.85-.63-9-2-12.84-5.76-3.32-3.24-6.75-6.58-11-9.1-3.94-2.33-9.42-4.44-9.79-10.62 0-.65-.91-1.95-1.69-1-1.56 1.89-2.47.9-3.43-.38-1.27-1.71-.08-2.52 1.29-3.24a2 2 0 0 0 1.25-2c-.11-1.43-1.37-1-2.16-1.28-4-1.62-8-3.06-11.44-6-4.24-3.6-6.57-8.3-9.15-13.07-5.39-10-5.16-20.26-3.41-30.89.34-2 1.11-2.15 2.82-1.6 2.58.84 5.19 1.75 8.46 1.5-1.72-2.1-3.77-1.46-5.29-2.21-1.83-.9-5.48-.5-3.61-4.47a.79.79 0 0 0-.54-1.13c-2.84-.4-1.79-1.74-.68-3 .7-.77 2-1.41.8-2.5s-2.4-.53-3.4.59c-1.27 1.4-1.55 3.24-2 5.15-4.59-4.47-7.07-8.49-7.45-13.42-.8-10.34 3.8-18.31 11.43-24.89 4.79-4.12 10-4.86 16.15-3.79 4.77.83 9.4 2.68 15 2.54-1.51-1-2.49-1.73-3.57-2.29-1.77-.91-4.3-.9-3.78-4.1.36-2.18.83-4.36 2.55-5.66s3-3.1 4.7-4.22c3.61-2.34 7.2-5.24 11.57-5.67 5.48-.53 11-.83 16.57.25s10.79 2.4 13.35 8.38c.58 1.35 1.57 2.53 1.92 4.08a1.92 1.92 0 0 0 2.36 1.63c1.31-.36 1.82-1.25 1.31-2.72a21.38 21.38 0 0 0-5-8.65c-3.22-3.17-3.32-4.1-.62-7.64a9.58 9.58 0 0 0 2.38-5.77c0-3 1.63-5.32 3.47-7.53 3.53-4.25 8.2-7 12.89-9.66a13.71 13.71 0 0 1 8.17-1.6c3.78.4 13.24-3.82 13.56-3.53 1.65 1.55 8.72-6 10.29-6.88 7.91-4.36 27.91-4 26.84-5.25 3.78-2 7.6-3.74 11.24-5.85a98 98 0 0 1 25.93-10.8c10.59-2.59 21.24-4.89 32.24-5.3 15.88-.6 31.56-.4 46.4 6.46a23.53 23.53 0 0 1 6.64 4.52c1 1 2 2.27 3.28 2.59 2.93.76 4.37 2.86 6 5.09s2.26 5.24 5 6.61c3.64 1.79 7.93 9.85 7.15 13.78-.9 4.57 3.06 8.73 5.28 4.68 1.12-2 6.5-4.21 8-2.54 4 4.56 13.15 2.84 13.86 12.2.14 1.88-5.38 6-6.53 6.89-2.06 1.55-4.17 3-6.3 4.49-1.22.83-2 1.88-1.18 3.24.92 1.54 2.44 1.32 3.72.5a33 33 0 0 0 3.59-2.86c.81-.69 1.55-1.68 2.72-1.31 1.55.49.26 1.83.62 2.72s.16 2.33 1.3 2.75c1.53.55 1.9-1 2.62-1.84a2.65 2.65 0 0 1 .7-.43c1.64 6.27 3 12.31.33 18.59-1.35 3.12 1 3.31 3.67 2.56a30.83 30.83 0 0 1-12.31 16c1.89 1 3.77 0 6.52-.32-1.89 2.92-4.13 4.94-3.9 7.92s2.84 5 4 7.65a3.08 3.08 0 0 1 .46 1.31c-.1 1.25-1.07 3.17-1.57 3-4.09-1.19-3.28 2-3.37 3.82-.13 2.62-.05 5.13-1.76 7.39-1.38 1.83-3.51 2.78-5 4.39a14.79 14.79 0 0 1-11.83 5.13c-3.27-.07-12.38-.84-12.91-.45-3.44 2.58-4.1 6.87-6.42 10-3.88 5.24-9.17 8.57-16.15 8a39.63 39.63 0 0 1-10-2.27c-1.51-.53-3.36-.58-4.21.77s1 2.15 1.73 3.13a10.68 10.68 0 0 0 2 2c1.52 1.18 1.29 2.34.11 3.55a6 6 0 0 1-3 2.13c-.22-.48-.46-.9-.61-1.34-1.34-4-2.38-4.2-5.66-1.57a73.49 73.49 0 0 1-8.48 6.29 21 21 0 0 1-9.6 3.2c-1.28.06-2.35.08-3.11-1.55a10.4 10.4 0 0 0-10.12-6.32c-4.25.11-7.89 1.83-9.84 6.15-2.52 5.57-4.75 11.23-6.86 17-1.13 3.08-1.72 6.58-4.83 8.59l-8.58 3.18c2.36-2.61-12.84-4.77-21.17-.24l-7.45 8.1c-.4.26-.75 1.11-1.25.44-.34-.45.25-.93.73-1.2.71-1.63-.19-4.37 2.21-4.78 4.73-.82 8.73-3.46 12.88-5.36 12.12-5.55 21.49-17.3 16.17-33.23a3.43 3.43 0 0 1-.07-2.71c3.29-7.25 1.43-13.72-3.17-19.73-4.06-2-7.08-5.82-12-6.37 2.52-3.89 3.64-7.68 2.85-12-1.48-8.14-7.76-11.23-14.44-13.76-3.49-1.33-6.27-3-7.22-6.89-2.28-9.41-6.8-17.08-16.47-20.62-8.83-4.59-18.12-7.37-28.18-6.5-3.95.34-8.55-3-9.93-1.9-2.28-5.61-14-9-13.24-8.67a26 26 0 0 1 11.15 8.78c1.15 1.5-.36 5.07 1.55 5.53 2.2.53.42 2.62.86 4 .32 1 2.33-3.44 7.9-4 8.2-.86 15.87.95 23.39 3.9 2.81.25 4.94 1.89 7.12 3.45 5.48 2.22 8 7 10.2 12 1.35 3.09 2.24 6.39 3.34 9.59 2.43 1.56 8.67 5.46 8.67 5.46 4.64 1.63 9.28 3.21 11 8.61 1.07 3.28 1.11 6.34-1 9.24 0 2.37-4.41 3.11-2.58 5.89 1.35 2.05 4.29 1.56 6.44 2.45a4.19 4.19 0 0 0 .66.26c4.4 1 7 4.29 9.27 7.7a8.71 8.71 0 0 1-1.46 11.24 1.86 1.86 0 0 0-.66 1.13c1.62 2.23 0 5.29 1.85 7.36 1.52 1.67 1.52 3.61 1.41 5.62-.47 9-5.82 14.69-12.71 19.57-4.77 3.38-10.31 5.08-15.41 7.74-3.68 1.92-4.37 5.25-3.74 8.3.43 2.08-.28 2.57-1.38 3.35-5.68 4-12.53 5.83-18.39 9.55a8.05 8.05 0 0 1-1.7.31c-5.1 1.66-10.31.9-15.46.6-7.65-.45-15.38.7-23-1.14-1.71 1.14-3.59 2.06-5 3.66 2.57.39 5.12.87 7.7 1.17 9.41 1.08 18.88 0 28.31.82 2.39.21 5 .79 7.36-.3 6.63-3 35.63-23.15 41.7-27m-136.14 3.41c-4.28-1.09-8.92-6.11-9.41-10.09 3.58 2.95 6.28 6.59 9.41 10.09zm266.76-179.23c-4.65-5.72-8.7-12-14.4-16.79-2.68-2.26-2.7-4.83-2-7.77s4.3-6.11 7.64-6.61 5.71 1 7.43 3.73c.66 1 1.78 2.31-.57 2.81a1.21 1.21 0 0 0-.56.41c-1.4 1.59-3.06 3.13-2.31 5.57a2.75 2.75 0 0 0 2.81 2.26 5 5 0 0 0 4.63-3.81c.79-4 3.15-3.42 5.71-2.69 2.25.65 4.64 5.12 4.15 7.17-.3 1.27-1.37 1.14-2.18 1.45-1.66.63-3.33 1.53-2.57 3.52s2.72 1.85 4.48.95a10 10 0 0 0 .91-.55 3.11 3.11 0 0 1 4.6.8c1.24 2-.57 3.37-2.13 4.14a15.66 15.66 0 0 1-4.74 1.17c-1.49.21-3.45-1.06-4.16 1.34-.38 1.3.41 1.83 3.7 2.69a5 5 0 0 1-2.4 2c-4.16 2.28-5.02 1.91-8.04-1.79z"/><path class="cls-3" d="M144.83 482.76c4.37 1.13 21.25-4.68 21.61-6.81a17.17 17.17 0 0 1 13.62-10.43c5.81-.9 18.43 7.09 14.56 14.77-4.91 9.75-17.94 14.2-23.26 13.8-12.36-.9-29.09-7.35-26.53-11.33z"/></g><g id="Layer_3_copy"><path class="cls-12" d="M107.98 325.5l211.42-110.39"/><path class="cls-13" d="M104.69 327.07l192.52-100.57"/><path class="cls-9" d="M157.42 70.64c1.86 1.17 3.74.6 5.63.31 1 3.72 1.23 3.84 3.86 3.18 1 .75 2.09.47 3.17.21 1.22.71 2.54.17 3.81.33h3.42l3.69-.37a10.26 10.26 0 0 0-4.78 0l-2.28.11c-.82-.19-1.92.46-2.41-.77a24 24 0 0 0-.6-2.4 1 1 0 0 0-.14-.24c-.47-.87-.66-1.52.77-1.17a5.23 5.23 0 0 0 1.32 0l6.19-.69c.94-.05 1 .54 1 1.28s0 1.31 1 1a26 26 0 0 0 5.36.57.78.78 0 0 0 1-.84c-.11-2 .25-4.13-.36-6.15a6.33 6.33 0 0 0-.26-2.11.88.88 0 0 0-.11-.29 1.29 1.29 0 0 0-.39-1.23c-.68-1-1.32-2.09-2.76-2.12a14.24 14.24 0 0 1-2-.21 16.42 16.42 0 0 0-10.41.85 5.78 5.78 0 0 0-2.92 1 8.22 8.22 0 0 0-4.1 1.77c.69 0 1.13.56 1.63.06a5.16 5.16 0 0 0 3 .32 4.26 4.26 0 0 0 4.2-.48 9.09 9.09 0 0 1 3.05-1.32 11.44 11.44 0 0 0 2.76-.7l.35.1.33 1.7c.11 1.3.15 2.6.35 3.88s-.33 1.51-1.38 1.38a8.55 8.55 0 0 0-3.9.47 1.31 1.31 0 0 0-.31.1 8.65 8.65 0 0 0-1.2.05c-2.45.44-2.5.45-2.75-1.88-.1-.91-.49-.89-1.26-1.06-1.7-.36-3.41 0-5.1-.33-.91-.19-1.89 0-1.62 1.44.11.61.13 1.24.19 1.91a7.86 7.86 0 0 0-4.76 0 1.42 1.42 0 0 0-1.15 1.16 1.6 1.6 0 0 0 .87 1.18zm23.34-9.43v-.34h.16a3.05 3.05 0 0 0-.15.34zM175.92 91.38c-1 0-1.94-.06-2.91-.05-.51 0-.91-.06-.87-.7l.37-1.31 2.32-.38a1 1 0 0 0 1.44 0c.24.2.46.71.74 0 1 .09 2.06.57 3.07-.08l.34-.41a2.83 2.83 0 0 0 .06-2.45c.25-.5-.52-.76-.31-1.25h.14l.12-.07a34.92 34.92 0 0 0 8-1 .76.76 0 0 0 .81-.28 2.53 2.53 0 0 0-1.93.24 24 24 0 0 0-6.87.78c-.78-1.06-.44-2.34-.7-3.51a1 1 0 0 1 .87-1.14 21.52 21.52 0 0 0 2.58-.66 15.94 15.94 0 0 0 3.66-1.25h-2.62c-2.08.09-4.24-.58-6.22.63a7.84 7.84 0 0 0-2.45.67 6.23 6.23 0 0 0-2.93.65c-.89-1.15-1.12.36-1.73.46a78.54 78.54 0 0 1-8.73 1.36 19.86 19.86 0 0 0 7.44.06c.93-.14 1.9-.4 2.33.59a1.64 1.64 0 0 0 .15.49l-.05.12.08.1c-.09.68.24 1.37-.09 2a1 1 0 0 0-1.68-.09c-.38-.17-.77-.71-1.11.05-.57-.5-1.06.24-1.61.1-.62-.81-1.55-.49-2.24-.36s-.64 1-.6 1.63v1l-.65 2.87a11.23 11.23 0 0 1-3.71 0l-1.08-1.11c-.49-1-1.55-1.74-1.48-3a20.82 20.82 0 0 0 2.53-3.42l1.64-2.16c-.12-.49.92-1.36.16-1.33-2.35.08-4.74-.33-7.06.36-1.11-.62-.7-2-1.37-2.8.39-.78-1.23-1.81.3-2.45l4.52-.88c-2.14-.67-3.9-.29-5.56-.72a.4.4 0 0 0-.27-.16c-.1-1.3-.18-2.61-.3-3.91a.81.81 0 0 0-.86-1c-1.81 0-3.62-.17-5.43-.27-.41-.67-.74-.39-1 .1-.7 1-.34 2-.06 3.08-.19 1.18.46 2.26.38 3.42-1 .39-1.93.68-2.24-.36a1.61 1.61 0 0 0-.11-.74v-3.05c0-.56-.12-1.19-.82-.38a.89.89 0 0 0-.86-.33c-1.46-1.15.17-1.25.59-1.76a6.65 6.65 0 0 0 2.05-1.32c1.65-.36 2.93-1.49 4.43-2.13l.38-.44a1.58 1.58 0 0 0-1.36-.14l.13.08a.28.28 0 0 1-.13-.08c-3.37-.54-6.77-1.26-9.69 1.36a4.25 4.25 0 0 0-1.74 1 8.54 8.54 0 0 0-2.41 1.35l-4.15 2.13-4.38 2c1.72-.07 3.24.62 4.83.79a7.07 7.07 0 0 0 5.1-1.1c.92.35.14 1.29.62 1.79l.12-.08-.13.08a14.67 14.67 0 0 0 .08 2.54c.23 1.17-.34 1.6-1.31 1.86a23.63 23.63 0 0 0-5 1.74c-1.23.06-2.06 1-3.15 1.43 3.08.49 6.13.73 9.13-.41a.61.61 0 0 1 .61.66 43.55 43.55 0 0 1 .06 5.63l-3.5.47c1.28.77 2.58.34 3.75.64a.34.34 0 0 0 .09.28c-.28 1.48.49 3 0 4.45a5.79 5.79 0 0 0-3.46.1c1.4 1.37 1.4 1.37 3.16 1.28.77.42 1.23 1.54 2.4 1.06l1.06-.06.36.14h2.44l.32-.07c1.36.27 2.21 0 1.84-1.67a1.36 1.36 0 0 1 .26-.61 10.71 10.71 0 0 0 3.43 0c1.8.42 3.49.37 4.84-1.13 3.33.7 6.71.19 10.06.39.36-.3.49.19.72.36l-.09.9c-.54.06-.37.6-.6.87-.16.8 0 1.25 1 1.13s2.32-.07 3.48-.1c.26.48.46-.11.7 0 .95.36 2.14.4 2.67-.28a4.29 4.29 0 0 1 5-1.81c2.4.84 4.84.2 7.27.24a19.65 19.65 0 0 0-7.42-1.26zm-33-.36v-.08.06zm-.92-12.83s0 .1.06.14zm-3.45-4.57v.06h-.08zm0 .09zm-.7 8.23zm3.72 5v.14l-.06-.06zm10-8.67l-.13.16a3.91 3.91 0 0 1 .17-.45.38.38 0 0 1-.07.35zm-6.79 13.06a1.55 1.55 0 0 0-.24-1.37v-.1a2.68 2.68 0 0 0-.27-1.62.52.52 0 0 0-.18-.13l.05-1.83a2.62 2.62 0 0 1 .4-.11c.61-.22 1.63-.23 1.57-1s-1.08-.55-1.72-.64a.47.47 0 0 0-.17 0h-.22a7.9 7.9 0 0 1-.14-1.71 44.17 44.17 0 0 0-.23-4.78 1.66 1.66 0 0 1 .12-.35 3.31 3.31 0 0 0 .22-.72l1.84-.5a2 2 0 0 0 .27.35l.2.14.54 1.5a4.69 4.69 0 0 0 .68 2.07l2.08 5.94-.05.1a2.11 2.11 0 0 0-.08.31 3.78 3.78 0 0 0-2.22 2.54h-.05a4.16 4.16 0 0 0-2.43 1.97zm32.92-8.74zM189.8 93.07h-.05zM193.59 92.08a5.4 5.4 0 0 0-3.75 1 9.79 9.79 0 0 0 4.07-.4 6.55 6.55 0 0 0 3.53-1zM189.8 93.07h-.06.08zM184.76 93.5c1.65-.38 3.33.33 5-.43h-5v.43zM181.84 93.2a2.44 2.44 0 0 0 1.92 0 2.26 2.26 0 0 0-1.92 0zM192.55 144.84c-1.46-.59-2.34-2.46-4-2.43a2.6 2.6 0 0 1-1.51-1.29c-.35-.59-.67-.53-1 0l-.45-.38c-.23-1.29-1.25-.81-1.88-1.2-2.53.06-4.86 1.41-7.36 1.61l-2 .1a2.19 2.19 0 0 1 .42.14 1 1 0 0 1-.42-.14h-3.8l-1.39-.3a8.79 8.79 0 0 0-2.08-1.67c-1.85-1.35-.57-3.29-.67-5a3.3 3.3 0 0 0 .34-2.54 20 20 0 0 1-.33-4.84c1.08-1.16 2.57-.66 3.78-1.3a1.8 1.8 0 0 0 1.26-.25.49.49 0 0 0 .17-.11h.15l.14-.08a8 8 0 0 0 3.12-.78 6.33 6.33 0 0 0 2.77-.82 7.81 7.81 0 0 0 3.1-1.27 17.54 17.54 0 0 0 4-2.28c.32-.2 1.48-1-.12-1.51a5.22 5.22 0 0 1-2.38-1.77c-.73-1.33-1.86-1.52-2.72-2.34a6 6 0 0 0-.16-.94c-1.18 0-1.8-1-2.56-1.79a1.08 1.08 0 0 0-1.44-.11l-5.08 2.45c-.9 0-1.72.79-2.66.35v-.73l.07-.79c.37-.9.67-1.86 1.11-2.71 1.69-3.23 1.61-4.2-1-5.73-.26-.16-.81-1.49-1.55-.61-1-2-2.82-3-4.29-4.38-.87-.83-1.32-.31-1.71.62a11.56 11.56 0 0 0-2.28 5.39.33.33 0 0 0 0 .37 3.34 3.34 0 0 0-.38 2.07 39.41 39.41 0 0 0-.94 7.83c-.09 1.36-.5 1.89-1.61 2.07-1.7.28-3.37.77-5.05 1.16a3.48 3.48 0 0 0-2.16.41 3.24 3.24 0 0 0-2 .42 12.27 12.27 0 0 0-4.15.82l-1.94.09a4 4 0 0 1-1.76.43 3.39 3.39 0 0 1-3.13-1.22c-.32-.08-.63 0-.61-.68 0-1.15-.49-.45-.83-.27l-.6-.06c.36-.82.36-.9 0-.91-1.49 0-2-1.07-2.1-2.66l.38-2.87a4.7 4.7 0 0 0 .33-2.06l1-3.63.17.1a32.68 32.68 0 0 1 2.57-5.42 1.91 1.91 0 0 0-.66-2.9c-1.21-.86-2.83-1.26-3.59-2.64s-2.08-1.86-3.08-2.67a.71.71 0 0 1-.62.47c-.5-1.67-1.31-.47-1.58-.06-.85 1.3-1.87 2.56-2 4.35a8.18 8.18 0 0 0-1 3.31 4.91 4.91 0 0 0-.7 2.85 3.67 3.67 0 0 0-.35 2.13 15.47 15.47 0 0 0-.68 4.47c-.46 3.66-1 7.32-1.37 11a4.24 4.24 0 0 1-1.33 3.08l-1.81 1.11a2.93 2.93 0 0 0-1.73.9 11.83 11.83 0 0 0-3.43 1.64 5.14 5.14 0 0 0-2 1.27c-1.21.55-2.43 1.09-3.64 1.67-.4.19-1 .52-.44 1.11 1.44 1.44 2.92 2.85 4.93 3-.15.59.16.7.54 1 1 .68 2.26 1 2.69 2.59a11.87 11.87 0 0 0-2.41 3.28 33.46 33.46 0 0 0-3.42 4.63l-2.44 2.83c-2.7-.23-4.14 1.91-5.53 4.14l-.71.81a1.25 1.25 0 0 0-.35 1.61c-1.44 1.75-1.46 1.94.32 3 .93.54 1.73 1.48 2.84 1.57 1.1 1.27 2.54 1.91 3.8 2.9 1.34 1.31 2.55 1.16 3.71-.39a19.65 19.65 0 0 1 1.51-1.64l2.09-2c1-.19 1.25-1.7 2.35-1.85v2.15a4.58 4.58 0 0 0-.28.94 159.54 159.54 0 0 0-.39 17.18c.09 1.9.36 3.88 1.92 4.74 2.87 1.6 5.86 2.91 8.8 4.33a1.1 1.1 0 0 0 1.37.51l-.71-2.2a2 2 0 0 0 1.13-2.19c-.13-1.07-.11-2.17-.25-3.24-.55-4-1.69-8-1.15-12.21-.61-.82 0-1.65 0-2.47a.51.51 0 0 0 0-.35 11.46 11.46 0 0 0 .32-4.18l.68-7.39v-.7a4.85 4.85 0 0 0 .32-2.59l.68-4.51c1-.4 2.07.08 3.1-.07l.34.1 2.41 1.22c0 1.1-1.22 2-.32 3.26a3.85 3.85 0 0 0 1.72 1.27 7.5 7.5 0 0 0 2.74 1.62.59.59 0 0 0 .69.42l2.43 1.63c1.67 1 3.17 3 5.3 1.27a2.1 2.1 0 0 0 1.43-.79 4.29 4.29 0 0 0 2-1.27 16 16 0 0 0 3.76-2.5.42.42 0 0 0 .43-.39c.51.3 1.37-.53 1.58.7a6.86 6.86 0 0 0-.35 2.87 7.74 7.74 0 0 0-.36 2.85c-.57 1-1.18.06-1.57-.15-.87-.45-1.28-.21-1.13.79.31 2.16.29 4.4 1 6.46-.29 2.45 1.11 3.33 2.68 4l1.12.5a.57.57 0 0 0 .69.41 9.23 9.23 0 0 0 2.77 1.58c.43 1 1.36 1.15 2.09 1.57 1.59.93 1.78.73 2.07-1.53a13 13 0 0 0 .73-4.09 17.46 17.46 0 0 0 .69-4.91 13.32 13.32 0 0 0 .28-4.61v-1.21c.46-2.73 0-5.46 0-8.19a13.54 13.54 0 0 0 0-5.11v-2.67a.64.64 0 0 0 .25 0c1.08.64 1.95 1.75 3.19 2.05a7.46 7.46 0 0 0 2.77 2 2.06 2.06 0 0 0 1.61.86 1.42 1.42 0 0 0 1.13.77c1.23 1.15 2.73 1.28 4.18 1.58a.42.42 0 0 1 .26-.13l-.26.13a3.34 3.34 0 0 0 2.08.39l1.39.08a6.45 6.45 0 0 0 4.14 0c2-.21 3.81-1.37 5.69-2.17a.82.82 0 0 0 .12-1.54zm-61-38.62a.35.35 0 0 1-.66-.13 1.87 1.87 0 0 0 0-.38zm-20.24 22.22h.33a.39.39 0 0 1-.31 0zm2.12 10.79l-.08-.18a.63.63 0 0 0 .13.16zm1.71 36.5zm1.86-13.43a.06.06 0 0 0-.07 0c-.14.08 0-.07.07 0zm1.41 3.08v-.53a2 2 0 0 1 .06.3zm.18 13.68v-.06c.19-.11.05.19-.02.06zm.6-4.53v-.17.19zm.29 6.22a.61.61 0 0 0-.1.14c0-.1.07-.2.1-.3l-.02.17zm.45-23.49h.09v.07zm1.07-18.26a1.2 1.2 0 0 1-.28-.16l.3.05a.33.33 0 0 1-.02.11zm.36-24.88v-.09.13zm.38-2.86v-.08zm.32 11.12zm.7 32.43zm0 28.76zm0 0zm.34-35.66v-.12l.08.11h-.07zm0 29.88c0-.24.07-.45.1-.67v.27zm.6-72.27v-.11.15zm.09 67.71v-.13zm1.21-56.46a4.75 4.75 0 0 0-.05-.6.66.66 0 0 1 .11.38c-.06.07-.06.14-.06.22zm.28-3.16c-.14.05 0-.05 0-.07v.07zm0 4.2v-.06zm.42-2.87v-.07zm.86 8.73v-.08.12zm.18-9.11v-.25a1.57 1.57 0 0 1 .02.25zm0 10.61l.08-.23a.83.83 0 0 0 .09.21s-.13.17-.19.01zm.22-7.74zm.81 27.83h-.15l.18-.11zm26.49 18.9c0-.06 0-.1.07-.1zm-1.29-44.31v.06l-.07-.06h.07zm-22.38-9v-.05zm-.93 15.49a.88.88 0 0 0 .14.15s-.2-.06-.16-.14zm-1-23.86a.14.14 0 0 1-.17-.12zm12.44 47.76zm0 0zm14.15 0zm-.06-21.24a4.64 4.64 0 0 1-2.87 2.06c-1.34.42-1.43 1-.51 2a.91.91 0 0 1 .35.24 1.45 1.45 0 0 1 0 1.21 4.66 4.66 0 0 0-1.34 1.82l-3.5 3.93a.56.56 0 0 0-.11-.11c-1.91.52-3 2.44-4.6 3.6a2.68 2.68 0 0 0-.12.25 9.47 9.47 0 0 1-2.43-.44c-.43-.06.1-1.92-.9-.91-.24-1.59-1-1.6-1.95-.84a8.93 8.93 0 0 1-2.53 1.58.5.5 0 0 0-.18.29 1 1 0 0 0-1.62-.15v.08h-.05a.79.79 0 0 0-.85-.29 1.59 1.59 0 0 1-.38-.46 5.59 5.59 0 0 0-3.51-1 2.1 2.1 0 0 0-.1.24v-.12a.32.32 0 0 0-.05-.29 9.94 9.94 0 0 0 .36-3.25 1.32 1.32 0 0 0 .29-.52c.23-.92 0-1.94.41-2.83a4.55 4.55 0 0 0 .12-3.25l-.07-.06.61-.74a19.61 19.61 0 0 0 5.2-3.27l.66-.47c.8-.08 1.25-.87 1.78-1.4 1.13-1.13 2.26-1.91 3.75-1l1.75 1.55 1 .13c.14 1.68 1.73 1.67 2.36 2.81a1.43 1.43 0 0 0 .82 0 6.75 6.75 0 0 0 3.8-.38 3.09 3.09 0 0 0 2-.35 1.91 1.91 0 0 0 .14.15 2 2 0 0 0 2.41-.29l.09-.16a.48.48 0 0 1 .07.1 2.48 2.48 0 0 1-.3.54zm3.57-12zm.69 4.15zm.34 31.17zm1.07.35c0-.05 0-.11-.06-.16v-.11.17.1zm.28-44.15c-.17.05 0-.11.07-.07zm.38 46.28zm0 .12v-.13a1.06 1.06 0 0 0 .1.1zm2.75-4.78v-.36a.5.5 0 0 0 .19.07 3.32 3.32 0 0 1-.17.26zm1.35 12.42l.08.06zm13.71-19.68h-.05l.06-.02zm2.6 1.22zm4.48-.92l-.29.2a2.64 2.64 0 0 1 .27-.2zm-6.56 4.62zM267.2 190.75a17.26 17.26 0 0 0-3.78.87 2.88 2.88 0 0 0-2.14.6l-.84.07-2.14-1a11.34 11.34 0 0 0-2.56-2.38l-2-2.63a4.4 4.4 0 0 1-.93-4.11c.67-3.29.73-6.73 1.57-10l.89-.29a11.85 11.85 0 0 0 4.33-.58c-1.15-.41-2.11.08-3.05-.33-.78.55-1.67 0-2.48.24l-.29-.27a52 52 0 0 0 1.39-6.72c.29-2.06 1.13-4 1.14-6.1.27-1.56.66-3.1.79-4.68.18-2.18.56-4.46-1.18-6.29-1.13-2.2-1.13-2.2.58-3.53a1.17 1.17 0 0 1 .37-.12c.69.46.48-.23.51-.53.14-1.37-.36-2.7-.4-4.06-.4-.69-.52-1.64-1.41-1.87l-.88-.5a5.63 5.63 0 0 0-2.17-.63 7.88 7.88 0 0 0-2.71-.36c-.42-.56-.93-.22-1.4-.25a7 7 0 0 0-3.27-.61c-1.57-.23-3.15-.7-4.71-.12l-1.27.12a3.08 3.08 0 0 0-1.89.3 2.11 2.11 0 0 0-1.61.29l-.42-.07.34-3.9c.39-.75.15-1.75.67-2.45a24.62 24.62 0 0 0 5.64-1.52 25.22 25.22 0 0 0 4.41-1.47c-1.45-.26-2.79-.95-4.22-.94a12.61 12.61 0 0 0-4.23-.9c-.46 0-.68-.11-.65-.64.3-.58.6-1-.34-1.45-.65-.34-1.45.09-1.94-.69s-1.48-.23-2.18-.68c-.86-.55-1.87-.15-2.77-.54l-.32.5c-.85-.57-1.42-.36-1.7.7-.12.48-.26 1-.38 1.43a5.77 5.77 0 0 0-.51 2.08c-.22.76-.12 1.69-.81 2.19a.25.25 0 0 0-.12.09l-.79-.05-.27-.22a.8.8 0 0 0-1.12 0h-1.35c-1.39-.13-2.56.58-3.79 1.06a.87.87 0 0 0-.29.11l-3.85 1.1a.72.72 0 0 0-.44.13l-.5.07c-.72-.36-.2-.85-.11-1.23a36.92 36.92 0 0 0 1.21-7.64c.29-.83.58-1.67.85-2.51.16-.51.4-1.48.11-1.49-.66 0-1.37-1-2-.08a4.93 4.93 0 0 0-2.48-1.2c-.81.12-1.66-.48-2.46.05-1.51-1.46-2.1-1.26-2.66.89-1 2-.78 4.26-1.14 6.4l-1.17 5.19-1 3-1 2.73-1.73 3.67-2.58 4.54a17 17 0 0 0-2 3.08l-2.35 3.6a7.82 7.82 0 0 0-1.56 2.13l-.75 1-.48.66-4.43 5.78-3.17 3.31-2.6 2.19a.85.85 0 0 0-.54.58 1 1 0 0 1-.25 0c-.59-1-.86.4-1.51.16-1.37-.5-1.94.8-2.73 2h3.77l.8.05c1 .6 2 .13 3 .25 3.43.34 6.08-1.4 8.54-3.67l.57-.54a2.44 2.44 0 0 0 1.31-1.22 17.53 17.53 0 0 0 4.43-5.11c1.32-.75 2-2.17 2.87-3.4h1.84a33.83 33.83 0 0 0 6.54.58c.27.58-.07 1.16.05 1.74a47.15 47.15 0 0 0-.84 7 4.36 4.36 0 0 0-.19 2.19 6.39 6.39 0 0 0-.2 2.4 22.65 22.65 0 0 0-.11 5.26 17.19 17.19 0 0 0 1.09 6.69 2.88 2.88 0 0 0 1.13 2.19 3.39 3.39 0 0 0 2.25.82l.83.3c1.91.26 3.76-.3 5.65-.32h4.62l.85-.29 2.66-.63a17.83 17.83 0 0 0 6.6-5.47.85.85 0 0 1-.21-.36.74.74 0 0 1 .21.36 9.56 9.56 0 0 0 1.32-1.79 1.41 1.41 0 0 0 .77-.65l.55-1.42a14.82 14.82 0 0 1-5.18.53c-.37-.24-.66-.21-.81.28l-2.16.33-.27.27a2.53 2.53 0 0 0-.8.49c-1.95 2.61-4.5 4.43-6.82 6.55-.74.59-.9-.38-1.31-.67a.14.14 0 0 0-.13 0l-.81-2.13a4.85 4.85 0 0 0-.35-2.12l-.11-3.61a4.76 4.76 0 0 0 .1-2.22c-.58-1.12.41-2.23-.12-3.35.57-2.9.79-5.87 1.1-8.82a4.38 4.38 0 0 1 .31-2.16l.63-2.38 1.7-.32c2.09-.37 2.09-.37 2.65 1.89a.56.56 0 0 1 .1-.15l-.12.1a64.86 64.86 0 0 0 .86 8.79c.43.66-.23 1.86.91 2.18.75.37 1.48 0 2.22 0h.12l.1-.06h2.43c.3.47.56 0 .84 0h.27l1.92.1a8.63 8.63 0 0 0 .68-4.91l3.47-.09h3.79c1.48.23 2.89-.26 4.34-.33l1.6-.2c.14 1.25-.51 2.34-.41 3.58a64.31 64.31 0 0 0-1.83 9.46 1.55 1.55 0 0 0-1.08.29l-2.69.07h-1.84a3.38 3.38 0 0 0-2.23.26l-.25.63a5.56 5.56 0 0 0-2.11 2.94 2 2 0 0 0-.49 1.23 12.86 12.86 0 0 0-1.23 3.38l-2 4.87a18.69 18.69 0 0 0-2 3.95 24.7 24.7 0 0 0-2.27 3.46c-1.68 1.85-2.79 4.18-4.19 6.27-.17.26-.39 1 .21.71s1.1.24 1.49-.29l2.72-.3a2 2 0 0 0 1.34-.37c.68.22 1.36.48 1.93-.21l.45-.26c.74.77 1.08-.16 1.41-.48a34.78 34.78 0 0 0 2.26-2.7 18 18 0 0 0 3-3.89 2.23 2.23 0 0 0 .77-1.23 12.86 12.86 0 0 0 2.5-4.3l.77-1.53h.27l.3.27a3.46 3.46 0 0 1 .87 2.49 1.3 1.3 0 0 0-.24 1 35.88 35.88 0 0 1-1 7.68c-.15.48-.79 1.12-.15 1.61a1.49 1.49 0 0 0 1.6 0c1.74-1 3.77-.44 5.58-1.05a2.87 2.87 0 0 0 2.34-1.75 1.4 1.4 0 0 1 .62-.72 4 4 0 0 0 2.11.29 34.15 34.15 0 0 0 5.41-.92c.86.26 1.6-.32 2.43-.3l2.94-.61a9.84 9.84 0 0 0 2.7-.63 6.92 6.92 0 0 0 2.58-1.39 5.59 5.59 0 0 0-2.44.26zm-10.83-36.75v.13zm-.79-.24zm.73-13.6v.22-.1-.09zm-1.81 4.15h-.07a1.25 1.25 0 0 1 0-.17zm.17 14.31zm.06 4.62a.18.18 0 0 1 0 .07zm-1.07-17.69l.06.11h-.05v-.07zm-.18-5v.09-.04zm.06 1.76v.17l-.18-.26zm-.24 23.69zm-1-25.92v.25l-.13-.3s.09-.03.1.06zm.47 16.7c-.15.06-.1 0-.03.01zm-.52 1.9zm-1.25-22.42a2.47 2.47 0 0 0 .14.24h-.16zm-37.15-11.38zm-5.72 42.32a1.32 1.32 0 0 1 0-.13v-.1l.01.23zm.34-2.07zm.75 10.87zm21-3zm-19.22-51.46v.05zm-.66 3.33zm-1 1.82zm-.34-6.82v.09a.3.3 0 0 1-.16-.13zm-.81 16zm-1.33-8.91v.07l.04-.11zm-.21-4.52zm-1.32.93zm-1.09 7.59l.04-.03zm-21.55 35.04zm17-26h.08l-.08.05zm4.56 5.5zm-7.25 8.31zm3.28-7zm.1-6.06l.06-.07-.07.09zm-3.5 11.25zm-3.24.32zm10.62-6.74zm-17.26 18.3l.06.09-.07-.08zm-4.27 2.12zm26.52-9.37l.01-.03zm.21-10.27c-.35 4 .23 4-4.15 4.73-1 .17-2.2-.09-3 .82a.44.44 0 0 0 0 .07 1.38 1.38 0 0 0-1.12-.37c.67-1.41 1.86-2.39 2.47-3.85a6.1 6.1 0 0 0 1.34-1.76h.12c1.49.06 3 .73 4.46-.06a2.88 2.88 0 0 0-.11.4zm.63 11.77v.06zm.12-.93v-.07.08zm1.54 16.14v-.08zm.83 4.11h.09v.11zm-.07-8.17a.73.73 0 0 1 0-.14v.12zm-.35-9.65v-.15.11zm1.17-3zm0-.63a.6.6 0 0 1-.22-.27.74.74 0 0 1 .25.09zm.9 17.69zm.26-1.38zm.3 3.37a.73.73 0 0 0 0-.08l-.02.02zm-.86-28.4v-.48s0-.11-.12-.08.1-.16.13.07a.63.63 0 0 1 .06.17c-.06.04-.08.16-.1.26zm.81 12.4zm1 19.19s-.09.22 0 .06l-.04-.12zm-.42-13.28zm6.82-19c-.68-.36-1.37.27-2.05.05h-.07c.11-2-.06-2.24-1.74-2.42a10.64 10.64 0 0 0-1.34-.12c-.15 0 0-.1.1-.23.63.6 1.14 0 1.69-.19.68-.36 1.53-.27 2.11-.88h.1a1 1 0 0 0 .37 0 .84.84 0 0 0 .13-.1.88.88 0 0 1 .29.28 11.81 11.81 0 0 0 .22 1.72 6.65 6.65 0 0 1 .14 1.79zm.2 1.45a1.09 1.09 0 0 0 .06-.21l.12.22a.44.44 0 0 0-.23-.11zm.85 1.92zm.72-10.08v-.05h-.07zm2.93 13.52l-.09.06a1 1 0 0 1 .09-.14l-.06-.01zm-.84-22.98a2.69 2.69 0 0 0-.11.94 28.16 28.16 0 0 0-.32 6.84 1.57 1.57 0 0 1-1 .7c-.64 0-1.29-.43-1.93-.07a.1.1 0 0 0-.17 0 1.46 1.46 0 0 0-1.43-.21c-1.09.27-2.16.61-3.23.93h-.28a.72.72 0 0 0-.81.25 5.54 5.54 0 0 0-1.87.63h-.27a1.3 1.3 0 0 1 0 .29v-.29a.8.8 0 0 0-.81.26 12.75 12.75 0 0 0-3.5.92l-2.7.3c.47-1.3 1.55-2.21 1.78-3.66a23.74 23.74 0 0 0 2-4 2 2 0 0 1 .5-.59c.44-.85 1.39-.59 2-1.07h.21a.37.37 0 0 0 0 .06 5.22 5.22 0 0 0 3.93-.61 1.43 1.43 0 0 0 0-.21c.26.26.46.2.61-.12a.33.33 0 0 0 0-.13h.21a1.28 1.28 0 0 0 .56.24 6.49 6.49 0 0 0 3.29-1.13v-.06c.2.14.28 0 .35-.2h.36a1.26 1.26 0 0 0 .48.17 6.59 6.59 0 0 0 2.14-.47zm2.17 28.94zm.28-3.72l-.08-.07h.08v.07zm-1.06-29.87zm2.71 30.49zm.28-3.6zm3.17 32.25h.11-.12zm.47 10.41l.14.23a.72.72 0 0 1-.09-.22zm4.06-15.8v-.05l.05.05zm.93-1.61zm3 .61zm3.06-43zm-11.75-3.39h-.11zm-2.9 2.49zm17.07 37.25h.08zm-.28-13.87a2.35 2.35 0 0 0-1.63.3 2.44 2.44 0 0 0-.44-.2 15.59 15.59 0 0 0-5.23.13 1.07 1.07 0 0 0-.23.47 2.85 2.85 0 0 0-2.79-.08.55.55 0 0 0-.12.41 2.88 2.88 0 0 0-2.65-.13 2 2 0 0 0 0-.86c-.32-1.89-.38-3.82-.83-5.69a.76.76 0 0 0-.17-.26 2 2 0 0 0 1.56 0l.52-.08c1-.08 1.69-1 2.69-.93l3-.61a.79.79 0 0 0 .83-.22 6.61 6.61 0 0 0 3.22-.67l3.48-.85.12 3.29-1.07 6h-.16zm1.47 1.12v-.1h.07zm1.26 34.37zm-.52-21.63zm-.85-31.86c.06 1.88.12 3.76.19 5.64 0 .65 0 1.23-.79 1.18a3.29 3.29 0 0 1-1.66-.15c-.53-.14-1-.72-1.61-.27h-1l-.22-.28a1.22 1.22 0 0 0-1.54 0l-1.79.39a26 26 0 0 0-4.06 1.09 19.61 19.61 0 0 0-4 .6l-.08.13a3.46 3.46 0 0 1 .08.34.21.21 0 0 1-.08-.34.41.41 0 0 0 .1-.12 10.24 10.24 0 0 1-.2-4.71c.19.09.27-.51.51-.09.45 1.06 1.05 0 1.63.17.34.13.31-.64.22-1.07a3.19 3.19 0 0 0 .25-2l1.3-1v-.06a1.2 1.2 0 0 0 .08.14 23.74 23.74 0 0 0 5.87-2c0-.06.09-.11.14-.17a1.88 1.88 0 0 0 2.44-.73 1.53 1.53 0 0 0 1.59.17 1.9 1.9 0 0 1 2 .61l.36.32.24 1a.57.57 0 0 0-.11.3 5.68 5.68 0 0 0 .14.91zm1.43 18.44zm-.25-9.15zm.19-9.81v.06-.07zm.06 3.42v-.06l.06.05h-.06zm1.25 28.58zm0 0zm0-1.71v-.19h.07zm-.01-20.77l.05-.19a.47.47 0 0 1-.05.19zm5.38 42.07a.76.76 0 0 1 0-.27.73.73 0 0 1 .49.29zM139.76 275.47h.01-.01zM199 294.42c-.29.11-.64.21-.5.6a.64.64 0 0 0 .78.36.44.44 0 0 0 .41-.51.53.53 0 0 0-.69-.45zM226.83 240.23v-.72c1-1.27 0-2.57-.1-3.81-.14-2.24 0-4.53-.68-6.73a83.14 83.14 0 0 0-1.26-9.21c-.92-3.77-1.51-7.76-4.55-10.77-1.89-1.95-3.56-4.17-6.58-4.72-1.64-1-3.7-1-5.42-1.81a14.43 14.43 0 0 0 2.89 3.81l-1.56-.3c-.17.73.92 2.14-.12 1.86-1.37-.36-.74.72-1.21.8a1.35 1.35 0 0 0 0 1.54c.54 1.42.88 2.9 1.45 4.32a3.49 3.49 0 0 1 .58.59 11.79 11.79 0 0 0 .72 3l1.16 12a.27.27 0 0 0 .08.09l-.4.2a3.67 3.67 0 0 0-.22 2c.82 6.45.71 12.92.76 19.4a2.12 2.12 0 0 0 .11.67 1.77 1.77 0 0 0-.45 1.54 133.18 133.18 0 0 1-8 32.46 1.7 1.7 0 0 1-1.74 1.4 1.64 1.64 0 0 0-1.69 1.6 15.29 15.29 0 0 0 .72 6.07c3.3-1 6.6-2 9.89-3 2.57-.83 5-1.84 6.3-4.36.6-1.2 1.27-2.36 1.84-3.57a67 67 0 0 0 4.8-13.58c.29-1.29.94-2.51.74-3.88.64-3.34 1.41-6.66 1.85-10 .13-1 1-2 .08-3.06v-.73c.73-.61.43-1.49.54-2.22a32.23 32.23 0 0 0-.53-10.88zm-15.39 50v-.08h.06zm1.12-71.91zm.65-3.17zm10.12 28.23a.62.62 0 0 0 .24-.17v.34zm2.84-7.84a.53.53 0 0 1 0-.41v.41zm0-1.19a.6.6 0 0 0-.18-.17l.05-.11a.74.74 0 0 1 .13.2v.09zm.09 1.5l.06-.23a.68.68 0 0 0 .08.17s-.07.16-.15.09zM130.26 279.69a9.08 9.08 0 0 0 4.87-.6l10.84-2.2 1.55-.65c3.07 0 4.1-2.17 5.08-4.36a23.09 23.09 0 0 0 3-10.95 15 15 0 0 0 .42-4.74 23.62 23.62 0 0 0 .31-2.67v-14.76l.38-.38a21.74 21.74 0 0 0 4.2-2.57c.6.07.88-.3.74-.73s-.48-.18-.68.08a16.64 16.64 0 0 0-3.8.28 2 2 0 0 1-1.15-2.07c-.09-2.41-.13-4.82-.39-7.21-.16-1.5.15-2.45 1.87-2.68a2.81 2.81 0 0 0 1.95-.64.77.77 0 0 0 .81-.32c1.94-.61 3.87-1.25 5.26-2.92-2.1.57-3.32-1.66-5.29-1.26a32.37 32.37 0 0 0-6.14-2.9 1.91 1.91 0 0 0-.44-1.4 5.9 5.9 0 0 0-.74-2.64 12.76 12.76 0 0 0-1.07-4 1 1 0 0 0-.12-.27 24.66 24.66 0 0 0-1.52-5.51c-.55-1.79-.68-3.69-1.57-5.4a2.81 2.81 0 0 0-3.08-2.86c-.1-.34-.14-.69-.71-.43a2.71 2.71 0 0 1-2.38 0 2.55 2.55 0 0 0-2.65-.3c-.44-1.34-.84-.31-1.26 0-.35-.94-1.23-.61-1.92-.71a1.43 1.43 0 0 0-2.26-.19c-1 .77 0 1.6.27 2.39a7.07 7.07 0 0 0 .76 2.91 2.85 2.85 0 0 0 .35 1.83 29.84 29.84 0 0 0 1.57 6.17 4.74 4.74 0 0 0 .32 1.94c.81 3.59 1.58 7.19 2.45 10.77.4 1.65-.08 2.36-2 2.56-4.51.49-9 1.17-13.5 1.77l-11 1a20.91 20.91 0 0 0-5.41.73 6.69 6.69 0 0 0-3 .5c-.8.33-2.1.26-2.25 1.14s1.37.71 1.89 1.37h1.52c.19.88.74.62 1.29.36h.53a1.48 1.48 0 0 0 .53.68c1.28.74 3 .72 4.07 1.54a3.11 3.11 0 0 0 3.36.3l4.56-1.14a3.2 3.2 0 0 0 2-.31h.17l.15-.08a6.06 6.06 0 0 0 2.71-.35l5-.75a16.18 16.18 0 0 0 3.87-.38l4.61-.37c1.22-.1 1.54.42 1.69 1.56.45 3.49 0 7 .66 10.48a.45.45 0 0 0 0 .33c-1.1 1.51-3.06 2-4.38 3.24a45.59 45.59 0 0 0-6.17 3.65l-4.51 2.24c.3 1 1 .43 1.61.41 3 0 6.09 0 9.13.12a7.55 7.55 0 0 0 3.93-.86 2.74 2.74 0 0 1 .39 1.89v8.56c-.66 2.39-.33 4.88-.78 7.29-.55.52-.32 1.18-.38 1.79-.56.54-.33 1.22-.37 1.85a2.64 2.64 0 0 0-.4 1.8c-1.14 2.12-1.14 2.12-2.7.38l-.38-.37a.87.87 0 0 0-1.28-.27 29.3 29.3 0 0 1-3 1.36c-1-.74-1.61.52-2.48.49-.58-.83-1-1.44-2-.52-3.66 1.83-3.66 1.83-1.54 5.11m35.06-58l.13.08zm-5.19-2.31l-.32.24a.64.64 0 0 0-.08-.14 3.77 3.77 0 0 0 .53-.02zm-16.31-5.06zm-24.06 12.87v-.06h.09-.1zm.19 1.84a.56.56 0 0 1 0-.16h.15a.23.23 0 0 1-.07.24zm0-.57a2 2 0 0 1 .26-.09.2.2 0 0 1-.18.17zm2 2.17zm23.26-25.32v-.1l.11.16zm-1.53 72.94zm2.34-24.66v-.09.09zm.66-40.72l.08-.05a.22.22 0 0 1 .05.14zm.81 48.71v-.05c.18.07.17.1.13.14zm.54-43.65v.08l-.16-.05zm0 36.14v-.09a.12.12 0 0 1 0 .09zm.17 7v-.26.6a1.27 1.27 0 0 1 .02-.37zm.42-7.37v-.19l.02.16zm.85 14.55v-.11.22zm.1-11.79zm.56-49v-.08h.06zm0 56.52a3.45 3.45 0 0 0 0-.42 1.34 1.34 0 0 1 0 .26zm0-15.84h.1v.08zm.16 17.9zm1.54-37.77zm.2 26.58v-.12.12zm.37 23zm.17-31.19zm1.24-41.47h.06v.15zm.86 62.1l-.22.65c.09-.29.16-.58.23-.88-.04.05-.05.13-.05.21zm.77-34zm.39.66v-.06zm0 22.35v-.11a.88.88 0 0 1 .24.26zm.8-12.41zm.75-8.4zM198.07 200.48c.42.08.45-.28.5-.57l-1.15-.37a.84.84 0 0 0 .65.94zM201.28 202.82zM201.3 247.13a3.61 3.61 0 0 1 .36-1.82 1.44 1.44 0 0 1 .4-1.13 2.21 2.21 0 0 0 .41-1.79c.15-1.86 1.34-3.52 1.16-5.43a6.13 6.13 0 0 0 .76-3.28 6.93 6.93 0 0 1 .36-1.71 19.06 19.06 0 0 0 1.21-5.9 2.25 2.25 0 0 0 .37-1.83 29.62 29.62 0 0 0 .44-10.25 10.91 10.91 0 0 0-.38-4c0-.86 14.68 4 14.26 3.18l-9.42-8.17c-.5-3.17-6.07-1-9.31-1.63a.74.74 0 0 1-.64-.59c-.44.33-.81.94-1.5.35l-.09-.62c-.13-1-.92-.45-1.44-.53-.66-1.29 1.2-.19 1-1h-4.2l-1.05.02c.27-1.53 2-.69 2.7-1.44-1.21-.82-2.69-.76-4-.89-2.65-.26-5.34-.55-8 .17h-1.14l1.29.65c-.45.63-1.94.74-.9 1.88a3.64 3.64 0 0 0 2.28.49c1.71 0 3.52.19 4.7 1.68l.37 1.09a3.42 3.42 0 0 1 .39.78 43.68 43.68 0 0 1 .26 16.16c-1.2 7.1-2.91 14.13-4.3 21.2-.62 3.18-1.78 6.26-2.13 9.49l-2.37 7.94-4.63 12-2.33 5.08a5 5 0 0 0-1.19 2.14c-.36.57-1.18 1-.79 1.83h.07-.06c-.93.17-1 1-1.35 1.6a69.69 69.69 0 0 1-4.77 6.82l-6.9 9.15c3.57-.47 6.75-1.48 10-2.22a5.68 5.68 0 0 0 2.78-1 92.77 92.77 0 0 0 8.4-8.1l.82-1.08a36.23 36.23 0 0 0 5.39-6.9 2.31 2.31 0 0 0 1.15-1.82 4.13 4.13 0 0 0 1.17-2.18 5.06 5.06 0 0 0 1.17-2.53 1.3 1.3 0 0 0 .77-1.46l.37-.74a2 2 0 0 0 .8-1.8 38.3 38.3 0 0 0 3.49-8.72 12.21 12.21 0 0 0 1.54-4.73c.05-1 .84-1.67 1.12-2.55v-1.44c-.28-1.66 1.29-2.84 1.13-4.42zm3.47-34.22h.13-.11v-.07zm-.37 16a1 1 0 0 0 0 .18 2.12 2.12 0 0 1-.21.26zm-1.23-11.56v.02zm.11-4.56l-.06.18h-.07a1.1 1.1 0 0 1 .13-.16zm-1.07-1.23v-.06zm-1.29 7.23zm-22.63 63.93l-.05-.07a1.38 1.38 0 0 1 .16-.06zm.55-8.44v-.07c.23.01.1.08-.01.09zm4.24 9.14l-.1-.09h.19zm2.7-17.77h.05zm.41-1.09h-.07l.07-.07v.06zm.81-12.23v-.09l.13.15zm1.09 2.63v.17a1 1 0 0 1-.1.16c.01-.12.01-.22.06-.29zm-.09 19.04v-.06.09zm.21-12.94h-.11l.18-.21zm.59-7zm.17 2.81v-.05zm.28-7.12h-.07l.09-.14v.1zm1 4.31l.06-.14v.15h-.06zm2.37-11.35v-.12h.06zm.8-18.41v.16-.17h.05zm.09 7.6a1.17 1.17 0 0 0-.42-.24c.06-.23 0-.51.33-.54a1.32 1.32 0 0 1 .12.81zm1.94-8v-.12h.12a.73.73 0 0 1-.12.1zm0 36.71l.12.13zm1.52-51a.4.4 0 0 0 0-.1c.03-.17.03-.1.03.06zm0 .14zm.74 45.06zm0-19.93v-.06zM201.29 202.82l2-.28c-1.01-.48-1.69-.86-2 .28zM201.28 202.82zM161.86 258.09c1.15-.17 2.31.68 3.46 0v-.06.06c.77-.13 1.54.46 2.32 0 .52-.09 1 .63 1.55 0 1.22.16 2.47.66 3.57-.31 1.68-2.34 2.5-5 3.46-7.66a32.47 32.47 0 0 0 2.66-6.94l1.09-2.21v-1.06a12.25 12.25 0 0 0 1.17-3.63l1.54-4.73c.41-1.72 1.57-3.24 1.58-5.07.16-1.91 1.66-3.47 1.54-5.45l.2-1c.38-2.52 2-4.74 2.11-7.33s1.46-4.76 2.2-7.13c.23-.74 23.07-1.82 22.48-1.83-1.31 0-25.52-3.55-26.8-3.67-2.19-.19-3.89 1.89-5.94 1a.66.66 0 0 0 0-.07c-.87-.74-2-1.1-2.83-1.89a2.47 2.47 0 0 1 .87-.86c1.89-1.75 4.38-2.89 5.82-5.09v-.21a2.35 2.35 0 0 0 .7-.45q2.5-2.18 5-4.34c.44-.38.78-1 1.57-.56a25.79 25.79 0 0 0 5.46-5.8c.83-1 1.22-2 .28-3.19a3.35 3.35 0 0 0-2.21-.84 10.36 10.36 0 0 0-3.9-1.46c-1.93-1.11-4.15-1.6-6.18-2.5a10.77 10.77 0 0 0-7-.44 9.68 9.68 0 0 0-3.5.36 8.53 8.53 0 0 0-3.48.72 20.83 20.83 0 0 0-5.42 1.09 15.1 15.1 0 0 0-4.35 1.1 10.56 10.56 0 0 0-3.49 1.09 8.35 8.35 0 0 0-3 1.14 7.75 7.75 0 0 0-4.55 3c-1.43 1.31-1.37 1.41.32 2.18 1.26.57 2.24 1.88 3.91 1 2.1.19 3.89 1.29 5.9 1.79a2.72 2.72 0 0 0 3.21-.94 7.39 7.39 0 0 1 2.87-2.3 18.74 18.74 0 0 0 4.24-1.79 4.74 4.74 0 0 0 2.35-.69l3.88-1.09 4.2-.85c.34.18 1.27-.2.79.74l-.38.37a6.35 6.35 0 0 0-1.92 1.86l-6.61 6.07a32.27 32.27 0 0 0-5.41 4.38 19 19 0 0 0-4.64 3.64c-1.8.75-2.79 2.37-4.22 3.52a1.2 1.2 0 0 0-.72 1.17c.22.72 1 .34 1.47.47l.4.3 1.91.42a4.34 4.34 0 0 0 2.33.74c3.3 1.29 6.61 2.56 10.28 2.51 1.15 0 1.48.37 1.17 1.43-.59 2-1.14 3.95-1.61 5.94-.76 3.15-2.19 6.15-2.44 9.42l-.86 3.48a5 5 0 0 0-.78 2.54 17.22 17.22 0 0 0-1.54 4.72 4.26 4.26 0 0 0-.75 2.24 9.06 9.06 0 0 0-1.16 3.27 20.23 20.23 0 0 0-1.58 4.67q-2.73 6.82-5.47 13.65c-.23.58-.29 1.24.48 1.24s1.54.61 2.4.12zm23.57-44.77zm-4-2.5zm-1.91 26.08v.31a1.3 1.3 0 0 1 0-.28zm-1.88 1.82v.05a.67.67 0 0 1 .3.46l-.32-.41v-.06h-.06zm8.65-56.94a.86.86 0 0 1 .31.19 3.27 3.27 0 0 1-.33-.19zm-1.67-2.23zm0 0zm-19.26.73a1.6 1.6 0 0 1 .15-.22l.1.09zm4-1.5a.19.19 0 0 1 .08-.14h.37a4.71 4.71 0 0 0-.42.14zm-8.61 19.63a1.15 1.15 0 0 1 .46-.76zm15.09 7.71l-.05.08v-.21zm-.07 37.76h-.05zm0-24.06v.06zm-.4-21.37zm0 0zm-.71 25.22l-.07.21-.1-.11zm-1.19 3.71v.13l-.06-.06zm-2.75 8.47zm-.4 5.69v.21a1.75 1.75 0 0 0-.23.23 2.87 2.87 0 0 1 .23-.43zm-2.66 8.81l-.14-.13zm-.81-3.6z"/></g></svg>