<svg id="Layer_1" data-name="Layer 1" xmlns="http://www.w3.org/2000/svg" width="687.43" height="550" viewBox="0 0 687.43 550"><defs><style>.cls-1,.cls-10,.cls-2,.cls-3,.cls-4,.cls-6,.cls-9{fill:#fff;}.cls-1,.cls-8{opacity:0.8;}.cls-2{opacity:0.6;}.cls-3{opacity:0.5;}.cls-4{opacity:0.7;}.cls-5{fill:#111228;}.cls-7{fill:#614c45;}.cls-8{fill:#fbd2c0;stroke:#808184;stroke-miterlimit:10;stroke-width:0.25px;}.cls-9{opacity:0.3;}.cls-10{opacity:0.4;}</style></defs><title>portfolio-2</title><polygon class="cls-1" points="659.79 147.25 667.9 170.34 453.44 36.05 625.39 114.92 659.79 147.25"/><polygon class="cls-2" points="625.39 114.92 453.44 36.05 432.88 16.39 509.07 32.37 625.39 114.92"/><polygon class="cls-1" points="432.88 16.89 453.44 36.05 283.13 29.42 387.7 10.99 432.88 16.89"/><polygon class="cls-3" points="387.7 10.99 283.13 29.42 124.55 49.53 261.54 1.41 387.7 10.99"/><polygon class="cls-4" points="54.66 211.53 21.86 192.31 121.94 50.06 283.13 29.42 54.66 211.53"/><polygon class="cls-1" points="144.6 429.46 4.54 509.99 20.02 192.31 54.66 211.53 144.6 429.46"/><polygon class="cls-1" points="87.46 543.9 4.54 509.99 41.39 319.13 54.66 212.09 87.46 543.9"/><polygon class="cls-1" points="472.99 509.99 472.99 509.99 80.94 541.24 687.43 321.01 472.99 509.99"/><polygon class="cls-5" points="687.43 321.01 87.46 543.9 54.66 211.53 283.13 29.42 453.44 36.05 667.9 170.34 687.43 321.01"/><polygon class="cls-6" points="186.04 305.75 144.79 313.83 144.79 280.11 186.04 273.14 186.04 305.75"/><polygon class="cls-6" points="224.69 298.19 186.04 305.75 186.04 273.14 224.69 266.61 224.69 298.19"/><polygon class="cls-6" points="260.95 291.09 224.69 298.19 224.69 266.61 260.95 260.49 260.95 291.09"/><polygon class="cls-6" points="186.04 338.65 144.79 347.84 144.79 314.13 186.04 306.04 186.04 338.65"/><polygon class="cls-6" points="186.04 371.27 144.79 381.56 144.79 347.84 186.04 338.65 186.04 371.27"/><polygon class="cls-6" points="224.69 361.29 186.04 370.92 186.04 338.31 224.69 329.71 224.69 361.29"/><polygon class="cls-6" points="295.06 344.07 260.95 352.58 260.95 321.97 295.06 314.37 295.06 344.07"/><polygon class="cls-6" points="295.06 373.76 260.95 383.19 260.95 352.58 295.06 344.07 295.06 373.76"/><polygon class="cls-6" points="295.06 403.46 260.95 413.79 260.95 383.19 295.06 373.76 295.06 403.46"/><polygon class="cls-6" points="225.14 424.65 186.52 436.35 186.52 403.75 225.14 393.08 225.14 424.65"/><polygon class="cls-6" points="186.92 436.23 145.72 448.71 145.72 415.02 186.92 403.64 186.92 436.23"/><polygon class="cls-6" points="260.95 351.61 224.69 360.63 224.69 331.35 260.95 321.97 260.95 351.61"/><polygon class="cls-6" points="294.62 284.5 260.49 291.18 260.49 260.56 294.62 254.8 294.62 284.5"/><polygon class="cls-6" points="260.95 414.12 224.69 425.11 224.69 393.54 260.95 383.51 260.95 414.12"/><polygon class="cls-6" points="342.47 274.86 311.26 280.96 311.26 251.69 342.47 246.43 342.47 274.86"/><polygon class="cls-6" points="342.47 303.28 311.26 310.22 311.26 280.96 342.47 274.86 342.47 303.28"/><polygon class="cls-6" points="342.47 331.35 311.26 339.11 311.26 309.84 342.47 302.92 342.47 331.35"/><polygon class="cls-6" points="342.47 359.77 311.26 368.37 311.26 339.11 342.47 331.35 342.47 359.77"/><polygon class="cls-6" points="425.69 259.26 399.24 264.45 399.24 237.54 425.69 233.06 425.69 259.26"/><polygon class="cls-6" points="425.69 285.46 399.24 291.35 399.24 264.45 425.69 259.26 425.69 285.46"/><polygon class="cls-6" points="425.69 311.32 399.24 317.92 399.24 291.01 425.69 285.12 425.69 311.32"/><polygon class="cls-6" points="425.69 337.52 399.24 344.82 399.24 317.92 425.69 311.32 425.69 337.52"/><polygon class="cls-6" points="342.63 388.07 311.44 397.49 311.44 368.24 342.63 359.65 342.63 388.07"/><polygon class="cls-6" points="425.83 363.6 399.39 371.61 399.39 344.71 425.83 337.41 425.83 363.6"/><polygon class="cls-6" points="372.03 379.75 342.56 388.67 342.56 360.24 372.03 352.11 372.03 379.75"/><polygon class="cls-6" points="399.59 371.69 371.69 380.14 371.69 352.5 399.59 344.79 399.59 371.69"/><polygon class="cls-6" points="503.93 243.18 481.58 247.54 481.58 222.84 503.93 219.07 503.93 243.18"/><polygon class="cls-6" points="503.93 267.28 481.58 272.25 481.58 247.54 503.93 243.18 503.93 267.28"/><polygon class="cls-6" points="503.93 291.08 481.58 296.63 481.58 271.93 503.93 266.98 503.93 291.08"/><polygon class="cls-6" points="503.93 315.19 481.58 321.34 481.58 296.63 503.93 291.08 503.93 315.19"/><polygon class="cls-6" points="504.04 339.19 481.71 345.93 481.71 321.23 504.04 315.08 504.04 339.19"/><polygon class="cls-6" points="525.61 238.92 504.34 243.07 504.34 218.98 525.61 215.4 525.61 238.92"/><polygon class="cls-6" points="481.33 247.72 457.83 252.31 457.83 226.97 481.33 223 481.33 247.72"/><polygon class="cls-6" points="457.61 252.2 432.88 257.03 432.88 231.02 457.61 226.85 457.61 252.2"/><polygon class="cls-6" points="545.92 234.95 525.64 238.91 525.64 215.39 545.92 211.97 545.92 234.95"/><polygon class="cls-6" points="570.78 229.78 551.67 233.5 551.67 210.67 570.78 207.46 570.78 229.78"/><polygon class="cls-6" points="570.78 252.09 551.67 256.33 551.67 233.5 570.78 229.78 570.78 252.09"/><polygon class="cls-6" points="570.78 274.12 551.67 278.86 551.67 256.04 570.78 251.81 570.78 274.12"/><polygon class="cls-6" points="570.78 296.44 551.67 301.69 551.67 278.86 570.78 274.12 570.78 296.44"/><polygon class="cls-6" points="570.88 318.66 551.77 324.42 551.77 301.6 570.88 296.35 570.88 318.66"/><polygon class="cls-6" points="623.04 303.47 606.27 308.54 606.27 287.17 623.04 282.55 623.04 303.47"/><polygon class="cls-6" points="589.11 313.61 570.84 319.13 570.84 296.81 589.11 291.78 589.11 313.61"/><polygon class="cls-6" points="606.4 308.61 588.9 313.9 588.9 292.07 606.4 287.25 606.4 308.61"/><polygon class="cls-6" points="623 219.6 606.23 222.87 606.23 201.5 623 198.68 623 219.6"/><polygon class="cls-6" points="589.07 226.1 570.79 229.66 570.79 207.34 589.07 204.27 589.07 226.1"/><polygon class="cls-6" points="606.36 222.95 588.86 226.37 588.86 204.53 606.36 201.59 606.36 222.95"/><polygon class="cls-6" points="623 240.81 606.23 244.53 606.23 223.16 623 219.89 623 240.81"/><polygon class="cls-6" points="623 261.46 606.23 265.63 606.23 244.26 623 240.54 623 261.46"/><polygon class="cls-6" points="623 282.38 606.23 286.99 606.23 265.63 623 261.46 623 282.38"/><polygon class="cls-4" points="635.41 289.44 598.58 299.47 573.17 295.94 606.27 287.17 635.41 289.44"/><polygon class="cls-7" points="426.99 347.48 399.24 344.82 399.24 237.54 426.99 240.2 426.99 347.48"/><polygon class="cls-7" points="339.01 400.98 311.44 394.12 311.26 251.69 339.01 254.35 339.01 400.98"/><polygon class="cls-7" points="172.53 384.22 144.79 381.56 144.79 280.33 172.53 282.24 172.53 384.22"/><polygon class="cls-7" points="173.46 451.37 145.72 448.71 145.72 415.02 174.01 416.89 173.46 451.37"/><polygon class="cls-7" points="288.7 386.54 260.95 383.88 260.95 350.19 289.24 352.06 288.7 386.54"/><polygon class="cls-7" points="509.07 347.84 481.33 345.43 481.33 248.11 509.07 250.53 509.07 347.84"/><polygon class="cls-7" points="460.62 259.19 432.88 254.8 432.88 231.09 460.62 233.68 460.62 259.19"/><polygon class="cls-7" points="579.41 327.38 551.67 324.97 551.67 210.67 579.41 213.33 579.41 327.38"/><polygon class="cls-7" points="633.98 289.44 606.23 287.03 606.23 225.44 633.98 225.53 633.98 289.44"/><polygon class="cls-4" points="294.62 254.8 144.79 280.11 172.53 282.24 322.37 257.46 294.62 254.8"/><polygon class="cls-4" points="322.8 317.03 213.79 341.31 200.27 335.01 295.06 314.37 322.8 317.03"/><polygon class="cls-8" points="213.79 308.41 172.53 316.49 172.53 282.77 213.79 275.8 213.79 308.41"/><polygon class="cls-8" points="252.43 300.85 213.79 308.41 213.79 275.8 252.43 269.27 252.43 300.85"/><polygon class="cls-8" points="288.7 293.75 252.43 300.85 252.43 269.27 288.7 263.14 288.7 293.75"/><polygon class="cls-8" points="213.79 341.31 172.53 350.5 172.53 316.79 213.79 308.7 213.79 341.31"/><polygon class="cls-8" points="213.79 373.93 172.53 384.22 172.53 350.5 213.79 341.31 213.79 373.93"/><polygon class="cls-8" points="252.43 363.95 213.79 373.58 213.79 340.97 252.43 332.37 252.43 363.95"/><polygon class="cls-8" points="322.8 346.73 288.7 355.24 288.7 324.63 322.8 317.03 322.8 346.73"/><polygon class="cls-8" points="322.8 376.43 288.7 385.85 288.7 355.24 322.8 346.73 322.8 376.43"/><polygon class="cls-8" points="322.8 406.12 288.7 416.45 288.7 385.85 322.8 376.43 322.8 406.12"/><polygon class="cls-8" points="252.88 427.31 214.27 439.01 214.27 406.41 252.88 395.74 252.88 427.31"/><polygon class="cls-8" points="214.66 438.89 173.46 451.37 173.46 417.68 214.66 406.3 214.66 438.89"/><polygon class="cls-8" points="288.7 354.27 252.43 363.29 252.43 332.37 288.7 324.63 288.7 354.27"/><polygon class="cls-8" points="322.37 287.16 288.24 293.84 288.24 263.22 322.37 257.46 322.37 287.16"/><polygon class="cls-8" points="288.7 416.77 252.43 427.77 252.43 396.19 288.7 386.17 288.7 416.77"/><polygon class="cls-8" points="370.22 277.52 339.01 283.62 339.01 254.35 370.22 249.09 370.22 277.52"/><polygon class="cls-8" points="370.22 305.94 339.01 312.88 339.01 283.62 370.22 277.52 370.22 305.94"/><polygon class="cls-8" points="370.22 334 339.01 341.76 339.01 312.5 370.22 305.58 370.22 334"/><polygon class="cls-8" points="370.22 362.43 339.01 371.03 339.01 341.76 370.22 334 370.22 362.43"/><polygon class="cls-8" points="453.44 261.92 426.99 267.11 426.99 240.2 453.44 235.72 453.44 261.92"/><polygon class="cls-8" points="453.44 288.12 426.99 294.01 426.99 267.11 453.44 261.92 453.44 288.12"/><polygon class="cls-8" points="453.44 313.98 426.99 320.58 426.99 293.67 453.44 287.78 453.44 313.98"/><polygon class="cls-8" points="453.44 340.18 426.99 347.48 426.99 320.58 453.44 313.98 453.44 340.18"/><polygon class="cls-8" points="370.38 390.73 339.18 400.15 339.18 370.9 370.38 362.31 370.38 390.73"/><polygon class="cls-8" points="453.58 366.26 427.13 374.27 427.13 347.37 453.58 340.07 453.58 366.26"/><polygon class="cls-8" points="399.78 382.41 370.31 391.33 370.31 362.9 399.78 354.77 399.78 382.41"/><polygon class="cls-8" points="427.33 374.35 399.44 382.8 399.44 355.16 427.33 347.45 427.33 374.35"/><polygon class="cls-8" points="531.67 245.84 509.33 250.2 509.33 225.5 531.67 221.73 531.67 245.84"/><polygon class="cls-8" points="531.67 269.94 509.33 274.9 509.33 250.2 531.67 245.84 531.67 269.94"/><polygon class="cls-8" points="531.67 293.74 509.33 299.29 509.33 274.59 531.67 269.63 531.67 293.74"/><polygon class="cls-8" points="531.67 317.85 509.33 324 509.33 299.29 531.67 293.74 531.67 317.85"/><polygon class="cls-8" points="531.79 341.85 509.45 348.59 509.45 323.89 531.79 317.75 531.79 341.85"/><polygon class="cls-8" points="553.35 241.58 532.09 245.73 532.09 221.64 553.35 218.06 553.35 241.58"/><polygon class="cls-8" points="509.07 250.38 485.58 254.97 485.58 229.63 509.07 225.66 509.07 250.38"/><polygon class="cls-8" points="485.36 254.86 460.62 259.69 460.62 233.68 485.36 229.51 485.36 254.86"/><polygon class="cls-8" points="573.67 237.61 553.38 241.57 553.38 218.05 573.67 214.63 573.67 237.61"/><polygon class="cls-8" points="598.53 232.44 579.41 236.16 579.41 213.33 598.53 210.12 598.53 232.44"/><polygon class="cls-8" points="598.53 254.75 579.41 258.99 579.41 236.16 598.53 232.44 598.53 254.75"/><polygon class="cls-8" points="598.53 276.78 579.41 281.52 579.41 258.7 598.53 254.47 598.53 276.78"/><polygon class="cls-8" points="598.53 299.1 579.41 304.35 579.41 281.52 598.53 276.78 598.53 299.1"/><polygon class="cls-8" points="598.63 321.32 579.52 327.08 579.52 304.26 598.63 299.01 598.63 321.32"/><polygon class="cls-8" points="650.78 306.13 634.01 311.2 634.01 289.83 650.78 285.21 650.78 306.13"/><polygon class="cls-8" points="616.86 316.27 598.58 321.79 598.58 299.47 616.86 294.44 616.86 316.27"/><polygon class="cls-8" points="634.14 311.27 616.64 316.56 616.64 294.73 634.14 289.91 634.14 311.27"/><polygon class="cls-8" points="650.75 222.26 633.98 225.53 633.98 204.16 650.75 201.34 650.75 222.26"/><polygon class="cls-8" points="616.82 228.76 598.54 232.32 598.54 210 616.82 206.93 616.82 228.76"/><polygon class="cls-8" points="634.1 225.61 616.6 229.03 616.6 207.19 634.1 204.25 634.1 225.61"/><polygon class="cls-8" points="650.75 243.47 633.98 247.19 633.98 225.82 650.75 222.55 650.75 243.47"/><polygon class="cls-8" points="650.75 264.12 633.98 268.29 633.98 246.92 650.75 243.2 650.75 264.12"/><polygon class="cls-8" points="650.75 285.04 633.98 289.65 633.98 268.29 650.75 264.12 650.75 285.04"/><polygon class="cls-4" points="370.22 249.09 339.01 254.35 311.26 251.69 342.47 246.43 370.22 249.09"/><polygon class="cls-4" points="453.44 235.72 426.99 240.2 399.24 237.54 425.69 233.06 453.44 235.72"/><polygon class="cls-4" points="573.67 214.63 460.62 233.68 432.88 231.02 545.92 211.97 573.67 214.63"/><polygon class="cls-4" points="650.75 201.34 579.41 213.33 551.67 210.67 623 198.68 650.75 201.34"/><polygon class="cls-2" points="412.47 198.21 335.97 215.99 342.63 174.63 381.92 180.89 412.47 198.21"/><polygon class="cls-9" points="412.49 180.16 386.52 174.26 352.94 135.75 422.46 118.94 412.49 180.16"/><polygon class="cls-9" points="156.77 378.57 121.36 413.79 89.68 344.07 171.76 342.9 156.77 378.57"/><polygon class="cls-2" points="213.79 237.54 205.37 260.49 205.37 196.99 211.04 224.32 213.79 237.54"/><polygon class="cls-1" points="172.53 282.77 144.79 280.11 167.29 254.8 175.64 268.52 172.53 282.77"/><polygon class="cls-2" points="213.79 275.8 175.64 268.52 179.57 229.24 213.79 237.54 213.79 275.8"/><polygon class="cls-6" points="172.53 282.77 175.64 268.52 212.7 275.59 172.53 282.77"/><polygon class="cls-2" points="213.79 275.8 175.64 268.52 167.29 254.8 205.37 260.49 213.79 275.8"/><polygon class="cls-4" points="205.37 260.49 167.29 254.8 149.6 217.44 205.37 196.99 205.37 260.49"/><polygon class="cls-9" points="175.64 268.52 167.29 254.8 149.6 217.44 179.57 229.24 175.64 268.52"/><polygon class="cls-2" points="213.79 275.8 205.37 260.49 213.79 237.54 213.79 256.67 213.79 275.8"/><polygon class="cls-4" points="252.43 269.27 213.79 275.8 213.79 237.54 237.13 256.67 252.43 269.27"/><polygon class="cls-4" points="213.79 237.54 179.57 229.24 149.6 217.44 205.37 196.99 213.79 237.54"/><polygon class="cls-4" points="167.29 254.8 144.79 280.33 109.06 252.52 149.6 217.44 167.29 254.8"/><polygon class="cls-2" points="144.79 280.11 87.46 341.76 149.6 217.44 144.79 280.11 144.79 280.11"/><polygon class="cls-1" points="156.77 378.57 129.99 385.85 87.46 341.76 171.76 342.9 156.77 378.57"/><polygon class="cls-4" points="152.16 403.2 121.94 413.35 130.58 385.4 157.35 378.13 152.16 403.2"/><polygon class="cls-2" points="145.72 471.84 117.7 477.13 120.61 413.35 152.16 403.2 145.72 471.84"/><polygon class="cls-2" points="162.27 461.1 181.19 481.74 117.7 477.13 148.09 443.17 162.27 461.1"/><polygon class="cls-2" points="148.32 444.13 117.7 477.13 103.57 401.99 121.36 413.79 148.32 444.13"/><polygon class="cls-2" points="121.36 413.79 103.3 400.98 86.09 339.82 129.99 385.85 121.36 413.79"/><polygon class="cls-10" points="172.53 344.07 89.68 344.07 109.06 252.65 144.79 280.11 172.53 344.07"/><polygon class="cls-2" points="399.24 219.4 383.94 240.2 415.82 170.34 412.47 198.21 399.24 219.4"/><polygon class="cls-2" points="383.94 240.2 336.05 215.4 362.02 189.37 381.92 180.89 383.94 240.2"/><polygon class="cls-2" points="362.02 189.37 313.37 238.12 345.06 196.99 342.63 174.63 362.02 189.37"/><polygon class="cls-2" points="313.37 238.12 252.88 266.61 270.56 225.66 298.26 184.94 313.37 238.12"/><polygon class="cls-2" points="252.43 269.27 214.27 240.2 205.37 196.99 270.56 225.66 252.43 269.27"/><polygon class="cls-2" points="224.69 441.45 214.66 428.28 214.27 413.79 213.79 392.43 224.69 441.45"/><polygon class="cls-2" points="224.69 441.45 214.66 428.28 200.27 416.45 213.79 392.43 224.69 441.45"/><polygon class="cls-1" points="229.59 433.36 224.69 441.45 213.79 392.43 229.59 433.36 229.59 433.36"/><polygon class="cls-2" points="234.5 451.37 230.57 466.51 224.69 441.45 229.59 434.07 234.5 451.37"/><polygon class="cls-2" points="234.5 451.37 200.27 436.35 214.66 428.12 229.59 433.36 234.5 451.37"/><polygon class="cls-2" points="216.32 481.74 200.27 436.35 214.66 428.12 224.69 441.45 216.32 481.74"/><polygon class="cls-2" points="230.57 466.51 216.32 481.74 200.27 436.35 234.5 451.37 230.57 466.51"/><polygon class="cls-2" points="182.42 481.74 186.27 455.75 200.11 436.35 234.5 451.37 182.42 481.74"/><polygon class="cls-2" points="216.32 481.74 182.42 481.74 186.92 455.54 200.11 436.35 216.32 481.74"/><polygon class="cls-2" points="193.16 462.45 182.42 481.74 172.53 451.28 186.52 455.7 193.16 462.45"/><polygon class="cls-2" points="182.42 481.74 145.72 471.84 147.96 443.17 172.53 451.28 182.42 481.74"/><polygon class="cls-4" points="345.06 196.99 313.37 238.12 298.26 184.94 342.63 174.63 345.06 196.99"/><polygon class="cls-10" points="417.47 149.55 352.94 137.83 389.7 121.4 422.46 118.94 417.47 149.55"/><polygon class="cls-2" points="378.77 166.68 352.94 136.48 357.48 127.82 376.9 134.63 378.77 166.68"/><polygon class="cls-1" points="412.49 118.94 408.86 144.44 404.41 115.55 403.29 67.75 412.49 118.94"/><polygon class="cls-1" points="407.85 144.41 407.85 144.41 375.99 118.94 365.86 75.86 407.85 144.41"/><polygon class="cls-2" points="419.06 165.06 412.49 180.16 408.86 144.44 412.49 118.94 419.06 165.06"/><polygon class="cls-2" points="412.49 180.16 379.01 170.8 375.99 118.94 408.86 144.44 412.49 180.16"/><polygon class="cls-2" points="415.82 170.34 412.47 198.21 381.92 180.89 396.54 174.63 415.82 170.34"/><polygon class="cls-2" points="335.97 215.99 312.97 238.12 298.26 184.94 362.02 189.37 335.97 215.99"/><polygon class="cls-1" points="383.94 240.72 381.92 180.89 389.66 174.07 411.55 180.16 383.94 240.72"/><polygon class="cls-2" points="360 151.02 348.38 151.02 334.64 157.82 348.38 147.16 360 151.02"/><polygon class="cls-2" points="391.9 162.67 370.74 162.67 360 151.02 370.74 159.51 391.9 162.67"/><polygon class="cls-2" points="453.44 144.41 440.21 151.02 451.94 141.09 453.44 112.71 453.44 144.41"/><polygon class="cls-2" points="440.21 149.55 432.88 156.57 419.2 154.61 432.88 154.61 440.21 149.55"/><polygon class="cls-2" points="381.92 69.22 369.39 59.89 343.59 54.24 370.74 58.17 381.92 69.22"/><polygon class="cls-2" points="403.29 67.75 390.27 75.86 381.92 69.22 390.76 71.68 403.29 67.75"/><polygon class="cls-2" points="337.69 79.05 309.93 66.52 307.51 46.43 313.86 64.06 337.69 79.05"/><polygon class="cls-2" points="365.86 78.81 351.77 82.25 337.69 79.79 365.86 75.86 365.86 78.81"/><polygon class="cls-10" points="472.99 509.99 89.14 546.04 66.58 332.37 419.06 397.49 472.99 509.99"/><polygon class="cls-2" points="687.43 321.01 473.56 511.32 419.06 397.49 579.98 276.78 687.43 321.01"/><polygon class="cls-1" points="687.43 321.01 579.98 276.78 635.41 149.55 667.9 170.34 687.43 321.01"/></svg>