<svg xmlns="http://www.w3.org/2000/svg" width="398.1" height="398.1" viewBox="0 0 398.1 398.1"><defs><style>.cls-1{fill:#231f20;}</style></defs><title>skill_dotnet</title><g id="Layer_2" data-name="Layer 2"><g id="Layer_1-2" data-name="Layer 1"><path d="M308.4,0H89.8A89.9,89.9,0,0,0,0,89.8V308.4a89.9,89.9,0,0,0,89.8,89.7H308.4a89.8,89.8,0,0,0,89.7-89.7V89.8A89.9,89.9,0,0,0,308.4,0Zm75,308.4a75.1,75.1,0,0,1-75,75H89.8a75.1,75.1,0,0,1-75-75V89.8a75.1,75.1,0,0,1,75-75H308.4a75.1,75.1,0,0,1,75,75Zm0,0"/><path class="cls-1" d="M77.2,238.4H62.2V221.9H77.2Z"/><path class="cls-1" d="M115.5,114.6l36.8,90.1c1.4,3.3,2.6,6.7,3.9,10s2.5,6.7,3.5,10c-.2-3.7-.5-7.2-.7-10.9s-.2-7.4-.2-11l-1.1-88.2h14V238.4h-20l-44-110c.5,8.1.9,16.3,1.2,24.4l.9,85.6h-14V114.6Z"/><path class="cls-1" d="M259.8,127.1H211.6v41h45.1v12.3H211.6V226h48.2v12.5H197.7V114.6h62.1Z"/><path class="cls-1" d="M346.4,114.6v12.5H314.9V238.4H300.7V127.1H267.9V114.6Z"/><path class="cls-1" d="M52.6,304.5V266.3h5.5L70.6,300h.1L83,266.3h5.5v38.2H84.9V270.4h-.1L72.3,304.5H68.9L56.3,270.4h-.1v34.1Z"/><path class="cls-1" d="M93.6,266.3h3.8l11.5,34,11.5-34h3.8l-13.3,38.2h-4Z"/><path class="cls-1" d="M156.6,277.4c-1.5-6.5-5.5-9-12.1-9-9.2,0-13.2,7.9-13.2,16.9s3.1,17.2,13.5,17.2c6.6,0,10.7-4.5,12.1-10.5h3.8c-1.7,7.4-6.3,13.6-16.6,13.6-11.8,0-16.5-9.3-16.5-20.1,0-14.6,7.6-20.1,17.8-20.1,7.9,0,13.6,4.2,14.8,12.1Z"/><path class="cls-1" d="M181,309.3h-3l12.5-44h3Z"/><path class="cls-1" d="M211.9,304.5V266.3h5.5L230,300h.1l12.3-33.7h5.5v38.2h-3.6V270.4h-.1l-12.5,34.1h-3.4l-12.6-34.1h-.1v34.1Z"/><path class="cls-1" d="M253,266.3h3.8l11.5,34,11.5-34h3.8l-13.3,38.2h-4Z"/><path class="cls-1" d="M285.4,266.3h3.8l11.5,34,11.5-34H316l-13.3,38.2h-4Z"/><path class="cls-1" d="M321.1,304.5V266.3h5.5L339.1,300h.1l12.3-33.7H357v38.2h-3.6V270.4h-.1l-12.5,34.1h-3.4l-12.6-34.1h-.1v34.1Z"/></g></g></svg>