<svg xmlns="http://www.w3.org/2000/svg" width="398.1" height="398.1" viewBox="0 0 398.1 398.1"><title>skill_java</title><g id="Layer_2" data-name="Layer 2"><g id="Layer_1-2" data-name="Layer 1"><path d="M308.4,0H89.8A89.9,89.9,0,0,0,0,89.8V308.4a89.9,89.9,0,0,0,89.8,89.7H308.4a89.8,89.8,0,0,0,89.7-89.7V89.8A89.9,89.9,0,0,0,308.4,0Zm75,308.4a75.1,75.1,0,0,1-75,75H89.8a75.1,75.1,0,0,1-75-75V89.8a75.1,75.1,0,0,1,75-75H308.4a75.1,75.1,0,0,1,75,75Zm0,0"/><path d="M195.1,213.9a9.4,9.4,0,0,1-2.9-2.3c-9.8-9-19.4-18.1-27.1-29.1a49.5,49.5,0,0,1-7.1-14,25,25,0,0,1,3.6-22.6c6.1-8.8,14.2-15.5,22.4-22.1s18.6-14.2,26.8-22.6,12.7-15.1,15.3-24.9c2.1-8,1.8-16-.2-24.1.8.1,1,.7,1.3,1.1,6.9,9.7,8.1,20.3,4.9,31.5s-10,20.7-17.9,29.3c-6.1,6.7-13.1,12.4-20.1,18.1s-12,10.8-16.5,17.6q-9.8,15.1-2.3,31.5c2.6,5.8,6.2,11,9.9,16.2a145.9,145.9,0,0,1,9.2,14.1C194.8,212.2,195.4,212.8,195.1,213.9Z"/><path d="M131.6,306a57.4,57.4,0,0,0-23.1,6.6c-1.7.9-3.8,1.8-3.7,4.1s2.5,2.7,4.3,3.4c8,3.1,16.4,4.4,24.8,5.4,20.5,2.5,41,2.9,61.6,2.5a529.9,529.9,0,0,0,56.3-3.8c9.4-1.2,18.8-2.6,27.9-5.6a24.1,24.1,0,0,0,6.4-3.1c3.3-2.3,3.8-4.3,1.9-8.2,2.3,1,4.1,2.1,4.8,4.4s-.7,3.9-2.3,5.2c-3.5,3.1-7.8,4.9-12.2,6.5-11.8,4.3-24.1,6.7-36.5,8.6-24,3.5-48.1,4.5-72.3,3.9a483.4,483.4,0,0,1-56.2-4.6c-6.3-.9-12.6-1.6-18.7-3.1a18.9,18.9,0,0,1-6.5-2.8c-2.6-1.9-2.9-4-1-6.7a14.4,14.4,0,0,1,4.3-3.9,70.8,70.8,0,0,1,35.4-10.5,13.8,13.8,0,0,1,5.3.9C132.3,305.7,131.9,305.8,131.6,306Z"/><path d="M208.2,224.3c.1-.9.9-1.4,1.4-2,7.7-9.3,7.7-19-.1-28.2-5.1-6-9.4-12.4-11.6-20-3.2-11.1-.3-20.9,6.9-29.6s15.3-13.7,24.5-18.6a167.1,167.1,0,0,1,30.4-12.2,1.5,1.5,0,0,1,1.3-.1c-.2.9-1.1,1-1.7,1.4-11.5,6.9-22.9,14-33,22.9a55.1,55.1,0,0,0-8.6,9.4c-5,7-5.5,14.2-1.4,21.8a126.5,126.5,0,0,0,9,13.5,25.8,25.8,0,0,1,4.7,10.1,20.1,20.1,0,0,1-2.8,14.3c-4.4,7.6-11.1,13-18.5,17.5Z"/><path d="M243.1,296.9a114.9,114.9,0,0,1-19.1,6.3c-20.5,4.8-41.1,5.6-61.7,1.1a50.5,50.5,0,0,1-13.4-4.7,24.8,24.8,0,0,1-3.6-2.3c-4-3.2-3.9-6.8.2-9.8a30.3,30.3,0,0,1,10-4.4c-3,4.2-2.5,5.6,2.4,7.1s11.9,1.9,18,2.4c16.3,1.5,32.4-.1,48.4-3.3a6.1,6.1,0,0,1,4.7.8A99.1,99.1,0,0,0,243.1,296.9Z"/><path d="M257.2,228c-3.5,1.8-6.9,3.9-10.4,5.7s-7.9,2.2-11.9,3a315.5,315.5,0,0,1-42.7,4.9c-12.8.7-25.5.9-38.3.3s-23.8-1.3-35.3-4.3a20.8,20.8,0,0,1-7-2.8c-2.2-1.6-2.4-3.3-.3-5.2s5-3,7.7-4.2a107.3,107.3,0,0,1,39.7-9.4H161c-5.6,1.7-11.2,3.1-16.7,5.1-2.7,1-5.4,2.1-8,3.3a17,17,0,0,0-3.7,2.3c-2.2,1.8-2,3.3.6,4.5,4.8,2.1,9.9,2.5,15,2.9,18.6,1.3,37.2.7,55.8-.5a480.5,480.5,0,0,0,50.2-5.8l1.9-.2C256.7,227.5,257.2,227.2,257.2,228Z"/><path d="M248.3,265.1a191.4,191.4,0,0,1-23,5.4,231.3,231.3,0,0,1-46.7,3.5c-11.9-.3-23.7-1.3-35.1-5.1a21.3,21.3,0,0,1-7.8-4.1c-2.7-2.4-2.7-4.9-.3-7.5s9.1-6,12.7-6.5c.2.9-.6,1.2-1,1.7-2.4,3.3-1.8,5.6,2,7.3a24.1,24.1,0,0,0,7.1,1.6c13.9,1.4,27.9,2.3,41.9,1.3a311.3,311.3,0,0,0,36.6-4.9,2.8,2.8,0,0,1,2.7.7A38.5,38.5,0,0,0,248.3,265.1Z"/><path d="M128.2,341.9c7.4.9,14.9,1.9,22.3,2.4,5.6.4,11.2.8,16.8,1a469.8,469.8,0,0,0,58.6-1.3c19.3-1.7,38.5-4.3,57.2-9.9,6.2-1.8,12.2-4,17.7-7.4,1.6-1,3.1-2.2,5-3.6a11.2,11.2,0,0,1-3,6.4c-4.1,4.7-9.5,7.2-15.1,9.4-10.5,4.1-21.6,6.2-32.7,7.8-23.3,3.3-46.7,4-70.1,3.4-16.1-.4-32.1-1.2-47.9-4.7a42,42,0,0,1-9.7-3.1C127.3,341.6,127.8,341.8,128.2,341.9Z"/><path d="M265.6,218.6a6.5,6.5,0,0,1,3.4-3c10.4-4,20.4-3.8,29.4,3.2,7.5,5.9,9.6,15.1,5.8,23.9-2.4,5.6-6.4,9.9-11.1,13.6-8.3,6.5-23.4,13.2-33.9,15.2.1-1.2,1.2-1.5,2-2,8.6-4.7,16.9-9.9,23.8-17.1a32.7,32.7,0,0,0,7.7-12.1c4.5-13.5-6.2-22.9-16.3-23.6C272.7,216.6,269.3,217.6,265.6,218.6Z"/><path d="M257.2,228l-.9-.4c.5-.5,1.2-.3,1.8-.4s.6.1.4.5Z"/><path d="M131.6,306l.4-.8c.4,0,1.1.2,1,.5S132.1,306,131.6,306Z"/><path d="M128.2,341.9l-.9.4a1.3,1.3,0,0,1-1.1-.7A2,2,0,0,1,128.2,341.9Z"/><path d="M258.5,227.6l-.4-.5c.4-.4.9-.6,1.4-.1Z"/></g></g></svg>