<svg xmlns="http://www.w3.org/2000/svg" width="398.1" height="398.1" viewBox="0 0 398.1 398.1"><defs><style>.cls-1{fill:#231f20;}</style></defs><title>skill_html</title><g id="Layer_2" data-name="Layer 2"><g id="Layer_1-2" data-name="Layer 1"><path d="M308.4,0H89.8A89.9,89.9,0,0,0,0,89.8V308.4a89.9,89.9,0,0,0,89.8,89.7H308.4a89.8,89.8,0,0,0,89.7-89.7V89.8A89.9,89.9,0,0,0,308.4,0Zm75,308.4a75.1,75.1,0,0,1-75,75H89.8a75.1,75.1,0,0,1-75-75V89.8a75.1,75.1,0,0,1,75-75H308.4a75.1,75.1,0,0,1,75,75Zm0,0"/><polygon class="cls-1" points="251.1 217.2 247.4 267.5 200.4 280.2 153.2 267.5 153.2 235.9 107.8 235.9 112.8 300.3 199.2 327.7 285.6 300.3 295.2 177.1 147.9 177.1 143.3 133.8 298.6 133.8 301.7 94.2 96.7 94.2 106.3 217.2 251.1 217.2"/><path class="cls-1" d="M308.3,332.5H87.5"/></g></g></svg>