<svg aria-hidden="true" style="position: absolute; width: 0; height: 0; overflow: hidden;" version="1.1" xmlns="http://www.w3.org/2000/svg" xmlns:xlink="http://www.w3.org/1999/xlink">
<defs>
<symbol id="icon-skill_xd" viewBox="0 0 32 32">
<title>skill_xd</title>
<path fill="#000" style="fill: var(--color1, #000)" d="M24.79 0h-17.571c-3.985 0.005-7.214 3.234-7.218 7.218v17.572c0.009 3.981 3.236 7.206 7.218 7.21h17.572c3.98-0.005 7.206-3.23 7.21-7.21v-17.572c-0.005-3.982-3.229-7.209-7.209-7.218h-0.001zM30.818 24.79c-0.005 3.328-2.701 6.024-6.028 6.029h-17.572c-3.328-0.005-6.024-2.701-6.029-6.028v-17.572c0.005-3.328 2.701-6.024 6.028-6.029h17.572c3.328 0.005 6.024 2.701 6.029 6.028v0z"></path>
<path fill="#231f20" style="fill: var(--color2, #231f20)" d="M13.866 15.747l4.566 8.657h-2.186l-3.577-6.945-1.286 2.5-2.355 4.445h-2.13l4.71-8.585-4.445-8.207h2.211l2.259 4.284 1.141 2.235c0.378-0.764 0.788-1.495 1.166-2.259l2.259-4.26h2.138z"></path>
<path fill="#231f20" style="fill: var(--color2, #231f20)" d="M25.264 12.749v11.655h-1.125l0.032-1.206c-0.016 0.016-0.129 0.33-0.265 0.514-0.201 0.314-0.78 0.908-1.784 0.908-0.527-0.005-1.009-0.192-1.387-0.501l0.004 0.003c-1.093-0.892-1.206-2.62-1.206-3.899 0-1.696 0.297-2.789 0.691-3.448 0.627-1.021 1.6-1.222 2.050-1.222 0.58 0.008 1.099 0.267 1.453 0.673l0.002 0.002c0.105 0.129 0.209 0.274 0.303 0.424l0.011 0.018v-3.923zM21.269 17.435c-0.265 0.498-0.41 1.423-0.41 2.693s0.113 2.050 0.346 2.556 0.643 0.892 1.238 0.892c0.426 0 1.037-0.217 1.35-1.109s0.297-2.379 0.297-2.476 0.032-1.439-0.249-2.243-0.94-1.141-1.35-1.141c-0.541 0.032-0.999 0.358-1.218 0.819l-0.004 0.009z"></path>
</symbol>
<symbol id="icon-skill_angular" viewBox="0 0 32 32">
<title>skill_angular</title>
<path fill="#000" style="fill: var(--color1, #000)" d="M24.79 0h-17.571c-3.985 0.005-7.214 3.234-7.218 7.218v17.572c0.009 3.981 3.236 7.206 7.218 7.21h17.572c3.98-0.005 7.206-3.23 7.21-7.21v-17.572c-0.005-3.982-3.229-7.209-7.209-7.218h-0.001zM30.818 24.79c-0.005 3.328-2.701 6.024-6.028 6.029h-17.572c-3.328-0.005-6.024-2.701-6.029-6.028v-17.572c0.005-3.328 2.701-6.024 6.028-6.029h17.572c3.328 0.005 6.024 2.701 6.029 6.028v0z"></path>
<path fill="#000" style="fill: var(--color1, #000)" d="M16.068 5.185h0.072l0.105 0.056 10.739 3.842c0.096 0.032 0.137 0.072 0.121 0.177-0.048 0.394-0.088 0.788-0.137 1.182l-0.281 2.548-0.281 2.524-0.611 5.498c-0.105 0.924-0.209 1.841-0.305 2.765-0.001 0.088-0.053 0.164-0.127 0.2l-0.001 0.001-8.32 4.702-0.916 0.531h-0.048l-0.121-0.080-9.139-5.16c-0.066-0.033-0.111-0.099-0.113-0.177v-0c-0.088-0.836-0.185-1.672-0.273-2.508l-0.289-2.572-0.563-5.064-0.257-2.323c-0.080-0.691-0.153-1.383-0.233-2.066-0.004-0.012-0.007-0.027-0.007-0.041 0-0.065 0.048-0.119 0.111-0.127l0.001-0 9.614-3.448zM16.092 7.299l-7.025 15.433h2.524c0.004 0 0.008 0 0.012 0 0.064 0 0.118-0.044 0.133-0.104l0-0.001 1.262-3.336c0.018-0.075 0.085-0.13 0.164-0.13 0.007 0 0.014 0 0.021 0.001l-0.001-0c1.937-0.040 3.874-0.040 5.812 0 0.006-0.001 0.013-0.001 0.020-0.001 0.084 0 0.154 0.058 0.172 0.137l0 0.001 1.27 3.344c0.014 0.061 0.069 0.106 0.133 0.106 0.007 0 0.014-0 0.020-0.002l-0.001 0h2.516z"></path>
<path fill="#000" style="fill: var(--color1, #000)" d="M18.198 17.097h-4.204l2.098-4.919z"></path>
<path fill="#231f20" style="fill: var(--color2, #231f20)" d="M26.655 23.504h3.36l-0.225 1.262h-2.275l-0.314 0.788c0.37-0.241 0.739-0.281 1.133-0.281 1.005 0 1.68 0.611 1.495 1.656-0.257 1.447-1.495 1.929-2.685 1.929s-1.801-0.514-1.929-1.479l1.584-0.153c0 0.016 0.008 0.040 0.008 0.048 0.040 0.273 0.314 0.426 0.595 0.426 0.010 0 0.021 0.001 0.033 0.001 0.416 0 0.762-0.295 0.843-0.686l0.001-0.006c0.072-0.434-0.072-0.756-0.547-0.756-0.233 0-0.514 0.056-0.675 0.289l-1.447-0.048z"></path>
</symbol>
<symbol id="icon-skill_css" viewBox="0 0 32 32">
<title>skill_css</title>
<path fill="#000" style="fill: var(--color1, #000)" d="M24.79 0h-17.571c-3.985 0.005-7.214 3.234-7.218 7.218v17.572c0.009 3.981 3.236 7.206 7.218 7.21h17.572c3.98-0.005 7.206-3.23 7.21-7.21v-17.572c-0.005-3.982-3.229-7.209-7.209-7.218h-0.001zM30.818 24.79c-0.005 3.328-2.701 6.024-6.028 6.029h-17.572c-3.328-0.005-6.024-2.701-6.029-6.028v-17.572c0.005-3.328 2.701-6.024 6.028-6.029h17.572c3.328 0.005 6.024 2.701 6.029 6.028v0z"></path>
<path fill="#231f20" style="fill: var(--color2, #231f20)" d="M11.462 15.425c-0.048-0.611-0.145-1.334-0.723-1.696-0.204-0.114-0.448-0.182-0.706-0.185h-0.001c-0.94 0-1.254 0.876-1.334 1.109-0.201 0.498-0.33 1.302-0.33 2.524s0.145 2.21 0.442 2.677c0.249 0.404 0.688 0.671 1.189 0.675h0.001c0.002 0 0.004 0 0.006 0 0.255 0 0.492-0.075 0.691-0.204l-0.005 0.003c0.627-0.394 0.723-1.334 0.78-1.977l1.222 0.016c-0.032 0.442-0.048 0.723-0.169 1.174-0.362 1.27-1.27 1.993-2.588 1.993-0.531 0-1.005-0.096-1.471-0.394-0.876-0.547-1.407-1.664-1.407-3.762 0-0.113-0.016-2.098 0.442-3.215 0.12-0.29 0.274-0.539 0.462-0.76l-0.003 0.004c0.314-0.378 0.924-0.908 2.13-0.908 0.86 0 1.584 0.281 2.082 0.973 0.146 0.208 0.268 0.448 0.356 0.703l0.006 0.020c0.103 0.375 0.165 0.806 0.169 1.251l0 0.002z"></path>
<path fill="#231f20" style="fill: var(--color2, #231f20)" d="M17.459 14.975c-0.007-0.237-0.036-0.464-0.085-0.683l0.004 0.024c-0.096-0.362-0.41-0.828-1.286-0.828-0.006-0-0.013-0-0.019-0-0.255 0-0.497 0.053-0.716 0.149l0.011-0.004c-0.233 0.113-0.643 0.442-0.643 1.125-0.001 0.022-0.002 0.048-0.002 0.075 0 0.328 0.126 0.627 0.333 0.851l-0.001-0.001c0.378 0.394 0.924 0.531 1.423 0.675s0.844 0.281 1.222 0.498 1.141 0.756 1.141 2.098c0 0.362-0.032 1.238-0.812 1.913-0.293 0.254-0.646 0.448-1.034 0.558l-0.019 0.005c-0.256 0.062-0.55 0.097-0.852 0.097-0.020 0-0.040-0-0.059-0l0.003 0c-1.334 0-1.961-0.482-2.331-0.989-0.111-0.188-0.211-0.406-0.29-0.634l-0.008-0.025c-0.096-0.378-0.096-0.707-0.096-1.109l1.174 0.016c0 0.113 0 0.595 0.129 0.957s0.531 0.756 1.407 0.756 1.254-0.378 1.423-0.739c0.091-0.219 0.145-0.473 0.145-0.739v-0c0-0.908-0.611-1.157-1.439-1.471l-1.109-0.41c-0.239-0.080-0.447-0.18-0.638-0.304l0.011 0.007c-0.707-0.458-0.924-1.125-0.924-1.929 0-0.33 0.016-1.093 0.675-1.752s1.664-0.691 1.977-0.691 1.993 0.032 2.379 1.567c0.064 0.297 0.080 0.426 0.080 0.94z"></path>
<path fill="#231f20" style="fill: var(--color2, #231f20)" d="M23.648 14.975c-0.007-0.237-0.036-0.464-0.085-0.683l0.004 0.024c-0.096-0.362-0.41-0.828-1.286-0.828-0.006-0-0.013-0-0.019-0-0.255 0-0.497 0.053-0.716 0.149l0.011-0.004c-0.233 0.113-0.643 0.442-0.643 1.125-0.001 0.022-0.002 0.048-0.002 0.075 0 0.328 0.126 0.627 0.333 0.851l-0.001-0.001c0.378 0.394 0.924 0.531 1.423 0.675s0.844 0.281 1.222 0.498 1.141 0.756 1.141 2.098c0 0.362-0.032 1.238-0.812 1.913-0.293 0.254-0.646 0.448-1.034 0.558l-0.019 0.005c-0.256 0.062-0.55 0.097-0.852 0.097-0.020 0-0.040-0-0.059-0l0.003 0c-1.334 0-1.961-0.482-2.331-0.989-0.111-0.188-0.211-0.406-0.29-0.634l-0.008-0.025c-0.096-0.378-0.096-0.707-0.096-1.109l1.174 0.016c0 0.113 0 0.595 0.129 0.957s0.531 0.756 1.407 0.756 1.254-0.378 1.423-0.739c0.091-0.219 0.144-0.473 0.145-0.739v-0c0-0.908-0.611-1.157-1.439-1.471l-1.109-0.41c-0.239-0.080-0.447-0.18-0.638-0.304l0.011 0.007c-0.707-0.458-0.924-1.125-0.924-1.929 0-0.33 0.016-1.093 0.675-1.752s1.664-0.691 1.977-0.691 1.993 0.032 2.379 1.567c0.064 0.297 0.080 0.426 0.080 0.94z"></path>
</symbol>
<symbol id="icon-skill_dotnet" viewBox="0 0 32 32">
<title>skill_dotnet</title>
<path fill="#000" style="fill: var(--color1, #000)" d="M24.79 0h-17.571c-3.985 0.005-7.214 3.234-7.218 7.218v17.572c0.009 3.981 3.236 7.206 7.218 7.21h17.572c3.98-0.005 7.206-3.23 7.21-7.21v-17.572c-0.005-3.982-3.229-7.209-7.209-7.218h-0.001zM30.818 24.79c-0.005 3.328-2.701 6.024-6.028 6.029h-17.572c-3.328-0.005-6.024-2.701-6.029-6.028v-17.572c0.005-3.328 2.701-6.024 6.028-6.029h17.572c3.328 0.005 6.024 2.701 6.029 6.028v0z"></path>
<path fill="#231f20" style="fill: var(--color2, #231f20)" d="M6.205 19.163h-1.206v-1.326h1.206z"></path>
<path fill="#231f20" style="fill: var(--color2, #231f20)" d="M9.284 9.212l2.958 7.242c0.113 0.265 0.209 0.539 0.313 0.804s0.201 0.539 0.281 0.804c-0.016-0.297-0.040-0.579-0.056-0.876s-0.016-0.595-0.016-0.884l-0.088-7.090h1.125v9.951h-1.608l-3.537-8.842c0.040 0.651 0.072 1.31 0.096 1.961l0.072 6.881h-1.125v-9.951z"></path>
<path fill="#231f20" style="fill: var(--color2, #231f20)" d="M20.883 10.217h-3.874v3.296h3.625v0.989h-3.625v3.665h3.874v1.005h-4.992v-9.959h4.992z"></path>
<path fill="#231f20" style="fill: var(--color2, #231f20)" d="M27.844 9.212v1.005h-2.532v8.947h-1.141v-8.947h-2.637v-1.005z"></path>
<path fill="#231f20" style="fill: var(--color2, #231f20)" d="M4.228 24.476v-3.071h0.442l1.005 2.709h0.008l0.989-2.709h0.442v3.071h-0.289v-2.741h-0.008l-1.005 2.741h-0.273l-1.013-2.741h-0.008v2.741z"></path>
<path fill="#231f20" style="fill: var(--color2, #231f20)" d="M7.524 21.406h0.305l0.924 2.733 0.924-2.733h0.305l-1.069 3.071h-0.322z"></path>
<path fill="#231f20" style="fill: var(--color2, #231f20)" d="M12.588 22.298c-0.121-0.522-0.442-0.723-0.973-0.723-0.739 0-1.061 0.635-1.061 1.358s0.249 1.383 1.085 1.383c0.531 0 0.86-0.362 0.973-0.844h0.305c-0.137 0.595-0.506 1.093-1.334 1.093-0.948 0-1.326-0.748-1.326-1.616 0-1.174 0.611-1.616 1.431-1.616 0.635 0 1.093 0.338 1.19 0.973z"></path>
<path fill="#231f20" style="fill: var(--color2, #231f20)" d="M14.549 24.862h-0.241l1.005-3.537h0.241z"></path>
<path fill="#231f20" style="fill: var(--color2, #231f20)" d="M17.033 24.476v-3.071h0.442l1.013 2.709h0.008l0.989-2.709h0.442v3.071h-0.289v-2.741h-0.008l-1.005 2.741h-0.273l-1.013-2.741h-0.008v2.741z"></path>
<path fill="#231f20" style="fill: var(--color2, #231f20)" d="M20.337 21.406h0.305l0.924 2.733 0.924-2.733h0.305l-1.069 3.071h-0.322z"></path>
<path fill="#231f20" style="fill: var(--color2, #231f20)" d="M22.941 21.406h0.305l0.924 2.733 0.924-2.733h0.305l-1.069 3.071h-0.322z"></path>
<path fill="#231f20" style="fill: var(--color2, #231f20)" d="M25.811 24.476v-3.071h0.442l1.005 2.709h0.008l0.989-2.709h0.442v3.071h-0.289v-2.741h-0.008l-1.005 2.741h-0.273l-1.013-2.741h-0.008v2.741z"></path>
</symbol>
<symbol id="icon-skill_html" viewBox="0 0 32 32">
<title>skill_html</title>
<path fill="#000" style="fill: var(--color1, #000)" d="M24.79 0h-17.571c-3.985 0.005-7.214 3.234-7.218 7.218v17.572c0.009 3.981 3.236 7.206 7.218 7.21h17.572c3.98-0.005 7.206-3.23 7.21-7.21v-17.572c-0.005-3.982-3.229-7.209-7.209-7.218h-0.001zM30.818 24.79c-0.005 3.328-2.701 6.024-6.028 6.029h-17.572c-3.328-0.005-6.024-2.701-6.029-6.028v-17.572c0.005-3.328 2.701-6.024 6.028-6.029h17.572c3.328 0.005 6.024 2.701 6.029 6.028v0z"></path>
<path fill="#231f20" style="fill: var(--color2, #231f20)" d="M20.184 17.459l-0.297 4.043-3.778 1.021-3.794-1.021v-2.54h-3.649l0.402 5.177 6.945 2.202 6.945-2.202 0.772-9.903h-11.84l-0.37-3.481h12.483l0.249-3.183h-16.478l0.772 9.887h11.639z"></path>
<path fill="#231f20" style="fill: var(--color2, #231f20)" d="M24.782 26.727h-17.748z"></path>
</symbol>
<symbol id="icon-skill_illustrator" viewBox="0 0 32 32">
<title>skill_illustrator</title>
<path fill="#000" style="fill: var(--color1, #000)" d="M24.79 0h-17.571c-3.985 0.005-7.214 3.234-7.218 7.218v17.572c0.009 3.981 3.236 7.206 7.218 7.21h17.572c3.98-0.005 7.206-3.23 7.21-7.21v-17.572c-0.005-3.982-3.229-7.209-7.209-7.218h-0.001zM30.818 24.79c-0.005 3.328-2.701 6.024-6.028 6.029h-17.572c-3.328-0.005-6.024-2.701-6.029-6.028v-17.572c0.005-3.328 2.701-6.024 6.028-6.029h17.572c3.328 0.005 6.024 2.701 6.029 6.028v0z"></path>
<path fill="#231f20" style="fill: var(--color2, #231f20)" d="M14.461 7.612l4.638 16.792h-1.993l-1.286-4.831h-5.281l-1.286 4.831h-2.090l4.807-16.792zM15.385 17.933c-0.547-2.042-1.069-4.091-1.567-6.157-0.217-0.924-0.402-1.857-0.619-2.781-0.354 1.592-0.715 3.183-1.093 4.759-0.354 1.407-0.739 2.805-1.117 4.212z"></path>
<path fill="#231f20" style="fill: var(--color2, #231f20)" d="M23.126 12.749v1.471h-1.238v-1.471zM23.142 15.739v8.665h-1.238v-8.665z"></path>
</symbol>
<symbol id="icon-skill_java" viewBox="0 0 32 32">
<title>skill_java</title>
<path d="M24.79 0h-17.571c-3.985 0.005-7.214 3.234-7.218 7.218v17.572c0.009 3.981 3.236 7.206 7.218 7.21h17.572c3.98-0.005 7.206-3.23 7.21-7.21v-17.572c-0.005-3.982-3.229-7.209-7.209-7.218h-0.001zM30.818 24.79c-0.005 3.328-2.701 6.024-6.028 6.029h-17.572c-3.328-0.005-6.024-2.701-6.029-6.028v-17.572c0.005-3.328 2.701-6.024 6.028-6.029h17.572c3.328 0.005 6.024 2.701 6.029 6.028v0z"></path>
<path d="M15.682 17.194c-0.092-0.047-0.169-0.109-0.232-0.184l-0.001-0.001c-0.788-0.723-1.559-1.455-2.178-2.339-0.237-0.323-0.431-0.696-0.563-1.097l-0.008-0.028c-0.064-0.187-0.1-0.403-0.1-0.627 0-0.447 0.146-0.861 0.394-1.195l-0.004 0.005c0.49-0.707 1.141-1.246 1.801-1.776s1.495-1.141 2.154-1.817 1.021-1.214 1.23-2.002c0.169-0.643 0.145-1.286-0.016-1.937 0.064 0.008 0.080 0.056 0.105 0.088 0.555 0.78 0.651 1.632 0.394 2.532s-0.804 1.664-1.439 2.355c-0.49 0.539-1.053 0.997-1.616 1.455s-0.965 0.868-1.326 1.415q-0.788 1.214-0.185 2.532c0.209 0.466 0.498 0.884 0.796 1.302 0.242 0.323 0.486 0.693 0.709 1.077l0.030 0.056c0.032 0.048 0.080 0.096 0.056 0.185z"></path>
<path d="M10.578 24.597c-0.687 0.048-1.319 0.238-1.881 0.543l0.024-0.012c-0.137 0.072-0.305 0.145-0.297 0.33s0.201 0.217 0.346 0.273c0.643 0.249 1.318 0.354 1.993 0.434 1.648 0.201 3.296 0.233 4.952 0.201 1.622-0.024 3.191-0.134 4.734-0.327l-0.209 0.021c0.756-0.096 1.511-0.209 2.243-0.45 0.196-0.062 0.367-0.147 0.521-0.253l-0.006 0.004c0.265-0.185 0.305-0.346 0.153-0.659 0.185 0.080 0.33 0.169 0.386 0.354s-0.056 0.314-0.185 0.418c-0.281 0.249-0.627 0.394-0.981 0.522-0.948 0.346-1.937 0.539-2.934 0.691-1.929 0.281-3.866 0.362-5.812 0.314-1.632-0.039-3.194-0.172-4.727-0.395l0.21 0.025c-0.506-0.072-1.013-0.129-1.503-0.249-0.198-0.045-0.373-0.123-0.528-0.228l0.005 0.003c-0.209-0.153-0.233-0.322-0.080-0.539 0.093-0.127 0.208-0.231 0.34-0.311l0.005-0.003c0.81-0.507 1.789-0.817 2.838-0.844l0.007-0c0.009-0 0.020-0 0.031-0 0.142 0 0.278 0.027 0.403 0.075l-0.008-0.003c0.016 0.040-0.016 0.048-0.040 0.064z"></path>
<path d="M16.735 18.030c0.008-0.072 0.072-0.113 0.113-0.161 0.619-0.748 0.619-1.527-0.008-2.267-0.41-0.482-0.756-0.997-0.932-1.608-0.257-0.892-0.024-1.68 0.555-2.379s1.23-1.101 1.969-1.495c0.693-0.37 1.503-0.704 2.349-0.956l0.095-0.024c0.017-0.010 0.038-0.016 0.061-0.016 0.016 0 0.031 0.003 0.045 0.009l-0.001-0c-0.016 0.072-0.088 0.080-0.137 0.113-0.924 0.555-1.841 1.125-2.653 1.841-0.258 0.224-0.485 0.472-0.683 0.743l-0.009 0.013c-0.402 0.563-0.442 1.141-0.113 1.752 0.242 0.417 0.481 0.771 0.741 1.109l-0.018-0.024c0.176 0.228 0.308 0.501 0.375 0.798l0.003 0.014c0.016 0.086 0.025 0.184 0.025 0.285 0 0.321-0.093 0.619-0.254 0.871l0.004-0.006c-0.354 0.611-0.892 1.045-1.487 1.407z"></path>
<path d="M19.541 23.865c-0.43 0.192-0.942 0.366-1.472 0.494l-0.063 0.013c-1.648 0.386-3.304 0.45-4.96 0.088-0.406-0.082-0.766-0.213-1.099-0.388l0.022 0.011c-0.111-0.058-0.205-0.12-0.294-0.188l0.005 0.003c-0.322-0.257-0.313-0.547 0.016-0.788 0.23-0.158 0.498-0.28 0.787-0.35l0.017-0.003c-0.241 0.338-0.201 0.45 0.193 0.571s0.957 0.153 1.447 0.193c1.31 0.121 2.604-0.008 3.89-0.265 0.034-0.008 0.073-0.013 0.113-0.013 0.098 0 0.19 0.029 0.267 0.079l-0.002-0.001c0.318 0.19 0.691 0.374 1.079 0.528l0.054 0.019z"></path>
<path d="M20.674 18.327c-0.281 0.145-0.555 0.314-0.836 0.458s-0.635 0.177-0.957 0.241c-0.994 0.194-2.173 0.335-3.375 0.392l-0.057 0.002c-1.029 0.056-2.050 0.072-3.079 0.024s-1.913-0.105-2.837-0.346c-0.213-0.044-0.401-0.122-0.569-0.229l0.007 0.004c-0.177-0.129-0.193-0.265-0.024-0.418s0.402-0.241 0.619-0.338c0.935-0.433 2.025-0.706 3.173-0.755l0.018-0.001h0.185c-0.45 0.137-0.9 0.249-1.342 0.41-0.217 0.080-0.434 0.169-0.643 0.265-0.113 0.052-0.211 0.114-0.3 0.187l0.002-0.002c-0.177 0.145-0.161 0.265 0.048 0.362 0.386 0.169 0.796 0.201 1.206 0.233 1.495 0.105 2.99 0.056 4.485-0.040 1.52-0.097 2.905-0.262 4.266-0.5l-0.231 0.033 0.153-0.016c0.048-0.008 0.088-0.032 0.088 0.032z"></path>
<path d="M19.959 21.309c-0.498 0.158-1.12 0.309-1.756 0.421l-0.092 0.013c-0.98 0.183-2.107 0.288-3.259 0.288-0.174 0-0.347-0.002-0.52-0.007l0.025 0.001c-0.957-0.024-1.905-0.105-2.821-0.41-0.241-0.070-0.451-0.183-0.63-0.332l0.003 0.002c-0.217-0.193-0.217-0.394-0.024-0.603s0.731-0.482 1.021-0.522c0.016 0.072-0.048 0.096-0.080 0.137-0.193 0.265-0.145 0.45 0.161 0.587 0.168 0.068 0.362 0.114 0.564 0.128l0.006 0c1.117 0.113 2.243 0.185 3.368 0.105 1.109-0.083 2.116-0.223 3.102-0.421l-0.16 0.027c0.018-0.005 0.038-0.008 0.060-0.008 0.061 0 0.117 0.025 0.158 0.064l-0-0c0.25 0.216 0.54 0.395 0.855 0.523l0.021 0.007z"></path>
<path d="M10.305 27.483c0.595 0.072 1.198 0.153 1.793 0.193 0.45 0.032 0.9 0.064 1.35 0.080 0.453 0.019 0.985 0.031 1.519 0.031 1.123 0 2.235-0.049 3.334-0.145l-0.142 0.010c1.551-0.137 3.095-0.346 4.598-0.796 0.498-0.145 0.981-0.322 1.423-0.595 0.129-0.080 0.249-0.177 0.402-0.289-0.024 0.201-0.112 0.378-0.241 0.515l0-0c-0.33 0.378-0.764 0.579-1.214 0.756-0.844 0.33-1.736 0.498-2.628 0.627-1.873 0.265-3.754 0.322-5.635 0.273-1.294-0.032-2.58-0.096-3.85-0.378-0.294-0.057-0.555-0.143-0.8-0.258l0.021 0.009c0-0.056 0.040-0.040 0.072-0.032z"></path>
<path d="M21.349 17.571c0.060-0.11 0.155-0.195 0.27-0.24l0.004-0.001c0.836-0.322 1.64-0.305 2.363 0.257 0.603 0.474 0.772 1.214 0.466 1.921-0.193 0.45-0.514 0.796-0.892 1.093-0.667 0.522-1.881 1.061-2.725 1.222 0.008-0.096 0.096-0.121 0.161-0.161 0.691-0.378 1.358-0.796 1.913-1.375 0.269-0.267 0.48-0.592 0.613-0.954l0.006-0.018c0.362-1.085-0.498-1.841-1.31-1.897-0.297-0.008-0.571 0.072-0.868 0.153z"></path>
<path d="M20.674 18.327l-0.072-0.032c0.040-0.040 0.096-0.024 0.145-0.032s0.048 0.008 0.032 0.040z"></path>
<path d="M10.578 24.597l0.032-0.064c0.032 0 0.088 0.016 0.080 0.040s-0.072 0.024-0.113 0.024z"></path>
<path d="M10.305 27.483l-0.072 0.032c-0.038-0.002-0.071-0.024-0.088-0.056l-0-0.001c0.018-0.007 0.038-0.012 0.060-0.012 0.038 0 0.074 0.013 0.101 0.036l-0-0z"></path>
<path d="M20.779 18.295l-0.032-0.040c0.032-0.032 0.072-0.048 0.113-0.008z"></path>
</symbol>
<symbol id="icon-skill_photoshop" viewBox="0 0 32 32">
<title>skill_photoshop</title>
<path fill="#000" style="fill: var(--color1, #000)" d="M24.79 0h-17.571c-3.985 0.005-7.214 3.234-7.218 7.218v17.572c0.009 3.981 3.236 7.206 7.218 7.21h17.572c3.98-0.005 7.206-3.23 7.21-7.21v-17.572c-0.005-3.982-3.229-7.209-7.209-7.218h-0.001zM30.818 24.79c-0.005 3.328-2.701 6.024-6.028 6.029h-17.572c-3.328-0.005-6.024-2.701-6.029-6.028v-17.572c0.005-3.328 2.701-6.024 6.028-6.029h17.572c3.328 0.005 6.024 2.701 6.029 6.028v0z"></path>
<path fill="#231f20" style="fill: var(--color2, #231f20)" d="M10.61 17.266v7.13h-1.905v-16.784h4.71c1.31 0.024 2.452 0.096 3.521 0.997 0.691 0.571 1.495 1.592 1.495 3.641 0 0.643-0.024 2.757-1.64 4.067-0.388 0.298-0.839 0.541-1.326 0.706l-0.033 0.010c-0.667 0.217-1.238 0.217-1.905 0.241zM10.61 15.626h2.355c1.334-0.048 1.857-0.169 2.355-0.522s1.166-1.238 1.166-2.757c0-0.378 0-1.519-0.852-2.331-0.281-0.251-0.612-0.453-0.976-0.588l-0.021-0.007c-0.474-0.145-0.948-0.169-1.447-0.169h-2.58z"></path>
<path fill="#231f20" style="fill: var(--color2, #231f20)" d="M23.536 18.030c-0.007-0.237-0.036-0.464-0.085-0.683l0.004 0.024c-0.096-0.362-0.41-0.828-1.286-0.828-0.006-0-0.013-0-0.019-0-0.255 0-0.497 0.053-0.716 0.149l0.011-0.004c-0.233 0.113-0.643 0.442-0.643 1.125-0.001 0.022-0.002 0.048-0.002 0.075 0 0.328 0.126 0.627 0.333 0.851l-0.001-0.001c0.378 0.394 0.924 0.531 1.423 0.675s0.844 0.281 1.222 0.498 1.141 0.756 1.141 2.098c0 0.362-0.032 1.238-0.812 1.913-0.293 0.254-0.646 0.448-1.034 0.558l-0.019 0.005c-0.256 0.062-0.55 0.097-0.852 0.097-0.020 0-0.040-0-0.059-0l0.003 0c-1.334 0-1.961-0.482-2.331-0.989-0.111-0.188-0.211-0.406-0.29-0.634l-0.008-0.025c-0.096-0.378-0.096-0.707-0.096-1.109l1.174 0.016c0 0.113 0 0.595 0.129 0.957s0.531 0.756 1.407 0.756 1.254-0.378 1.423-0.739c0.091-0.219 0.145-0.473 0.145-0.739v-0c0-0.908-0.611-1.157-1.439-1.471l-1.117-0.41c-0.239-0.080-0.447-0.18-0.638-0.304l0.011 0.007c-0.707-0.458-0.924-1.125-0.924-1.929 0-0.33 0.016-1.093 0.675-1.752s1.664-0.691 1.977-0.691 1.993 0.032 2.379 1.567c0.064 0.297 0.080 0.426 0.080 0.94z"></path>
</symbol>
<symbol id="icon-skill_python" viewBox="0 0 32 32">
<title>skill_python</title>
<path fill="#231f20" style="fill: var(--color2, #231f20)" d="M27.249 14.983c-0.008-0.024-0.016-0.056-0.016-0.080-0.062-0.382-0.145-0.718-0.254-1.042l0.013 0.045c0-0.004 0.001-0.008 0.001-0.013 0-0.028-0.009-0.055-0.025-0.076l0 0c-0.054-0.182-0.12-0.339-0.2-0.488l0.007 0.014c-0.091-0.198-0.179-0.361-0.277-0.518l0.012 0.020c-0.088-0.149-0.186-0.278-0.298-0.394l0.001 0.001c-0.024-0.064-0.080-0.104-0.129-0.145v0c-0.040-0.121-0.177-0.161-0.249-0.257-0.167-0.163-0.364-0.295-0.582-0.389l-0.013-0.005-0.121-0.064c-0.166-0.074-0.359-0.128-0.561-0.152l-0.009-0.001c-0.026-0.016-0.058-0.025-0.091-0.025-0.007 0-0.015 0-0.022 0.001l0.001-0h-1.977c-0.056 0-0.080 0.016-0.080 0.080q0 1.35 0 2.709v0l-0.048 0.458c-0.006 0.014-0.012 0.030-0.016 0.046l-0 0.002c-0.1 0.633-0.372 1.189-0.767 1.635l0.003-0.003-0.129 0.129c-0.275 0.237-0.598 0.428-0.951 0.556l-0.021 0.007-0.539 0.121-0.731 0.048h-5.040c-0.046-0.002-0.101-0.004-0.156-0.004-0.346 0-0.679 0.051-0.994 0.146l0.024-0.006c-0.675 0.193-1.246 0.539-1.632 1.149-0.258 0.416-0.41 0.92-0.41 1.46 0 0.012 0 0.024 0 0.036l-0-0.002c-0.008 0.852 0 1.712 0 2.564 0 0.257 0 0.506 0 0.764q0 0.82 0 1.64v0c-0.007 0.052-0.010 0.113-0.010 0.174 0 0.156 0.024 0.306 0.070 0.447l-0.003-0.010c-0 0.002-0 0.005-0 0.008 0 0.041 0.009 0.079 0.025 0.114l-0.001-0.002c0.058 0.193 0.143 0.362 0.252 0.511l-0.003-0.005c0.048 0.101 0.113 0.186 0.192 0.257l0.001 0.001c0.083 0.118 0.185 0.217 0.301 0.295l0.004 0.003c0.154 0.143 0.332 0.264 0.526 0.356l0.013 0.005c0.261 0.156 0.563 0.287 0.881 0.379l0.027 0.007 0.056 0.024c0.289 0.091 0.642 0.172 1.003 0.228l0.042 0.005c0.122 0.028 0.263 0.045 0.408 0.048l0.002 0c0.023 0.012 0.050 0.020 0.079 0.020 0.012 0 0.024-0.001 0.035-0.004l-0.001 0h0.104c0.023 0.012 0.051 0.019 0.080 0.019 0.012 0 0.023-0.001 0.034-0.003l-0.001 0h0.129c0.026 0.012 0.057 0.020 0.090 0.020 0.014 0 0.027-0.001 0.040-0.004l-0.001 0 0.201 0.016c0.37 0.008 0.739 0.048 1.117 0.016 0.033 0 0.072 0.001 0.111 0.001 0.383 0 0.761-0.021 1.133-0.061l-0.046 0.004c0.209-0.010 0.404-0.036 0.595-0.077l-0.024 0.004c0.553-0.066 1.056-0.19 1.532-0.368l-0.045 0.015c0.442-0.161 0.86-0.37 1.206-0.707s0.531-0.643 0.547-1.077 0-0.836 0-1.246v-1.423c-0.032-0.040-0.080-0.016-0.121-0.016h-5.185c-0.056 0.008-0.072-0.016-0.072-0.072q0.008-0.305 0-0.611c0-0.056 0.024-0.072 0.080-0.072h7.484c1.021 0.016 1.841-0.394 2.468-1.19 0.482-0.603 0.723-1.302 0.892-2.050 0.040-0.169 0.040-0.338 0.105-0.498v-3.151c-0.064-0.088-0.048-0.201-0.072-0.297zM18.552 25.698c-0.086-0.138-0.137-0.305-0.137-0.484 0-0.462 0.34-0.846 0.783-0.914l0.005-0.001c0.096-0.006 0.184-0.017 0.27-0.034l-0.013 0.002h0.008c0.008 0.032 0.032 0.032 0.056 0.040 0.192 0.037 0.358 0.125 0.491 0.25l-0.001-0c0.015 0.016 0.034 0.027 0.055 0.032l0.001 0c0.017 0.043 0.038 0.080 0.065 0.113l-0.001-0.001c0.265 0.426 0.193 0.9-0.145 1.206s-0.892 0.33-1.286 0c-0.032-0.024-0.056-0.056-0.096-0.056v0-0.016c-0.007-0.052-0.027-0.099-0.057-0.137l0 0.001zM21.695 16.237v0l-0.016 0.016z"></path>
<path fill="#231f20" style="fill: var(--color2, #231f20)" d="M11.712 16.896c0.289-0.148 0.624-0.26 0.977-0.319l0.020-0.003 0.193-0.024c0.012 0.002 0.026 0.003 0.040 0.003 0.029 0 0.057-0.004 0.083-0.011l-0.002 0h5.587c0.007 0 0.016 0 0.025 0 0.542 0 1.056-0.122 1.516-0.339l-0.022 0.009c0.973-0.458 1.455-1.238 1.511-2.291 0.004-0.009 0.007-0.020 0.008-0.031l0-0.001c0.008-0.056 0.012-0.12 0.012-0.185 0-0.037-0.001-0.073-0.004-0.109l0 0.005q0-2.355 0-4.71c0-0.032 0-0.072 0-0.104v0-0.257c0.002-0.011 0.004-0.023 0.004-0.035 0-0.028-0.007-0.055-0.020-0.078l0 0.001c-0.019-0.228-0.089-0.435-0.197-0.618l0.004 0.007c-0.091-0.223-0.222-0.414-0.385-0.57l-0.001-0.001v-0.016c-0.101-0.13-0.221-0.239-0.356-0.326l-0.006-0.003c-0.302-0.237-0.655-0.428-1.036-0.556l-0.025-0.007c-0.291-0.12-0.631-0.218-0.984-0.277l-0.029-0.004-0.514-0.088-0.064-0.016q-0.506-0.064-1.021-0.088v-0.016h-1.616c-0.137 0.048-0.273 0.024-0.41 0.048-0.481 0.029-0.927 0.089-1.363 0.179l0.060-0.011c-0.619 0.129-1.222 0.305-1.76 0.643s-1.045 0.957-0.989 1.768c0.032 0.394 0.008 0.788 0.008 1.182s0 0.643 0 0.965c0 0.193 0 0.193 0.193 0.177h5.064c0.096 0 0.121 0.032 0.113 0.113s0 0.177 0 0.265c-0.003 0.038-0.004 0.083-0.004 0.129s0.001 0.090 0.004 0.135l-0-0.006c0.016 0.113-0.032 0.137-0.129 0.129-0.029-0.002-0.063-0.003-0.096-0.003s-0.068 0.001-0.101 0.004l0.005-0h-7.186c-0.043-0.011-0.093-0.017-0.145-0.017s-0.101 0.006-0.149 0.018l0.004-0.001c-0.12 0.001-0.236 0.015-0.348 0.042l0.010-0.002c-0.413 0.059-0.783 0.207-1.102 0.424l0.009-0.006c-0.796 0.514-1.246 1.286-1.511 2.17-0.122 0.365-0.213 0.79-0.255 1.23l-0.002 0.024c-0.034 0.197-0.060 0.435-0.072 0.676l-0.001 0.015h-0.032v1.423c0.048 0.064 0 0.153 0.040 0.225v0.145c-0.002 0.012-0.003 0.026-0.003 0.041 0 0.028 0.004 0.056 0.011 0.082l-0-0.002v0.096c-0.002 0.009-0.002 0.020-0.002 0.030 0 0.030 0.007 0.058 0.019 0.084l-0-0.001c-0 0.009-0 0.018-0 0.029 0 0.087 0.009 0.171 0.026 0.253l-0.001-0.008c0.024 0.207 0.058 0.39 0.103 0.568l-0.006-0.030c0.030 0.195 0.075 0.368 0.135 0.534l-0.006-0.020v0.024c0.060 0.254 0.14 0.477 0.242 0.686l-0.008-0.019c0.029 0.107 0.073 0.201 0.131 0.284l-0.002-0.003c0.065 0.157 0.146 0.292 0.244 0.413l-0.003-0.003c0.047 0.089 0.103 0.166 0.169 0.233l-0-0c0.088 0.132 0.189 0.245 0.303 0.344l0.002 0.002 0.024 0.024c0.161 0.164 0.346 0.303 0.55 0.412l0.012 0.006c0.317 0.192 0.699 0.307 1.108 0.313l0.002 0h1.776c0.113 0 0.129-0.032 0.129-0.137 0.016-1.045-0.056-2.098 0.048-3.143v0c0.032-0.145 0.064-0.297 0.104-0.442 0.093-0.346 0.24-0.649 0.432-0.917l-0.006 0.008c0.24-0.321 0.547-0.58 0.902-0.757l0.015-0.007zM21.639 12.162v0zM21.623 10.892h0.016v0.024zM12.347 8.32c0.088-0.422 0.452-0.737 0.891-0.748l0.001-0c0.040 0 0.080 0.008 0.113-0.032v0 0.016c0.030 0.017 0.066 0.029 0.103 0.032l0.001 0c0.381 0.079 0.673 0.384 0.731 0.767l0.001 0.005c0.005 0.042 0.019 0.081 0.041 0.114l-0.001-0.001h0.008c-0.029 0.056-0.047 0.122-0.048 0.192v0.001c-0.018 0.127-0.060 0.241-0.123 0.341l0.002-0.004c-0.131 0.198-0.322 0.348-0.547 0.424l-0.007 0.002-0.016 0.016c-0.032-0.024-0.072-0.008-0.104-0.008-0.035 0.004-0.076 0.007-0.117 0.007-0.185 0-0.358-0.050-0.506-0.138l0.005 0.003c-0.024-0.021-0.055-0.033-0.089-0.033-0.005 0-0.011 0-0.016 0.001l0.001-0v-0.016c-0.006-0.026-0.021-0.048-0.040-0.064l-0-0c-0.188-0.175-0.305-0.423-0.305-0.699v-0c0-0.004 0.001-0.008 0.001-0.013 0-0.025-0.006-0.048-0.017-0.068l0 0.001h0.008c0.021-0.030 0.035-0.065 0.040-0.103l0-0.001z"></path>
<path fill="#000" style="fill: var(--color1, #000)" d="M24.79 0h-17.571c-3.985 0.005-7.214 3.234-7.218 7.218v17.572c0.009 3.981 3.236 7.206 7.218 7.21h17.572c3.98-0.005 7.206-3.23 7.21-7.21v-17.572c-0.005-3.982-3.229-7.209-7.209-7.218h-0.001zM30.818 24.79c-0.005 3.328-2.701 6.024-6.028 6.029h-17.572c-3.328-0.005-6.024-2.701-6.029-6.028v-17.572c0.005-3.328 2.701-6.024 6.028-6.029h17.572c3.328 0.005 6.024 2.701 6.029 6.028v0z"></path>
</symbol>
<symbol id="icon-skill_react" viewBox="0 0 32 32">
<title>skill_react</title>
<path fill="#000" style="fill: var(--color1, #000)" d="M24.79 0h-17.571c-3.985 0.005-7.214 3.234-7.218 7.218v17.572c0.009 3.981 3.236 7.206 7.218 7.21h17.572c3.98-0.005 7.206-3.23 7.21-7.21v-17.572c-0.005-3.982-3.229-7.209-7.209-7.218h-0.001zM30.818 24.79c-0.005 3.328-2.701 6.024-6.028 6.029h-17.572c-3.328-0.005-6.024-2.701-6.029-6.028v-17.572c0.005-3.328 2.701-6.024 6.028-6.029h17.572c3.328 0.005 6.024 2.701 6.029 6.028v0z"></path>
<path fill="#231f20" style="fill: var(--color2, #231f20)" d="M17.893 16.486c0 1.097-0.889 1.985-1.985 1.985s-1.985-0.889-1.985-1.985c0-1.097 0.889-1.985 1.985-1.985s1.985 0.889 1.985 1.985z"></path>
<path fill="#231f20" style="fill: var(--color2, #231f20)" d="M25.883 14.509c-0.691-0.571-1.656-1.085-2.813-1.479l-0.715-0.225q0.064-0.249 0.113-0.49c0.555-2.677 0.161-4.767-1.021-5.45-0.579-0.33-1.366-0.33-2.283 0s-1.768 0.892-2.693 1.696q-0.281 0.241-0.555 0.506l-0.37-0.346c-2.042-1.817-4.051-2.516-5.233-1.833-0.579 0.338-0.973 1.021-1.141 1.985s-0.104 1.977 0.129 3.175q0.072 0.362 0.161 0.739-0.426 0.121-0.828 0.257c-2.42 0.836-3.858 2.13-3.858 3.44 0 0.683 0.402 1.391 1.166 2.042s1.72 1.149 2.91 1.559l0.603 0.193q-0.096 0.402-0.177 0.796c-0.482 2.516-0.080 4.405 1.053 5.064 0.294 0.167 0.645 0.266 1.020 0.266 0.015 0 0.029-0 0.043-0l-0.002 0c0.465-0.010 0.905-0.101 1.312-0.258l-0.026 0.009c0.884-0.314 1.857-0.916 2.797-1.736l0.466-0.426q0.297 0.289 0.603 0.547c1.423 1.23 2.789 1.881 3.866 1.881 0.012 0 0.026 0 0.040 0 0.37 0 0.716-0.099 1.015-0.271l-0.010 0.005c0.595-0.346 1.005-1.045 1.19-2.034s0.129-2.066-0.113-3.296q-0.056-0.289-0.137-0.595l0.418-0.129c2.596-0.86 4.212-2.243 4.212-3.609 0-0.675-0.394-1.358-1.141-1.985zM19.485 7.757c0.635-0.233 1.157-0.257 1.487-0.072 0.635 0.37 1.085 1.913 0.563 4.437q-0.048 0.217-0.096 0.442c-0.838-0.202-1.855-0.37-2.892-0.467l-0.090-0.007c-0.611-0.873-1.226-1.636-1.888-2.355l0.015 0.016 0.514-0.466c0.828-0.731 1.656-1.254 2.387-1.527zM19.010 18.295q-0.522 0.916-1.061 1.72c-0.659 0.048-1.342 0.072-2.042 0.072s-1.367-0.024-2.010-0.064c-0.378-0.555-0.748-1.133-1.085-1.72s-0.659-1.198-0.948-1.793c0.289-0.603 0.603-1.206 0.94-1.793v0c0.346-0.595 0.707-1.174 1.085-1.72 0.667-0.048 1.342-0.080 2.026-0.080s1.367 0.024 2.026 0.080c0.37 0.547 0.731 1.117 1.077 1.712s0.675 1.206 0.965 1.784c-0.305 0.603-0.627 1.206-0.973 1.809zM20.481 17.588c0.234 0.506 0.488 1.155 0.707 1.82l0.040 0.141c-0.556 0.134-1.261 0.258-1.978 0.344l-0.096 0.009q0.346-0.547 0.683-1.133t0.643-1.174zM15.948 22.611c-0.45-0.49-0.9-1.029-1.342-1.6q0.635 0.024 1.302 0.024t1.35-0.032c-0.441 0.603-0.871 1.13-1.326 1.633l0.015-0.017zM12.684 19.911c-0.8-0.087-1.498-0.203-2.182-0.354l0.133 0.025c0.193-0.635 0.442-1.294 0.723-1.961q0.297 0.579 0.627 1.149t0.691 1.149zM11.985 14.228q-0.33 0.571-0.627 1.158c-0.273-0.659-0.514-1.302-0.707-1.929 0.635-0.145 1.318-0.257 2.018-0.346q-0.354 0.555-0.683 1.133zM15.924 10.409c0.437 0.476 0.863 0.989 1.264 1.523l0.038 0.052q-0.651-0.032-1.318-0.032t-1.302 0.032c0.426-0.547 0.868-1.077 1.31-1.559zM19.83 14.22q-0.33-0.571-0.675-1.109c0.707 0.088 1.391 0.209 2.034 0.354-0.251 0.795-0.494 1.431-0.767 2.052l0.051-0.131q-0.305-0.563-0.643-1.149zM10.233 11.864c-0.217-1.077-0.257-2.066-0.121-2.829s0.354-1.133 0.683-1.326c0.635-0.37 2.194 0.016 4.124 1.728l0.338 0.305c-0.652 0.705-1.272 1.468-1.842 2.269l-0.047 0.070c-1.126 0.103-2.14 0.268-3.13 0.496l0.155-0.030q-0.088-0.346-0.161-0.683zM9.155 19.187c-2.355-0.804-3.424-1.961-3.424-2.701s0.997-1.768 3.223-2.548c0.241-0.088 0.498-0.161 0.764-0.241 0.35 1.12 0.719 2.052 1.144 2.951l-0.059-0.138c-0.37 0.77-0.741 1.713-1.049 2.683l-0.044 0.162zM11.39 25.441c-0.011 0-0.023 0.001-0.036 0.001-0.202 0-0.391-0.051-0.557-0.14l0.006 0.003c-0.611-0.354-1.037-1.744-0.595-4.059q0.064-0.362 0.161-0.739c0.852 0.194 1.877 0.348 2.922 0.429l0.076 0.005c0.624 0.88 1.252 1.651 1.926 2.378l-0.013-0.014-0.426 0.386c-1.431 1.254-2.669 1.752-3.456 1.752zM21.607 21.004c0.482 2.436 0.016 3.947-0.619 4.317s-2.034 0.024-3.818-1.511q-0.281-0.241-0.563-0.514c0.644-0.71 1.256-1.484 1.816-2.297l0.049-0.075c1.134-0.098 2.162-0.263 3.165-0.496l-0.15 0.029q0.072 0.281 0.121 0.547zM22.515 19.187l-0.378 0.121c-0.361-1.119-0.742-2.052-1.183-2.952l0.058 0.13c0.368-0.751 0.739-1.669 1.048-2.614l0.045-0.159 0.659 0.209c1.045 0.362 1.913 0.812 2.508 1.318s0.804 0.876 0.804 1.254c0.008 0.723-1.109 1.889-3.553 2.701z"></path>
</symbol>
<symbol id="icon-skill_ruby" viewBox="0 0 32 32">
<title>skill_ruby</title>
<path fill="#000" style="fill: var(--color1, #000)" d="M24.79 0h-17.571c-3.985 0.005-7.214 3.234-7.218 7.218v17.572c0.009 3.981 3.236 7.206 7.218 7.21h17.572c3.98-0.005 7.206-3.23 7.21-7.21v-17.572c-0.005-3.982-3.229-7.209-7.209-7.218h-0.001zM30.818 24.79c-0.005 3.328-2.701 6.024-6.028 6.029h-17.572c-3.328-0.005-6.024-2.701-6.029-6.028v-17.572c0.005-3.328 2.701-6.024 6.028-6.029h17.572c3.328 0.005 6.024 2.701 6.029 6.028v0z"></path>
<path fill="#231f20" style="fill: var(--color2, #231f20)" d="M10.795 25.015l12.628-0.86 0.973-12.732-3.85 7.797-9.75 5.796z"></path>
<path fill="#231f20" style="fill: var(--color2, #231f20)" d="M19.404 20.562l4.043 3.585-1.085-7.492-2.958 3.907z"></path>
<path fill="#231f20" style="fill: var(--color2, #231f20)" d="M10.835 24.999l12.62-0.852-7.95-0.619-4.67 1.471z"></path>
<path fill="#231f20" style="fill: var(--color2, #231f20)" d="M8.464 19.428l2.387 5.57 1.985-6.511-4.373 0.94z"></path>
<path fill="#231f20" style="fill: var(--color2, #231f20)" d="M12.339 18.327l7.066 2.259-1.833-7.162-5.233 4.903z"></path>
<path fill="#231f20" style="fill: var(--color2, #231f20)" d="M17.66 13.938l6.318-0.418-4.943-4.035-1.375 4.453z"></path>
<path fill="#231f20" style="fill: var(--color2, #231f20)" d="M16.928 8.022l4.743 0.024-2.91 1.608-1.833-1.632z"></path>
<path fill="#231f20" style="fill: var(--color2, #231f20)" d="M7.548 16.744l-0.233 4.863 1.214-2.219-0.981-2.645z"></path>
<path fill="#231f20" style="fill: var(--color2, #231f20)" d="M7.484 16.655l0.989 2.813 4.308-0.965 4.919-4.574 1.391-4.413-2.186-1.535-3.722 1.391c-1.174 1.085-3.44 3.247-3.529 3.288s-1.495 2.717-2.17 3.995z"></path>
<path fill="#231f20" style="fill: var(--color2, #231f20)" d="M10.964 11.607c2.54-2.516 5.812-4.003 7.066-2.733s-0.072 4.349-2.612 6.857-5.771 4.083-7.025 2.813 0.032-4.429 2.572-6.937z"></path>
<path fill="#231f20" style="fill: var(--color2, #231f20)" d="M10.852 24.999l1.969-6.527 6.543 2.106c-2.363 2.21-5 4.091-8.512 4.421z"></path>
<path fill="#231f20" style="fill: var(--color2, #231f20)" d="M17.708 13.922l1.68 6.656c1.977-2.082 3.754-4.317 4.622-7.082z"></path>
<path fill="#231f20" style="fill: var(--color2, #231f20)" d="M23.994 13.528c0.675-2.034 0.828-4.943-2.347-5.482l-2.604 1.439z"></path>
<path fill="#231f20" style="fill: var(--color2, #231f20)" d="M7.315 21.583c0.096 3.352 2.508 3.4 3.537 3.432l-2.379-5.562z"></path>
<path fill="#231f20" style="fill: var(--color2, #231f20)" d="M17.716 13.93l4.646 2.846c0.096 0.056 1.318-2.066 1.6-3.264z"></path>
<path fill="#231f20" style="fill: var(--color2, #231f20)" d="M12.813 18.472l2.637 5.080c1.559-0.844 2.781-1.873 3.899-2.974z"></path>
<path fill="#231f20" style="fill: var(--color2, #231f20)" d="M8.464 19.46l-0.37 4.445c0.707 0.965 1.672 1.045 2.693 0.973-0.739-1.833-2.21-5.49-2.323-5.418z"></path>
<path fill="#231f20" style="fill: var(--color2, #231f20)" d="M19.034 9.493l5.233 0.731c-0.281-1.182-1.133-1.945-2.596-2.186z"></path>
</symbol>
<symbol id="icon-skill_unity" viewBox="0 0 32 32">
<title>skill_unity</title>
<path fill="#231f20" style="fill: var(--color2, #231f20)" d="M18.319 16.591l3.794-6.551 1.833 6.551-1.833 6.543-3.794-6.543zM16.47 17.652l3.794 6.551-6.607-1.696-4.775-4.855zM20.264 8.979l-3.794 6.551h-7.58l4.775-4.855zM25.682 14.364l-2.315-8.609-8.641 2.307-1.278 2.251-2.596-0.016-6.318 6.294 6.318 6.302 2.596-0.016 1.278 2.251 8.633 2.307 2.315-8.609-1.31-2.227 1.31-2.227z"></path>
<path fill="#000" style="fill: var(--color1, #000)" d="M24.79 0h-17.571c-3.985 0.005-7.214 3.234-7.218 7.218v17.572c0.009 3.981 3.236 7.206 7.218 7.21h17.572c3.98-0.005 7.206-3.23 7.21-7.21v-17.572c-0.005-3.982-3.229-7.209-7.209-7.218h-0.001zM30.818 24.79c-0.005 3.328-2.701 6.024-6.028 6.029h-17.572c-3.328-0.005-6.024-2.701-6.029-6.028v-17.572c0.005-3.328 2.701-6.024 6.028-6.029h17.572c3.328 0.005 6.024 2.701 6.029 6.028v0z"></path>
</symbol>
<symbol id="icon-skill_redux" viewBox="0 0 32 32">
<title>skill_redux</title>
<path fill="#000" style="fill: var(--color1, #000)" d="M24.786 0h-17.57c-3.984 0.005-7.212 3.233-7.217 7.216v17.57c0.005 3.983 3.233 7.21 7.217 7.214h17.57c3.983-0.004 7.21-3.231 7.214-7.213v-17.57c-0.003-3.983-3.231-7.212-7.213-7.217h-0zM30.815 24.786c-0.005 3.328-2.701 6.024-6.028 6.029h-17.57c-3.328-0.005-6.024-2.701-6.029-6.028v-17.57c0.005-3.328 2.701-6.024 6.028-6.029h17.57c3.328 0.005 6.024 2.701 6.029 6.028v0z"></path>
<path fill="#231f20" style="fill: var(--color2, #231f20)" d="M20.467 24.646c-0 0.001-0.001 0.002-0.001 0.004 0 0.004 0.003 0.008 0.007 0.009l0 0h-0.567c0.004-0.001 0.007-0.005 0.007-0.009 0-0.001-0-0.003-0.001-0.004l0 0z"></path>
<path fill="#231f20" style="fill: var(--color2, #231f20)" d="M15.626 7.354c0-0.001 0-0.002 0-0.003 0-0.005-0.003-0.009-0.008-0.010l-0-0h0.458c-0.005 0.001-0.008 0.005-0.008 0.010 0 0.001 0 0.002 0 0.003l-0-0z"></path>
<path fill="#231f20" style="fill: var(--color2, #231f20)" d="M15.626 7.354h0.441c0.129 0.003 0.253 0.016 0.374 0.038l-0.015-0.002c0.484 0.076 0.919 0.225 1.315 0.437l-0.022-0.011c0.392 0.207 0.729 0.45 1.028 0.733l-0.002-0.002c0.527 0.502 0.955 1.103 1.256 1.774l0.014 0.036c0.235 0.512 0.421 1.107 0.53 1.729l0.006 0.045c0.047 0.27 0.080 0.543 0.106 0.816 0 0.029 0 0.059 0.004 0.088-0.001 0.006-0.002 0.011-0.004 0.016l0-0c-0.001 0-0.003 0-0.005 0-0.014 0-0.027-0.004-0.039-0.010l0 0c-0.355-0.125-0.715-0.235-1.080-0.328-0.027-0.006-0.042-0.014-0.043-0.046-0.025-0.305-0.077-0.586-0.154-0.857l0.008 0.031c-0.174-0.668-0.434-1.255-0.772-1.786l0.015 0.025c-0.198-0.315-0.423-0.587-0.677-0.827l-0.002-0.002c-0.293-0.281-0.646-0.503-1.037-0.643l-0.020-0.006c-0.169-0.059-0.365-0.104-0.569-0.125l-0.012-0.001c-0.086-0.008-0.185-0.013-0.286-0.013-0.24 0-0.475 0.026-0.7 0.076l0.021-0.004c-0.474 0.094-0.896 0.247-1.284 0.456l0.024-0.012c-0.34 0.177-0.631 0.4-0.876 0.666l-0.002 0.002c-0.17 0.193-0.329 0.406-0.47 0.631l-0.012 0.020c-0.397 0.614-0.694 1.332-0.847 2.103l-0.007 0.039c-0.045 0.21-0.084 0.471-0.109 0.736l-0.002 0.028c-0.025 0.254-0.040 0.549-0.040 0.847 0 0.023 0 0.045 0 0.068l-0-0.003c0 0.297 0.019 0.593 0.050 0.884 0.075 0.703 0.223 1.345 0.44 1.955l-0.018-0.059c0.212 0.602 0.456 1.118 0.746 1.604l-0.022-0.041c0.044 0.080 0.025 0.064 0.11 0.055 0.042-0.005 0.090-0.008 0.14-0.008 0.666 0 1.216 0.503 1.289 1.149l0.001 0.006c0.005 0.042 0.007 0.090 0.007 0.139 0 0.717-0.582 1.299-1.299 1.299-0.616 0-1.132-0.429-1.265-1.004l-0.002-0.009c-0.021-0.086-0.033-0.186-0.033-0.288 0-0.221 0.056-0.428 0.155-0.609l-0.003 0.007c0.011-0.015 0.017-0.034 0.017-0.055s-0.006-0.040-0.017-0.055l0 0c-0.402-0.676-0.75-1.457-1.004-2.279l-0.021-0.078c-0.12-0.38-0.226-0.843-0.298-1.317l-0.007-0.054c-0.034-0.226-0.056-0.453-0.073-0.68-0.014-0.187-0.023-0.405-0.023-0.625 0-0.125 0.003-0.249 0.008-0.373l-0.001 0.018c0.015-0.447 0.063-0.871 0.14-1.284l-0.008 0.052c0.125-0.666 0.304-1.255 0.539-1.815l-0.022 0.058c0.264-0.633 0.609-1.177 1.030-1.652l-0.005 0.006c0.448-0.511 0.988-0.93 1.594-1.235l0.030-0.014c0.4-0.203 0.865-0.353 1.355-0.425l0.025-0.003c0.114-0.019 0.248-0.032 0.383-0.035l0.004-0z"></path>
<path fill="#231f20" style="fill: var(--color2, #231f20)" d="M20.467 24.646h-0.555c-0.128-0-0.253-0.009-0.376-0.026l0.015 0.002c-0.295-0.031-0.556-0.076-0.812-0.136l0.044 0.009c-0.525-0.122-0.98-0.278-1.415-0.473l0.048 0.019c-0.064-0.027-0.125-0.056-0.188-0.080-0.010-0.004-0.018-0.011-0.023-0.020l-0-0 0.207-0.161c0.274-0.211 0.547-0.421 0.804-0.654 0.010-0.010 0.024-0.016 0.039-0.016 0.012 0 0.022 0.004 0.031 0.010l-0-0c0.138 0.064 0.312 0.131 0.49 0.188l0.035 0.010c0.288 0.095 0.632 0.176 0.986 0.226l0.033 0.004c0.202 0.030 0.435 0.047 0.672 0.047 0.090 0 0.179-0.002 0.267-0.007l-0.012 0.001c0.681-0.023 1.307-0.239 1.832-0.593l-0.012 0.008c0.41-0.287 0.747-0.65 0.997-1.070l0.009-0.016c0.285-0.447 0.453-0.992 0.453-1.576 0-0.1-0.005-0.2-0.015-0.298l0.001 0.012c-0.050-0.499-0.182-0.956-0.384-1.374l0.011 0.024c-0.295-0.643-0.67-1.195-1.122-1.674l0.003 0.003c-0.413-0.434-0.876-0.814-1.382-1.133l-0.030-0.018c-0.624-0.405-1.344-0.747-2.107-0.988l-0.063-0.017c-0.339-0.109-0.752-0.206-1.175-0.273l-0.049-0.006q-0.35-0.052-0.702-0.080c-0.171-0.013-0.37-0.021-0.572-0.021-0.088 0-0.177 0.001-0.264 0.004l0.013-0c-0.069 0-0.137 0.008-0.206 0.008-0.002-0-0.005-0-0.008-0-0.030 0-0.055 0.019-0.063 0.046l-0 0c-0.066 0.143-0.152 0.264-0.257 0.367l-0 0c-0.195 0.197-0.454 0.331-0.743 0.368l-0.006 0.001c-0.052 0.007-0.113 0.012-0.174 0.012-0.717 0-1.299-0.582-1.299-1.299s0.582-1.299 1.299-1.299c0.474 0 0.889 0.254 1.116 0.633l0.003 0.006c0.014 0.032 0.046 0.054 0.083 0.054 0.004 0 0.009-0 0.013-0.001l-0.001 0c0.252-0.010 0.505-0.008 0.756 0 0.241 0.009 0.477 0.027 0.716 0.051 0.44 0.046 0.827 0.109 1.206 0.192l-0.070-0.013c0.702 0.151 1.316 0.355 1.9 0.615l-0.061-0.024c1.264 0.557 2.329 1.354 3.18 2.341l0.010 0.011c0.268 0.306 0.516 0.645 0.731 1.005l0.017 0.032c0.302 0.508 0.535 1.099 0.664 1.727l0.006 0.037c0.038 0.175 0.068 0.386 0.084 0.601l0.001 0.015c0.010 0.141 0.018 0.281 0.016 0.423-0.002 0.478-0.082 0.936-0.227 1.364l0.009-0.030c-0.149 0.424-0.363 0.789-0.633 1.105l0.004-0.005c-0.404 0.479-0.891 0.873-1.44 1.165l-0.026 0.013c-0.441 0.239-0.953 0.425-1.494 0.529l-0.034 0.005c-0.185 0.037-0.408 0.066-0.635 0.080l-0.015 0.001c-0.041 0.005-0.088 0.008-0.136 0.008-0.007 0-0.014-0-0.020-0h0.001z"></path>
<path fill="#231f20" style="fill: var(--color2, #231f20)" d="M9.588 15.466c0.021 0.089 0.040 0.177 0.061 0.264 0.069 0.294 0.144 0.587 0.237 0.875 0.003 0.007 0.005 0.014 0.005 0.022 0 0.020-0.011 0.037-0.028 0.046l-0 0c-0.52 0.41-0.96 0.893-1.31 1.439l-0.014 0.023c-0.244 0.373-0.435 0.806-0.547 1.271l-0.006 0.028c-0.053 0.219-0.084 0.471-0.084 0.73 0 0.052 0.001 0.103 0.004 0.155l-0-0.007c0.054 0.847 0.398 1.605 0.932 2.185l-0.002-0.002c0.322 0.333 0.718 0.593 1.162 0.754l0.021 0.007c0.249 0.093 0.539 0.164 0.84 0.201l0.019 0.002c0.186 0.023 0.372 0.037 0.563 0.046 0.065 0.003 0.14 0.005 0.217 0.005 0.117 0 0.234-0.004 0.35-0.012l-0.016 0.001c0.485-0.029 0.939-0.109 1.373-0.237l-0.043 0.011c0.546-0.16 1.018-0.358 1.462-0.601l-0.038 0.019c0.544-0.289 1.007-0.582 1.445-0.906l-0.031 0.022c0.744-0.548 1.37-1.204 1.869-1.952l0.018-0.028c0.139-0.215 0.268-0.436 0.386-0.664 0.033-0.064 0.034-0.064-0.013-0.117-0.155-0.167-0.264-0.378-0.307-0.613l-0.001-0.008c-0.016-0.076-0.026-0.164-0.026-0.255 0-0.394 0.18-0.746 0.463-0.978l0.002-0.002c0.217-0.192 0.504-0.31 0.819-0.31 0.050 0 0.099 0.003 0.148 0.009l-0.006-0.001c0.661 0.067 1.172 0.621 1.172 1.294 0 0.622-0.437 1.143-1.021 1.27l-0.009 0.002c-0.019 0.006-0.041 0.010-0.065 0.011l-0.001 0c-0.045 0-0.064 0.026-0.080 0.061-0.369 0.742-0.796 1.382-1.292 1.961l0.011-0.013c-0.655 0.763-1.423 1.405-2.283 1.907l-0.042 0.023c-0.745 0.432-1.608 0.78-2.521 0.997l-0.065 0.013c-0.212 0.056-0.484 0.111-0.761 0.151l-0.043 0.005q-0.259 0.035-0.521 0.051c-0.182 0.010-0.363 0.014-0.545 0.006-0.86-0.022-1.664-0.238-2.378-0.606l0.031 0.014c-0.385-0.197-0.715-0.434-1.006-0.712l0.002 0.002c-0.38-0.369-0.679-0.818-0.871-1.32l-0.008-0.025c-0.124-0.31-0.22-0.673-0.274-1.049l-0.003-0.026c-0.031-0.206-0.048-0.444-0.048-0.687 0-0.070 0.001-0.139 0.004-0.207l-0 0.010c0.028-0.688 0.186-1.332 0.45-1.919l-0.013 0.033c0.273-0.607 0.62-1.129 1.036-1.586l-0.004 0.005c0.352-0.388 0.736-0.735 1.152-1.041l0.021-0.015c0.014-0.015 0.033-0.027 0.054-0.032l0.001-0z"></path>
</symbol>
<symbol id="icon-skill_gatsby" viewBox="0 0 32 32">
<title>skill_gatsby</title>
<path fill="#231f20" style="fill: var(--color2, #231f20)" d="M15.996 6.252c-5.358 0-9.744 4.387-9.744 9.744s4.387 9.751 9.744 9.751 9.751-4.387 9.751-9.751-4.387-9.744-9.751-9.744zM10.569 21.431c-1.462-1.462-2.228-3.412-2.228-5.291l7.589 7.518c-1.949-0.070-3.899-0.765-5.361-2.227zM17.671 23.45l-9.12-9.121c0.765-3.412 3.829-5.988 7.449-5.988 0.002 0 0.004 0 0.007 0 2.531 0 4.776 1.225 6.175 3.114l0.015 0.021-1.045 0.904c-1.182-1.603-3.065-2.646-5.155-2.646-2.715 0-5.013 1.74-5.918 4.18l8.008 8.004c2.019-0.696 3.551-2.436 4.038-4.526h-3.339v-1.396h4.874c0 3.621-2.576 6.685-5.988 7.45z"></path>
<path fill="#000" style="fill: var(--color1, #000)" d="M24.786 0h-17.57c-3.984 0.005-7.212 3.233-7.217 7.216v17.57c0.005 3.983 3.233 7.21 7.217 7.214h17.57c3.983-0.004 7.21-3.231 7.214-7.213v-17.57c-0.003-3.983-3.231-7.212-7.213-7.217h-0zM30.815 24.786c-0.005 3.328-2.701 6.024-6.028 6.029h-17.57c-3.328-0.005-6.024-2.701-6.029-6.028v-17.57c0.005-3.328 2.701-6.024 6.028-6.029h17.57c3.328 0.005 6.024 2.701 6.029 6.028v0z"></path>
</symbol>
<symbol id="icon-skill_premier" viewBox="0 0 32 32">
<path fill="#000" style="fill: var(--color1, #000)" d="M24.786 0h-17.57c-3.984 0.005-7.212 3.233-7.217 7.216v17.57c0.005 3.983 3.233 7.21 7.217 7.214h17.57c3.983-0.004 7.21-3.231 7.214-7.213v-17.57c-0.003-3.983-3.231-7.212-7.213-7.217h-0zM30.815 24.786c-0.005 3.328-2.701 6.024-6.028 6.029h-17.57c-3.328-0.005-6.024-2.701-6.029-6.028v-17.57c0.005-3.328 2.701-6.024 6.028-6.029h17.57c3.328 0.005 6.024 2.701 6.029 6.028v0z"></path>
<path fill="#231f20" style="fill: var(--color2, #231f20)" d="M10.416 17.27v7.133h-1.903v-16.788h4.709c1.308 0.024 2.449 0.096 3.519 0.999 0.69 0.571 1.498 1.593 1.498 3.638 0 0.643-0.023 2.758-1.641 4.066-0.388 0.297-0.837 0.54-1.322 0.704l-0.033 0.010c-0.666 0.214-1.236 0.214-1.903 0.241zM10.416 15.629h2.354c1.332-0.048 1.855-0.167 2.354-0.523 0.547-0.402 1.166-1.237 1.166-2.759 0-0.38 0-1.522-0.856-2.331-0.281-0.251-0.613-0.453-0.978-0.587l-0.021-0.007c-0.475-0.143-0.951-0.166-1.447-0.166h-2.571z"></path>
<path fill="#231f20" style="fill: var(--color2, #231f20)" d="M24.147 16.91c-0.156-0.031-0.343-0.054-0.533-0.065l-0.012-0.001c-0.658 0.009-1.236 0.344-1.58 0.851l-0.004 0.007c-0.281 0.413-0.379 0.776-0.396 1.684v5.017h-1.204v-8.648h1.156l-0.017 1.584c0.104-0.277 0.215-0.511 0.343-0.734l-0.013 0.024c0.198-0.297 0.776-1.007 1.815-1.007 0.161 0.003 0.315 0.015 0.467 0.035l-0.021-0.002z"></path>
</symbol>
<symbol id="icon-skill_d3" viewBox="0 0 32 32">
<path d="M24.786 0h-17.57c-3.984 0.005-7.212 3.233-7.217 7.216v17.57c0.005 3.983 3.233 7.21 7.217 7.214h17.57c3.983-0.004 7.21-3.231 7.214-7.213v-17.57c-0.003-3.983-3.231-7.212-7.213-7.217h-0zM30.815 24.786c-0.005 3.328-2.701 6.024-6.028 6.029h-17.57c-3.328-0.005-6.024-2.701-6.029-6.028v-17.57c0.005-3.328 2.701-6.024 6.028-6.029h17.57c3.328 0.005 6.024 2.701 6.029 6.028v0z"></path>
<path d="M6.81 7.289h1.484c0.025-0 0.054-0 0.084-0 4.811 0 8.711 3.9 8.711 8.711s-3.9 8.711-8.711 8.711c-0.029 0-0.059-0-0.088-0l0.005 0h-1.484v-3.829h1.484c2.669-0.035 4.82-2.208 4.82-4.882s-2.15-4.847-4.817-4.882l-0.003-0h-1.484zM13.75 7.289h6.126c2.933 0.001 5.31 2.379 5.31 5.313 0 1.295-0.463 2.481-1.233 3.403l0.007-0.008c0.764 0.914 1.228 2.102 1.228 3.398 0 2.934-2.378 5.313-5.313 5.313h-6.126c1.509-0.956 2.724-2.247 3.562-3.775l0.027-0.053h2.537c0.82 0 1.484-0.664 1.484-1.484s-0.664-1.484-1.484-1.484v0h-1.484c0.115-0.576 0.18-1.237 0.18-1.914s-0.066-1.339-0.191-1.979l0.011 0.065h1.484c0.82 0 1.484-0.664 1.484-1.484s-0.664-1.484-1.484-1.484v0h-2.537c-0.866-1.58-2.081-2.871-3.547-3.801l-0.042-0.025z"></path>
</symbol>
</defs>
</svg>
