<svg xmlns="http://www.w3.org/2000/svg" width="398.1" height="398.1" viewBox="0 0 398.1 398.1"><defs><style>.cls-1{fill:#231f20;}</style></defs><title>skill_angular</title><g id="Layer_2" data-name="Layer 2"><g id="Layer_1-2" data-name="Layer 1"><path d="M308.4,0H89.8A89.9,89.9,0,0,0,0,89.8V308.4a89.9,89.9,0,0,0,89.8,89.7H308.4a89.8,89.8,0,0,0,89.7-89.7V89.8A89.9,89.9,0,0,0,308.4,0Zm75,308.4a75.1,75.1,0,0,1-75,75H89.8a75.1,75.1,0,0,1-75-75V89.8a75.1,75.1,0,0,1,75-75H308.4a75.1,75.1,0,0,1,75,75Zm0,0"/><path d="M199.9,64.5h.9l1.3.7,133.6,47.8c1.2.4,1.7.9,1.5,2.2-.6,4.9-1.1,9.8-1.7,14.7L332,161.6,328.5,193l-3.8,34.2-3.8,34.2c-1.3,11.5-2.6,22.9-3.8,34.4a2.8,2.8,0,0,1-1.6,2.5L212,356.8l-11.4,6.6h-.6l-1.5-1L84.8,298.2a2.5,2.5,0,0,1-1.4-2.2c-1.1-10.4-2.3-20.8-3.4-31.2l-3.6-32-3.5-31.5-3.5-31.5-3.2-28.9c-1-8.6-1.9-17.2-2.9-25.7a1.6,1.6,0,0,1,1.3-2.1L184.2,70.2Zm.3,26.3L112.8,282.8h31.4a1.7,1.7,0,0,0,1.8-1.3L161.7,240a2.1,2.1,0,0,1,2.3-1.6c24.1-.5,48.2-.5,72.3,0a2.2,2.2,0,0,1,2.4,1.7l15.8,41.6a1.7,1.7,0,0,0,1.9,1.3h31.3Z"/><path d="M226.4,212.7H174.1l26.1-61.2Z"/><path class="cls-1" d="M331.6,292.4h41.8l-2.8,15.7H342.3l-3.9,9.8c4.6-3,9.2-3.5,14.1-3.5,12.5,0,20.9,7.6,18.6,20.6-3.2,18-18.6,24-33.4,24s-22.4-6.4-24-18.4l19.7-1.9c0,.2.1.5.1.6.5,3.4,3.9,5.3,7.4,5.3a10.7,10.7,0,0,0,10.9-8.6c.9-5.4-.9-9.4-6.8-9.4-2.9,0-6.4.7-8.4,3.6l-18-.6Z"/></g></g></svg>