<svg xmlns="http://www.w3.org/2000/svg" width="398.1" height="398.1" viewBox="0 0 398.1 398.1"><defs><style>.cls-1{fill:#231f20;}</style></defs><title>skill_react</title><g id="Layer_2" data-name="Layer 2"><g id="Layer_1-2" data-name="Layer 1"><path d="M308.4,0H89.8A89.9,89.9,0,0,0,0,89.8V308.4a89.9,89.9,0,0,0,89.8,89.7H308.4a89.8,89.8,0,0,0,89.7-89.7V89.8A89.9,89.9,0,0,0,308.4,0Zm75,308.4a75.1,75.1,0,0,1-75,75H89.8a75.1,75.1,0,0,1-75-75V89.8a75.1,75.1,0,0,1,75-75H308.4a75.1,75.1,0,0,1,75,75Zm0,0"/><circle class="cls-1" cx="197.9" cy="205.1" r="24.7"/><path class="cls-1" d="M322,180.5c-8.6-7.1-20.6-13.5-35-18.4l-8.9-2.8q.8-3.1,1.4-6.1c6.9-33.3,2-59.3-12.7-67.8-7.2-4.1-17-4.1-28.4,0s-22,11.1-33.5,21.1q-3.5,3-6.9,6.3l-4.6-4.3C168,85.9,143,77.2,128.3,85.7c-7.2,4.2-12.1,12.7-14.2,24.7s-1.3,24.6,1.6,39.5q.9,4.5,2,9.2-5.3,1.5-10.3,3.2c-30.1,10.4-48,26.5-48,42.8,0,8.5,5,17.3,14.5,25.4s21.4,14.3,36.2,19.4l7.5,2.4q-1.2,5-2.2,9.9c-6,31.3-1,54.8,13.1,63a26,26,0,0,0,13.2,3.3,48,48,0,0,0,16-3.1c11-3.9,23.1-11.4,34.8-21.6l5.8-5.3q3.7,3.6,7.5,6.8c17.7,15.3,34.7,23.4,48.1,23.4a25.3,25.3,0,0,0,13-3.3c7.4-4.3,12.5-13,14.8-25.3s1.6-25.7-1.4-41q-.7-3.6-1.7-7.4l5.2-1.6c32.3-10.7,52.4-27.9,52.4-44.9C336.2,196.8,331.3,188.3,322,180.5Zm-79.6-84c7.9-2.9,14.4-3.2,18.5-.9,7.9,4.6,13.5,23.8,7,55.2q-.6,2.7-1.2,5.5a281.8,281.8,0,0,0-37.1-5.9,279.6,279.6,0,0,0-23.3-29.1l6.4-5.8C223,106.4,233.3,99.9,242.4,96.5Zm-5.9,131.1Q230,239,223.3,249c-8.2.6-16.7.9-25.4.9s-17-.3-25-.8c-4.7-6.9-9.3-14.1-13.5-21.4s-8.2-14.9-11.8-22.3c3.6-7.5,7.5-15,11.7-22.3h0c4.3-7.4,8.8-14.6,13.5-21.4,8.3-.6,16.7-1,25.2-1s17,.3,25.2,1c4.6,6.8,9.1,13.9,13.4,21.3s8.4,15,12,22.2C244.8,212.7,240.8,220.2,236.5,227.7Zm18.3-8.8a249,249,0,0,1,9.3,24.4,249.8,249.8,0,0,1-25.8,4.4q4.3-6.8,8.5-14.1T254.8,218.9Zm-56.4,62.5c-5.6-6.1-11.2-12.8-16.7-19.9q7.9.3,16.2.3t16.8-.4A249,249,0,0,1,198.4,281.4Zm-40.6-33.6a248.9,248.9,0,0,1-25.5-4.1c2.4-7.9,5.5-16.1,9-24.4q3.7,7.2,7.8,14.3T157.7,247.8Zm-8.7-70.7q-4.1,7.1-7.8,14.4c-3.4-8.2-6.4-16.2-8.8-24,7.9-1.8,16.4-3.2,25.1-4.3Q153.2,170,149.1,177.2Zm49-47.5a253.4,253.4,0,0,1,16.2,19.6q-8.1-.4-16.4-.4t-16.2.4C187,142.3,192.5,135.7,198,129.7Zm48.6,47.4q-4.1-7.1-8.4-13.8c8.8,1.1,17.3,2.6,25.3,4.4a253.5,253.5,0,0,1-8.9,23.9Q250.9,184.4,246.7,177.1ZM127.3,147.6c-2.7-13.4-3.2-25.7-1.5-35.2s4.4-14.1,8.5-16.5c7.9-4.6,27.3.2,51.3,21.5l4.2,3.8a283.1,283.1,0,0,0-23.5,29.1,287,287,0,0,0-37,5.8Q128.2,151.8,127.3,147.6Zm-13.4,91.1c-29.3-10-42.6-24.4-42.6-33.6s12.4-22,40.1-31.7c3-1.1,6.2-2,9.5-3a282.6,282.6,0,0,0,13.5,35,284.8,284.8,0,0,0-13.6,35.4Zm27.8,77.8a14.6,14.6,0,0,1-7.3-1.7c-7.6-4.4-12.9-21.7-7.4-50.5q.8-4.5,2-9.2a275.3,275.3,0,0,0,37.3,5.4,284.5,284.5,0,0,0,23.8,29.4l-5.3,4.8C167,310.3,151.6,316.5,141.8,316.5Zm127.1-55.2c6,30.3.2,49.1-7.7,53.7s-25.3.3-47.5-18.8q-3.5-3-7-6.4a276.2,276.2,0,0,0,23.2-29.5,277.1,277.1,0,0,0,37.5-5.8Q268.2,258,268.8,261.3Zm11.3-22.6-4.7,1.5a274.5,274.5,0,0,0-14-35.1A279.6,279.6,0,0,0,275,170.6l8.2,2.6c13,4.5,23.8,10.1,31.2,16.4s10,10.9,10,15.6C324.5,214.2,310.6,228.7,280.2,238.8Z"/></g></g></svg>