<svg xmlns="http://www.w3.org/2000/svg" width="398.1" height="398.1" viewBox="0 0 398.1 398.1"><defs><style>.cls-1{fill:#231f20;stroke:#fff;stroke-miterlimit:10;stroke-width:3px;fill-rule:evenodd;}</style></defs><title>skill_ruby</title><g id="Layer_2" data-name="Layer 2"><g id="Layer_1-2" data-name="Layer 1"><path d="M308.4,0H89.8A89.9,89.9,0,0,0,0,89.8V308.4a89.9,89.9,0,0,0,89.8,89.7H308.4a89.8,89.8,0,0,0,89.7-89.7V89.8A89.9,89.9,0,0,0,308.4,0Zm75,308.4a75.1,75.1,0,0,1-75,75H89.8a75.1,75.1,0,0,1-75-75V89.8a75.1,75.1,0,0,1,75-75H308.4a75.1,75.1,0,0,1,75,75Zm0,0"/><polygon class="cls-1" points="134.3 311.2 291.4 300.5 303.5 142.1 255.6 239.1 134.3 311.2"/><polygon class="cls-1" points="241.4 255.8 291.7 300.4 278.2 207.2 241.4 255.8"/><polygon class="cls-1" points="134.8 311 291.8 300.4 192.9 292.7 134.8 311"/><polygon class="cls-1" points="105.3 241.7 135 311 159.7 230 105.3 241.7"/><polygon class="cls-1" points="153.5 228 241.4 256.1 218.6 167 153.5 228"/><polygon class="cls-1" points="219.7 173.4 298.3 168.2 236.8 118 219.7 173.4"/><polygon class="cls-1" points="210.6 99.8 269.6 100.1 233.4 120.1 210.6 99.8"/><polygon class="cls-1" points="93.9 208.3 91 268.8 106.1 241.2 93.9 208.3"/><path class="cls-1" d="M93.1,207.2l12.3,35,53.6-12,61.2-56.9,17.3-54.9L210.3,99.3,164,116.6c-14.6,13.5-42.8,40.4-43.9,40.9S101.5,191.3,93.1,207.2Z"/><path class="cls-1" d="M136.4,144.4c31.6-31.3,72.3-49.8,87.9-34s-.9,54.1-32.5,85.3-71.8,50.8-87.4,35S104.8,175.6,136.4,144.4Z"/><path class="cls-1" d="M135,311l24.5-81.2,81.4,26.2C211.5,283.5,178.7,306.9,135,311Z"/><path class="cls-1" d="M220.3,173.2,241.2,256c24.6-25.9,46.7-53.7,57.5-88.1Z"/><path class="cls-1" d="M298.5,168.3c8.4-25.3,10.3-61.5-29.2-68.2L236.9,118Z"/><path class="cls-1" d="M91,268.5c1.2,41.7,31.2,42.3,44,42.7L105.4,242Z"/><path class="cls-1" d="M220.4,173.3l57.8,35.4c1.2.7,16.4-25.7,19.9-40.6Z"/><path class="cls-1" d="M159.4,229.8,192.2,293c19.4-10.5,34.6-23.3,48.5-37Z"/><path class="cls-1" d="M105.3,242.1l-4.6,55.3c8.8,12,20.8,13,33.5,12.1C125,286.7,106.7,241.2,105.3,242.1Z"/><path class="cls-1" d="M236.8,118.1l65.1,9.1c-3.5-14.7-14.1-24.2-32.3-27.2Z"/></g></g></svg>