<svg xmlns="http://www.w3.org/2000/svg" width="398.1" height="398.1" viewBox="0 0 398.1 398.1"><defs><style>.cls-1{fill:#231f20;}</style></defs><title>skill_illustrator</title><g id="Layer_2" data-name="Layer 2"><g id="Layer_1-2" data-name="Layer 1"><path d="M308.4,0H89.8A89.9,89.9,0,0,0,0,89.8V308.4a89.9,89.9,0,0,0,89.8,89.7H308.4a89.8,89.8,0,0,0,89.7-89.7V89.8A89.9,89.9,0,0,0,308.4,0Zm75,308.4a75.1,75.1,0,0,1-75,75H89.8a75.1,75.1,0,0,1-75-75V89.8a75.1,75.1,0,0,1,75-75H308.4a75.1,75.1,0,0,1,75,75Zm0,0"/><path class="cls-1" d="M179.9,94.7l57.7,208.9H212.8l-16-60.1H131.1l-16,60.1h-26L148.9,94.7Zm11.5,128.4c-6.8-25.4-13.3-50.9-19.5-76.6-2.7-11.5-5-23.1-7.7-34.6-4.4,19.8-8.9,39.6-13.6,59.2-4.4,17.5-9.2,34.9-13.9,52.4Z"/><path class="cls-1" d="M287.7,158.6v18.3H272.3V158.6Zm.2,37.2V303.6H272.5V195.8Z"/></g></g></svg>