<svg xmlns="http://www.w3.org/2000/svg" viewBox="0 0 398.09 398.09"><defs><style>.cls-1{fill:#231f20;}</style></defs><g id="Layer_2" data-name="Layer 2"><g id="Layer_1-2" data-name="Layer 1"><path d="M308.35,0H89.78A89.89,89.89,0,0,0,0,89.78V308.35a89.85,89.85,0,0,0,89.78,89.74H308.35a89.82,89.82,0,0,0,89.74-89.74V89.78A89.85,89.85,0,0,0,308.35,0Zm75,308.35a75.11,75.11,0,0,1-75,75H89.78a75.11,75.11,0,0,1-75-75V89.78a75.11,75.11,0,0,1,75-75H308.35a75.11,75.11,0,0,1,75,75Z"/><path class="cls-1" d="M254.61,306.61a.12.12,0,0,0,.08.16h-7.06a.12.12,0,0,0,.08-.16Z"/><path class="cls-1" d="M194.39,91.48a.13.13,0,0,0-.09-.16H200a.13.13,0,0,0-.1.16Z"/><path class="cls-1" d="M194.39,91.48h5.49a30.35,30.35,0,0,1,4.47.44,51.11,51.11,0,0,1,16.09,5.3,57.12,57.12,0,0,1,12.76,9.1A69.9,69.9,0,0,1,249,128.83a92.43,92.43,0,0,1,6.68,22.06c.59,3.36,1,6.75,1.32,10.15,0,.36,0,.74.05,1.1a.73.73,0,0,1-.05.2,1,1,0,0,1-.54-.12c-4.42-1.55-8.89-2.92-13.43-4.08-.33-.08-.52-.18-.54-.57a55.13,55.13,0,0,0-1.82-10.27,77.27,77.27,0,0,0-9.42-21.91,52,52,0,0,0-8.45-10.31A36.32,36.32,0,0,0,209.64,107a33,33,0,0,0-7.22-1.57,40.09,40.09,0,0,0-12,.74,56.57,56.57,0,0,0-15.67,5.52A39.31,39.31,0,0,0,163.83,120a60.44,60.44,0,0,0-6,8.1,76.71,76.71,0,0,0-10.62,26.65,89.26,89.26,0,0,0-1.38,9.51,112.93,112.93,0,0,0-.49,11.34c0,3.69.24,7.38.62,11a105.23,105.23,0,0,0,5.24,23.59,109.79,109.79,0,0,0,9,19.45c.55,1,.31.79,1.37.69a16.14,16.14,0,0,1,17.78,14.28,16.16,16.16,0,0,1-31.83,5.29A15.78,15.78,0,0,1,149,238.83a1.2,1.2,0,0,0,0-1.37,136.12,136.12,0,0,1-12.75-29.32,121.42,121.42,0,0,1-3.79-17.06c-.42-2.81-.7-5.63-.91-8.46a107.8,107.8,0,0,1-.19-12.19A105.33,105.33,0,0,1,133,155.11a109.5,109.5,0,0,1,6.44-21.86,72.59,72.59,0,0,1,12.75-20.47A65,65,0,0,1,172.4,97.25a56.94,56.94,0,0,1,17.17-5.33A37.06,37.06,0,0,1,194.39,91.48Z"/><path class="cls-1" d="M254.61,306.61h-6.9a35.39,35.39,0,0,1-4.49-.3,81.61,81.61,0,0,1-9.55-1.58,94.81,94.81,0,0,1-17-5.64c-.79-.34-1.56-.7-2.34-1a.53.53,0,0,1-.29-.25l2.57-2c3.41-2.62,6.8-5.24,10-8.13a.69.69,0,0,1,.87-.08,61.14,61.14,0,0,0,6.53,2.46,76.61,76.61,0,0,0,12.67,2.86,60.12,60.12,0,0,0,11.53.5,43.38,43.38,0,0,0,22.64-7.28,42.87,42.87,0,0,0,12.51-13.51,36.91,36.91,0,0,0,5.47-23.16,50.84,50.84,0,0,0-4.64-16.79,75.71,75.71,0,0,0-13.93-20.79,89.54,89.54,0,0,0-17.56-14.31,110.88,110.88,0,0,0-27-12.51,107.13,107.13,0,0,0-15.22-3.47q-4.35-.65-8.73-1a97.22,97.22,0,0,0-10.24-.21c-.86,0-1.71.1-2.56.1a.83.83,0,0,0-.89.57,15.33,15.33,0,0,1-3.2,4.57,15.85,15.85,0,0,1-9.32,4.59,16.16,16.16,0,1,1,11.76-24.22,1.13,1.13,0,0,0,1.19.66c3.14-.12,6.28-.1,9.41,0,3,.11,5.94.33,8.91.63a132.23,132.23,0,0,1,14.13,2.23,119.2,119.2,0,0,1,22.88,7.35,110.18,110.18,0,0,1,39.68,29.26,86,86,0,0,1,9.31,12.89A71.14,71.14,0,0,1,311.15,241a58.2,58.2,0,0,1,1.05,7.67c.13,1.75.23,3.5.2,5.26a53.48,53.48,0,0,1-2.71,16.59,42.89,42.89,0,0,1-7.82,13.69,60.24,60.24,0,0,1-18.24,14.65,66.85,66.85,0,0,1-19,6.65,64.87,64.87,0,0,1-8.09,1A14,14,0,0,1,254.61,306.61Z"/><path class="cls-1" d="M119.28,192.4c.26,1.11.5,2.2.76,3.29.86,3.66,1.79,7.3,2.95,10.88a.64.64,0,0,1-.29.85,72.11,72.11,0,0,0-16.47,18.19,51.49,51.49,0,0,0-6.88,16.16,40.15,40.15,0,0,0-1,10.92,44.19,44.19,0,0,0,11.57,27.15,38.09,38.09,0,0,0,14.72,9.46,48.42,48.42,0,0,0,10.68,2.53c2.31.29,4.63.46,7,.57a62.59,62.59,0,0,0,6.85-.08,76.12,76.12,0,0,0,16.54-2.81,90.64,90.64,0,0,0,17.71-7.24,140.35,140.35,0,0,0,17.6-11,95.67,95.67,0,0,0,23.47-24.64c1.73-2.67,3.34-5.43,4.8-8.26.41-.8.42-.8-.16-1.45a15.31,15.31,0,0,1-3.83-7.72,15.75,15.75,0,0,1,5.46-15.36,15.4,15.4,0,0,1,11.95-3.75A16.17,16.17,0,0,1,244.48,242a3.28,3.28,0,0,1-.81.14c-.56,0-.79.32-1,.76a116.46,116.46,0,0,1-15.94,24.24,110.23,110.23,0,0,1-28.93,24,119.72,119.72,0,0,1-32.18,12.57,99.13,99.13,0,0,1-10,1.94q-3.22.43-6.48.63c-2.26.13-4.52.17-6.78.08A68.47,68.47,0,0,1,113.16,299a52.42,52.42,0,0,1-12.5-8.84,45.52,45.52,0,0,1-10.94-16.73,60,60,0,0,1-3.44-13.37,61.15,61.15,0,0,1-.55-11,64.62,64.62,0,0,1,5.43-23.46A73.56,73.56,0,0,1,104,205.93a94.79,94.79,0,0,1,14.6-13.13A1.4,1.4,0,0,1,119.28,192.4Z"/></g></g></svg>