<svg xmlns="http://www.w3.org/2000/svg" width="398.1" height="398.1" viewBox="0 0 398.1 398.1"><defs><style>.cls-1{fill:#231f20;}</style></defs><title>skill_xd</title><g id="Layer_2" data-name="Layer 2"><g id="Layer_1-2" data-name="Layer 1"><path d="M308.4,0H89.8A89.9,89.9,0,0,0,0,89.8V308.4a89.9,89.9,0,0,0,89.8,89.7H308.4a89.8,89.8,0,0,0,89.7-89.7V89.8A89.9,89.9,0,0,0,308.4,0Zm75,308.4a75.1,75.1,0,0,1-75,75H89.8a75.1,75.1,0,0,1-75-75V89.8a75.1,75.1,0,0,1,75-75H308.4a75.1,75.1,0,0,1,75,75Zm0,0"/><path class="cls-1" d="M172.5,195.9l56.8,107.7H202.1L174.5,250l-16.9-32.8-16,31.1-29.3,55.3H85.8l58.6-106.8L89.1,94.7h27.5L144.7,148l14.2,27.8c4.7-9.5,9.8-18.6,14.5-28.1l28.1-53h26.6Z"/><path class="cls-1" d="M314.3,158.6v145h-14l.4-15c-.2.2-1.6,4.1-3.3,6.4-2.5,3.9-9.7,11.3-22.2,11.3a27.6,27.6,0,0,1-17.2-6.2c-13.6-11.1-15-32.6-15-48.5,0-21.1,3.7-34.7,8.6-42.9,7.8-12.7,19.9-15.2,25.5-15.2a24.4,24.4,0,0,1,18.1,8.4,53.9,53.9,0,0,1,3.9,5.5V158.6Zm-49.7,58.3c-3.3,6.2-5.1,17.7-5.1,33.5s1.4,25.5,4.3,31.8,8,11.1,15.4,11.1c5.3,0,12.9-2.7,16.8-13.8s3.7-29.6,3.7-30.8.4-17.9-3.1-27.9-11.7-14.2-16.8-14.2A17.9,17.9,0,0,0,264.6,216.9Z"/></g></g></svg>