<svg xmlns="http://www.w3.org/2000/svg" width="398.1" height="398.1" viewBox="0 0 398.1 398.1"><defs><style>.cls-1{fill:#231f20;}</style></defs><title>skill_unity</title><g id="Layer_2" data-name="Layer 2"><g id="Layer_1-2" data-name="Layer 1"><path class="cls-1" d="M227.9,206.4l47.2-81.5,22.8,81.5-22.8,81.4-47.2-81.4Zm-23,13.2,47.2,81.5L169.9,280l-59.4-60.4Zm47.2-107.9-47.2,81.5H110.6l59.4-60.4Zm67.4,67L290.7,71.6,183.2,100.3l-15.9,28-32.3-.2L56.4,206.4l78.6,78.4h0l32.3-.2,15.9,28,107.4,28.7,28.8-107.1-16.3-27.7,16.3-27.7Z"/><path d="M308.4,0H89.8A89.9,89.9,0,0,0,0,89.8V308.4a89.9,89.9,0,0,0,89.8,89.7H308.4a89.8,89.8,0,0,0,89.7-89.7V89.8A89.9,89.9,0,0,0,308.4,0Zm75,308.4a75.1,75.1,0,0,1-75,75H89.8a75.1,75.1,0,0,1-75-75V89.8a75.1,75.1,0,0,1,75-75H308.4a75.1,75.1,0,0,1,75,75Zm0,0"/></g></g></svg>