<svg xmlns="http://www.w3.org/2000/svg" width="398.1" height="398.1" viewBox="0 0 398.1 398.1"><defs><style>.cls-1{fill:#231f20;}</style></defs><title>skill_css</title><g id="Layer_2" data-name="Layer 2"><g id="Layer_1-2" data-name="Layer 1"><path d="M308.4,0H89.8A89.9,89.9,0,0,0,0,89.8V308.4a89.9,89.9,0,0,0,89.8,89.7H308.4a89.8,89.8,0,0,0,89.7-89.7V89.8A89.9,89.9,0,0,0,308.4,0Zm75,308.4a75.1,75.1,0,0,1-75,75H89.8a75.1,75.1,0,0,1-75-75V89.8a75.1,75.1,0,0,1,75-75H308.4a75.1,75.1,0,0,1,75,75Zm0,0"/><path class="cls-1" d="M142.6,191.9c-.6-7.6-1.8-16.6-9-21.1a18.8,18.8,0,0,0-8.8-2.3c-11.7,0-15.6,10.9-16.6,13.8-2.5,6.2-4.1,16.2-4.1,31.4s1.8,27.5,5.5,33.3a17.5,17.5,0,0,0,14.8,8.4,15.8,15.8,0,0,0,8.6-2.5c7.8-4.9,9-16.6,9.7-24.6l15.2.2c-.4,5.5-.6,9-2.1,14.6-4.5,15.8-15.8,24.8-32.2,24.8-6.6,0-12.5-1.2-18.3-4.9-10.9-6.8-17.5-20.7-17.5-46.8,0-1.4-.2-26.1,5.5-40a35.2,35.2,0,0,1,5.7-9.4c3.9-4.7,11.5-11.3,26.5-11.3,10.7,0,19.7,3.5,25.9,12.1a35.7,35.7,0,0,1,4.5,9,63.3,63.3,0,0,1,2.1,15.6Z"/><path class="cls-1" d="M217.2,186.3a44.4,44.4,0,0,0-1-8.2c-1.2-4.5-5.1-10.3-16-10.3a22.2,22.2,0,0,0-9,1.8c-2.9,1.4-8,5.5-8,14a15.6,15.6,0,0,0,4.1,11.5c4.7,4.9,11.5,6.6,17.7,8.4s10.5,3.5,15.2,6.2,14.2,9.4,14.2,26.1c0,4.5-.4,15.4-10.1,23.8a34,34,0,0,1-13.1,7,47.2,47.2,0,0,1-11.3,1.2c-16.6,0-24.4-6-29-12.3a45,45,0,0,1-3.7-8.2c-1.2-4.7-1.2-8.8-1.2-13.8l14.6.2c0,1.4,0,7.4,1.6,11.9s6.6,9.4,17.5,9.4,15.6-4.7,17.7-9.2a24.5,24.5,0,0,0,1.8-9.2c0-11.3-7.6-14.4-17.9-18.3l-13.8-5.1a34.4,34.4,0,0,1-7.8-3.7c-8.8-5.7-11.5-14-11.5-24,0-4.1.2-13.6,8.4-21.8s20.7-8.6,24.6-8.6,24.8.4,29.6,19.5c.8,3.7,1,5.3,1,11.7Z"/><path class="cls-1" d="M294.2,186.3a44.4,44.4,0,0,0-1-8.2c-1.2-4.5-5.1-10.3-16-10.3a22.2,22.2,0,0,0-9,1.8c-2.9,1.4-8,5.5-8,14a15.6,15.6,0,0,0,4.1,11.5c4.7,4.9,11.5,6.6,17.7,8.4s10.5,3.5,15.2,6.2,14.2,9.4,14.2,26.1c0,4.5-.4,15.4-10.1,23.8a34,34,0,0,1-13.1,7,47.2,47.2,0,0,1-11.3,1.2c-16.6,0-24.4-6-29-12.3a45,45,0,0,1-3.7-8.2c-1.2-4.7-1.2-8.8-1.2-13.8l14.6.2c0,1.4,0,7.4,1.6,11.9s6.6,9.4,17.5,9.4,15.6-4.7,17.7-9.2a24.6,24.6,0,0,0,1.8-9.2c0-11.3-7.6-14.4-17.9-18.3l-13.8-5.1a34.4,34.4,0,0,1-7.8-3.7c-8.8-5.7-11.5-14-11.5-24,0-4.1.2-13.6,8.4-21.8s20.7-8.6,24.6-8.6,24.8.4,29.6,19.5c.8,3.7,1,5.3,1,11.7Z"/></g></g></svg>