<svg xmlns="http://www.w3.org/2000/svg" width="398.1" height="398.1" viewBox="0 0 398.1 398.1"><defs><style>.cls-1{fill:#231f20;}</style></defs><title>skill_python</title><g id="Layer_2" data-name="Layer 2"><g id="Layer_1-2" data-name="Layer 1"><path class="cls-1" d="M339,186.4c-.1-.3-.2-.7-.2-1a80.2,80.2,0,0,0-3-12.4h0a1.6,1.6,0,0,0-.3-1.1h0a31.7,31.7,0,0,0-2.4-5.9,58.3,58.3,0,0,0-3.3-6.2,25.5,25.5,0,0,0-3.7-4.9c-.3-.8-1-1.3-1.6-1.8h0c-.5-1.5-2.2-2-3.1-3.2a24,24,0,0,0-7.4-4.9l-1.5-.8a25,25,0,0,0-7.1-1.9,2.2,2.2,0,0,0-1.4-.3H279.4c-.7,0-1,.2-1,1q0,16.8,0,33.7h0l-.6,5.7h0a3.5,3.5,0,0,0-.2.6,39.9,39.9,0,0,1-9.5,20.3h0l-1.6,1.6a38.2,38.2,0,0,1-12.1,7l-6.7,1.5h0l-9.1.6H175.9a42.6,42.6,0,0,0-14,1.7c-8.4,2.4-15.5,6.7-20.3,14.3a34.9,34.9,0,0,0-5.1,18.6c-.1,10.6,0,21.3,0,31.9,0,3.2,0,6.3,0,9.5q0,10.2,0,20.4h0a18.2,18.2,0,0,0,.7,7.6,3.4,3.4,0,0,0,.3,1.5h0a20.5,20.5,0,0,0,3.1,6.3h0a10,10,0,0,0,2.4,3.2h0a14.1,14.1,0,0,0,3.8,3.7h0a25.9,25.9,0,0,0,6.7,4.5h0a48.3,48.3,0,0,0,11.3,4.8l.7.3a93.6,93.6,0,0,0,13,2.9,26,26,0,0,0,5.1.6,2.1,2.1,0,0,0,1.4.2h1.3a2.2,2.2,0,0,0,1.4.2h1.6a2.7,2.7,0,0,0,1.6.2h0l2.5.2c4.6.1,9.2.6,13.9.2a129.5,129.5,0,0,0,14.9-.7,45.4,45.4,0,0,0,7.1-.9,81,81,0,0,0,18.5-4.4c5.5-2,10.7-4.6,15-8.8s6.6-8,6.8-13.4,0-10.4,0-15.5V285.4h0c-.4-.5-1-.2-1.5-.2H203.6c-.7.1-.9-.2-.9-.9q.1-3.8,0-7.6c0-.7.3-.9,1-.9h93.1c12.7.2,22.9-4.9,30.7-14.8,6-7.5,9-16.2,11.1-25.5.5-2.1.5-4.2,1.3-6.2V190.1C339.1,189,339.3,187.6,339,186.4ZM230.8,319.7a11.5,11.5,0,0,1,8.1-17.4,25.6,25.6,0,0,0,3.2-.4h.1c.1.4.4.4.7.5a12.3,12.3,0,0,1,6.1,3.1,1.4,1.4,0,0,0,.7.4h0a5.3,5.3,0,0,0,.8,1.4c3.3,5.3,2.4,11.2-1.8,15s-11.1,4.1-16,0c-.4-.3-.7-.7-1.2-.7h0v-.2A3.5,3.5,0,0,0,230.8,319.7ZM269.9,202h0l-.2.2Z"/><path class="cls-1" d="M145.7,210.2a42.9,42.9,0,0,1,12.4-4l2.4-.3a3.9,3.9,0,0,0,1.5-.1h69.5a44.2,44.2,0,0,0,18.9-4.1c12.1-5.7,18.1-15.4,18.8-28.5a1.7,1.7,0,0,0,.1-.4,18.2,18.2,0,0,0,.1-3.6q0-29.3,0-58.6c0-.4,0-.9,0-1.3h0v-3.2a2,2,0,0,0-.2-1.4h0a18,18,0,0,0-2.4-7.6h0A20.3,20.3,0,0,0,262,90v-.2a17.5,17.5,0,0,0-4.5-4.1,43.4,43.4,0,0,0-13.2-7,60.4,60.4,0,0,0-12.6-3.5h0l-6.4-1.1h0l-.8-.2q-6.3-.8-12.7-1.1v-.2H191.7c-1.7.6-3.4.3-5.1.6a115.6,115.6,0,0,0-16.2,2.1c-7.7,1.6-15.2,3.8-21.9,8s-13,11.9-12.3,22c.4,4.9.1,9.8.1,14.7s0,8,0,12c0,2.4,0,2.4,2.4,2.2h63c1.2,0,1.5.4,1.4,1.4s0,2.2,0,3.3a25.3,25.3,0,0,0,0,3.2c.2,1.4-.4,1.7-1.6,1.6a17.6,17.6,0,0,0-2.4,0H109.7a7.8,7.8,0,0,0-3.6,0h0a19,19,0,0,0-4.2.5,32.3,32.3,0,0,0-13.6,5.2c-9.9,6.4-15.5,16-18.8,27a73,73,0,0,0-3.2,15.6,78.1,78.1,0,0,0-.9,8.6H65v17.7c.6.8,0,1.9.5,2.8v1.8a3.7,3.7,0,0,0,.1,1.5v1.2a2.4,2.4,0,0,0,.2,1.4h0a15.4,15.4,0,0,0,.3,3.4,53.2,53.2,0,0,0,1.2,6.7h0a35.6,35.6,0,0,0,1.6,6.4v.3a40.4,40.4,0,0,0,2.9,8.3,11.3,11.3,0,0,0,1.6,3.5h0a20.8,20.8,0,0,0,3,5.1,12.5,12.5,0,0,0,2.1,2.9,21.1,21.1,0,0,0,3.8,4.3l.3.3a28.2,28.2,0,0,0,7,5.2,27.8,27.8,0,0,0,13.8,3.9h22.1c1.4,0,1.6-.4,1.6-1.7.2-13-.7-26.1.6-39.1h0c.4-1.8.8-3.7,1.3-5.5a34.9,34.9,0,0,1,5.3-11.3A31.5,31.5,0,0,1,145.7,210.2Zm123.5-58.9h0Zm-.2-15.8h.2v.3Zm-115.4-32a11.6,11.6,0,0,1,11.1-9.3c.5,0,1,.1,1.4-.4h0V94a3.3,3.3,0,0,0,1.3.4,11.5,11.5,0,0,1,9.1,9.6,3.2,3.2,0,0,0,.5,1.4h.1a5.6,5.6,0,0,0-.6,2.4A10.8,10.8,0,0,1,175,112a13.2,13.2,0,0,1-6.9,5.3l-.2.2c-.4-.3-.9-.1-1.3-.1a12.4,12.4,0,0,1-7.7-1.6,1.7,1.7,0,0,0-1.3-.4v-.2a1.5,1.5,0,0,0-.5-.8,11.9,11.9,0,0,1-3.8-8.7,1.8,1.8,0,0,0-.2-1h.1A3,3,0,0,0,153.7,103.4Z"/><path d="M308.4,0H89.8A89.9,89.9,0,0,0,0,89.8V308.4a89.9,89.9,0,0,0,89.8,89.7H308.4a89.8,89.8,0,0,0,89.7-89.7V89.8A89.9,89.9,0,0,0,308.4,0Zm75,308.4a75.1,75.1,0,0,1-75,75H89.8a75.1,75.1,0,0,1-75-75V89.8a75.1,75.1,0,0,1,75-75H308.4a75.1,75.1,0,0,1,75,75Zm0,0"/></g></g></svg>