<svg xmlns="http://www.w3.org/2000/svg" viewBox="0 0 398.09 398.09"><defs><style>.cls-1{fill:#231f20;}</style></defs><g id="Layer_2" data-name="Layer 2"><g id="Layer_1-2" data-name="Layer 1"><path class="cls-1" d="M199,77.78C132.35,77.78,77.78,132.35,77.78,199S132.35,320.31,199,320.31,320.31,265.74,320.31,199,265.74,77.78,199,77.78ZM131.48,266.61c-18.19-18.19-27.72-42.44-27.72-65.82l94.41,93.53c-24.25-.87-48.5-9.52-66.69-27.71Zm88.35,25.12L106.37,178.26c9.52-42.45,47.63-74.49,92.67-74.49a95.52,95.52,0,0,1,77.09,39l-13,11.25C248.42,134.08,225,121.1,199,121.1c-33.77,0-62.36,21.65-73.62,52L225,272.67c25.12-8.66,44.17-30.31,50.24-56.3H233.7V199h60.63c0,45.05-32.05,83.16-74.49,92.68Z"/><path d="M308.35,0H89.78A89.89,89.89,0,0,0,0,89.78V308.35a89.85,89.85,0,0,0,89.78,89.74H308.35a89.82,89.82,0,0,0,89.74-89.74V89.78A89.85,89.85,0,0,0,308.35,0Zm75,308.35a75.11,75.11,0,0,1-75,75H89.78a75.11,75.11,0,0,1-75-75V89.78a75.11,75.11,0,0,1,75-75H308.35a75.11,75.11,0,0,1,75,75Z"/></g></g></svg>