<svg xmlns="http://www.w3.org/2000/svg" width="80" height="90.8" viewBox="0 0 80 90.8"><title>Asset 8</title><rect width="79.84" height="90.8" rx="5.4" ry="5.4"/><path d="M80,5.82A5.75,5.75,0,0,0,74.26.09H51.87c-.25,0-.5,0-.75,0s-.51,0-.76,0H5.89A5.75,5.75,0,0,0,.16,5.82V72.75a5.75,5.75,0,0,0,5.74,5.74H74.26a5.71,5.71,0,0,0,3.92-1.56,4.09,4.09,0,0,0,.87-.83,3.43,3.43,0,0,0,.57-1.31,5.68,5.68,0,0,0,.38-2ZM18.86,16.28H6a2,2,0,0,1-2.1-1.76V4.26A2,2,0,0,1,6,2.5H45a8,8,0,0,0-2.46,5.75V27.65a8.3,8.3,0,0,0,8.39,8h9.52l.24.07a1.8,1.8,0,0,1,1.11,1.57V52.84a2,2,0,0,1-2.12,1.8h-38A1.55,1.55,0,0,1,20,53.27V17.46A1.17,1.17,0,0,0,18.86,16.28ZM61,33.36l-.2,0H51a6,6,0,0,1-6.09-5.72V8.06a6,6,0,0,1,6.19-5.88,6,6,0,0,1,6,6c0,.94-.29,8.19.35,10.8.32,1.3,1.71,3.23,3.71,3.23h.06c2,0,3.38-1.93,3.69-3.23.63-2.64.6-10.36.59-10.69A5.43,5.43,0,0,1,67.3,4.5a6.66,6.66,0,0,1,4.55-2h0a6.23,6.23,0,0,1,6.23,5.83L78,39.12v33a4.91,4.91,0,0,1-.77,2.51c-.53.69-1.9,1.1-3.66,1.1H62.14a5.72,5.72,0,0,0,2.18-4.28c0-8.41.16-33.79.16-34.05A4.21,4.21,0,0,0,61,33.36ZM23.34,75.3H8.92c-1.77,0-3.9.08-5-1s-1.09-3-1.09-4.46V17.22a4.59,4.59,0,0,0,3.34,1.41H17.69V53.27a3.87,3.87,0,0,0,4,3.72H59.87a4.72,4.72,0,0,0,2-.43V69.84c0,3-2.75,5.46-6.1,5.46Z"/><path d="M61.84,69.84V56.56a4.72,4.72,0,0,1-2,.43H21.69a3.87,3.87,0,0,1-4-3.72V18.63H6.16a4.59,4.59,0,0,1-3.34-1.41V69.84c0,1.42.08,3.48,1.09,4.46s3.25,1,5,1H55.74C59.09,75.3,61.84,72.85,61.84,69.84Z" style="fill:#fff"/><path d="M21.69,54.64h38a2,2,0,0,0,2.12-1.8V37.34a1.8,1.8,0,0,0-1.11-1.57l-.24-.07H51a8.3,8.3,0,0,1-8.39-8V8.26A8,8,0,0,1,45,2.5H6a2,2,0,0,0-2.1,1.75V14.53A2,2,0,0,0,6,16.28H18.86A1.17,1.17,0,0,1,20,17.46V53.27A1.55,1.55,0,0,0,21.69,54.64Z" style="fill:#fff"/><path d="M62.14,75.77H73.53c1.77,0,3.14-.41,3.66-1.1A4.91,4.91,0,0,0,78,72.16v-33l.16-30.78A6.23,6.23,0,0,0,71.89,2.5h0a6.66,6.66,0,0,0-4.55,2,5.43,5.43,0,0,0-1.73,3.81c0,.32.06,8.4-.13,10.53a4,4,0,0,1-4.16,3.39h-.06c-2,0-3.39-1.93-3.71-3.23-.63-2.61-.38-9.86-.35-10.8a6,6,0,0,0-6-6,6,6,0,0,0-6.19,5.88V27.62A6,6,0,0,0,51,33.34h9.73l.2,0a4.21,4.21,0,0,1,3.53,4.07c0,.26-.15,25.64-.16,34.05A5.72,5.72,0,0,1,62.14,75.77Z" style="fill:#fff"/><polygon points="64.34 8.16 61.69 9.69 61.68 9.69 61.68 12.54 64.34 11.01 64.34 8.16" style="fill:#16ffaa"/><path d="M61.68,6V9.06l2.66-1.54V5.24a2.86,2.86,0,0,0-.1-.74L61.69,6Z" style="fill:#16ffaa"/><polygon points="61.13 9.8 58.51 8.29 58.51 11.14 61.13 12.65 61.13 9.8" style="fill:#16ffaa"/><path d="M61.14,9.17V6.09L58.58,4.61a2.87,2.87,0,0,0-.07.62V7.66Z" style="fill:#16ffaa"/><path d="M61.14,5.45V2.36a2.9,2.9,0,0,0-2.38,1.72Z" style="fill:#16ffaa"/><path d="M61.69,13.17h0v7.28a2.9,2.9,0,0,0,2.66-2.88V11.64Z" style="fill:#16ffaa"/><path d="M61.68,5.34,64,4a2.9,2.9,0,0,0-2.37-1.62Z" style="fill:#16ffaa"/><path d="M61.14,13.29l-2.62-1.51v5.81a2.9,2.9,0,0,0,2.62,2.87Z" style="fill:#16ffaa"/><path d="M25.08,87h3.52a.28.28,0,0,1,.24.13.51.51,0,0,1,0,.58.28.28,0,0,1-.24.13H24.2a.32.32,0,0,1-.24-.08.29.29,0,0,1-.08-.22A.75.75,0,0,1,24,87.2l3.59-6.66h-3.2a.27.27,0,0,1-.24-.13.53.53,0,0,1-.08-.29.56.56,0,0,1,.08-.29.26.26,0,0,1,.25-.13h4.09q.32,0,.32.28a.75.75,0,0,1-.11.36Z" style="fill:#fff"/><path d="M33.89,84h-3v3.49a.27.27,0,0,1-.14.25.67.67,0,0,1-.65,0,.27.27,0,0,1-.14-.25V80a.26.26,0,0,1,.14-.24.71.71,0,0,1,.65,0,.26.26,0,0,1,.14.24v3.2h3V80a.26.26,0,0,1,.14-.24.71.71,0,0,1,.65,0,.26.26,0,0,1,.14.24v7.48a.27.27,0,0,1-.14.25.67.67,0,0,1-.65,0,.27.27,0,0,1-.14-.25Z" style="fill:#fff"/><path d="M37.34,83.36h1.74a.27.27,0,0,1,.24.12.48.48,0,0,1,.08.28.47.47,0,0,1-.08.26.27.27,0,0,1-.25.12H37.34V87h3.45a.27.27,0,0,1,.24.13.55.55,0,0,1,.08.31.54.54,0,0,1-.08.28.27.27,0,0,1-.24.13h-4a.53.53,0,0,1-.29-.08.28.28,0,0,1-.13-.25V80a.28.28,0,0,1,.13-.25.53.53,0,0,1,.29-.08h4a.27.27,0,0,1,.24.13.53.53,0,0,1,.08.28.55.55,0,0,1-.08.31.27.27,0,0,1-.24.13H37.34Zm.61-5.52a.26.26,0,0,1-.12-.12.35.35,0,0,1,0-.15.43.43,0,0,1,.09-.26.27.27,0,0,1,.22-.12l.11,0,1.3.69a.26.26,0,0,1,.14.25.41.41,0,0,1-.09.26.29.29,0,0,1-.24.12l-.12,0Z" style="fill:#fff"/><path d="M46.54,87.82a.54.54,0,0,1-.34-.12.93.93,0,0,1-.25-.31l-2.89-5.6v5.69a.27.27,0,0,1-.14.25.67.67,0,0,1-.65,0,.27.27,0,0,1-.14-.25V80a.26.26,0,0,1,.14-.25.71.71,0,0,1,.33-.07.55.55,0,0,1,.41.15,1.88,1.88,0,0,1,.31.44l2.77,5.42V80a.26.26,0,0,1,.14-.24.71.71,0,0,1,.65,0A.26.26,0,0,1,47,80v7.48a.27.27,0,0,1-.14.25A.63.63,0,0,1,46.54,87.82Z" style="fill:#fff"/><path d="M50.36,84.67a.22.22,0,0,0,0-.11L48,80.26a.47.47,0,0,1,0-.19.32.32,0,0,1,.19-.28.75.75,0,0,1,.37-.11.3.3,0,0,1,.2.06.65.65,0,0,1,.14.18l2,3.82,1.95-3.82a.39.39,0,0,1,.33-.24.74.74,0,0,1,.37.11.32.32,0,0,1,.18.28.47.47,0,0,1,0,.19l-2.3,4.29a.2.2,0,0,0,0,.11v2.81a.27.27,0,0,1-.14.25.67.67,0,0,1-.65,0,.27.27,0,0,1-.14-.25Z" style="fill:#fff"/><path d="M53.94,87.82a.77.77,0,0,1-.38-.11.32.32,0,0,1-.19-.28.36.36,0,0,1,0-.09l2.27-7.4a.4.4,0,0,1,.22-.25.84.84,0,0,1,.36-.08.79.79,0,0,1,.36.08.42.42,0,0,1,.22.24l2.27,7.4a.12.12,0,0,0,0,0,.12.12,0,0,1,0,0,.33.33,0,0,1-.19.28.73.73,0,0,1-.39.12.43.43,0,0,1-.21,0,.26.26,0,0,1-.12-.16l-.49-1.66H54.77l-.49,1.66A.32.32,0,0,1,53.94,87.82Zm3.54-2.64L56.24,81,55,85.18Zm-1.55-6.7-.06,0H55.8a.29.29,0,0,1-.24-.12.41.41,0,0,1-.09-.26.26.26,0,0,1,.14-.25l1.3-.69.11,0a.26.26,0,0,1,.23.12.45.45,0,0,1,.08.26.35.35,0,0,1,0,.15.26.26,0,0,1-.12.12Z" style="fill:#fff"/><path d="M64.51,87.82a.54.54,0,0,1-.34-.12.93.93,0,0,1-.25-.31L61,81.8v5.69a.27.27,0,0,1-.14.25.67.67,0,0,1-.65,0,.27.27,0,0,1-.14-.25V80a.26.26,0,0,1,.14-.25.71.71,0,0,1,.33-.07.55.55,0,0,1,.41.15,1.88,1.88,0,0,1,.31.44L64,85.69V80a.26.26,0,0,1,.14-.24.71.71,0,0,1,.65,0A.26.26,0,0,1,65,80v7.48a.27.27,0,0,1-.14.25A.63.63,0,0,1,64.51,87.82Z" style="fill:#fff"/><path d="M70.33,81.81a1.54,1.54,0,0,0-.41-.93,1.42,1.42,0,0,0-1.06-.35,1.45,1.45,0,0,0-1.07.38,1.63,1.63,0,0,0-.38,1.2v3.35a1.63,1.63,0,0,0,.38,1.2,1.45,1.45,0,0,0,1.07.38,1.47,1.47,0,0,0,1.08-.38,1.62,1.62,0,0,0,.39-1.2V84.33H69a.28.28,0,0,1-.24-.12.46.46,0,0,1-.08-.27.47.47,0,0,1,.08-.27.27.27,0,0,1,.24-.12h1.94a.29.29,0,0,1,.24.11.38.38,0,0,1,.08.24v1.57a3.05,3.05,0,0,1-.18,1.13,1.93,1.93,0,0,1-.51.75,2,2,0,0,1-.77.42,3.52,3.52,0,0,1-1.88,0,1.93,1.93,0,0,1-.76-.42,2,2,0,0,1-.51-.75,3.07,3.07,0,0,1-.18-1.13V82.11A3.07,3.07,0,0,1,66.66,81a1.88,1.88,0,0,1,1.26-1.17,3.26,3.26,0,0,1,.92-.13,3.23,3.23,0,0,1,1,.14,2.3,2.3,0,0,1,.77.41,1.8,1.8,0,0,1,.49.63,1.88,1.88,0,0,1,.17.81.43.43,0,0,1-.12.36.55.55,0,0,1-.34.09.66.66,0,0,1-.32-.07A.28.28,0,0,1,70.33,81.81Z" style="fill:#fff"/><rect x="9.92" y="80.41" width="5.1" height="0.99" rx="0.39" ry="0.39" style="fill:#16ffaa"/><rect x="7.31" y="82.86" width="10.28" height="0.96" rx="0.48" ry="0.48" transform="translate(95.79 70.89) rotate(90)" style="fill:#16ffaa"/><rect x="12.01" y="81.88" width="3.23" height="0.99" rx="0.33" ry="0.33" transform="translate(62.24 14.49) rotate(45)" style="fill:#16ffaa"/><rect x="9.72" y="81.88" width="3.23" height="0.99" rx="0.33" ry="0.33" transform="translate(77.6 132.61) rotate(135)" style="fill:#16ffaa"/><rect x="13.9" y="80.41" width="5.1" height="0.99" rx="0.39" ry="0.39" style="fill:#16ffaa"/><rect x="11.29" y="82.86" width="10.28" height="0.96" rx="0.48" ry="0.48" transform="translate(99.77 66.91) rotate(90)" style="fill:#16ffaa"/><rect x="15.99" y="81.88" width="3.23" height="0.99" rx="0.33" ry="0.33" transform="translate(63.41 11.68) rotate(45)" style="fill:#16ffaa"/><rect x="13.7" y="81.88" width="3.23" height="0.99" rx="0.33" ry="0.33" transform="translate(84.4 129.8) rotate(135)" style="fill:#16ffaa"/></svg>