<svg id="Layer_1" data-name="Layer 1" xmlns="http://www.w3.org/2000/svg" width="489.5" height="178.14" viewBox="0 0 489.5 178.14"><defs><style>.cls-1{fill:#fff;}.cls-2{fill:#4d4d4d;}</style></defs><title>logov2</title><rect class="cls-1" x="2.34" y="38.88" width="484.82" height="82.26"/><path class="cls-2" d="M489.32,41.22V118.8H9.18V41.22H489.32M494,36.54H4.5v86.94H494V36.54h0Z" transform="translate(-4.5)"/><path class="cls-2" d="M50.63,85.89H70V93.5H38.45V89.05L57.51,58.5H38.36V50.88H69.77v4.27Z" transform="translate(-4.5)"/><path class="cls-2" d="M110.4,93.5h-9.87V76.35H84.76V93.5H74.83V50.88h9.92V68.74h15.78V50.88h9.87V93.5Z" transform="translate(-4.5)"/><path class="cls-2" d="M143.74,75.27H127V85.89h19.7V93.5H117.1V50.88h29.68V58.5H127v9.16h16.71v7.61Z" transform="translate(-4.5)"/><path class="cls-2" d="M186.77,93.5h-9.87L161.3,66.34l-0.18.06V93.5h-9.92V50.88h9.92L176.73,78l0.17-.06V50.88h9.87V93.5Z" transform="translate(-4.5)"/><path class="cls-2" d="M208.37,69.5h0.18L217,50.88h10.74L213.29,78.52v15h-9.86V78l-14.2-27.13h10.68Z" transform="translate(-4.5)"/><path class="cls-2" d="M249.27,85.22H235.83l-2.4,8.28h-10l13.76-42.62h10.63L261.65,93.5h-10ZM238,77.61h9l-4.45-15.25h-0.18Z" transform="translate(-4.5)"/><path class="cls-2" d="M300.23,93.5h-9.87l-15.6-27.16-0.18.06V93.5h-9.92V50.88h9.92L290.19,78l0.17-.06V50.88h9.87V93.5Z" transform="translate(-4.5)"/><path class="cls-2" d="M340.59,87.62a18.37,18.37,0,0,1-6.29,4.54,24.12,24.12,0,0,1-10.36,2q-7.9,0-12.84-4.86a16.93,16.93,0,0,1-4.93-12.62v-8.9A17.18,17.18,0,0,1,311,55.16a16.64,16.64,0,0,1,12.4-4.89q8.23,0,12.32,3.81a15.36,15.36,0,0,1,4.65,10.39l-0.06.18H331a8.84,8.84,0,0,0-2.18-5.06,7,7,0,0,0-5.14-1.7,6.68,6.68,0,0,0-5.56,2.74A11.26,11.26,0,0,0,316,67.69v9a11.44,11.44,0,0,0,2.08,7.16,6.92,6.92,0,0,0,5.83,2.71,16.36,16.36,0,0,0,4.27-.44,6.86,6.86,0,0,0,2.46-1.17V78.17H324V71.61h16.63v16Z" transform="translate(-4.5)"/><rect class="cls-2" x="37" y="103.53" width="315.97" height="7.74" transform="translate(374.78 232.25) rotate(-174.73)"/><path class="cls-2" d="M377.36,103.95h18.35v7.61H367.43V68.94h9.92v35Z" transform="translate(-4.5)"/><path class="cls-2" d="M410.43,111.56h-9.87V68.94h9.87v42.62Z" transform="translate(-4.5)"/><path class="cls-2" d="M430.78,68.94l9.54,29.83h0.18l9.66-29.83h13.05v42.62h-9.92V101l0.94-19.47-0.18,0-10.27,30.06H437.1l-10.16-29.8-0.18,0L427.7,101v10.57h-9.92V68.94h13Z" transform="translate(-4.5)"/><polygon class="cls-2" points="447.63 157.58 243.61 178.14 0 123.48 489.5 123.48 447.63 157.58"/><polygon class="cls-2" points="447.63 7.15 109.37 0 0 36.7 489.5 36.7 447.63 7.15"/></svg>