<svg id="Layer_1" data-name="Layer 1" xmlns="http://www.w3.org/2000/svg" width="500" height="500" viewBox="0 0 500 500"><defs><style>.cls-1{fill:#faf9f9;}.cls-2{fill:#ffd6ba;}.cls-3{fill:#94f7cd;}.cls-4{fill:#c33c54;}</style></defs><title>logo</title><polygon class="cls-1" points="141 370 141 96 0 96 0 362.94 0 500.5 139.91 500 500.38 501.25 427.92 370 141 370"/><polygon class="cls-2" points="269 277 269 0 0 0 0 96 141 96 141 370 246.33 370 247 370 426.5 370 427.5 277 269 277"/><polygon class="cls-3" points="449 0 449 98 395.67 0 269 0 269 277 427.33 277 426.25 369.92 500 500.67 500 0 449 0"/><rect class="cls-4" y="87.33" width="148.33" height="16"/><rect class="cls-4" x="-4.75" y="224.42" width="290.5" height="16" transform="translate(372.92 91.92) rotate(90)"/><rect class="cls-4" y="484" width="500" height="16" transform="translate(500 984) rotate(180)"/><rect class="cls-4" x="-242" y="242" width="500" height="16" transform="translate(258 242) rotate(90)"/><rect class="cls-4" x="126" y="134.5" width="285" height="16" transform="translate(411 -126) rotate(90)"/><polygon class="cls-4" points="484 0 456.5 0 440.67 0 440 0 440 60.89 406 0.56 406 0 0 0 0 16 396.11 16 440 92.89 443.26 98 444.85 98 456 98 456 16 484 16 484 473.41 434 364.76 434 269 418 269 418 269 261 269 261 285 418 285 418 360.92 416.03 362 133 362 133 378 422.21 378 476.89 496.31 484 492.9 484 500 500 500 500 16 500 0 484 0"/></svg>