<svg id="Layer_1" data-name="Layer 1" xmlns="http://www.w3.org/2000/svg" viewBox="0 0 301.97 94.73"><defs><style>.cls-1{fill:#3fa9f5;}.cls-2{fill:#fff;stroke:#fff;stroke-miterlimit:10;stroke-width:2px;}</style></defs><title>logo-name</title><rect class="cls-1" width="301.97" height="94.73" rx="7" ry="7"/><rect class="cls-2" x="10.35" y="8.79" width="281.35" height="77.93"/><path class="cls-1" d="M47.48,71.1H66.14L64.76,78H36.43L36.24,73.3l23-32.93H43.11l1.37-6.87h27L70.56,38Z" transform="translate(-7.13 -11.89)"/><path class="cls-1" d="M81.46,48.61a13,13,0,0,1,4.11-3.19,10.73,10.73,0,0,1,4.75-1.11A7.39,7.39,0,0,1,97,47.81q2.2,3.5.79,10.55L93.92,78H85.13l3.94-19.71q0.82-4.13,0-5.6t-3.36-1.47a6.31,6.31,0,0,0-2.81.66,8.24,8.24,0,0,0-2.44,1.85L75.6,78H66.81l9.53-47.64h8.79Z" transform="translate(-7.13 -11.89)"/><path class="cls-1" d="M111.75,78.61q-6.5,0-9.89-4.61t-2.23-11.6l0.18-1.22a22.09,22.09,0,0,1,5.69-12.28,14.53,14.53,0,0,1,10.92-4.58q6.08,0,9,4.08t1.83,10.86l-0.76,4.86H108.21a8.78,8.78,0,0,0,1.13,5.57,4.92,4.92,0,0,0,4.43,2.07,15.48,15.48,0,0,0,4.55-.61,24.14,24.14,0,0,0,4.31-1.86l1.5,5.51a18.4,18.4,0,0,1-5.36,2.73A21.68,21.68,0,0,1,111.75,78.61Zm3.57-27.42a4.55,4.55,0,0,0-3.62,1.91,12.69,12.69,0,0,0-2.31,5l0.06,0.15h9.34l0.12-.79a7.63,7.63,0,0,0-.38-4.6A3.28,3.28,0,0,0,115.33,51.19Z" transform="translate(-7.13 -11.89)"/><path class="cls-1" d="M140.21,49.22a14.11,14.11,0,0,1,4.46-3.65,11.39,11.39,0,0,1,5.22-1.26,7.22,7.22,0,0,1,6.47,3.19q2.11,3.19.79,9.82L153,78h-8.82l4.12-20.66q0.7-3.55-.17-4.83t-3.37-1.29a5.82,5.82,0,0,0-2.79.74,9,9,0,0,0-2.49,2l-4.79,24h-8.79l6.6-33h8.21Z" transform="translate(-7.13 -11.89)"/><path class="cls-1" d="M170.68,64.1l0,1.07,0.18,0,9.62-20.28h9.47L170,82.91a23.78,23.78,0,0,1-4.82,6,10.67,10.67,0,0,1-7.3,2.41,10,10,0,0,1-1.94-.18q-0.93-.18-2.21-0.52l2.35-6.5,0.73,0.12a5.42,5.42,0,0,0,.76.06,5,5,0,0,0,3.25-1.15A8.72,8.72,0,0,0,163,80.5l1.4-2.5-4.18-33.07h9.47Z" transform="translate(-7.13 -11.89)"/><path class="cls-1" d="M201.52,78a18.51,18.51,0,0,1-.28-1.89q-0.09-1-.09-2a15.54,15.54,0,0,1-4.06,3.27,9.87,9.87,0,0,1-4.86,1.25,8,8,0,0,1-6.5-2.75q-2.29-2.75-1.37-7.21A11.35,11.35,0,0,1,189.28,61q3.88-2.52,10.72-2.52h4l0.52-2.63a5.23,5.23,0,0,0-.31-3.77,3.22,3.22,0,0,0-2.93-1.24,4.61,4.61,0,0,0-3.05,1.07,4.75,4.75,0,0,0-1.62,2.9l-8.46,0-0.06-.18a10.93,10.93,0,0,1,4.89-7.37,17.38,17.38,0,0,1,10.17-2.89,11.13,11.13,0,0,1,8.26,3.05q3,3.05,2,8.52l-2.75,13.65A25.07,25.07,0,0,0,210,74a21.15,21.15,0,0,0,.29,4h-8.79ZM196,72a6.83,6.83,0,0,0,3.19-.84,8.86,8.86,0,0,0,2.67-2.09L203,63.49h-4a5.53,5.53,0,0,0-3.85,1.43,6,6,0,0,0-2,3.42,3.24,3.24,0,0,0,.37,2.72A2.86,2.86,0,0,0,196,72Z" transform="translate(-7.13 -11.89)"/><path class="cls-1" d="M226.65,49.22a14.11,14.11,0,0,1,4.46-3.65,11.38,11.38,0,0,1,5.22-1.26,7.22,7.22,0,0,1,6.47,3.19q2.11,3.19.79,9.82L239.48,78h-8.83l4.12-20.66q0.7-3.55-.17-4.83t-3.37-1.29a5.81,5.81,0,0,0-2.79.74,9,9,0,0,0-2.49,2l-4.79,24h-8.79l6.6-33h8.21Z" transform="translate(-7.13 -11.89)"/><path class="cls-1" d="M245.15,61.11q1.68-8.34,5.34-12.57a12,12,0,0,1,9.5-4.23,8.55,8.55,0,0,1,4.34,1.11,8.79,8.79,0,0,1,3.14,3.1l1.31-3.6h7.66L270,77q-1.4,7-6.11,10.64a18.7,18.7,0,0,1-11.88,3.68,18.3,18.3,0,0,1-4.78-.7,18.8,18.8,0,0,1-4.57-1.86l3-6.66a14.48,14.48,0,0,0,3.57,1.48,16.25,16.25,0,0,0,4.18.5,7.16,7.16,0,0,0,5-1.92A9.41,9.41,0,0,0,261.22,77l0.24-1.31a12,12,0,0,1-3.4,2.18,9.8,9.8,0,0,1-3.8.76,8.59,8.59,0,0,1-8-4.87q-2.67-4.87-1.24-12Zm8.67,0.64q-0.95,4.7-.15,7.34a3.52,3.52,0,0,0,3.76,2.64,5.61,5.61,0,0,0,3-.86,8.46,8.46,0,0,0,2.49-2.46l2.93-14.81a3.81,3.81,0,0,0-1.68-1.81,5.9,5.9,0,0,0-2.84-.62,5.53,5.53,0,0,0-4.61,2.69,18.74,18.74,0,0,0-2.78,7.23Z" transform="translate(-7.13 -11.89)"/></svg>