<svg xmlns="http://www.w3.org/2000/svg" width="95.83" height="60.4" viewBox="0 0 95.83 60.4"><defs><style>.a{fill:#333;}.b{fill:#fff;}.c{fill:none;stroke:#f2f2f2;stroke-miterlimit:10;stroke-width:0.75px;}</style></defs><title>logov4</title><path d="M6.83,4.19a2.25,2.25,0,0,1-.47,1.08,1,1,0,0,1-.76.35A0.64,0.64,0,0,1,5,5.24a1.6,1.6,0,0,1-.06-1.05l0.16-.8A2.23,2.23,0,0,1,5.56,2.3,1,1,0,0,1,6.33,2a0.64,0.64,0,0,1,.6.38A1.63,1.63,0,0,1,7,3.38ZM6.51,3.31a1.7,1.7,0,0,0,0-.74,0.27,0.27,0,0,0-.29-0.22h0a0.45,0.45,0,0,0-.37.24,2,2,0,0,0-.27.72l-0.19.94a1.67,1.67,0,0,0,0,.75,0.27,0.27,0,0,0,.29.22h0A0.44,0.44,0,0,0,6.05,5a2,2,0,0,0,.27-0.73Z" transform="translate(-0.17 -1.95)"/><path d="M8.46,5.56H8L8.59,2.5l-0.67,0L8,2.23,9.17,2Z" transform="translate(-0.17 -1.95)"/><path d="M11.92,4.19a2.25,2.25,0,0,1-.47,1.08,1,1,0,0,1-.76.35,0.64,0.64,0,0,1-.6-0.37A1.6,1.6,0,0,1,10,4.19l0.16-.8a2.23,2.23,0,0,1,.47-1.08A1,1,0,0,1,11.42,2a0.64,0.64,0,0,1,.6.38,1.63,1.63,0,0,1,.06,1.05ZM11.6,3.31a1.7,1.7,0,0,0,0-.74,0.27,0.27,0,0,0-.29-0.22h0a0.45,0.45,0,0,0-.37.24,2,2,0,0,0-.27.72l-0.19.94a1.67,1.67,0,0,0,0,.75,0.27,0.27,0,0,0,.29.22h0A0.44,0.44,0,0,0,11.15,5a2,2,0,0,0,.27-0.73Z" transform="translate(-0.17 -1.95)"/><path d="M14.46,4.19A2.25,2.25,0,0,1,14,5.27a1,1,0,0,1-.76.35,0.64,0.64,0,0,1-.6-0.37,1.6,1.6,0,0,1-.06-1.05l0.16-.8A2.23,2.23,0,0,1,13.2,2.3,1,1,0,0,1,14,2a0.64,0.64,0,0,1,.6.38,1.63,1.63,0,0,1,.06,1.05Zm-0.31-.87a1.7,1.7,0,0,0,0-.74,0.27,0.27,0,0,0-.29-0.22h0a0.45,0.45,0,0,0-.37.24,2,2,0,0,0-.27.72L13,4.25A1.67,1.67,0,0,0,13,5a0.27,0.27,0,0,0,.29.22h0A0.44,0.44,0,0,0,13.69,5,2,2,0,0,0,14,4.25Z" transform="translate(-0.17 -1.95)"/><path d="M16.1,5.56H15.61L16.22,2.5l-0.67,0,0.06-.32L16.81,2Z" transform="translate(-0.17 -1.95)"/><path d="M19.56,4.19a2.25,2.25,0,0,1-.47,1.08,1,1,0,0,1-.76.35,0.64,0.64,0,0,1-.6-0.37,1.6,1.6,0,0,1-.06-1.05l0.16-.8a2.23,2.23,0,0,1,.47-1.08A1,1,0,0,1,19.06,2a0.64,0.64,0,0,1,.6.38,1.63,1.63,0,0,1,.06,1.05Zm-0.31-.87a1.7,1.7,0,0,0,0-.74A0.27,0.27,0,0,0,19,2.35h0a0.45,0.45,0,0,0-.37.24,2,2,0,0,0-.27.72l-0.19.94a1.67,1.67,0,0,0,0,.75,0.27,0.27,0,0,0,.29.22h0A0.44,0.44,0,0,0,18.78,5a2,2,0,0,0,.27-0.73Z" transform="translate(-0.17 -1.95)"/><path d="M22.1,4.19a2.25,2.25,0,0,1-.47,1.08,1,1,0,0,1-.76.35,0.64,0.64,0,0,1-.6-0.37,1.6,1.6,0,0,1-.06-1.05l0.16-.8a2.23,2.23,0,0,1,.47-1.08A1,1,0,0,1,21.6,2a0.64,0.64,0,0,1,.6.38,1.63,1.63,0,0,1,.06,1.05Zm-0.31-.87a1.7,1.7,0,0,0,0-.74,0.27,0.27,0,0,0-.29-0.22h0a0.45,0.45,0,0,0-.37.24,2,2,0,0,0-.27.72l-0.19.94a1.67,1.67,0,0,0,0,.75,0.27,0.27,0,0,0,.29.22h0A0.44,0.44,0,0,0,21.33,5a2,2,0,0,0,.27-0.73Z" transform="translate(-0.17 -1.95)"/><path d="M23.74,5.56H23.25L23.86,2.5l-0.67,0,0.06-.32L24.45,2Z" transform="translate(-0.17 -1.95)"/><path d="M27.19,4.19a2.25,2.25,0,0,1-.47,1.08,1,1,0,0,1-.76.35,0.64,0.64,0,0,1-.6-0.37,1.6,1.6,0,0,1-.06-1.05l0.16-.8a2.23,2.23,0,0,1,.47-1.08A1,1,0,0,1,26.69,2a0.64,0.64,0,0,1,.6.38,1.63,1.63,0,0,1,.06,1.05Zm-0.31-.87a1.7,1.7,0,0,0,0-.74,0.27,0.27,0,0,0-.29-0.22h0a0.45,0.45,0,0,0-.37.24,2,2,0,0,0-.27.72l-0.19.94a1.67,1.67,0,0,0,0,.75,0.27,0.27,0,0,0,.29.22h0A0.44,0.44,0,0,0,26.42,5a2,2,0,0,0,.27-0.73Z" transform="translate(-0.17 -1.95)"/><path d="M29.74,4.19a2.25,2.25,0,0,1-.47,1.08,1,1,0,0,1-.76.35,0.64,0.64,0,0,1-.6-0.37,1.6,1.6,0,0,1-.06-1.05L28,3.38a2.23,2.23,0,0,1,.47-1.08A1,1,0,0,1,29.24,2a0.64,0.64,0,0,1,.6.38,1.63,1.63,0,0,1,.06,1.05Zm-0.31-.87a1.7,1.7,0,0,0,0-.74,0.27,0.27,0,0,0-.29-0.22h0a0.45,0.45,0,0,0-.37.24,2,2,0,0,0-.27.72l-0.19.94a1.67,1.67,0,0,0,0,.75,0.27,0.27,0,0,0,.29.22h0A0.44,0.44,0,0,0,29,5a2,2,0,0,0,.27-0.73Z" transform="translate(-0.17 -1.95)"/><path d="M31.37,5.56H30.89L31.5,2.5l-0.67,0,0.06-.32L32.08,2Z" transform="translate(-0.17 -1.95)"/><path d="M34.83,4.19a2.25,2.25,0,0,1-.47,1.08,1,1,0,0,1-.76.35A0.64,0.64,0,0,1,33,5.24a1.6,1.6,0,0,1-.06-1.05l0.16-.8a2.23,2.23,0,0,1,.47-1.08A1,1,0,0,1,34.33,2a0.64,0.64,0,0,1,.6.38A1.63,1.63,0,0,1,35,3.38Zm-0.31-.87a1.7,1.7,0,0,0,0-.74,0.27,0.27,0,0,0-.29-0.22h0a0.45,0.45,0,0,0-.37.24,2,2,0,0,0-.27.72l-0.19.94a1.67,1.67,0,0,0,0,.75,0.27,0.27,0,0,0,.29.22h0A0.44,0.44,0,0,0,34.06,5a2,2,0,0,0,.27-0.73Z" transform="translate(-0.17 -1.95)"/><path d="M37.38,4.19a2.25,2.25,0,0,1-.47,1.08,1,1,0,0,1-.76.35,0.64,0.64,0,0,1-.6-0.37,1.6,1.6,0,0,1-.06-1.05l0.16-.8a2.23,2.23,0,0,1,.47-1.08A1,1,0,0,1,36.88,2a0.64,0.64,0,0,1,.6.38,1.63,1.63,0,0,1,.06,1.05Zm-0.31-.87a1.7,1.7,0,0,0,0-.74,0.27,0.27,0,0,0-.29-0.22h0a0.45,0.45,0,0,0-.37.24,2,2,0,0,0-.27.72L36,4.25a1.67,1.67,0,0,0,0,.75,0.27,0.27,0,0,0,.29.22h0A0.44,0.44,0,0,0,36.61,5a2,2,0,0,0,.27-0.73Z" transform="translate(-0.17 -1.95)"/><path d="M39.92,4.19a2.25,2.25,0,0,1-.47,1.08,1,1,0,0,1-.76.35,0.64,0.64,0,0,1-.6-0.37A1.6,1.6,0,0,1,38,4.19l0.16-.8a2.23,2.23,0,0,1,.47-1.08A1,1,0,0,1,39.42,2a0.64,0.64,0,0,1,.6.38,1.63,1.63,0,0,1,.06,1.05Zm-0.31-.87a1.7,1.7,0,0,0,0-.74,0.27,0.27,0,0,0-.29-0.22h0a0.45,0.45,0,0,0-.37.24,2,2,0,0,0-.27.72l-0.19.94a1.67,1.67,0,0,0,0,.75,0.27,0.27,0,0,0,.29.22h0A0.44,0.44,0,0,0,39.15,5a2,2,0,0,0,.27-0.73Z" transform="translate(-0.17 -1.95)"/><path d="M42.47,4.19A2.25,2.25,0,0,1,42,5.27a1,1,0,0,1-.76.35,0.64,0.64,0,0,1-.6-0.37,1.6,1.6,0,0,1-.06-1.05l0.16-.8A2.23,2.23,0,0,1,41.2,2.3,1,1,0,0,1,42,2a0.64,0.64,0,0,1,.6.38,1.63,1.63,0,0,1,.06,1.05Zm-0.31-.87a1.7,1.7,0,0,0,0-.74,0.27,0.27,0,0,0-.29-0.22h0a0.45,0.45,0,0,0-.37.24,2,2,0,0,0-.27.72l-0.19.94A1.67,1.67,0,0,0,41,5a0.27,0.27,0,0,0,.29.22h0A0.44,0.44,0,0,0,41.7,5,2,2,0,0,0,42,4.25Z" transform="translate(-0.17 -1.95)"/><path d="M45,4.19a2.25,2.25,0,0,1-.47,1.08,1,1,0,0,1-.76.35,0.64,0.64,0,0,1-.6-0.37,1.6,1.6,0,0,1-.06-1.05l0.16-.8a2.23,2.23,0,0,1,.47-1.08A1,1,0,0,1,44.51,2a0.64,0.64,0,0,1,.6.38,1.63,1.63,0,0,1,.06,1.05ZM44.7,3.31a1.7,1.7,0,0,0,0-.74,0.27,0.27,0,0,0-.29-0.22h0a0.45,0.45,0,0,0-.37.24,2,2,0,0,0-.27.72l-0.19.94a1.67,1.67,0,0,0,0,.75,0.27,0.27,0,0,0,.29.22h0A0.44,0.44,0,0,0,44.24,5a2,2,0,0,0,.27-0.73Z" transform="translate(-0.17 -1.95)"/><path d="M47.56,4.19a2.25,2.25,0,0,1-.47,1.08,1,1,0,0,1-.76.35,0.64,0.64,0,0,1-.6-0.37,1.6,1.6,0,0,1-.06-1.05l0.16-.8A2.23,2.23,0,0,1,46.3,2.3,1,1,0,0,1,47.06,2a0.64,0.64,0,0,1,.6.38,1.63,1.63,0,0,1,.06,1.05Zm-0.31-.87a1.7,1.7,0,0,0,0-.74A0.27,0.27,0,0,0,47,2.35h0a0.45,0.45,0,0,0-.37.24,2,2,0,0,0-.27.72l-0.19.94a1.67,1.67,0,0,0,0,.75,0.27,0.27,0,0,0,.29.22h0A0.44,0.44,0,0,0,46.79,5a2,2,0,0,0,.27-0.73Z" transform="translate(-0.17 -1.95)"/><path d="M49.2,5.56H48.71L49.32,2.5l-0.67,0,0.06-.32L49.91,2Z" transform="translate(-0.17 -1.95)"/><path d="M51.74,5.56H51.25L51.87,2.5l-0.67,0,0.06-.32L52.45,2Z" transform="translate(-0.17 -1.95)"/><path d="M55.2,4.19a2.25,2.25,0,0,1-.47,1.08,1,1,0,0,1-.76.35,0.64,0.64,0,0,1-.6-0.37,1.6,1.6,0,0,1-.06-1.05l0.16-.8a2.23,2.23,0,0,1,.47-1.08A1,1,0,0,1,54.7,2a0.64,0.64,0,0,1,.6.38,1.63,1.63,0,0,1,.06,1.05Zm-0.31-.87a1.7,1.7,0,0,0,0-.74,0.27,0.27,0,0,0-.29-0.22h0a0.45,0.45,0,0,0-.37.24,2,2,0,0,0-.27.72l-0.19.94a1.67,1.67,0,0,0,0,.75,0.27,0.27,0,0,0,.29.22h0A0.44,0.44,0,0,0,54.43,5a2,2,0,0,0,.27-0.73Z" transform="translate(-0.17 -1.95)"/><path d="M57.74,4.19a2.25,2.25,0,0,1-.47,1.08,1,1,0,0,1-.76.35,0.64,0.64,0,0,1-.6-0.37,1.6,1.6,0,0,1-.06-1.05L56,3.38a2.23,2.23,0,0,1,.47-1.08A1,1,0,0,1,57.24,2a0.64,0.64,0,0,1,.6.38,1.63,1.63,0,0,1,.06,1.05Zm-0.31-.87a1.7,1.7,0,0,0,0-.74,0.27,0.27,0,0,0-.29-0.22h0a0.45,0.45,0,0,0-.37.24,2,2,0,0,0-.27.72l-0.19.94a1.67,1.67,0,0,0,0,.75,0.27,0.27,0,0,0,.29.22h0A0.44,0.44,0,0,0,57,5a2,2,0,0,0,.27-0.73Z" transform="translate(-0.17 -1.95)"/><path d="M60.29,4.19a2.25,2.25,0,0,1-.47,1.08,1,1,0,0,1-.76.35,0.64,0.64,0,0,1-.6-0.37,1.6,1.6,0,0,1-.06-1.05l0.16-.8A2.23,2.23,0,0,1,59,2.3,1,1,0,0,1,59.79,2a0.64,0.64,0,0,1,.6.38,1.63,1.63,0,0,1,.06,1.05ZM60,3.31a1.7,1.7,0,0,0,0-.74,0.27,0.27,0,0,0-.29-0.22h0a0.45,0.45,0,0,0-.37.24,2,2,0,0,0-.27.72l-0.19.94a1.67,1.67,0,0,0,0,.75,0.27,0.27,0,0,0,.29.22h0A0.44,0.44,0,0,0,59.52,5a2,2,0,0,0,.27-0.73Z" transform="translate(-0.17 -1.95)"/><path d="M62.84,4.19a2.25,2.25,0,0,1-.47,1.08,1,1,0,0,1-.76.35A0.64,0.64,0,0,1,61,5.24a1.6,1.6,0,0,1-.06-1.05l0.16-.8a2.23,2.23,0,0,1,.47-1.08A1,1,0,0,1,62.34,2a0.64,0.64,0,0,1,.6.38A1.63,1.63,0,0,1,63,3.38Zm-0.31-.87a1.7,1.7,0,0,0,0-.74,0.27,0.27,0,0,0-.29-0.22h0a0.45,0.45,0,0,0-.37.24,2,2,0,0,0-.27.72l-0.19.94a1.67,1.67,0,0,0,0,.75,0.27,0.27,0,0,0,.29.22h0A0.44,0.44,0,0,0,62.07,5a2,2,0,0,0,.27-0.73Z" transform="translate(-0.17 -1.95)"/><path d="M64.47,5.56H64L64.6,2.5l-0.67,0L64,2.23,65.18,2Z" transform="translate(-0.17 -1.95)"/><path d="M67.93,4.19a2.25,2.25,0,0,1-.47,1.08,1,1,0,0,1-.76.35,0.64,0.64,0,0,1-.6-0.37A1.6,1.6,0,0,1,66,4.19l0.16-.8a2.23,2.23,0,0,1,.47-1.08A1,1,0,0,1,67.43,2a0.64,0.64,0,0,1,.6.38,1.63,1.63,0,0,1,.06,1.05Zm-0.31-.87a1.7,1.7,0,0,0,0-.74,0.27,0.27,0,0,0-.29-0.22h0a0.45,0.45,0,0,0-.37.24,2,2,0,0,0-.27.72l-0.19.94a1.67,1.67,0,0,0,0,.75,0.27,0.27,0,0,0,.29.22h0A0.44,0.44,0,0,0,67.16,5a2,2,0,0,0,.27-0.73Z" transform="translate(-0.17 -1.95)"/><path d="M69.56,5.56H69.08L69.69,2.5,69,2.55l0.06-.32L70.27,2Z" transform="translate(-0.17 -1.95)"/><path d="M72.11,5.56H71.62L72.23,2.5l-0.67,0,0.06-.32L72.82,2Z" transform="translate(-0.17 -1.95)"/><path d="M75.57,4.19a2.25,2.25,0,0,1-.47,1.08,1,1,0,0,1-.76.35,0.64,0.64,0,0,1-.6-0.37,1.6,1.6,0,0,1-.06-1.05l0.16-.8A2.23,2.23,0,0,1,74.3,2.3,1,1,0,0,1,75.07,2a0.64,0.64,0,0,1,.6.38,1.63,1.63,0,0,1,.06,1.05Zm-0.31-.87a1.7,1.7,0,0,0,0-.74A0.27,0.27,0,0,0,75,2.35h0a0.45,0.45,0,0,0-.37.24,2,2,0,0,0-.27.72l-0.19.94a1.67,1.67,0,0,0,0,.75,0.27,0.27,0,0,0,.29.22h0A0.44,0.44,0,0,0,74.79,5a2,2,0,0,0,.27-0.73Z" transform="translate(-0.17 -1.95)"/><path d="M77.2,5.56H76.71L77.33,2.5l-0.67,0,0.06-.32L77.91,2Z" transform="translate(-0.17 -1.95)"/><path d="M79.75,5.56H79.26L79.87,2.5l-0.67,0,0.06-.32L80.46,2Z" transform="translate(-0.17 -1.95)"/><path d="M83.2,4.19a2.25,2.25,0,0,1-.47,1.08,1,1,0,0,1-.76.35,0.64,0.64,0,0,1-.6-0.37,1.6,1.6,0,0,1-.06-1.05l0.16-.8a2.23,2.23,0,0,1,.47-1.08A1,1,0,0,1,82.7,2a0.64,0.64,0,0,1,.6.38,1.63,1.63,0,0,1,.06,1.05Zm-0.31-.87a1.7,1.7,0,0,0,0-.74,0.27,0.27,0,0,0-.29-0.22h0a0.45,0.45,0,0,0-.37.24,2,2,0,0,0-.27.72l-0.19.94a1.67,1.67,0,0,0,0,.75,0.27,0.27,0,0,0,.29.22h0A0.44,0.44,0,0,0,82.43,5a2,2,0,0,0,.27-0.73Z" transform="translate(-0.17 -1.95)"/><path d="M84.84,5.56H84.35L85,2.5l-0.67,0,0.06-.32L85.55,2Z" transform="translate(-0.17 -1.95)"/><path d="M88.3,4.19a2.25,2.25,0,0,1-.47,1.08,1,1,0,0,1-.76.35,0.64,0.64,0,0,1-.6-0.37,1.6,1.6,0,0,1-.06-1.05l0.16-.8A2.23,2.23,0,0,1,87,2.3,1,1,0,0,1,87.8,2a0.64,0.64,0,0,1,.6.38,1.63,1.63,0,0,1,.06,1.05ZM88,3.31a1.7,1.7,0,0,0,0-.74,0.27,0.27,0,0,0-.29-0.22h0a0.45,0.45,0,0,0-.37.24,2,2,0,0,0-.27.72l-0.19.94a1.67,1.67,0,0,0,0,.75,0.27,0.27,0,0,0,.29.22h0A0.44,0.44,0,0,0,87.52,5a2,2,0,0,0,.27-0.73Z" transform="translate(-0.17 -1.95)"/><path d="M90.84,4.19a2.25,2.25,0,0,1-.47,1.08,1,1,0,0,1-.76.35A0.64,0.64,0,0,1,89,5.24,1.6,1.6,0,0,1,89,4.19l0.16-.8a2.23,2.23,0,0,1,.47-1.08A1,1,0,0,1,90.34,2a0.64,0.64,0,0,1,.6.38A1.63,1.63,0,0,1,91,3.38Zm-0.31-.87a1.7,1.7,0,0,0,0-.74,0.27,0.27,0,0,0-.29-0.22h0a0.45,0.45,0,0,0-.37.24,2,2,0,0,0-.27.72l-0.19.94a1.67,1.67,0,0,0,0,.75,0.27,0.27,0,0,0,.29.22h0A0.44,0.44,0,0,0,90.07,5a2,2,0,0,0,.27-0.73Z" transform="translate(-0.17 -1.95)"/><path d="M5.92,11.56H5.43L6,8.5l-0.67,0,0.06-.32L6.63,8Z" transform="translate(-0.17 -1.95)"/><path d="M9.37,10.19a2.25,2.25,0,0,1-.47,1.08,1,1,0,0,1-.76.35,0.64,0.64,0,0,1-.6-0.37,1.6,1.6,0,0,1-.06-1.05l0.16-.8A2.23,2.23,0,0,1,8.11,8.3,1,1,0,0,1,8.87,8a0.64,0.64,0,0,1,.6.38,1.63,1.63,0,0,1,.06,1.05ZM9.06,9.31a1.7,1.7,0,0,0,0-.74A0.27,0.27,0,0,0,8.8,8.35h0a0.45,0.45,0,0,0-.37.24,2,2,0,0,0-.27.72L8,10.25a1.67,1.67,0,0,0,0,.75,0.27,0.27,0,0,0,.29.22h0A0.44,0.44,0,0,0,8.6,11a2,2,0,0,0,.27-0.73Z" transform="translate(-0.17 -1.95)"/><path d="M11.92,10.19a2.25,2.25,0,0,1-.47,1.08,1,1,0,0,1-.76.35,0.64,0.64,0,0,1-.6-0.37A1.6,1.6,0,0,1,10,10.19l0.16-.8a2.23,2.23,0,0,1,.47-1.08A1,1,0,0,1,11.42,8a0.64,0.64,0,0,1,.6.38,1.63,1.63,0,0,1,.06,1.05ZM11.6,9.31a1.7,1.7,0,0,0,0-.74,0.27,0.27,0,0,0-.29-0.22h0a0.45,0.45,0,0,0-.37.24,2,2,0,0,0-.27.72l-0.19.94a1.67,1.67,0,0,0,0,.75,0.27,0.27,0,0,0,.29.22h0A0.44,0.44,0,0,0,11.15,11a2,2,0,0,0,.27-0.73Z" transform="translate(-0.17 -1.95)"/><path d="M14.46,10.19A2.25,2.25,0,0,1,14,11.27a1,1,0,0,1-.76.35,0.64,0.64,0,0,1-.6-0.37,1.6,1.6,0,0,1-.06-1.05l0.16-.8A2.23,2.23,0,0,1,13.2,8.3,1,1,0,0,1,14,8a0.64,0.64,0,0,1,.6.38,1.63,1.63,0,0,1,.06,1.05Zm-0.31-.87a1.7,1.7,0,0,0,0-.74,0.27,0.27,0,0,0-.29-0.22h0a0.45,0.45,0,0,0-.37.24,2,2,0,0,0-.27.72L13,10.25A1.67,1.67,0,0,0,13,11a0.27,0.27,0,0,0,.29.22h0A0.44,0.44,0,0,0,13.69,11,2,2,0,0,0,14,10.25Z" transform="translate(-0.17 -1.95)"/><path d="M17,10.19a2.25,2.25,0,0,1-.47,1.08,1,1,0,0,1-.76.35,0.64,0.64,0,0,1-.6-0.37,1.6,1.6,0,0,1-.06-1.05l0.16-.8a2.23,2.23,0,0,1,.47-1.08A1,1,0,0,1,16.51,8a0.64,0.64,0,0,1,.6.38,1.63,1.63,0,0,1,.06,1.05Zm-0.31-.87a1.7,1.7,0,0,0,0-.74,0.27,0.27,0,0,0-.29-0.22h0a0.45,0.45,0,0,0-.37.24,2,2,0,0,0-.27.72l-0.19.94a1.67,1.67,0,0,0,0,.75,0.27,0.27,0,0,0,.29.22h0A0.44,0.44,0,0,0,16.24,11a2,2,0,0,0,.27-0.73Z" transform="translate(-0.17 -1.95)"/><path d="M19.56,10.19a2.25,2.25,0,0,1-.47,1.08,1,1,0,0,1-.76.35,0.64,0.64,0,0,1-.6-0.37,1.6,1.6,0,0,1-.06-1.05l0.16-.8a2.23,2.23,0,0,1,.47-1.08A1,1,0,0,1,19.06,8a0.64,0.64,0,0,1,.6.38,1.63,1.63,0,0,1,.06,1.05Zm-0.31-.87a1.7,1.7,0,0,0,0-.74A0.27,0.27,0,0,0,19,8.35h0a0.45,0.45,0,0,0-.37.24,2,2,0,0,0-.27.72l-0.19.94a1.67,1.67,0,0,0,0,.75,0.27,0.27,0,0,0,.29.22h0A0.44,0.44,0,0,0,18.78,11a2,2,0,0,0,.27-0.73Z" transform="translate(-0.17 -1.95)"/><path d="M22.1,10.19a2.25,2.25,0,0,1-.47,1.08,1,1,0,0,1-.76.35,0.64,0.64,0,0,1-.6-0.37,1.6,1.6,0,0,1-.06-1.05l0.16-.8a2.23,2.23,0,0,1,.47-1.08A1,1,0,0,1,21.6,8a0.64,0.64,0,0,1,.6.38,1.63,1.63,0,0,1,.06,1.05Zm-0.31-.87a1.7,1.7,0,0,0,0-.74,0.27,0.27,0,0,0-.29-0.22h0a0.45,0.45,0,0,0-.37.24,2,2,0,0,0-.27.72l-0.19.94a1.67,1.67,0,0,0,0,.75,0.27,0.27,0,0,0,.29.22h0A0.44,0.44,0,0,0,21.33,11a2,2,0,0,0,.27-0.73Z" transform="translate(-0.17 -1.95)"/><path d="M23.74,11.56H23.25L23.86,8.5l-0.67,0,0.06-.32L24.45,8Z" transform="translate(-0.17 -1.95)"/><path d="M26.28,11.56H25.79L26.41,8.5l-0.67,0,0.06-.32L27,8Z" transform="translate(-0.17 -1.95)"/><path d="M29.74,10.19a2.25,2.25,0,0,1-.47,1.08,1,1,0,0,1-.76.35,0.64,0.64,0,0,1-.6-0.37,1.6,1.6,0,0,1-.06-1.05L28,9.38a2.23,2.23,0,0,1,.47-1.08A1,1,0,0,1,29.24,8a0.64,0.64,0,0,1,.6.38,1.63,1.63,0,0,1,.06,1.05Zm-0.31-.87a1.7,1.7,0,0,0,0-.74,0.27,0.27,0,0,0-.29-0.22h0a0.45,0.45,0,0,0-.37.24,2,2,0,0,0-.27.72l-0.19.94a1.67,1.67,0,0,0,0,.75,0.27,0.27,0,0,0,.29.22h0A0.44,0.44,0,0,0,29,11a2,2,0,0,0,.27-0.73Z" transform="translate(-0.17 -1.95)"/><path d="M32.29,10.19a2.25,2.25,0,0,1-.47,1.08,1,1,0,0,1-.76.35,0.64,0.64,0,0,1-.6-0.37,1.6,1.6,0,0,1-.06-1.05l0.16-.8A2.23,2.23,0,0,1,31,8.3,1,1,0,0,1,31.78,8a0.64,0.64,0,0,1,.6.38,1.63,1.63,0,0,1,.06,1.05ZM32,9.31a1.7,1.7,0,0,0,0-.74,0.27,0.27,0,0,0-.29-0.22h0a0.45,0.45,0,0,0-.37.24,2,2,0,0,0-.27.72l-0.19.94a1.67,1.67,0,0,0,0,.75,0.27,0.27,0,0,0,.29.22h0A0.44,0.44,0,0,0,31.51,11a2,2,0,0,0,.27-0.73Z" transform="translate(-0.17 -1.95)"/><path d="M34.83,10.19a2.25,2.25,0,0,1-.47,1.08,1,1,0,0,1-.76.35,0.64,0.64,0,0,1-.6-0.37,1.6,1.6,0,0,1-.06-1.05l0.16-.8a2.23,2.23,0,0,1,.47-1.08A1,1,0,0,1,34.33,8a0.64,0.64,0,0,1,.6.38A1.63,1.63,0,0,1,35,9.38Zm-0.31-.87a1.7,1.7,0,0,0,0-.74,0.27,0.27,0,0,0-.29-0.22h0a0.45,0.45,0,0,0-.37.24,2,2,0,0,0-.27.72l-0.19.94a1.67,1.67,0,0,0,0,.75,0.27,0.27,0,0,0,.29.22h0A0.44,0.44,0,0,0,34.06,11a2,2,0,0,0,.27-0.73Z" transform="translate(-0.17 -1.95)"/><path d="M37.38,10.19a2.25,2.25,0,0,1-.47,1.08,1,1,0,0,1-.76.35,0.64,0.64,0,0,1-.6-0.37,1.6,1.6,0,0,1-.06-1.05l0.16-.8a2.23,2.23,0,0,1,.47-1.08A1,1,0,0,1,36.88,8a0.64,0.64,0,0,1,.6.38,1.63,1.63,0,0,1,.06,1.05Zm-0.31-.87a1.7,1.7,0,0,0,0-.74,0.27,0.27,0,0,0-.29-0.22h0a0.45,0.45,0,0,0-.37.24,2,2,0,0,0-.27.72L36,10.25a1.67,1.67,0,0,0,0,.75,0.27,0.27,0,0,0,.29.22h0A0.44,0.44,0,0,0,36.61,11a2,2,0,0,0,.27-0.73Z" transform="translate(-0.17 -1.95)"/><path d="M39,11.56H38.52L39.14,8.5l-0.67,0,0.06-.32L39.72,8Z" transform="translate(-0.17 -1.95)"/><path d="M42.47,10.19A2.25,2.25,0,0,1,42,11.27a1,1,0,0,1-.76.35,0.64,0.64,0,0,1-.6-0.37,1.6,1.6,0,0,1-.06-1.05l0.16-.8A2.23,2.23,0,0,1,41.2,8.3,1,1,0,0,1,42,8a0.64,0.64,0,0,1,.6.38,1.63,1.63,0,0,1,.06,1.05Zm-0.31-.87a1.7,1.7,0,0,0,0-.74,0.27,0.27,0,0,0-.29-0.22h0a0.45,0.45,0,0,0-.37.24,2,2,0,0,0-.27.72l-0.19.94A1.67,1.67,0,0,0,41,11a0.27,0.27,0,0,0,.29.22h0A0.44,0.44,0,0,0,41.7,11,2,2,0,0,0,42,10.25Z" transform="translate(-0.17 -1.95)"/><path d="M45,10.19a2.25,2.25,0,0,1-.47,1.08,1,1,0,0,1-.76.35,0.64,0.64,0,0,1-.6-0.37,1.6,1.6,0,0,1-.06-1.05l0.16-.8a2.23,2.23,0,0,1,.47-1.08A1,1,0,0,1,44.51,8a0.64,0.64,0,0,1,.6.38,1.63,1.63,0,0,1,.06,1.05ZM44.7,9.31a1.7,1.7,0,0,0,0-.74,0.27,0.27,0,0,0-.29-0.22h0a0.45,0.45,0,0,0-.37.24,2,2,0,0,0-.27.72l-0.19.94a1.67,1.67,0,0,0,0,.75,0.27,0.27,0,0,0,.29.22h0A0.44,0.44,0,0,0,44.24,11a2,2,0,0,0,.27-0.73Z" transform="translate(-0.17 -1.95)"/><path d="M46.65,11.56H46.16L46.77,8.5l-0.67,0,0.06-.32L47.36,8Z" transform="translate(-0.17 -1.95)"/><path d="M50.11,10.19a2.25,2.25,0,0,1-.47,1.08,1,1,0,0,1-.76.35,0.64,0.64,0,0,1-.6-0.37,1.6,1.6,0,0,1-.06-1.05l0.16-.8a2.23,2.23,0,0,1,.47-1.08A1,1,0,0,1,49.61,8a0.64,0.64,0,0,1,.6.38,1.63,1.63,0,0,1,.06,1.05Zm-0.31-.87a1.7,1.7,0,0,0,0-.74,0.27,0.27,0,0,0-.29-0.22h0a0.45,0.45,0,0,0-.37.24,2,2,0,0,0-.27.72l-0.19.94a1.67,1.67,0,0,0,0,.75,0.27,0.27,0,0,0,.29.22h0A0.44,0.44,0,0,0,49.34,11a2,2,0,0,0,.27-0.73Z" transform="translate(-0.17 -1.95)"/><path d="M52.65,10.19a2.25,2.25,0,0,1-.47,1.08,1,1,0,0,1-.76.35,0.64,0.64,0,0,1-.6-0.37,1.6,1.6,0,0,1-.06-1.05l0.16-.8a2.23,2.23,0,0,1,.47-1.08A1,1,0,0,1,52.15,8a0.64,0.64,0,0,1,.6.38,1.63,1.63,0,0,1,.06,1.05Zm-0.31-.87a1.7,1.7,0,0,0,0-.74,0.27,0.27,0,0,0-.29-0.22h0a0.45,0.45,0,0,0-.37.24,2,2,0,0,0-.27.72l-0.19.94a1.67,1.67,0,0,0,0,.75,0.27,0.27,0,0,0,.29.22h0A0.44,0.44,0,0,0,51.88,11a2,2,0,0,0,.27-0.73Z" transform="translate(-0.17 -1.95)"/><path d="M55.2,10.19a2.25,2.25,0,0,1-.47,1.08,1,1,0,0,1-.76.35,0.64,0.64,0,0,1-.6-0.37,1.6,1.6,0,0,1-.06-1.05l0.16-.8a2.23,2.23,0,0,1,.47-1.08A1,1,0,0,1,54.7,8a0.64,0.64,0,0,1,.6.38,1.63,1.63,0,0,1,.06,1.05Zm-0.31-.87a1.7,1.7,0,0,0,0-.74,0.27,0.27,0,0,0-.29-0.22h0a0.45,0.45,0,0,0-.37.24,2,2,0,0,0-.27.72l-0.19.94a1.67,1.67,0,0,0,0,.75,0.27,0.27,0,0,0,.29.22h0A0.44,0.44,0,0,0,54.43,11a2,2,0,0,0,.27-0.73Z" transform="translate(-0.17 -1.95)"/><path d="M57.74,10.19a2.25,2.25,0,0,1-.47,1.08,1,1,0,0,1-.76.35,0.64,0.64,0,0,1-.6-0.37,1.6,1.6,0,0,1-.06-1.05L56,9.38a2.23,2.23,0,0,1,.47-1.08A1,1,0,0,1,57.24,8a0.64,0.64,0,0,1,.6.38,1.63,1.63,0,0,1,.06,1.05Zm-0.31-.87a1.7,1.7,0,0,0,0-.74,0.27,0.27,0,0,0-.29-0.22h0a0.45,0.45,0,0,0-.37.24,2,2,0,0,0-.27.72l-0.19.94a1.67,1.67,0,0,0,0,.75,0.27,0.27,0,0,0,.29.22h0A0.44,0.44,0,0,0,57,11a2,2,0,0,0,.27-0.73Z" transform="translate(-0.17 -1.95)"/><path d="M60.29,10.19a2.25,2.25,0,0,1-.47,1.08,1,1,0,0,1-.76.35,0.64,0.64,0,0,1-.6-0.37,1.6,1.6,0,0,1-.06-1.05l0.16-.8A2.23,2.23,0,0,1,59,8.3,1,1,0,0,1,59.79,8a0.64,0.64,0,0,1,.6.38,1.63,1.63,0,0,1,.06,1.05ZM60,9.31a1.7,1.7,0,0,0,0-.74,0.27,0.27,0,0,0-.29-0.22h0a0.45,0.45,0,0,0-.37.24,2,2,0,0,0-.27.72l-0.19.94a1.67,1.67,0,0,0,0,.75,0.27,0.27,0,0,0,.29.22h0A0.44,0.44,0,0,0,59.52,11a2,2,0,0,0,.27-0.73Z" transform="translate(-0.17 -1.95)"/><path d="M62.84,10.19a2.25,2.25,0,0,1-.47,1.08,1,1,0,0,1-.76.35,0.64,0.64,0,0,1-.6-0.37,1.6,1.6,0,0,1-.06-1.05l0.16-.8a2.23,2.23,0,0,1,.47-1.08A1,1,0,0,1,62.34,8a0.64,0.64,0,0,1,.6.38A1.63,1.63,0,0,1,63,9.38Zm-0.31-.87a1.7,1.7,0,0,0,0-.74,0.27,0.27,0,0,0-.29-0.22h0a0.45,0.45,0,0,0-.37.24,2,2,0,0,0-.27.72l-0.19.94a1.67,1.67,0,0,0,0,.75,0.27,0.27,0,0,0,.29.22h0A0.44,0.44,0,0,0,62.07,11a2,2,0,0,0,.27-0.73Z" transform="translate(-0.17 -1.95)"/><path d="M64.47,11.56H64L64.6,8.5l-0.67,0L64,8.23,65.18,8Z" transform="translate(-0.17 -1.95)"/><path d="M67,11.56H66.53L67.14,8.5l-0.67,0,0.06-.32L67.73,8Z" transform="translate(-0.17 -1.95)"/><path d="M69.56,11.56H69.08L69.69,8.5,69,8.55l0.06-.32L70.27,8Z" transform="translate(-0.17 -1.95)"/><path d="M73,10.19a2.25,2.25,0,0,1-.47,1.08,1,1,0,0,1-.76.35,0.64,0.64,0,0,1-.6-0.37,1.6,1.6,0,0,1-.06-1.05l0.16-.8a2.23,2.23,0,0,1,.47-1.08A1,1,0,0,1,72.52,8a0.64,0.64,0,0,1,.6.38,1.63,1.63,0,0,1,.06,1.05Zm-0.31-.87a1.7,1.7,0,0,0,0-.74,0.27,0.27,0,0,0-.29-0.22h0a0.45,0.45,0,0,0-.37.24,2,2,0,0,0-.27.72l-0.19.94a1.67,1.67,0,0,0,0,.75,0.27,0.27,0,0,0,.29.22h0A0.44,0.44,0,0,0,72.25,11a2,2,0,0,0,.27-0.73Z" transform="translate(-0.17 -1.95)"/><path d="M75.57,10.19a2.25,2.25,0,0,1-.47,1.08,1,1,0,0,1-.76.35,0.64,0.64,0,0,1-.6-0.37,1.6,1.6,0,0,1-.06-1.05l0.16-.8A2.23,2.23,0,0,1,74.3,8.3,1,1,0,0,1,75.07,8a0.64,0.64,0,0,1,.6.38,1.63,1.63,0,0,1,.06,1.05Zm-0.31-.87a1.7,1.7,0,0,0,0-.74A0.27,0.27,0,0,0,75,8.35h0a0.45,0.45,0,0,0-.37.24,2,2,0,0,0-.27.72l-0.19.94a1.67,1.67,0,0,0,0,.75,0.27,0.27,0,0,0,.29.22h0A0.44,0.44,0,0,0,74.79,11a2,2,0,0,0,.27-0.73Z" transform="translate(-0.17 -1.95)"/><path d="M78.11,10.19a2.25,2.25,0,0,1-.47,1.08,1,1,0,0,1-.76.35,0.64,0.64,0,0,1-.6-0.37,1.6,1.6,0,0,1-.06-1.05l0.16-.8a2.23,2.23,0,0,1,.47-1.08A1,1,0,0,1,77.61,8a0.64,0.64,0,0,1,.6.38,1.63,1.63,0,0,1,.06,1.05ZM77.8,9.31a1.7,1.7,0,0,0,0-.74,0.27,0.27,0,0,0-.29-0.22h0a0.45,0.45,0,0,0-.37.24,2,2,0,0,0-.27.72l-0.19.94a1.67,1.67,0,0,0,0,.75,0.27,0.27,0,0,0,.29.22h0A0.44,0.44,0,0,0,77.34,11a2,2,0,0,0,.27-0.73Z" transform="translate(-0.17 -1.95)"/><path d="M80.66,10.19a2.25,2.25,0,0,1-.47,1.08,1,1,0,0,1-.76.35,0.64,0.64,0,0,1-.6-0.37,1.6,1.6,0,0,1-.06-1.05l0.16-.8a2.23,2.23,0,0,1,.47-1.08A1,1,0,0,1,80.16,8a0.64,0.64,0,0,1,.6.38,1.63,1.63,0,0,1,.06,1.05Zm-0.31-.87a1.7,1.7,0,0,0,0-.74,0.27,0.27,0,0,0-.29-0.22h0a0.45,0.45,0,0,0-.37.24,2,2,0,0,0-.27.72l-0.19.94a1.67,1.67,0,0,0,0,.75,0.27,0.27,0,0,0,.29.22h0A0.44,0.44,0,0,0,79.89,11a2,2,0,0,0,.27-0.73Z" transform="translate(-0.17 -1.95)"/><path d="M83.2,10.19a2.25,2.25,0,0,1-.47,1.08,1,1,0,0,1-.76.35,0.64,0.64,0,0,1-.6-0.37,1.6,1.6,0,0,1-.06-1.05l0.16-.8a2.23,2.23,0,0,1,.47-1.08A1,1,0,0,1,82.7,8a0.64,0.64,0,0,1,.6.38,1.63,1.63,0,0,1,.06,1.05Zm-0.31-.87a1.7,1.7,0,0,0,0-.74,0.27,0.27,0,0,0-.29-0.22h0a0.45,0.45,0,0,0-.37.24,2,2,0,0,0-.27.72l-0.19.94a1.67,1.67,0,0,0,0,.75,0.27,0.27,0,0,0,.29.22h0A0.44,0.44,0,0,0,82.43,11a2,2,0,0,0,.27-0.73Z" transform="translate(-0.17 -1.95)"/><path d="M84.84,11.56H84.35L85,8.5l-0.67,0,0.06-.32L85.55,8Z" transform="translate(-0.17 -1.95)"/><path d="M87.39,11.56H86.9L87.51,8.5l-0.67,0,0.06-.32L88.1,8Z" transform="translate(-0.17 -1.95)"/><path d="M89.93,11.56H89.44L90.06,8.5l-0.67,0,0.06-.32L90.64,8Z" transform="translate(-0.17 -1.95)"/><path d="M6.83,16.19a2.25,2.25,0,0,1-.47,1.08,1,1,0,0,1-.76.35A0.64,0.64,0,0,1,5,17.24a1.6,1.6,0,0,1-.06-1.05l0.16-.8a2.23,2.23,0,0,1,.47-1.08A1,1,0,0,1,6.33,14a0.64,0.64,0,0,1,.6.38A1.63,1.63,0,0,1,7,15.38Zm-0.31-.87a1.7,1.7,0,0,0,0-.74,0.27,0.27,0,0,0-.29-0.22h0a0.45,0.45,0,0,0-.37.24,2,2,0,0,0-.27.72l-0.19.94a1.67,1.67,0,0,0,0,.75,0.27,0.27,0,0,0,.29.22h0A0.44,0.44,0,0,0,6.05,17a2,2,0,0,0,.27-0.73Z" transform="translate(-0.17 -1.95)"/><path d="M9.37,16.19a2.25,2.25,0,0,1-.47,1.08,1,1,0,0,1-.76.35,0.64,0.64,0,0,1-.6-0.37,1.6,1.6,0,0,1-.06-1.05l0.16-.8a2.23,2.23,0,0,1,.47-1.08A1,1,0,0,1,8.87,14a0.64,0.64,0,0,1,.6.38,1.63,1.63,0,0,1,.06,1.05Zm-0.31-.87a1.7,1.7,0,0,0,0-.74,0.27,0.27,0,0,0-.29-0.22h0a0.45,0.45,0,0,0-.37.24,2,2,0,0,0-.27.72L8,16.25a1.67,1.67,0,0,0,0,.75,0.27,0.27,0,0,0,.29.22h0A0.44,0.44,0,0,0,8.6,17a2,2,0,0,0,.27-0.73Z" transform="translate(-0.17 -1.95)"/><path d="M11,17.56H10.52l0.61-3.06-0.67,0,0.06-.32L11.72,14Z" transform="translate(-0.17 -1.95)"/><path d="M14.46,16.19A2.25,2.25,0,0,1,14,17.27a1,1,0,0,1-.76.35,0.64,0.64,0,0,1-.6-0.37,1.6,1.6,0,0,1-.06-1.05l0.16-.8a2.23,2.23,0,0,1,.47-1.08A1,1,0,0,1,14,14a0.64,0.64,0,0,1,.6.38,1.63,1.63,0,0,1,.06,1.05Zm-0.31-.87a1.7,1.7,0,0,0,0-.74,0.27,0.27,0,0,0-.29-0.22h0a0.45,0.45,0,0,0-.37.24,2,2,0,0,0-.27.72L13,16.25A1.67,1.67,0,0,0,13,17a0.27,0.27,0,0,0,.29.22h0A0.44,0.44,0,0,0,13.69,17,2,2,0,0,0,14,16.25Z" transform="translate(-0.17 -1.95)"/><path d="M17,16.19a2.25,2.25,0,0,1-.47,1.08,1,1,0,0,1-.76.35,0.64,0.64,0,0,1-.6-0.37,1.6,1.6,0,0,1-.06-1.05l0.16-.8a2.23,2.23,0,0,1,.47-1.08A1,1,0,0,1,16.51,14a0.64,0.64,0,0,1,.6.38,1.63,1.63,0,0,1,.06,1.05Zm-0.31-.87a1.7,1.7,0,0,0,0-.74,0.27,0.27,0,0,0-.29-0.22h0a0.45,0.45,0,0,0-.37.24,2,2,0,0,0-.27.72l-0.19.94a1.67,1.67,0,0,0,0,.75,0.27,0.27,0,0,0,.29.22h0A0.44,0.44,0,0,0,16.24,17a2,2,0,0,0,.27-0.73Z" transform="translate(-0.17 -1.95)"/><path d="M18.65,17.56H18.16l0.61-3.06-0.67,0,0.06-.32L19.36,14Z" transform="translate(-0.17 -1.95)"/><path d="M21.19,17.56H20.7l0.61-3.06-0.67,0,0.06-.32L21.9,14Z" transform="translate(-0.17 -1.95)"/><path d="M24.65,16.19a2.25,2.25,0,0,1-.47,1.08,1,1,0,0,1-.76.35,0.64,0.64,0,0,1-.6-0.37,1.6,1.6,0,0,1-.06-1.05l0.16-.8a2.23,2.23,0,0,1,.47-1.08A1,1,0,0,1,24.15,14a0.64,0.64,0,0,1,.6.38,1.63,1.63,0,0,1,.06,1.05Zm-0.31-.87a1.7,1.7,0,0,0,0-.74,0.27,0.27,0,0,0-.29-0.22h0a0.45,0.45,0,0,0-.37.24,2,2,0,0,0-.27.72l-0.19.94a1.67,1.67,0,0,0,0,.75,0.27,0.27,0,0,0,.29.22h0A0.44,0.44,0,0,0,23.88,17a2,2,0,0,0,.27-0.73Z" transform="translate(-0.17 -1.95)"/><path d="M26.28,17.56H25.79l0.61-3.06-0.67,0,0.06-.32L27,14Z" transform="translate(-0.17 -1.95)"/><path d="M28.83,17.56H28.34L29,14.5l-0.67,0,0.06-.32L29.54,14Z" transform="translate(-0.17 -1.95)"/><path d="M31.37,17.56H30.89L31.5,14.5l-0.67,0,0.06-.32L32.08,14Z" transform="translate(-0.17 -1.95)"/><path d="M33.92,17.56H33.43L34,14.5l-0.67,0,0.06-.32L34.63,14Z" transform="translate(-0.17 -1.95)"/><path d="M37.38,16.19a2.25,2.25,0,0,1-.47,1.08,1,1,0,0,1-.76.35,0.64,0.64,0,0,1-.6-0.37,1.6,1.6,0,0,1-.06-1.05l0.16-.8a2.23,2.23,0,0,1,.47-1.08A1,1,0,0,1,36.88,14a0.64,0.64,0,0,1,.6.38,1.63,1.63,0,0,1,.06,1.05Zm-0.31-.87a1.7,1.7,0,0,0,0-.74,0.27,0.27,0,0,0-.29-0.22h0a0.45,0.45,0,0,0-.37.24,2,2,0,0,0-.27.72L36,16.25a1.67,1.67,0,0,0,0,.75,0.27,0.27,0,0,0,.29.22h0A0.44,0.44,0,0,0,36.61,17a2,2,0,0,0,.27-0.73Z" transform="translate(-0.17 -1.95)"/><path d="M39,17.56H38.52l0.61-3.06-0.67,0,0.06-.32L39.72,14Z" transform="translate(-0.17 -1.95)"/><path d="M41.56,17.56H41.07l0.61-3.06-0.67,0,0.06-.32L42.27,14Z" transform="translate(-0.17 -1.95)"/><path d="M45,16.19a2.25,2.25,0,0,1-.47,1.08,1,1,0,0,1-.76.35,0.64,0.64,0,0,1-.6-0.37,1.6,1.6,0,0,1-.06-1.05l0.16-.8a2.23,2.23,0,0,1,.47-1.08A1,1,0,0,1,44.51,14a0.64,0.64,0,0,1,.6.38,1.63,1.63,0,0,1,.06,1.05Zm-0.31-.87a1.7,1.7,0,0,0,0-.74,0.27,0.27,0,0,0-.29-0.22h0a0.45,0.45,0,0,0-.37.24,2,2,0,0,0-.27.72l-0.19.94a1.67,1.67,0,0,0,0,.75,0.27,0.27,0,0,0,.29.22h0A0.44,0.44,0,0,0,44.24,17a2,2,0,0,0,.27-0.73Z" transform="translate(-0.17 -1.95)"/><path d="M47.56,16.19a2.25,2.25,0,0,1-.47,1.08,1,1,0,0,1-.76.35,0.64,0.64,0,0,1-.6-0.37,1.6,1.6,0,0,1-.06-1.05l0.16-.8a2.23,2.23,0,0,1,.47-1.08A1,1,0,0,1,47.06,14a0.64,0.64,0,0,1,.6.38,1.63,1.63,0,0,1,.06,1.05Zm-0.31-.87a1.7,1.7,0,0,0,0-.74A0.27,0.27,0,0,0,47,14.35h0a0.45,0.45,0,0,0-.37.24,2,2,0,0,0-.27.72l-0.19.94a1.67,1.67,0,0,0,0,.75,0.27,0.27,0,0,0,.29.22h0A0.44,0.44,0,0,0,46.79,17a2,2,0,0,0,.27-0.73Z" transform="translate(-0.17 -1.95)"/><path d="M49.2,17.56H48.71l0.61-3.06-0.67,0,0.06-.32L49.91,14Z" transform="translate(-0.17 -1.95)"/><path d="M51.74,17.56H51.25l0.61-3.06-0.67,0,0.06-.32L52.45,14Z" transform="translate(-0.17 -1.95)"/><path d="M54.29,17.56H53.8l0.61-3.06-0.67,0,0.06-.32L55,14Z" transform="translate(-0.17 -1.95)"/><path d="M57.74,16.19a2.25,2.25,0,0,1-.47,1.08,1,1,0,0,1-.76.35,0.64,0.64,0,0,1-.6-0.37,1.6,1.6,0,0,1-.06-1.05l0.16-.8a2.23,2.23,0,0,1,.47-1.08A1,1,0,0,1,57.24,14a0.64,0.64,0,0,1,.6.38,1.63,1.63,0,0,1,.06,1.05Zm-0.31-.87a1.7,1.7,0,0,0,0-.74,0.27,0.27,0,0,0-.29-0.22h0a0.45,0.45,0,0,0-.37.24,2,2,0,0,0-.27.72l-0.19.94a1.67,1.67,0,0,0,0,.75,0.27,0.27,0,0,0,.29.22h0A0.44,0.44,0,0,0,57,17a2,2,0,0,0,.27-0.73Z" transform="translate(-0.17 -1.95)"/><path d="M59.38,17.56H58.89L59.5,14.5l-0.67,0,0.06-.32L60.09,14Z" transform="translate(-0.17 -1.95)"/><path d="M61.93,17.56H61.44l0.61-3.06-0.67,0,0.06-.32L62.64,14Z" transform="translate(-0.17 -1.95)"/><path d="M64.47,17.56H64L64.6,14.5l-0.67,0L64,14.23,65.18,14Z" transform="translate(-0.17 -1.95)"/><path d="M67.93,16.19a2.25,2.25,0,0,1-.47,1.08,1,1,0,0,1-.76.35,0.64,0.64,0,0,1-.6-0.37A1.6,1.6,0,0,1,66,16.19l0.16-.8a2.23,2.23,0,0,1,.47-1.08A1,1,0,0,1,67.43,14a0.64,0.64,0,0,1,.6.38,1.63,1.63,0,0,1,.06,1.05Zm-0.31-.87a1.7,1.7,0,0,0,0-.74,0.27,0.27,0,0,0-.29-0.22h0a0.45,0.45,0,0,0-.37.24,2,2,0,0,0-.27.72l-0.19.94a1.67,1.67,0,0,0,0,.75,0.27,0.27,0,0,0,.29.22h0A0.44,0.44,0,0,0,67.16,17a2,2,0,0,0,.27-0.73Z" transform="translate(-0.17 -1.95)"/><path d="M70.47,16.19A2.25,2.25,0,0,1,70,17.27a1,1,0,0,1-.76.35,0.64,0.64,0,0,1-.6-0.37,1.6,1.6,0,0,1-.06-1.05l0.16-.8a2.23,2.23,0,0,1,.47-1.08A1,1,0,0,1,70,14a0.64,0.64,0,0,1,.6.38,1.63,1.63,0,0,1,.06,1.05Zm-0.31-.87a1.7,1.7,0,0,0,0-.74,0.27,0.27,0,0,0-.29-0.22h0a0.45,0.45,0,0,0-.37.24,2,2,0,0,0-.27.72l-0.19.94A1.67,1.67,0,0,0,69,17a0.27,0.27,0,0,0,.29.22h0A0.44,0.44,0,0,0,69.7,17,2,2,0,0,0,70,16.25Z" transform="translate(-0.17 -1.95)"/><path d="M72.11,17.56H71.62l0.61-3.06-0.67,0,0.06-.32L72.82,14Z" transform="translate(-0.17 -1.95)"/><path d="M75.57,16.19a2.25,2.25,0,0,1-.47,1.08,1,1,0,0,1-.76.35,0.64,0.64,0,0,1-.6-0.37,1.6,1.6,0,0,1-.06-1.05l0.16-.8a2.23,2.23,0,0,1,.47-1.08A1,1,0,0,1,75.07,14a0.64,0.64,0,0,1,.6.38,1.63,1.63,0,0,1,.06,1.05Zm-0.31-.87a1.7,1.7,0,0,0,0-.74A0.27,0.27,0,0,0,75,14.35h0a0.45,0.45,0,0,0-.37.24,2,2,0,0,0-.27.72l-0.19.94a1.67,1.67,0,0,0,0,.75,0.27,0.27,0,0,0,.29.22h0A0.44,0.44,0,0,0,74.79,17a2,2,0,0,0,.27-0.73Z" transform="translate(-0.17 -1.95)"/><path d="M78.11,16.19a2.25,2.25,0,0,1-.47,1.08,1,1,0,0,1-.76.35,0.64,0.64,0,0,1-.6-0.37,1.6,1.6,0,0,1-.06-1.05l0.16-.8a2.23,2.23,0,0,1,.47-1.08A1,1,0,0,1,77.61,14a0.64,0.64,0,0,1,.6.38,1.63,1.63,0,0,1,.06,1.05Zm-0.31-.87a1.7,1.7,0,0,0,0-.74,0.27,0.27,0,0,0-.29-0.22h0a0.45,0.45,0,0,0-.37.24,2,2,0,0,0-.27.72l-0.19.94a1.67,1.67,0,0,0,0,.75,0.27,0.27,0,0,0,.29.22h0A0.44,0.44,0,0,0,77.34,17a2,2,0,0,0,.27-0.73Z" transform="translate(-0.17 -1.95)"/><path d="M79.75,17.56H79.26l0.61-3.06-0.67,0,0.06-.32L80.46,14Z" transform="translate(-0.17 -1.95)"/><path d="M82.29,17.56H81.81l0.61-3.06-0.67,0,0.06-.32L83,14Z" transform="translate(-0.17 -1.95)"/><path d="M85.75,16.19a2.25,2.25,0,0,1-.47,1.08,1,1,0,0,1-.76.35,0.64,0.64,0,0,1-.6-0.37,1.6,1.6,0,0,1-.06-1.05l0.16-.8a2.23,2.23,0,0,1,.47-1.08A1,1,0,0,1,85.25,14a0.64,0.64,0,0,1,.6.38,1.63,1.63,0,0,1,.06,1.05Zm-0.31-.87a1.7,1.7,0,0,0,0-.74,0.27,0.27,0,0,0-.29-0.22h0a0.45,0.45,0,0,0-.37.24,2,2,0,0,0-.27.72l-0.19.94a1.67,1.67,0,0,0,0,.75,0.27,0.27,0,0,0,.29.22h0A0.44,0.44,0,0,0,85,17a2,2,0,0,0,.27-0.73Z" transform="translate(-0.17 -1.95)"/><path d="M88.3,16.19a2.25,2.25,0,0,1-.47,1.08,1,1,0,0,1-.76.35,0.64,0.64,0,0,1-.6-0.37,1.6,1.6,0,0,1-.06-1.05l0.16-.8A2.23,2.23,0,0,1,87,14.3,1,1,0,0,1,87.8,14a0.64,0.64,0,0,1,.6.38,1.63,1.63,0,0,1,.06,1.05ZM88,15.31a1.7,1.7,0,0,0,0-.74,0.27,0.27,0,0,0-.29-0.22h0a0.45,0.45,0,0,0-.37.24,2,2,0,0,0-.27.72l-0.19.94a1.67,1.67,0,0,0,0,.75,0.27,0.27,0,0,0,.29.22h0A0.44,0.44,0,0,0,87.52,17a2,2,0,0,0,.27-0.73Z" transform="translate(-0.17 -1.95)"/><path d="M90.84,16.19a2.25,2.25,0,0,1-.47,1.08,1,1,0,0,1-.76.35,0.64,0.64,0,0,1-.6-0.37A1.6,1.6,0,0,1,89,16.19l0.16-.8a2.23,2.23,0,0,1,.47-1.08A1,1,0,0,1,90.34,14a0.64,0.64,0,0,1,.6.38A1.63,1.63,0,0,1,91,15.38Zm-0.31-.87a1.7,1.7,0,0,0,0-.74,0.27,0.27,0,0,0-.29-0.22h0a0.45,0.45,0,0,0-.37.24,2,2,0,0,0-.27.72l-0.19.94a1.67,1.67,0,0,0,0,.75,0.27,0.27,0,0,0,.29.22h0A0.44,0.44,0,0,0,90.07,17a2,2,0,0,0,.27-0.73Z" transform="translate(-0.17 -1.95)"/><path d="M6.83,22.19a2.25,2.25,0,0,1-.47,1.08,1,1,0,0,1-.76.35A0.64,0.64,0,0,1,5,23.24a1.6,1.6,0,0,1-.06-1.05l0.16-.8a2.23,2.23,0,0,1,.47-1.08A1,1,0,0,1,6.33,20a0.64,0.64,0,0,1,.6.38A1.63,1.63,0,0,1,7,21.38Zm-0.31-.87a1.7,1.7,0,0,0,0-.74,0.27,0.27,0,0,0-.29-0.22h0a0.45,0.45,0,0,0-.37.24,2,2,0,0,0-.27.72l-0.19.94a1.67,1.67,0,0,0,0,.75,0.27,0.27,0,0,0,.29.22h0A0.44,0.44,0,0,0,6.05,23a2,2,0,0,0,.27-0.73Z" transform="translate(-0.17 -1.95)"/><path d="M8.46,23.56H8L8.59,20.5l-0.67,0L8,20.23,9.17,20Z" transform="translate(-0.17 -1.95)"/><path d="M11.92,22.19a2.25,2.25,0,0,1-.47,1.08,1,1,0,0,1-.76.35,0.64,0.64,0,0,1-.6-0.37A1.6,1.6,0,0,1,10,22.19l0.16-.8a2.23,2.23,0,0,1,.47-1.08A1,1,0,0,1,11.42,20a0.64,0.64,0,0,1,.6.38,1.63,1.63,0,0,1,.06,1.05Zm-0.31-.87a1.7,1.7,0,0,0,0-.74,0.27,0.27,0,0,0-.29-0.22h0a0.45,0.45,0,0,0-.37.24,2,2,0,0,0-.27.72l-0.19.94a1.67,1.67,0,0,0,0,.75,0.27,0.27,0,0,0,.29.22h0A0.44,0.44,0,0,0,11.15,23a2,2,0,0,0,.27-0.73Z" transform="translate(-0.17 -1.95)"/><path d="M13.55,23.56H13.06l0.61-3.06-0.67,0,0.06-.32L14.26,20Z" transform="translate(-0.17 -1.95)"/><path d="M16.1,23.56H15.61l0.61-3.06-0.67,0,0.06-.32L16.81,20Z" transform="translate(-0.17 -1.95)"/><path d="M19.56,22.19a2.25,2.25,0,0,1-.47,1.08,1,1,0,0,1-.76.35,0.64,0.64,0,0,1-.6-0.37,1.6,1.6,0,0,1-.06-1.05l0.16-.8a2.23,2.23,0,0,1,.47-1.08A1,1,0,0,1,19.06,20a0.64,0.64,0,0,1,.6.38,1.63,1.63,0,0,1,.06,1.05Zm-0.31-.87a1.7,1.7,0,0,0,0-.74A0.27,0.27,0,0,0,19,20.35h0a0.45,0.45,0,0,0-.37.24,2,2,0,0,0-.27.72l-0.19.94a1.67,1.67,0,0,0,0,.75,0.27,0.27,0,0,0,.29.22h0A0.44,0.44,0,0,0,18.78,23a2,2,0,0,0,.27-0.73Z" transform="translate(-0.17 -1.95)"/><path d="M21.19,23.56H20.7l0.61-3.06-0.67,0,0.06-.32L21.9,20Z" transform="translate(-0.17 -1.95)"/><path d="M23.74,23.56H23.25l0.61-3.06-0.67,0,0.06-.32L24.45,20Z" transform="translate(-0.17 -1.95)"/><path d="M27.19,22.19a2.25,2.25,0,0,1-.47,1.08,1,1,0,0,1-.76.35,0.64,0.64,0,0,1-.6-0.37,1.6,1.6,0,0,1-.06-1.05l0.16-.8a2.23,2.23,0,0,1,.47-1.08A1,1,0,0,1,26.69,20a0.64,0.64,0,0,1,.6.38,1.63,1.63,0,0,1,.06,1.05Zm-0.31-.87a1.7,1.7,0,0,0,0-.74,0.27,0.27,0,0,0-.29-0.22h0a0.45,0.45,0,0,0-.37.24,2,2,0,0,0-.27.72l-0.19.94a1.67,1.67,0,0,0,0,.75,0.27,0.27,0,0,0,.29.22h0A0.44,0.44,0,0,0,26.42,23a2,2,0,0,0,.27-0.73Z" transform="translate(-0.17 -1.95)"/><path d="M28.83,23.56H28.34L29,20.5l-0.67,0,0.06-.32L29.54,20Z" transform="translate(-0.17 -1.95)"/><path d="M32.29,22.19a2.25,2.25,0,0,1-.47,1.08,1,1,0,0,1-.76.35,0.64,0.64,0,0,1-.6-0.37,1.6,1.6,0,0,1-.06-1.05l0.16-.8A2.23,2.23,0,0,1,31,20.3,1,1,0,0,1,31.78,20a0.64,0.64,0,0,1,.6.38,1.63,1.63,0,0,1,.06,1.05ZM32,21.31a1.7,1.7,0,0,0,0-.74,0.27,0.27,0,0,0-.29-0.22h0a0.45,0.45,0,0,0-.37.24,2,2,0,0,0-.27.72l-0.19.94a1.67,1.67,0,0,0,0,.75,0.27,0.27,0,0,0,.29.22h0A0.44,0.44,0,0,0,31.51,23a2,2,0,0,0,.27-0.73Z" transform="translate(-0.17 -1.95)"/><path d="M33.92,23.56H33.43L34,20.5l-0.67,0,0.06-.32L34.63,20Z" transform="translate(-0.17 -1.95)"/><path d="M36.47,23.56H36l0.61-3.06-0.67,0L36,20.23,37.18,20Z" transform="translate(-0.17 -1.95)"/><path d="M39.92,22.19a2.25,2.25,0,0,1-.47,1.08,1,1,0,0,1-.76.35,0.64,0.64,0,0,1-.6-0.37A1.6,1.6,0,0,1,38,22.19l0.16-.8a2.23,2.23,0,0,1,.47-1.08A1,1,0,0,1,39.42,20a0.64,0.64,0,0,1,.6.38,1.63,1.63,0,0,1,.06,1.05Zm-0.31-.87a1.7,1.7,0,0,0,0-.74,0.27,0.27,0,0,0-.29-0.22h0a0.45,0.45,0,0,0-.37.24,2,2,0,0,0-.27.72l-0.19.94a1.67,1.67,0,0,0,0,.75,0.27,0.27,0,0,0,.29.22h0A0.44,0.44,0,0,0,39.15,23a2,2,0,0,0,.27-0.73Z" transform="translate(-0.17 -1.95)"/><path d="M41.56,23.56H41.07l0.61-3.06-0.67,0,0.06-.32L42.27,20Z" transform="translate(-0.17 -1.95)"/><path d="M44.1,23.56H43.62l0.61-3.06-0.67,0,0.06-.32L44.81,20Z" transform="translate(-0.17 -1.95)"/><path d="M47.56,22.19a2.25,2.25,0,0,1-.47,1.08,1,1,0,0,1-.76.35,0.64,0.64,0,0,1-.6-0.37,1.6,1.6,0,0,1-.06-1.05l0.16-.8a2.23,2.23,0,0,1,.47-1.08A1,1,0,0,1,47.06,20a0.64,0.64,0,0,1,.6.38,1.63,1.63,0,0,1,.06,1.05Zm-0.31-.87a1.7,1.7,0,0,0,0-.74A0.27,0.27,0,0,0,47,20.35h0a0.45,0.45,0,0,0-.37.24,2,2,0,0,0-.27.72l-0.19.94a1.67,1.67,0,0,0,0,.75,0.27,0.27,0,0,0,.29.22h0A0.44,0.44,0,0,0,46.79,23a2,2,0,0,0,.27-0.73Z" transform="translate(-0.17 -1.95)"/><path d="M49.2,23.56H48.71l0.61-3.06-0.67,0,0.06-.32L49.91,20Z" transform="translate(-0.17 -1.95)"/><path d="M52.65,22.19a2.25,2.25,0,0,1-.47,1.08,1,1,0,0,1-.76.35,0.64,0.64,0,0,1-.6-0.37,1.6,1.6,0,0,1-.06-1.05l0.16-.8a2.23,2.23,0,0,1,.47-1.08A1,1,0,0,1,52.15,20a0.64,0.64,0,0,1,.6.38,1.63,1.63,0,0,1,.06,1.05Zm-0.31-.87a1.7,1.7,0,0,0,0-.74,0.27,0.27,0,0,0-.29-0.22h0a0.45,0.45,0,0,0-.37.24,2,2,0,0,0-.27.72l-0.19.94a1.67,1.67,0,0,0,0,.75,0.27,0.27,0,0,0,.29.22h0A0.44,0.44,0,0,0,51.88,23a2,2,0,0,0,.27-0.73Z" transform="translate(-0.17 -1.95)"/><path d="M54.29,23.56H53.8l0.61-3.06-0.67,0,0.06-.32L55,20Z" transform="translate(-0.17 -1.95)"/><path d="M56.83,23.56H56.35L57,20.5l-0.67,0,0.06-.32L57.54,20Z" transform="translate(-0.17 -1.95)"/><path d="M60.29,22.19a2.25,2.25,0,0,1-.47,1.08,1,1,0,0,1-.76.35,0.64,0.64,0,0,1-.6-0.37,1.6,1.6,0,0,1-.06-1.05l0.16-.8A2.23,2.23,0,0,1,59,20.3,1,1,0,0,1,59.79,20a0.64,0.64,0,0,1,.6.38,1.63,1.63,0,0,1,.06,1.05ZM60,21.31a1.7,1.7,0,0,0,0-.74,0.27,0.27,0,0,0-.29-0.22h0a0.45,0.45,0,0,0-.37.24,2,2,0,0,0-.27.72l-0.19.94a1.67,1.67,0,0,0,0,.75,0.27,0.27,0,0,0,.29.22h0A0.44,0.44,0,0,0,59.52,23a2,2,0,0,0,.27-0.73Z" transform="translate(-0.17 -1.95)"/><path d="M62.84,22.19a2.25,2.25,0,0,1-.47,1.08,1,1,0,0,1-.76.35,0.64,0.64,0,0,1-.6-0.37,1.6,1.6,0,0,1-.06-1.05l0.16-.8a2.23,2.23,0,0,1,.47-1.08A1,1,0,0,1,62.34,20a0.64,0.64,0,0,1,.6.38A1.63,1.63,0,0,1,63,21.38Zm-0.31-.87a1.7,1.7,0,0,0,0-.74,0.27,0.27,0,0,0-.29-0.22h0a0.45,0.45,0,0,0-.37.24,2,2,0,0,0-.27.72l-0.19.94a1.67,1.67,0,0,0,0,.75,0.27,0.27,0,0,0,.29.22h0A0.44,0.44,0,0,0,62.07,23a2,2,0,0,0,.27-0.73Z" transform="translate(-0.17 -1.95)"/><path d="M64.47,23.56H64L64.6,20.5l-0.67,0L64,20.23,65.18,20Z" transform="translate(-0.17 -1.95)"/><path d="M67.93,22.19a2.25,2.25,0,0,1-.47,1.08,1,1,0,0,1-.76.35,0.64,0.64,0,0,1-.6-0.37A1.6,1.6,0,0,1,66,22.19l0.16-.8a2.23,2.23,0,0,1,.47-1.08A1,1,0,0,1,67.43,20a0.64,0.64,0,0,1,.6.38,1.63,1.63,0,0,1,.06,1.05Zm-0.31-.87a1.7,1.7,0,0,0,0-.74,0.27,0.27,0,0,0-.29-0.22h0a0.45,0.45,0,0,0-.37.24,2,2,0,0,0-.27.72l-0.19.94a1.67,1.67,0,0,0,0,.75,0.27,0.27,0,0,0,.29.22h0A0.44,0.44,0,0,0,67.16,23a2,2,0,0,0,.27-0.73Z" transform="translate(-0.17 -1.95)"/><path d="M69.56,23.56H69.08l0.61-3.06-0.67,0,0.06-.32L70.27,20Z" transform="translate(-0.17 -1.95)"/><path d="M73,22.19a2.25,2.25,0,0,1-.47,1.08,1,1,0,0,1-.76.35,0.64,0.64,0,0,1-.6-0.37,1.6,1.6,0,0,1-.06-1.05l0.16-.8a2.23,2.23,0,0,1,.47-1.08A1,1,0,0,1,72.52,20a0.64,0.64,0,0,1,.6.38,1.63,1.63,0,0,1,.06,1.05Zm-0.31-.87a1.7,1.7,0,0,0,0-.74,0.27,0.27,0,0,0-.29-0.22h0a0.45,0.45,0,0,0-.37.24,2,2,0,0,0-.27.72l-0.19.94a1.67,1.67,0,0,0,0,.75,0.27,0.27,0,0,0,.29.22h0A0.44,0.44,0,0,0,72.25,23a2,2,0,0,0,.27-0.73Z" transform="translate(-0.17 -1.95)"/><path d="M74.66,23.56H74.17l0.61-3.06-0.67,0,0.06-.32L75.37,20Z" transform="translate(-0.17 -1.95)"/><path d="M77.2,23.56H76.71l0.61-3.06-0.67,0,0.06-.32L77.91,20Z" transform="translate(-0.17 -1.95)"/><path d="M79.75,23.56H79.26l0.61-3.06-0.67,0,0.06-.32L80.46,20Z" transform="translate(-0.17 -1.95)"/><path d="M83.2,22.19a2.25,2.25,0,0,1-.47,1.08,1,1,0,0,1-.76.35,0.64,0.64,0,0,1-.6-0.37,1.6,1.6,0,0,1-.06-1.05l0.16-.8a2.23,2.23,0,0,1,.47-1.08A1,1,0,0,1,82.7,20a0.64,0.64,0,0,1,.6.38,1.63,1.63,0,0,1,.06,1.05Zm-0.31-.87a1.7,1.7,0,0,0,0-.74,0.27,0.27,0,0,0-.29-0.22h0a0.45,0.45,0,0,0-.37.24,2,2,0,0,0-.27.72l-0.19.94a1.67,1.67,0,0,0,0,.75,0.27,0.27,0,0,0,.29.22h0A0.44,0.44,0,0,0,82.43,23a2,2,0,0,0,.27-0.73Z" transform="translate(-0.17 -1.95)"/><path d="M85.75,22.19a2.25,2.25,0,0,1-.47,1.08,1,1,0,0,1-.76.35,0.64,0.64,0,0,1-.6-0.37,1.6,1.6,0,0,1-.06-1.05l0.16-.8a2.23,2.23,0,0,1,.47-1.08A1,1,0,0,1,85.25,20a0.64,0.64,0,0,1,.6.38,1.63,1.63,0,0,1,.06,1.05Zm-0.31-.87a1.7,1.7,0,0,0,0-.74,0.27,0.27,0,0,0-.29-0.22h0a0.45,0.45,0,0,0-.37.24,2,2,0,0,0-.27.72l-0.19.94a1.67,1.67,0,0,0,0,.75,0.27,0.27,0,0,0,.29.22h0A0.44,0.44,0,0,0,85,23a2,2,0,0,0,.27-0.73Z" transform="translate(-0.17 -1.95)"/><path d="M87.39,23.56H86.9l0.61-3.06-0.67,0,0.06-.32L88.1,20Z" transform="translate(-0.17 -1.95)"/><path d="M90.84,22.19a2.25,2.25,0,0,1-.47,1.08,1,1,0,0,1-.76.35,0.64,0.64,0,0,1-.6-0.37A1.6,1.6,0,0,1,89,22.19l0.16-.8a2.23,2.23,0,0,1,.47-1.08A1,1,0,0,1,90.34,20a0.64,0.64,0,0,1,.6.38A1.63,1.63,0,0,1,91,21.38Zm-0.31-.87a1.7,1.7,0,0,0,0-.74,0.27,0.27,0,0,0-.29-0.22h0a0.45,0.45,0,0,0-.37.24,2,2,0,0,0-.27.72l-0.19.94a1.67,1.67,0,0,0,0,.75,0.27,0.27,0,0,0,.29.22h0A0.44,0.44,0,0,0,90.07,23a2,2,0,0,0,.27-0.73Z" transform="translate(-0.17 -1.95)"/><rect class="a" y="24.21" width="95.83" height="28.23" rx="10.33" ry="10.33"/><path class="b" d="M21.58,44l0.11,0.25,0.15,0.32a0.44,0.44,0,0,1,.06.1,0.25,0.25,0,0,1,0,.09,11,11,0,0,1-1,.42q-0.55.19-1.15,0.36l-0.38.09-0.5.12-0.55.2-0.76.23L17,46.27l-0.55.13c-0.23.06-.44,0.1-0.63,0.13a3.51,3.51,0,0,1-.49,0,1.28,1.28,0,0,1-.78-0.2,0.7,0.7,0,0,1-.26-0.6A2.09,2.09,0,0,1,14.4,45a2.32,2.32,0,0,1,.44-0.7,2.73,2.73,0,0,1,.22-0.3l0.32-.37a3.44,3.44,0,0,0,.32-0.31,7.22,7.22,0,0,0,.48-0.59l0.39-.49L17,41.72l0.23-.31L17.52,41l0.24-.25,0.3-.36q0.23-.3.49-0.68t0.55-.85a12.79,12.79,0,0,0,.69-1.17A1.74,1.74,0,0,0,20,37a0.31,0.31,0,0,0-.13-0.22,1.67,1.67,0,0,0-.41-0.23l-0.41-.15a1.35,1.35,0,0,0-.3-0.06l-0.63,0-0.22-.07-0.26-.07-0.41.13L17,36.25l-0.25,0-0.92.08-0.22-.08a0.22,0.22,0,0,1-.06-0.13l-0.06-.25,0.15-.28,0.2-.39a1.42,1.42,0,0,0,0-.17,0.83,0.83,0,0,1,.34-0.44,1.17,1.17,0,0,1,.64-0.15l0.36,0,0.29,0,0.12,0.09,0.27-.08,0.17,0,1,0.19,0.35,0,0.47,0.08,0.29,0.16,0.42,0.19a1.83,1.83,0,0,1,.56.32,1.68,1.68,0,0,1,.38.45,1.73,1.73,0,0,1,.19.41,1.3,1.3,0,0,1,.06.37,1.83,1.83,0,0,1-.07.51,1.41,1.41,0,0,1-.2.42l-0.11.32a0.91,0.91,0,0,1-.08.18,1.63,1.63,0,0,1-.15.23l-0.31.39a1,1,0,0,1-.15.23,2.25,2.25,0,0,1-.27.27,0.28,0.28,0,0,0-.08.08,0.82,0.82,0,0,0-.09.14,2.83,2.83,0,0,1-.28.45q-0.19.26-.47,0.6l-0.58.69-0.29.37-0.2.17-0.22.22-0.11.25a2.33,2.33,0,0,1-.29.43l-0.7.86a7.67,7.67,0,0,0-.65.81,1.06,1.06,0,0,0-.21.43,0.09,0.09,0,0,0,.07.08l0.32-.06,0.22,0,0.42,0,0.29,0.08a2.89,2.89,0,0,1,.41-0.1l0.3,0a5,5,0,0,0,.79-0.06,3.08,3.08,0,0,0,.67-0.18l0.42-.07,0.57-.14,0.19-.08,0.21-.08L21.38,44Z" transform="translate(-0.17 -1.95)"/><path class="b" d="M30.76,34.82A0.2,0.2,0,0,1,31,35a1.32,1.32,0,0,1,.06.44,6.07,6.07,0,0,1-.07.68q-0.07.49-.19,1.29l0.1,0.54c0,0.13-.09.28-0.13,0.45s-0.08.36-.12,0.56-0.08.43-.12,0.59-0.07.29-.1,0.39l-0.12.48a3.48,3.48,0,0,0-.08.44c0,0.35-.09.68-0.15,1a6.29,6.29,0,0,1-.25.9q-0.11.31-.33,1.2t-0.56,2.33a3.83,3.83,0,0,1-.33,1,0.51,0.51,0,0,1-.4.32,0.22,0.22,0,0,1-.16,0,0.31,0.31,0,0,1-.07-0.17,0.32,0.32,0,0,1,0-.09s0-.13,0-0.29a0.55,0.55,0,0,0,0-.18L28,46.13a1.28,1.28,0,0,0,0-.23,9.22,9.22,0,0,1,.15-1.17q0.15-.88.42-2.37,0.1-.49.19-1.07a0.41,0.41,0,0,0,0-.14,0.06,0.06,0,0,0-.07,0l-0.19.08-0.21-.1a0.89,0.89,0,0,0-.2.15,0.44,0.44,0,0,1-.23.14,3,3,0,0,1-.46-0.05,2.85,2.85,0,0,0-.45-0.05,0.94,0.94,0,0,0-.39.1,1.93,1.93,0,0,0-.43.29,2.9,2.9,0,0,0-.69.19,2,2,0,0,0-.54.33l-0.25.2a0.79,0.79,0,0,0-.1.41q0,0.35,0,1a4.23,4.23,0,0,0,.06.83q0.06,0.27.17,0.27a0.24,0.24,0,0,0,.13,0L25,44.67l0.12-.12a0.67,0.67,0,0,0,.11-0.13h0.07a0.09,0.09,0,0,1,.09,0,0.22,0.22,0,0,1,0,.13l-0.16.33-0.14.25-0.51.77a1,1,0,0,1-.36.31,1,1,0,0,1-.48.11q-0.22,0-.33-0.61a10.86,10.86,0,0,1-.11-1.81,5,5,0,0,0-.06-0.81,2,2,0,0,0-.19-0.59,1.88,1.88,0,0,1-.17-0.38,1,1,0,0,1,0-.28,0.57,0.57,0,0,1,0-.21A0.91,0.91,0,0,1,23,41.42l0.17-.22a0.35,0.35,0,0,0,.07-0.14,2.5,2.5,0,0,0,.1-0.35l0.1-.5a4.27,4.27,0,0,0,.09-0.54q0-.35.06-0.84a6.81,6.81,0,0,1,.17-1.41,1.81,1.81,0,0,0,.11-0.57l0-.21c0-.12,0-0.26,0-0.45S24,35.8,24,35.56a1,1,0,0,0,.17-0.15,2,2,0,0,0,.19-0.24A5.38,5.38,0,0,1,25,35a0.59,0.59,0,0,1,.45.16,0.63,0.63,0,0,1,.15.45,0.85,0.85,0,0,1,0,.23l-0.11.37a4.11,4.11,0,0,0-.16.71q-0.09.51-.2,1.32-0.07.58-.16,1.09t-0.2,1a0.77,0.77,0,0,0,0,.14,0.3,0.3,0,0,0,0,.18,0.15,0.15,0,0,0,.12.05l0.56,0A3.13,3.13,0,0,0,26,40.38h0.64l0.39,0,0.38,0a1.81,1.81,0,0,1,.35.05,1.79,1.79,0,0,0,.37.05l0.26,0a2.8,2.8,0,0,0,.38-0.12,0.55,0.55,0,0,0,.18,0A0.08,0.08,0,0,0,29,40.18l0.1-.27c0-.11.07-0.23,0.11-0.37s0-.28,0-0.46,0-.38.08-0.62c0.08-.44.13-0.81,0.17-1.09a5.6,5.6,0,0,0,.05-0.6,0.45,0.45,0,0,0,0-.12,0.18,0.18,0,0,0-.06-0.09l-0.15-.18a1,1,0,0,1,.12-0.26l0.32-.49A2.09,2.09,0,0,1,30,35.37a2.35,2.35,0,0,1,.32-0.28A3.42,3.42,0,0,1,30.76,34.82Z" transform="translate(-0.17 -1.95)"/><path class="b" d="M38.6,44l0.32,0.76-0.22.18-0.3.2L38,45.26l-0.56.25L37,45.74a0.6,0.6,0,0,1-.21.08,1.61,1.61,0,0,0-.39.09l-0.75.27-0.53.19-0.58.17L34,46.42l-0.32.14H33.41l-0.31,0a0.94,0.94,0,0,1-.36-0.07,0.18,0.18,0,0,1-.12-0.17l0-.32,0-.06a0.66,0.66,0,0,1-.38-0.07,0.45,0.45,0,0,1-.1-0.35c0-.08,0-0.22,0-0.42s0-.45,0-0.76a0.64,0.64,0,0,1,.05-0.17A0.6,0.6,0,0,0,32.3,44a0.49,0.49,0,0,1,0-.13,0.58,0.58,0,0,1,0-.09q0-.32.07-0.8t0.14-1.12A7.89,7.89,0,0,0,32.61,41l0-.75q0.31-1.38.63-2.77A1.43,1.43,0,0,1,33.4,37a2.75,2.75,0,0,1,.33-0.43l0.11-.09,0.11-.19L34.1,36l0.16-.1,0.3-.18,0.19-.16L35,35.34a5.76,5.76,0,0,0,.59-0.4,1.34,1.34,0,0,1,.68-0.26l0.38,0,0.37,0,0.29,0,0.15,0,0.11,0H37.7l0.24,0h0.36a1,1,0,0,1,.49.29,0.7,0.7,0,0,1,.16.46,2.43,2.43,0,0,1-.11.85,0.37,0.37,0,0,1-.35.28,0.7,0.7,0,0,1-.42-0.19,2.47,2.47,0,0,0-1.25-.19L36,36.26a0.31,0.31,0,0,1-.1.1l-0.1,0-0.29-.11a0.77,0.77,0,0,0-.3.27,3.67,3.67,0,0,0-.35.62,0.72,0.72,0,0,0-.06.21,1.75,1.75,0,0,0,0,.29q-0.15.6-.3,1.15t-0.23.91l-0.1.37,0,0.16a0.67,0.67,0,0,0,0,.15,0.28,0.28,0,0,0,0,.17,0.14,0.14,0,0,0,.12.06,1,1,0,0,0,.36-0.27A1.18,1.18,0,0,1,35,40.07L35.37,40l0.37-.14,0.39-.07,0.89-.1,0.23,0.07,0.44-.08,0.23,0.11a1,1,0,0,1,.15.2,2,2,0,0,1,.13.26,2,2,0,0,1-.11.75,0.35,0.35,0,0,1-.32.26L37.33,41l-1.12.11-1.12.1a2.38,2.38,0,0,0-1.07.46,1.16,1.16,0,0,0-.42.83,2.6,2.6,0,0,1-.06.33l-0.12.56,0.06,0.25q-0.07.36-.12,0.67a4.34,4.34,0,0,0,0,.56,0.22,0.22,0,0,0,0,.12,0,0,0,0,0,.06,0L34,45h0.34l0.44,0,0.52,0,0.36-.13a1.31,1.31,0,0,1,.5-0.12,2.43,2.43,0,0,0,.49,0,3.25,3.25,0,0,0,.47-0.13l0.44-.17,0.44-.17,0.22-.09Z" transform="translate(-0.17 -1.95)"/><path class="b" d="M41.06,37.24l-0.13-.54,0.1-.34L41.12,36a0.35,0.35,0,0,1,.17-0.18,0.69,0.69,0,0,1,.32-0.06l0.23,0,0.22,0a0.35,0.35,0,0,1,.2.12,0.66,0.66,0,0,0,.17.13,0.92,0.92,0,0,0,.15-0.14l0.21-.27A1.6,1.6,0,0,1,43,35.34a0.59,0.59,0,0,1,.22-0.12l0.24,0.11a0.19,0.19,0,0,1,.08.07,0.26,0.26,0,0,1,0,.12,0.81,0.81,0,0,1,0,.18q0,0.14-.12.37t-0.14.42a2.6,2.6,0,0,0-.07.26,2.69,2.69,0,0,0-.2.34,0.68,0.68,0,0,0-.07.29,1.89,1.89,0,0,0,.1.49q0.1,0.33.29,0.82,0.27,0.66.54,1.39t0.52,1.54q0.27,0.74.57,1.42a11.33,11.33,0,0,0,.51,1.06,0.63,0.63,0,0,0,.3.35,0.13,0.13,0,0,0,.12-0.1,0.91,0.91,0,0,0,0-.3,1.48,1.48,0,0,1,0-.22A2,2,0,0,1,46,43.54c0-.15.1-0.32,0.14-0.51s0.11-.54.15-0.76l0.12-.56a6.1,6.1,0,0,0,.07-0.63c0-.32.06-0.75,0.08-1.3a1.29,1.29,0,0,1,0-.23q0-.15.05-0.34t0-.33a2,2,0,0,0,0-.24,5.64,5.64,0,0,0,0-.57,5.65,5.65,0,0,1,0-.57q0.12-.52.23-1T47,35.77c0.06-.19.1-0.34,0.14-0.44a2,2,0,0,1,.32-0.52,1.79,1.79,0,0,1,.42-0.36H48a0.14,0.14,0,0,1,.11,0,0.16,0.16,0,0,1,0,.11c0,0.12-.05.2-0.07,0.27l0,0.31a3.32,3.32,0,0,1-.06.35c0,0.06,0,.15,0,0.28s0,0.28,0,.45,0,0.21,0,.43,0,0.51-.09.88c0,0.52-.07,1-0.12,1.55s-0.1,1-.15,1.54-0.11,1.19-.19,1.7a11.91,11.91,0,0,1-.3,1.37,6.36,6.36,0,0,1-.15.81q-0.11.45-.29,1l-0.26.42a3,3,0,0,1-.52.21,4,4,0,0,1-.56.18A0.7,0.7,0,0,1,45,46a6.9,6.9,0,0,1-.59-1q-0.32-.61-0.51-1a3.44,3.44,0,0,1-.24-0.59l0-.19-0.07-.27L43.09,42,42.5,40.75a2.31,2.31,0,0,0-.15-0.35A4,4,0,0,0,42.14,40l-0.06,0a4,4,0,0,0-.12.42l-0.13.6a3.37,3.37,0,0,1-.17.4q-0.12.48-.28,1L41,43.74l-0.1.45q-0.05.23-.12,0.48l-0.15.27c0,0.17,0,.33-0.07.49l-0.15.46-0.21.64a0.48,0.48,0,0,1-.12.29,0.38,0.38,0,0,1-.26.1,0.21,0.21,0,0,1-.07.07,0.51,0.51,0,0,1-.17.07A0.11,0.11,0,0,1,39.5,47a0.85,0.85,0,0,1,0-.3,2.47,2.47,0,0,1,0-.37q0-.25.12-0.63L39.77,45l0.07-.31q0-.2.07-0.52T40,43.42t0.05-.27q0-.16.1-0.38c0-.11.08-0.41,0.17-0.9s0.19-1.17.32-2S40.93,38.1,41.06,37.24Z" transform="translate(-0.17 -1.95)"/><path class="b" d="M55.58,34.69a0.3,0.3,0,0,1,.27.12,0.58,0.58,0,0,1,.08.34,7.62,7.62,0,0,1,0,.79,3.12,3.12,0,0,1-.13.65l-0.24.7-0.23.7a1.47,1.47,0,0,0-.17.21c0,0.12,0,.23,0,0.34a0.22,0.22,0,0,1-.06.12l-0.14.13-0.07.2-0.1.26q-0.22.42-.58,1t-0.88,1.35c0,0.09,0,.17,0,0.25l-0.46,1q-0.24.54-.42,1a6.74,6.74,0,0,0-.27.94L52,45.24a1.49,1.49,0,0,0,0,.23,0.59,0.59,0,0,0,.1.25,0.69,0.69,0,0,1,.1.21,0.83,0.83,0,0,1-.49.47,1.73,1.73,0,0,1-.6.28l-0.26,0-0.25,0a0.7,0.7,0,0,1-.27-0.11,0.22,0.22,0,0,1-.09-0.18A1.73,1.73,0,0,1,50.3,46a4.5,4.5,0,0,1,.19-0.67,2.79,2.79,0,0,1,.28-0.56l0,0a0.23,0.23,0,0,1,0-.08l0-.11c0-.1.07-0.22,0.12-0.37s0.12-.31.2-0.5a2,2,0,0,0,.17-0.35,4.12,4.12,0,0,0,.15-0.5,2.74,2.74,0,0,1-.48-0.51,1.65,1.65,0,0,1-.27-0.56l-0.17-.36q-0.11-.22-0.23-0.53l-0.61-2.12q0-.25-0.07-0.59t-0.15-.79l0.07-.19L49.29,37a1.81,1.81,0,0,0,0-.19c0-.08,0-0.18,0-0.29a2.61,2.61,0,0,1,0-.29c0-.08,0-0.15,0-0.2a1,1,0,0,1,.09-0.47,0.41,0.41,0,0,1,.27-0.21h0.28a2.4,2.4,0,0,0,.61-0.27,0.56,0.56,0,0,1,.37.12,0.61,0.61,0,0,1,.19.34,2,2,0,0,1,0,.33c0,0.14,0,.31,0,0.5s0,0.26,0,.46,0,0.35,0,.44a0.62,0.62,0,0,0,0,.11l0,0.17a6.42,6.42,0,0,0,.06.67q0.05,0.39.14,0.9,0,0.3.15,0.74l0.23,1,0.14,0.2a2.34,2.34,0,0,1,.14.25l0.06,0A1,1,0,0,0,52.21,41q0.19-.38.54-1.13l0.12-.26L53,39.22l0.09-.13,0.12-.2c0-.09.07-0.21,0.12-0.36L53.56,38q0.11-.19.24-0.47t0.3-.66a4.49,4.49,0,0,1,.31-0.54l0.87-1.42a0.68,0.68,0,0,1,.14-0.17A0.22,0.22,0,0,1,55.58,34.69Z" transform="translate(-0.17 -1.95)"/><path class="b" d="M55.45,43.19a0.82,0.82,0,0,1,0-.15s0-.07,0-0.1a1.46,1.46,0,0,1,.07-0.47,0.85,0.85,0,0,1,.2-0.33l0.17-.1,0.36-.16a0.8,0.8,0,0,0,.25-0.18,0.4,0.4,0,0,0,.1-0.25,1.15,1.15,0,0,1,.1-0.27l0.17-.32a5.15,5.15,0,0,0,.2-0.57q0.17-.52.47-1.54,0.08-.31.17-0.53l0.14-.38a4.1,4.1,0,0,1,.44-0.93,3.68,3.68,0,0,0,.25-0.36v0l-0.26-.41,0.32-.37L59,35.65a0.35,0.35,0,0,0,.23-0.23,1.83,1.83,0,0,1,.36-0.47,0.77,0.77,0,0,0,.19-0.1l0.33-.24a1.92,1.92,0,0,1,.3-0.21,0.46,0.46,0,0,1,.19-0.07,0.47,0.47,0,0,1,.32.09,0.31,0.31,0,0,1,.1.24,1.26,1.26,0,0,1-.19.53,1.26,1.26,0,0,0-.19.53,0.23,0.23,0,0,0,0,.14,0.18,0.18,0,0,0,.09.07l1,0.54a0.39,0.39,0,0,1,.15.26,3.74,3.74,0,0,1,.11.63c0,0.22.06,0.41,0.08,0.55a2.8,2.8,0,0,1,0,.35L62,39q0.08,0.46.18,1t-0.11,1a0.18,0.18,0,0,0,0,.09,0.09,0.09,0,0,0,.06,0,0.33,0.33,0,0,1,.21.08,0.24,0.24,0,0,1,.07.18,0.51,0.51,0,0,1,0,.24,0.34,0.34,0,0,1-.13.14l-0.17.12L62,41.91l0.11,0.51L62,43.61a3.71,3.71,0,0,1,0,.38q0,0.23-.07.54c-0.06.15-.1,0.27-0.12,0.37a0.94,0.94,0,0,0,0,.2q0,0.14.07,0.3l-0.1.45-0.1.44a1,1,0,0,1-.24.43,0.5,0.5,0,0,1-.35.14,0.17,0.17,0,0,1-.16-0.1,0.59,0.59,0,0,1-.05-0.29,1.44,1.44,0,0,1,0-.24,1.47,1.47,0,0,0,0-.24,1,1,0,0,0,0-.16,1.07,1.07,0,0,1,0-.17q0-.23,0-0.74t0-.77l-0.08-.29a3,3,0,0,0,0-.32,1.8,1.8,0,0,0,0-.3L60.94,43l-0.11-.77-0.06,0-0.15,0-0.24.12-0.31.07a3.89,3.89,0,0,1-.56,0l-0.28.13a4.36,4.36,0,0,0-.48.15L58.08,43a3.57,3.57,0,0,1-.41.17,1,1,0,0,1-.31.06,0.21,0.21,0,0,0-.17.07,0.56,0.56,0,0,0-.11.22,2,2,0,0,1-.12.37l-0.25.58-0.09.28c0,0.13-.08.29-0.13,0.47l-0.12.27-0.15.38a1.81,1.81,0,0,1,0,.25c0,0.1,0,.21-0.06.34L56,46.77c0,0.12-.11.25-0.18,0.39a0.42,0.42,0,0,1-.19.2,0.72,0.72,0,0,1-.32.06,0.27,0.27,0,0,1-.22-0.1A0.46,0.46,0,0,1,55,47a2.83,2.83,0,0,1,0-.49,4.67,4.67,0,0,1,.16-0.61q0.12-.44.2-0.71a2,2,0,0,0,.09-0.41l0.07-.21,0.12-.37q0.07-.21.14-0.47l0-.07-0.27,0a0.16,0.16,0,0,1-.13-0.07,0.33,0.33,0,0,1,0-.17,0.56,0.56,0,0,1,0-.13S55.42,43.25,55.45,43.19Zm3-1.53A2.58,2.58,0,0,0,59,41.57a2.64,2.64,0,0,1,.56-0.09l0.23,0,0.41-.1,0.41-.1a0.23,0.23,0,0,0,.12-0.06,0.17,0.17,0,0,0,0-.12c0-.17,0-0.28,0-0.34a3.29,3.29,0,0,1,0-.35c0-.13,0-0.26.06-0.4l-0.1-.37,0-.34c0-.12,0-0.24-0.05-0.34a1,1,0,0,1,0-.27l-0.06-.11-0.09-.16-0.17-.27-0.17-.26A0.8,0.8,0,0,0,60,37.69a0.55,0.55,0,0,0-.27-0.08,0.47,0.47,0,0,0-.34.27,3,3,0,0,0-.32.81,2.93,2.93,0,0,1-.14.27q-0.11.21-.32,0.54a3,3,0,0,1-.22.78,11.61,11.61,0,0,1-.53,1.1,0.23,0.23,0,0,0,0,.1s0,0.06,0,.09a0.12,0.12,0,0,0,0,.09,0.12,0.12,0,0,0,.09,0l0.27,0Z" transform="translate(-0.17 -1.95)"/><path class="b" d="M65.4,37.24l-0.13-.54,0.1-.34L65.46,36a0.35,0.35,0,0,1,.17-0.18,0.69,0.69,0,0,1,.32-0.06l0.23,0,0.22,0a0.35,0.35,0,0,1,.2.12,0.66,0.66,0,0,0,.17.13,0.92,0.92,0,0,0,.15-0.14l0.21-.27a1.6,1.6,0,0,1,.21-0.22,0.59,0.59,0,0,1,.22-0.12l0.24,0.11a0.19,0.19,0,0,1,.08.07,0.26,0.26,0,0,1,0,.12,0.81,0.81,0,0,1,0,.18q0,0.14-.12.37t-0.14.42a2.6,2.6,0,0,0-.07.26,2.69,2.69,0,0,0-.2.34,0.68,0.68,0,0,0-.07.29,1.89,1.89,0,0,0,.1.49q0.1,0.33.29,0.82,0.27,0.66.54,1.39t0.52,1.54Q69,42.36,69.27,43a11.33,11.33,0,0,0,.51,1.06,0.63,0.63,0,0,0,.3.35,0.13,0.13,0,0,0,.12-0.1,0.91,0.91,0,0,0,0-.3,1.48,1.48,0,0,1,0-.22,2,2,0,0,1,.07-0.29c0-.15.1-0.32,0.14-0.51s0.11-.54.15-0.76l0.12-.56a6.1,6.1,0,0,0,.07-0.63c0-.32.06-0.75,0.08-1.3a1.29,1.29,0,0,1,0-.23q0-.15.05-0.34t0-.33a2,2,0,0,0,0-.24,5.64,5.64,0,0,0,0-.57,5.65,5.65,0,0,1,0-.57q0.12-.52.23-1t0.17-.72c0.06-.19.1-0.34,0.14-0.44a2,2,0,0,1,.32-0.52,1.79,1.79,0,0,1,.42-0.36h0.07a0.14,0.14,0,0,1,.11,0,0.16,0.16,0,0,1,0,.11c0,0.12-.05.2-0.07,0.27l0,0.31a3.32,3.32,0,0,1-.06.35c0,0.06,0,.15,0,0.28s0,0.28,0,.45,0,0.21,0,.43,0,0.51-.09.88c0,0.52-.07,1-0.12,1.55s-0.1,1-.15,1.54-0.11,1.19-.19,1.7a11.91,11.91,0,0,1-.3,1.37,6.36,6.36,0,0,1-.15.81q-0.11.45-.29,1l-0.26.42a3,3,0,0,1-.52.21,4,4,0,0,1-.56.18A0.7,0.7,0,0,1,69.31,46a6.9,6.9,0,0,1-.59-1q-0.32-.61-0.51-1A3.44,3.44,0,0,1,68,43.4l0-.19-0.07-.27L67.42,42l-0.59-1.28a2.31,2.31,0,0,0-.15-0.35A4,4,0,0,0,66.48,40l-0.06,0a4,4,0,0,0-.12.42l-0.13.6a3.37,3.37,0,0,1-.17.4q-0.12.48-.28,1l-0.34,1.21-0.1.45q-0.05.23-.12,0.48L65,44.94c0,0.17,0,.33-0.07.49l-0.15.46-0.21.64a0.48,0.48,0,0,1-.12.29,0.38,0.38,0,0,1-.26.1,0.21,0.21,0,0,1-.07.07,0.51,0.51,0,0,1-.17.07A0.11,0.11,0,0,1,63.84,47a0.85,0.85,0,0,1,0-.3,2.47,2.47,0,0,1,0-.37q0-.25.12-0.63L64.11,45l0.07-.31q0-.2.07-0.52t0.09-.75,0.05-.27q0-.16.1-0.38c0-.11.08-0.41,0.17-0.9s0.19-1.17.32-2S65.26,38.1,65.4,37.24Z" transform="translate(-0.17 -1.95)"/><path class="b" d="M79.5,35l0.39,0.13,0.39,0.14a0.91,0.91,0,0,1,.2.18c0.09,0.1.21,0.24,0.35,0.42a2.65,2.65,0,0,1,.29.39c0,0.06.09,0.22,0.18,0.47a3.28,3.28,0,0,1,.24.51,1.7,1.7,0,0,1,.15.54,1.15,1.15,0,0,1-.45.73,1.24,1.24,0,0,1-.71.43,0.29,0.29,0,0,1-.25-0.1,0.5,0.5,0,0,1-.08-0.3c0-.22-0.09-0.41-0.12-0.57a3.42,3.42,0,0,0-.62-1.36,1.19,1.19,0,0,0-.94-0.46,1.65,1.65,0,0,0-.55.1,1.55,1.55,0,0,0-.49.29,2.6,2.6,0,0,0-.31.31l-0.46.54-0.09.13-0.14.2L76.3,38,76,38.48q-0.07.22-.15,0.4a1.86,1.86,0,0,1-.18.34,0.42,0.42,0,0,0,0,.13l-0.06.25L75.43,40l-0.15.49q-0.13.9-.19,1.43c0,0.35-.06.58-0.06,0.68a4.2,4.2,0,0,0,.06.71,4.09,4.09,0,0,0,.2.71q0.1,0.26.19,0.44a1.07,1.07,0,0,0,.17.27,0.82,0.82,0,0,0,.32.19,1.29,1.29,0,0,0,.42.07A1.73,1.73,0,0,0,77,44.9a2.07,2.07,0,0,0,.56-0.32l0.3-.3,0.61-.64,0.2-.19,0.26-.27c0.1-.14.2-0.29,0.29-0.43l0.28-.42A1.17,1.17,0,0,1,79.91,42a1,1,0,0,1,.46-0.11,0.74,0.74,0,0,1,.51.15,0.57,0.57,0,0,1,.17.45,1,1,0,0,1-.06.28,2.07,2.07,0,0,0-.08.28q0,0.15,0,.37l-0.07.52a4.09,4.09,0,0,1-.08.66,2.11,2.11,0,0,1-.17.51,3.54,3.54,0,0,0-.23.9,3.42,3.42,0,0,1-.24.91,1,1,0,0,0-.09.26c0,0.12-.06.27-0.09,0.45a1.87,1.87,0,0,1-.08.3,0.48,0.48,0,0,1-.13.2l-0.18.11-0.32.12a0.58,0.58,0,0,1-.12.29,0.28,0.28,0,0,1-.22.1,0.2,0.2,0,0,1-.18-0.1,0.64,0.64,0,0,1-.06-0.32,1.79,1.79,0,0,1,0-.26c0-.12.05-0.27,0.1-0.45a2.9,2.9,0,0,0,.06-0.36c0-.15,0-0.33,0-0.55s0-.28.09-0.52,0.11-.53.2-0.88L79,44.76a1.91,1.91,0,0,0,.06-0.22,0.1,0.1,0,0,0-.12-0.12,3.81,3.81,0,0,0-.48.38l-0.71.6-0.45.34a4.08,4.08,0,0,1-.67.36,2.85,2.85,0,0,1-.7.19l-0.36-.08-0.28,0a1,1,0,0,1-.39-0.09,2.41,2.41,0,0,1-.45-0.27,2.29,2.29,0,0,1-.39-0.4,2.42,2.42,0,0,1-.31-0.56,2.31,2.31,0,0,1-.12-0.4l-0.2-.76a1.54,1.54,0,0,0,.09-0.43,2.55,2.55,0,0,0,0-.5l0.17-1.25a9,9,0,0,1,.78-2.77A7.36,7.36,0,0,1,76,36.72q0.32-.32.53-0.51a2.52,2.52,0,0,0,.27-0.27l0.4-.28,0.48-.28,0.3-.15,0.4-.16L79.13,35,79.39,35Z" transform="translate(-0.17 -1.95)"/><rect class="c" x="2.49" y="26.97" width="91.31" height="22.81" rx="10.33" ry="10.33"/><path class="a" d="M9.74,61.07l0.85-4.27h1.15a1.13,1.13,0,0,1,1,.52,1.59,1.59,0,0,1,.21,1.28l-0.14.72a2.49,2.49,0,0,1-.62,1.29,1.46,1.46,0,0,1-1.08.45H9.74Zm1.55-3.6L10.7,60.41h0.46a0.57,0.57,0,0,0,.49-0.28,2.17,2.17,0,0,0,.3-0.8l0.15-.72a1.33,1.33,0,0,0,0-.82,0.5,0.5,0,0,0-.49-0.31H11.29Z" transform="translate(-0.17 -1.95)"/><path class="a" d="M15.74,61.13a1,1,0,0,1-.84-0.39,1.28,1.28,0,0,1-.19-1l0.07-.45a2,2,0,0,1,.48-1.06,1.22,1.22,0,0,1,.93-0.4,0.84,0.84,0,0,1,.76.38,1.42,1.42,0,0,1,.14,1L17,59.74H15.54a0.87,0.87,0,0,0,0,.52,0.37,0.37,0,0,0,.37.2,1.1,1.1,0,0,0,.36-0.05,2.26,2.26,0,0,0,.36-0.18l0.12,0.53a1.46,1.46,0,0,1-.46.26A1.71,1.71,0,0,1,15.74,61.13Zm0.35-2.62a0.33,0.33,0,0,0-.28.18,1.52,1.52,0,0,0-.18.49h0.66l0-.12a0.91,0.91,0,0,0,0-.42A0.2,0.2,0,0,0,16.09,58.51Z" transform="translate(-0.17 -1.95)"/><path class="a" d="M19.94,59.88v0.21h0L20,59.88l0.64-2h0.86l-1.34,3.17H19.38L19.06,57.9h0.86Z" transform="translate(-0.17 -1.95)"/><path class="a" d="M24.07,61.13a1,1,0,0,1-.84-0.39,1.28,1.28,0,0,1-.19-1l0.07-.45a2,2,0,0,1,.48-1.06,1.22,1.22,0,0,1,.93-0.4,0.84,0.84,0,0,1,.76.38,1.42,1.42,0,0,1,.14,1l-0.08.51H23.86a0.87,0.87,0,0,0,0,.52,0.37,0.37,0,0,0,.37.2,1.1,1.1,0,0,0,.36-0.05A2.26,2.26,0,0,0,25,60.24l0.12,0.53a1.46,1.46,0,0,1-.46.26A1.71,1.71,0,0,1,24.07,61.13Zm0.35-2.62a0.33,0.33,0,0,0-.28.18,1.52,1.52,0,0,0-.18.49h0.66l0-.12a0.91,0.91,0,0,0,0-.42A0.2,0.2,0,0,0,24.42,58.51Z" transform="translate(-0.17 -1.95)"/><path class="a" d="M27.95,61.07H27.12L28,56.5h0.82Z" transform="translate(-0.17 -1.95)"/><path class="a" d="M30.34,59.29a1.9,1.9,0,0,1,.49-1.06,1.3,1.3,0,0,1,1-.39,0.93,0.93,0,0,1,.83.41,1.42,1.42,0,0,1,.17,1l-0.06.39a1.9,1.9,0,0,1-.49,1.06,1.3,1.3,0,0,1-1,.39,0.94,0.94,0,0,1-.84-0.41,1.41,1.41,0,0,1-.17-1Zm0.76,0.39a1.43,1.43,0,0,0,0,.58,0.27,0.27,0,0,0,.29.2,0.39,0.39,0,0,0,.34-0.21,1.59,1.59,0,0,0,.19-0.57L32,59.29a1.43,1.43,0,0,0,0-.58,0.26,0.26,0,0,0-.28-0.21,0.4,0.4,0,0,0-.35.22,1.49,1.49,0,0,0-.19.57Z" transform="translate(-0.17 -1.95)"/><path class="a" d="M37.17,59.63a2.59,2.59,0,0,1-.46,1.13,1,1,0,0,1-.79.38,0.72,0.72,0,0,1-.32-0.07,0.62,0.62,0,0,1-.24-0.2l-0.28,1.43H34.25l0.88-4.39H35.9l0,0.24a1.05,1.05,0,0,1,.29-0.22,0.69,0.69,0,0,1,.32-0.08,0.68,0.68,0,0,1,.65.49,2.14,2.14,0,0,1,.06,1.22v0.06Zm-0.81-.06a2.56,2.56,0,0,0,.06-0.77,0.26,0.26,0,0,0-.24-0.28,0.34,0.34,0,0,0-.21.08,0.87,0.87,0,0,0-.19.23l-0.3,1.52a0.21,0.21,0,0,0,.11.1,0.57,0.57,0,0,0,.2,0,0.4,0.4,0,0,0,.34-0.22,1.93,1.93,0,0,0,.22-0.62V59.56Z" transform="translate(-0.17 -1.95)"/><path class="a" d="M40.12,61.13a1,1,0,0,1-.84-0.39,1.28,1.28,0,0,1-.19-1l0.07-.45a2,2,0,0,1,.48-1.06,1.22,1.22,0,0,1,.93-0.4,0.84,0.84,0,0,1,.76.38,1.42,1.42,0,0,1,.14,1l-0.08.51H39.91a0.87,0.87,0,0,0,0,.52,0.37,0.37,0,0,0,.37.2,1.1,1.1,0,0,0,.36-0.05A2.26,2.26,0,0,0,41,60.24l0.12,0.53a1.46,1.46,0,0,1-.46.26A1.71,1.71,0,0,1,40.12,61.13Zm0.35-2.62a0.33,0.33,0,0,0-.28.18,1.52,1.52,0,0,0-.18.49h0.66l0-.12a0.91,0.91,0,0,0,0-.42A0.2,0.2,0,0,0,40.46,58.51Z" transform="translate(-0.17 -1.95)"/><path class="a" d="M45.06,58.66h-0.3a0.34,0.34,0,0,0-.2.07,0.57,0.57,0,0,0-.16.18L44,61.07H43.13l0.63-3.17h0.77l0,0.39h0A1,1,0,0,1,44.76,58a0.5,0.5,0,0,1,.32-0.12h0.11l0.1,0Z" transform="translate(-0.17 -1.95)"/><path class="a" d="M50,61.86H49.55l0.81-5.06h0.47Z" transform="translate(-0.17 -1.95)"/><path class="a" d="M55.31,61.07l0.85-4.27h1.15a1.13,1.13,0,0,1,1,.52,1.59,1.59,0,0,1,.21,1.28l-0.14.72a2.49,2.49,0,0,1-.62,1.29,1.46,1.46,0,0,1-1.08.45H55.31Zm1.55-3.6-0.59,2.94h0.46a0.57,0.57,0,0,0,.49-0.28,2.17,2.17,0,0,0,.3-0.8l0.15-.72a1.33,1.33,0,0,0,0-.82,0.5,0.5,0,0,0-.49-0.31H56.86Z" transform="translate(-0.17 -1.95)"/><path class="a" d="M61.31,61.13a1,1,0,0,1-.84-0.39,1.28,1.28,0,0,1-.19-1l0.07-.45a2,2,0,0,1,.48-1.06,1.22,1.22,0,0,1,.93-0.4,0.84,0.84,0,0,1,.76.38,1.42,1.42,0,0,1,.14,1l-0.08.51H61.11a0.87,0.87,0,0,0,0,.52,0.37,0.37,0,0,0,.37.2,1.1,1.1,0,0,0,.36-0.05,2.26,2.26,0,0,0,.36-0.18l0.12,0.53a1.46,1.46,0,0,1-.46.26A1.71,1.71,0,0,1,61.31,61.13Zm0.35-2.62a0.33,0.33,0,0,0-.28.18,1.52,1.52,0,0,0-.18.49h0.66l0-.12a0.91,0.91,0,0,0,0-.42A0.2,0.2,0,0,0,61.66,58.51Z" transform="translate(-0.17 -1.95)"/><path class="a" d="M65.81,60.24A0.27,0.27,0,0,0,65.75,60a1.39,1.39,0,0,0-.34-0.24,1.64,1.64,0,0,1-.62-0.4,0.69,0.69,0,0,1-.13-0.59,1,1,0,0,1,.4-0.67,1.28,1.28,0,0,1,.83-0.27,1,1,0,0,1,.75.28,0.78,0.78,0,0,1,.19.71v0H66a0.58,0.58,0,0,0,0-.32,0.2,0.2,0,0,0-.21-0.12,0.32,0.32,0,0,0-.21.09,0.35,0.35,0,0,0-.12.22,0.26,0.26,0,0,0,0,.23,1.46,1.46,0,0,0,.34.24,1.5,1.5,0,0,1,.64.4,0.74,0.74,0,0,1,.13.61,1,1,0,0,1-.41.67,1.41,1.41,0,0,1-.85.25,0.94,0.94,0,0,1-.77-0.32,0.85,0.85,0,0,1-.19-0.72h0.76a0.51,0.51,0,0,0,0,.36,0.3,0.3,0,0,0,.26.11,0.35,0.35,0,0,0,.24-0.08A0.37,0.37,0,0,0,65.81,60.24Z" transform="translate(-0.17 -1.95)"/><path class="a" d="M69.28,61.07H68.46l0.63-3.17h0.82Zm0.79-3.94H69.25l0.13-.63H70.2Z" transform="translate(-0.17 -1.95)"/><path class="a" d="M71.66,59.45a2.83,2.83,0,0,1,.48-1.2,1,1,0,0,1,.81-0.4,0.62,0.62,0,0,1,.34.1,0.74,0.74,0,0,1,.25.27l0.11-.31h0.72L73.74,61a1.76,1.76,0,0,1-.55,1,1.53,1.53,0,0,1-1,.36,1.36,1.36,0,0,1-.4-0.07,1.49,1.49,0,0,1-.38-0.18l0.27-.64a1.1,1.1,0,0,0,.64.19,0.51,0.51,0,0,0,.39-0.19,1.05,1.05,0,0,0,.23-0.5V60.89a1,1,0,0,1-.27.18,0.7,0.7,0,0,1-.29.06,0.69,0.69,0,0,1-.66-0.47,1.89,1.89,0,0,1-.07-1.16V59.45Zm0.81,0.06a2.12,2.12,0,0,0-.05.71,0.25,0.25,0,0,0,.25.25,0.38,0.38,0,0,0,.21-0.07,0.69,0.69,0,0,0,.19-0.19l0.3-1.53a0.26,0.26,0,0,0-.11-0.13,0.4,0.4,0,0,0-.19,0,0.43,0.43,0,0,0-.35.25,2.15,2.15,0,0,0-.24.68v0.06Z" transform="translate(-0.17 -1.95)"/><path class="a" d="M77.18,58.31A1.28,1.28,0,0,1,77.55,58,0.83,0.83,0,0,1,78,57.84a0.55,0.55,0,0,1,.52.31,1.48,1.48,0,0,1,0,1l-0.39,2H77.31l0.39-2a0.9,0.9,0,0,0,0-.47,0.23,0.23,0,0,0-.24-0.12,0.35,0.35,0,0,0-.19.06,0.76,0.76,0,0,0-.18.16l-0.47,2.34H75.82l0.63-3.17h0.77Z" transform="translate(-0.17 -1.95)"/><path class="a" d="M81.46,61.13a1,1,0,0,1-.84-0.39,1.28,1.28,0,0,1-.19-1l0.07-.45A2,2,0,0,1,81,58.24a1.22,1.22,0,0,1,.93-0.4,0.84,0.84,0,0,1,.76.38,1.42,1.42,0,0,1,.14,1l-0.08.51H81.25a0.87,0.87,0,0,0,0,.52,0.37,0.37,0,0,0,.37.2A1.1,1.1,0,0,0,82,60.41a2.26,2.26,0,0,0,.36-0.18l0.12,0.53A1.46,1.46,0,0,1,82,61,1.71,1.71,0,0,1,81.46,61.13Zm0.35-2.62a0.33,0.33,0,0,0-.28.18,1.52,1.52,0,0,0-.18.49H82l0-.12a0.91,0.91,0,0,0,0-.42A0.2,0.2,0,0,0,81.8,58.51Z" transform="translate(-0.17 -1.95)"/><path class="a" d="M86.4,58.66h-0.3a0.34,0.34,0,0,0-.2.07,0.57,0.57,0,0,0-.16.18L85.3,61.07H84.47L85.1,57.9h0.77l0,0.39h0A1,1,0,0,1,86.1,58a0.5,0.5,0,0,1,.32-0.12h0.11l0.1,0Z" transform="translate(-0.17 -1.95)"/></svg>