<svg id="Layer_1" data-name="Layer 1" xmlns="http://www.w3.org/2000/svg" xmlns:xlink="http://www.w3.org/1999/xlink" width="123.02" height="200" viewBox="0 0 123.02 200"><defs><style>.cls-1{fill:#333;}.cls-2,.cls-3,.cls-8{fill:#fff;}.cls-2,.cls-6,.cls-7{stroke:#333;}.cls-2,.cls-3,.cls-6,.cls-7,.cls-9{stroke-miterlimit:10;}.cls-3{stroke:#4d4d4d;}.cls-4{fill:url(#linear-gradient);}.cls-5{fill:url(#linear-gradient-2);}.cls-6,.cls-7,.cls-9{fill:none;}.cls-7{stroke-width:3px;}.cls-9{stroke:#f2f2f2;stroke-width:0.75px;}</style><linearGradient id="linear-gradient" x1="77.25" y1="78.95" x2="107.54" y2="78.95" gradientUnits="userSpaceOnUse"><stop offset="0"/><stop offset="1" stop-color="#fff" stop-opacity="0"/></linearGradient><linearGradient id="linear-gradient-2" x1="129.25" y1="80.26" x2="163.87" y2="80.26" gradientTransform="matrix(-1, 0, 0, 1, 184.79, 0)" xlink:href="#linear-gradient"/></defs><title>logov3</title><rect class="cls-1" x="22.02" y="174.42" width="86.83" height="25.58" rx="10.33" ry="10.33"/><path class="cls-2" d="M123,90.7c0,5-4.95,13-8.58,13s-4.58-4-4.58-9,2.95-9,6.58-9S123,85.73,123,90.7Z" transform="translate(-0.48 0)"/><path class="cls-2" d="M20.83,102.2c0,5,1.05,10-2.58,10s-10.58-8-10.58-13,2.95-8,6.58-8S20.83,97.23,20.83,102.2Z" transform="translate(-0.48 0)"/><path class="cls-3" d="M58.83,169c-16.77-11.66-26.17-16.83-42.67-58.67-1-2.45-.24-7.87-0.17-10.5,0.12-4-4.17-15.33-4.17-15.33L27.67,79.2,35.33,49,95,31l21.17,30.5,0.5,31.83S105.83,154.87,76,170.7C72.43,172.6,62.16,171.34,58.83,169Z" transform="translate(-0.48 0)"/><path class="cls-1" d="M112.67,25.2c3.59,7.53,4,37.25,4,37.25s-11.53-15.79-19-18.75C83.17,37.95,60.38,49,38.17,81.2c-5,7.25-16.25,4.5-16.25,4.5s5.82-3.06,6.5-5C29,79.17,9.87,86.56,9.92,84.45c0.43-18.56-23.5-28.75,3.25-65.5C20,9.57,45.28-3.67,55.92.95,57.59,1.68,61,3.3,65.43,5.43c4.1,2,9.45-4.11,15-2.73C103.42,8.45,107.92,15.25,112.67,25.2Z" transform="translate(-0.48 0)"/><path class="cls-4" d="M107.29,81.7a16.56,16.56,0,0,0-11.5-2.62c-7.19.89-16.89,6.11-18.5,4.5-0.44-.44,2.64-3.48,3.13-3.87,1.94-1.56,11.15-6.22,18-5.62,5.53,0.48,9.13,6.13,9.13,6.13Z" transform="translate(-0.48 0)"/><path class="cls-5" d="M21.54,84.07S30,79.33,37,80.2c7.19,0.89,16.89,6.11,18.5,4.5,0.44-.44-2.64-3.48-3.12-3.87-1.94-1.56-9.61-5.85-16.46-5.25-5.53.48-15,7-15,7Z" transform="translate(-0.48 0)"/><path class="cls-6" d="M72.66,109.58s3.56,12.85-.1,19.3c-1.52,2.68-2-.54-7.43,0" transform="translate(-0.48 0)"/><path class="cls-7" d="M35,96s6.43-2.8,7.83-2.83S51.33,96,51.33,96" transform="translate(-0.48 0)"/><path class="cls-7" d="M84.83,94s6.43-3.8,7.83-3.83,8.5,2.83,8.5,2.83" transform="translate(-0.48 0)"/><path class="cls-1" d="M79,147.75c0,1.45-4,2.62-8.92,2.62s-8.92-1.17-8.92-2.62,4-1.22,8.92-1.22S79,146.3,79,147.75Z" transform="translate(-0.48 0)"/><path class="cls-8" d="M33.39,190.63h4.82v1.24H31.56v-1l4.64-7H31.6v-1.24h6.46v0.93Z" transform="translate(-0.48 0)"/><path class="cls-8" d="M47.37,191.87H45.84v-3.94H41.7v3.94H40.16v-9.24H41.7v4.06h4.14v-4.06h1.54v9.24Z" transform="translate(-0.48 0)"/><path class="cls-8" d="M55.41,187.71h-4v2.92h4.69v1.24H49.83v-9.24H56v1.24H51.37v2.61h4v1.24Z" transform="translate(-0.48 0)"/><path class="cls-8" d="M65,191.87H63.47l-4.1-6.75h0v6.74H57.79v-9.24h1.54l4.1,6.74h0v-6.73H65v9.24Z" transform="translate(-0.48 0)"/><path class="cls-8" d="M70.48,187.12l2.23-4.49h1.72l-3.21,6v3.24H69.69v-3.33l-3.16-5.92h1.72Z" transform="translate(-0.48 0)"/><path class="cls-8" d="M80,189.71H76.37l-0.74,2.16H74.07l3.4-9.24h1.46l3.36,9.24H80.72Zm-3.17-1.29h2.74l-1.34-3.95h0Z" transform="translate(-0.48 0)"/><path class="cls-8" d="M91,191.87H89.47l-4.1-6.75h0v6.74H83.78v-9.24h1.54l4.1,6.74h0v-6.73H91v9.24Z" transform="translate(-0.48 0)"/><path class="cls-8" d="M100.34,190.62a3.22,3.22,0,0,1-1.21,1A4.76,4.76,0,0,1,97,192a3.76,3.76,0,0,1-2.75-1.06,3.65,3.65,0,0,1-1.08-2.73v-1.93a3.77,3.77,0,0,1,1-2.73,3.49,3.49,0,0,1,2.63-1.06,3.69,3.69,0,0,1,2.54.8,2.72,2.72,0,0,1,.92,2.09v0H98.78a1.79,1.79,0,0,0-.54-1.23,2,2,0,0,0-1.42-.47,1.9,1.9,0,0,0-1.55.72,2.77,2.77,0,0,0-.59,1.82v1.94a2.67,2.67,0,0,0,.64,1.84,2.11,2.11,0,0,0,1.65.72,3.42,3.42,0,0,0,1.17-.17,1.63,1.63,0,0,0,.65-0.4v-1.87H97v-1.16h3.38v3.45Z" transform="translate(-0.48 0)"/><rect class="cls-9" x="24.28" y="176.92" width="82.74" height="20.67" rx="10.33" ry="10.33"/></svg>