<svg id="Layer_1" data-name="Layer 1" xmlns="http://www.w3.org/2000/svg" width="500" height="500" viewBox="0 0 500 500"><defs><style>.cls-1{fill:#fff;}</style></defs><title>logo</title><rect width="500" height="500"/><polygon class="cls-1" points="141 370 141 96 0 96 0 362.94 0 500.5 139.91 500 500.38 501.25 427.92 370 141 370"/><polygon points="269 277 269 0 0 0 0 96 141 96 141 370 246.33 370 247 370 426.5 370 427.5 277 269 277"/><polygon class="cls-1" points="449 0 449 98 395.67 0 269 0 269 277 427.33 277 426.25 369.92 500 500.67 500 0 449 0"/><path d="M484,0H440V60.89L406,0.56V0H0V500H500V0H484ZM16,16H260V285H418v75.92L416,362H148V87H16V16Zm0,468V103H132V378H422.21l49,106H16Zm468-10.59L434,364.76V269H276V16H396.11L440,92.89,443.26,98H456V16h28V473.41Z"/></svg>