<svg xmlns="http://www.w3.org/2000/svg" width="500" height="500" viewBox="0 0 500 500"><defs><style>.cls-1,.cls-4{fill:none;}.cls-2{clip-path:url(#clip-path);}.cls-3{fill:#f9c6ce;}.cls-4{stroke:#f1f2f2;stroke-width:2px;}.cls-4,.cls-6{stroke-miterlimit:10;}.cls-5{fill:#fff;}.cls-6{fill:#cae6ca;stroke:#fff;stroke-width:1.81px;}.cls-7{fill:url(#linear-gradient);}.cls-8{fill:#facbd6;}.cls-9{fill:#342f54;}.cls-10{fill:#fefefe;}</style><clipPath id="clip-path"><circle class="cls-1" cx="240.15" cy="204.29" r="185.61"/></clipPath><linearGradient id="linear-gradient" x1="268.88" y1="274.44" x2="282.56" y2="227.41" gradientTransform="translate(141.92 -157.62) rotate(31.89)" gradientUnits="userSpaceOnUse"><stop offset="0" stop-color="#342f54"/><stop offset=".13" stop-color="#483e60"/><stop offset=".41" stop-color="#7b6580"/><stop offset=".8" stop-color="#cca4b2"/><stop offset="1" stop-color="#f9c6ce"/></linearGradient></defs><title>mehmehv3_back</title><g class="cls-2" id="Layer_5_copy"><circle class="cls-3" cx="240.15" cy="204.29" r="185.61"/><circle class="cls-4" cx="240.15" cy="204.29" r="175.61"/><circle class="cls-5" cx="152.79" cy="81.5" r="2.5"/><circle class="cls-5" cx="210.79" cy="95" r="2.5"/><circle class="cls-5" cx="240.79" cy="132.83" r="2.5"/><circle class="cls-5" cx="264.12" cy="70.33" r="2.5"/><circle class="cls-5" cx="208.79" cy="52.67" r="2.5"/><circle class="cls-5" cx="296.12" cy="124.33" r="2.5"/><circle class="cls-5" cx="328.12" cy="92.83" r="2.5"/><circle class="cls-5" cx="150.12" cy="127.67" r="2.5"/><circle class="cls-5" cx="407.46" cy="160.33" r="2.5"/><circle class="cls-5" cx="101.46" cy="117.5" r="2.5"/><circle class="cls-5" cx="92.12" cy="195.33" r="2.5"/><circle class="cls-5" cx="375.46" cy="112.83" r="2.5"/><circle class="cls-5" cx="397.46" cy="200.83" r="2.5"/><circle class="cls-5" cx="313.96" cy="167.75" r="2.5"/><circle class="cls-5" cx="187.46" cy="219" r="2.5"/><circle class="cls-5" cx="356.79" cy="200.83" r="2.5"/><circle class="cls-5" cx="403.96" cy="235.5" r="2.5"/><circle class="cls-5" cx="119.96" cy="285.5" r="2.5"/><circle class="cls-5" cx="184.96" cy="253.5" r="2.5"/><circle class="cls-5" cx="250.46" cy="236.5" r="2.5"/><circle class="cls-5" cx="85.46" cy="248.5" r="2.5"/><path class="cls-6" d="M457.53 164.32a5.17 5.17 0 0 1-.84-.44 46.76 46.76 0 0 0-5.31-3.34 11.39 11.39 0 0 0-2.78-1.2h-.15a.67.67 0 0 0-.77-.34 2.6 2.6 0 0 1-2.21-.94c-.38-.49-.61-.48-1-.22a1.66 1.66 0 0 1-1.8.1.53.53 0 0 0-.77.05 3.16 3.16 0 0 1 .13-1.33h.66c.22 0 .4-.07.37-.33s-.24-.23-.44-.18a4.38 4.38 0 0 1-.58.06c-.93-1.61-1.53-3.38-2.37-5l-.24-.53a2.32 2.32 0 0 0-2.13-1.64 2.23 2.23 0 0 1-1.19-.33 1.43 1.43 0 0 0-.86-.32 7.62 7.62 0 0 0-1.53-.6.21.21 0 0 0-.31.18 1 1 0 0 1 .52.54 1.29 1.29 0 0 0-1.08-.4c-.55.17-1.09-.3-1.65 0h-.27a3.74 3.74 0 0 0-1.67.13 1 1 0 0 0-.72.31.9.9 0 0 0-.46.32.71.71 0 0 0-.15.88v.28l-.15.3a1.91 1.91 0 0 0-1.78 1c-.4.37-1.09.56-.86 1.34l-.14.33h-.14c-.5-.11-.9-.69-1.5-.3a7.65 7.65 0 0 1-2.93 0 1.27 1.27 0 0 0-.93.12l-.13-.13c-.68-.22-1.34-.77-2.08-.15a.56.56 0 0 0-.32-.61c-1.48-.73-2.66-1.94-4.2-2.56a.85.85 0 0 1-.54-.57 2.71 2.71 0 0 0-.72-1.08 7.12 7.12 0 0 0-.89-1.72 2.11 2.11 0 0 0-2.49-.78 9.44 9.44 0 0 0-5.25 4.92.64.64 0 0 1-.57.59l-.18-.27 1.06-2.09a.54.54 0 0 0 .3-.32c.53-.55 1-1.13 1.6-1.63.23-.2.17-.65.44-.63.66 0 .89-.56 1.35-.79a.33.33 0 0 0 .14-.45 2.52 2.52 0 0 0-1.47-1.64 3.17 3.17 0 0 1-.74-.48.88.88 0 0 0-.9-.38h-.28c-.15-.22 0-.49-.11-.71l-.1-.09.05-.16a.54.54 0 0 0-.24-.44.11.11 0 0 0 0-.06l-.34-.34a1.53 1.53 0 0 1-.36-.28.29.29 0 0 1 0-.43v-.29a16.09 16.09 0 0 1-.35-2.23 1.4 1.4 0 0 0-1.83-1.32 2.32 2.32 0 0 0-1 .34.58.58 0 0 1-.56.08 1.83 1.83 0 0 0-1.53.32 6.62 6.62 0 0 0-1.48 1.19l-.46.76a1 1 0 0 1-.59-.32c.76-1.24.61-1.91-.58-2.53a11.39 11.39 0 0 0-3-1.61l-.15-.17-.44-.3-1.77-1.19a.37.37 0 0 0-.1.05.5.5 0 0 1-.12-.34 3.91 3.91 0 0 0-2.24-.68 2.24 2.24 0 0 1 .76.52 11.16 11.16 0 0 0 1.36.79l-.06.12c-.1.19-.15 0 0 .34a1.28 1.28 0 0 0 .63.48 1.64 1.64 0 0 0 .63.16 1 1 0 0 1 .25.44.64.64 0 0 0-.33.16.4.4 0 0 0-.11.26 2 2 0 0 0-.92-.81c-.07 0-.41-.59-.88-1a3.39 3.39 0 0 0-1.11-.67c-.47-.4-.09-.2-.79-.33-.12 0-1.44.31-1.56.33a1.71 1.71 0 0 0-.46.57c-.22.36-.19.82-.34 1a.35.35 0 0 0 .1.27.3.3 0 0 0-.38.05.15.15 0 0 0 .06.07.28.28 0 0 0-.09 0 .18.18 0 0 1-.12 0l-.11-.12a.34.34 0 0 0-.39-.06.35.35 0 0 1 .09-.14.94.94 0 0 0 .27-.24v-.29c-.64-.14-.77.29-.88.76a2.78 2.78 0 0 1-.75.71c-.24-.25-.44-.11-.59.09a.63.63 0 0 1-.75.22l-.26-.14a4.86 4.86 0 0 0-1.51-.75c-.63-.33.17-.89-.2-1.33-.12-.15.34-.1.53-.15a.41.41 0 0 0 .31-.37 1.49 1.49 0 0 1 .54-.84c1.19-1.16.7-2.18-.39-3a.74.74 0 0 1-.55-.68c0-.23-.19-.31-.41-.32s-.32.1-.33.35a1.43 1.43 0 0 1-.74 1.1c-.53.39-1.26.63-1.36 1.45a.28.28 0 0 1-.36.18 4.71 4.71 0 0 0-1.21-.25.45.45 0 0 1-.39-.47c.17-.44-.13-1.17.69-1.26a.82.82 0 0 0 .3-.21c.93-.12 1.39-.89 2-1.47 1-.93 1-1.14.41-2.36a1.2 1.2 0 0 0-1.77-.57 2.14 2.14 0 0 1-1.7.27.35.35 0 0 0-.15.07l.13.26a.2.2 0 0 1-.07.31c-.61-.49-.9-2.34-.51-3.4a.66.66 0 0 1 .39.84.77.77 0 0 0 .34.9c.33.14.5-.24.65-.48a.94.94 0 0 1 .72-.48c.62 0 .42-.34.29-.6-.66-1.33-2-1.55-3.23-1.9.11-.14.3-.2 0-.45a4.35 4.35 0 0 0-1.38-.62l-.43-.43a2.36 2.36 0 0 0-1.8-1 .81.81 0 0 0-.63.63 1.58 1.58 0 0 1-1 1 4 4 0 0 1 .67-1.51c.21-.35.15-.51-.19-.69-.61-.32-1.21-.66-1.81-1-.69-.5-.74-.48-1.06.44l-.29.45-.62.91c-.3-.08-.58-.19-.44-.59.1-.09.19-.22.06-.3-.46-.27-.94-.69-1.41 0l-.32.29s-.3.42-.52.17 0-.41.18-.56c.32-.33.67-.63 1-.94.26-.08.58-.13.16-.45a3.05 3.05 0 0 0-2-.73c-1.61.07-3.21.19-4.82.3a1.47 1.47 0 0 0-.75.28 26.63 26.63 0 0 0-5.19 3.14 21 21 0 0 0-4.43 2.98 5.46 5.46 0 0 0-2.1 1.6 2.82 2.82 0 0 0-1.47.34c-.49.15-.81.6-1.32.71-.05-.16 0-.39-.24-.42a.34.34 0 0 0-.28.3 3.49 3.49 0 0 1-.69.75c-.33.35-.81.7-.41 1.3l-.33.14a.46.46 0 0 0-.45.46 1 1 0 0 0-.29.31c-.4.54-.25 1.35-.87 1.78a5 5 0 0 0-1.51-.15h.14-.08a.18.18 0 0 1-.06 0h-2c-.45 0-.78.18-.64.73v.15c-.35-.36-.67-.88-1.18-.17-.84-.24-1.38-1-2.18-1.29-.44-.18-.79-.25-1 .24a7.66 7.66 0 0 1-1.82 0c-.07-.2-.06-.5-.32-.5s-.27.29-.3.5a.22.22 0 0 1-.13 0 1.22 1.22 0 0 1-.05-.85c.57-.54.14-.85-.24-1.09-1-.62-1.64-1.6-2.61-2.22-.79 1.16-.87 1.42-.67 2.1-.32.32-.24 1-.89 1-.57-.24-1.07.32-1.63.16h-.14a.46.46 0 0 1 .28-.43 1.72 1.72 0 0 0 .73-.44c.12-.2.52-.28.14-.66s-.08-.61.34-.63a3.71 3.71 0 0 1 .75.1c-.12-.3-.61-.25-.54-.57s.47-.13.7-.21a.56.56 0 0 0 .41-.82l-.46-.31c-1.39-.46-1.39-.46-1.93.46l-.28.58a.27.27 0 0 1-.31-.28.88.88 0 0 0 .16-1.05.61.61 0 0 0 .27-.92.64.64 0 0 0-.86-.37q-2 .76-4 1.58a1.7 1.7 0 0 1-1.12.19 1.28 1.28 0 0 0-1.27.52 1 1 0 0 0 .18 1.1 1.27 1.27 0 0 0 .33.29c-1.19.67-1.87 1.93-3 2.66l-.7.71a.52.52 0 0 0-.2.1 4.73 4.73 0 0 1-3.81 1.92 1.7 1.7 0 0 0-1.42.75.49.49 0 0 1-.82.23.48.48 0 0 0 .06-.73.63.63 0 0 1-.62.62.39.39 0 0 0-.34.4l-.43.34a.9.9 0 0 0-1.21.13c-.8.46-.94 1.51-1.77 2a1.48 1.48 0 0 0-.16.62 5 5 0 0 1-.31 1.42 2.35 2.35 0 0 0-.34 2.58c-.31.19-.82 0-.83.59a1.44 1.44 0 0 1-1.63 1.43c-1.1-.06-.59 1.54-1.64 1.54-.18 0-.11.28-.06.45s0 .15.05.21a1.82 1.82 0 0 1-.1 1.64.69.69 0 0 0-.13.49c.4.82-.05 1.65.08 2.47a3.38 3.38 0 0 1-.6 2c-.44.91-1.3 1.56-1.76 2.48 0 .72-.65 1.23-.73 2.06a7.77 7.77 0 0 0 1-1.9.64.64 0 0 1 1.14-.12 1 1 0 0 0 1.65.07.29.29 0 0 1 .32-.12 5.85 5.85 0 0 0 2.24-.17c.5 0 1.28-.21 1.38.45a1.27 1.27 0 0 0 .9 1 .84.84 0 0 0 1.38-.59c.24-.89.35-.93 1.15-.42.12.08.43.08.24.33s-.18.63-.48.43c-.62-.41-.69.13-.9.44a1.09 1.09 0 0 1-1.63.44.45.45 0 0 0-.51-.1.75.75 0 0 1-.63 1.14c-.43.08-.13.61-.38.85-.05 0 .11.2.24.23a.68.68 0 0 1 .66 1c-.07.22.11.22.25.26s.42-.21.65.07a2.21 2.21 0 0 0-.68 1.48.38.38 0 0 1-.37.38c-.28 0-.76.27-.8 0-.06-.53-.72-.77-.55-1.36a.9.9 0 0 0-1-1.31 18.48 18.48 0 0 0-2.94.23 2.65 2.65 0 0 1-1.65.07.45.45 0 0 0-.68.17l-1.14 1.46a.64.64 0 0 0 0 .94 2 2 0 0 1 .72 1.55.75.75 0 0 0 .42.73c.14.05.3.21.15.33a2.86 2.86 0 0 0-.47 1c-.76-.28-.67-1-.8-1.51s-.42-.62-.82-.37c-.68.42-1.55 0-2.2.56a.72.72 0 0 1-.34-.1l.3-1a2.58 2.58 0 0 0 .74-1.34 1.82 1.82 0 0 0 .51-1 2.49 2.49 0 0 0-.66 1.05 6.38 6.38 0 0 0-.6 1.33 3.12 3.12 0 0 0-.74 1.34 1.37 1.37 0 0 1-.59.74c-1 .17-1.08 1-1.2 1.78-.43.46-.35 1.15-.73 1.64l.09.09a.21.21 0 0 0-.09-.09c-.51-.61-.92-.21-1.34.13-.1.17-.49.07-.41.32a2.81 2.81 0 0 0 .26 1.33c0 .45.59.34.63.74l-.32.75a1 1 0 0 0-.43 1.17c-.41 1.31-.75 2.66-1.25 3.93-1.39 3.51-2.61 7.09-4 10.61a34.8 34.8 0 0 1-1.64 4.19c-.4.43-.79.86-.3 1.48l.16.41a2.62 2.62 0 0 0 .72 1.36c.2.37.4.74.61 1.1a.44.44 0 0 1 0 .59c-.64.78-1.34 1.56-.93 2.72a.3.3 0 0 1-.08.27c-.6.47-.93 1.46-2 1-.74-.34-1.06.12-1.12.78a3.34 3.34 0 0 1-.73 1.65 10.73 10.73 0 0 0-1.87 4c-.11.52 0 .65.53.66 1.16 0 1.16 0 1.18 1.19v.37a.32.32 0 0 0 .36.36c.53 0 .68.22.65.72s-.44.49-.79.47c-.5 0-.65.16-.59.65a6.1 6.1 0 0 1 0 1.55c-.07.51.07.68.56.63h.44c.46 0 .52.22.52.6s-.07.62-.52.6h-1.85a.48.48 0 0 0-.59.49.53.53 0 0 0 .52.66 4.13 4.13 0 0 0 1 0 .9.9 0 0 1 1.2.83.67.67 0 0 0 .91.66.93.93 0 0 1 1.12.62 5.3 5.3 0 0 1 .63 2.78h.15a3.4 3.4 0 0 0-.26-2.22c-.39-.77-.23-1 .63-1s1.2-.34.78-1.24c-.7-1.47-1.44-2.92-2.1-4.4-.42-.94-.61-1.85.79-2.24a4 4 0 0 0 1.2-.71 12.8 12.8 0 0 0 3-1.39 5.42 5.42 0 0 0-1.68.63 1.08 1.08 0 0 1-.89.22c-.33-.2-.06-.57 0-.87v-.66l6.06-3a.64.64 0 0 0 .65-.29.48.48 0 0 0 .41-.27.42.42 0 0 1 .44.52v.93c-.11.48-.73.32-.9.72.44-.11 1-.1 1-.76l.15-2.08v-.86c.25-.83 0-1.72.31-2.55.3-.28 0-.7.22-1 .09.81.09.81.89.89.17 0 .34.07.51.09a2.11 2.11 0 0 0 2.24-1.09 2.28 2.28 0 0 0-.23-2.43c-1.56-2.62-2.79-5.42-4.39-8a.6.6 0 0 0-.3-.62c-.19-.29-.37-.59-.58-.85-.88-1.07-.88-1.07-.23-2.26a2.78 2.78 0 0 0 .27-.44c.16-.52.39-.4.65-.09a9 9 0 0 0 1.77 1.66.47.47 0 0 0 .7 0 15.07 15.07 0 0 0 1.87-1.89c.49-.61.82-.23 1.21.08s.08.65-.14.91-.74.73-1.08 1.12c-1.06 1.25-1 1.24.13 2.43.44.45.71.41 1-.13.45-.88 1.36-1.34 2-2.1a.38.38 0 0 1 .64 0 .35.35 0 0 1-.07.58c-.73.4-.85 1.28-1.53 1.78a7.8 7.8 0 0 0-1.5 1.62c-.11.39.19.41.43.48.21.32.43.56.82.2a.43.43 0 0 1 .74.1 1 1 0 0 0 .6.39c.49.15.71.37.27.82-.1.1-.22.23-.1.38h.37c.41-.38.68-.22.87.22a2.11 2.11 0 0 0 1.26 1 3.09 3.09 0 0 1 1.32 1.1c.21.32.29 1.08.8.68.83-.65 1.67-1.3 2.48-2 .35-.29.61-.64 1.15-.26a4.5 4.5 0 0 0-1.16-1.3 3.12 3.12 0 0 1-1.46-1.6 15.32 15.32 0 0 1-.25-1.9.3.3 0 0 1 .34-.42 3.24 3.24 0 0 0 .73-.08c.58-.17.67.11.64.6a1.93 1.93 0 0 0 .4 1.53 19.39 19.39 0 0 1 1.53 1.7c.5.69 1 .17 1.49.1s.49-.5.44-.89l-.43-3.43c0-.33-.05-.75.33-.8s.53.3.56.7c.07 1 .21 2.05.29 3.08 0 .54.37.57.77.52.63-.09 1.26-.22 1.9-.27 1.8-.13 1.81-.12 1.77-1.87 0-1.23.25-1.52 1.48-1.58l.17.17c.36.59.6 1.31 1.47 1.34.2.2.62.17.61.58s.08.59.55.51a5.79 5.79 0 0 1 1.39 0c.6 0 .82-.18.7-.76a4.68 4.68 0 0 1 .17-1.77.61.61 0 0 0 .58-.15.49.49 0 0 1 .45.63v1.78a13.84 13.84 0 0 0 .08 2.33c.36-.32-.07-1 .62-1h2.73c.2 0 .51.34.59-.08a.75.75 0 0 0-.2-.92c-.64-.46-1.2-1-1.81-1.51a1.11 1.11 0 0 0-.89-.37c-.6.05-.78-.36-.52-1a.8.8 0 0 0 .74 0 1.1 1.1 0 0 0 .74.13c1.39 1.09 2.59 2.45 4.29 3.12a.73.73 0 0 0 .77.22c.21-.14 0-.37-.16-.52a.48.48 0 0 1-.14-.43l-.15-.92a.41.41 0 0 0 .11-.1 1 1 0 0 0 .53-.11 2.32 2.32 0 0 0 .25.32v.11a1 1 0 0 0 .28.6.74.74 0 0 0 .16.59 28.88 28.88 0 0 0 3.27.87c.82.29 1.66.56 2.29-.39a.49.49 0 0 1 .67-.12c.27.16.07.41 0 .59a.52.52 0 0 0 .34.81 6.14 6.14 0 0 0 3.3.38c1.49-.35 1.44-.28 1-1.78a11.27 11.27 0 0 0-1.17-2.2 2.48 2.48 0 0 1 .74-.68 2.67 2.67 0 0 1 .7 1.63 6.33 6.33 0 0 0 .78 1.49l.14.14c.19.4.48.19.75.13a.55.55 0 0 0 .08.74 6.93 6.93 0 0 0 .92.86c.24.19.65.34.5.8a5.82 5.82 0 0 0-.75 1.33c-.21.36.11.41.31.52 1.3.76 2.6 1.53 3.91 2.26a.63.63 0 0 1 .29 1.06 8.32 8.32 0 0 0-.72 1.21c-.2.42-.42.38-.76.19-1.47-.86-3-1.69-4.43-2.55a1.72 1.72 0 0 0-2.55.61 7.07 7.07 0 0 1-.42.7c-.35.44-.23.73.23 1 2.58 1.5 5.16 3 7.72 4.55.45.27.64.24.89-.22.83-1.48 1.71-2.94 2.58-4.41.11-.18.2-.52.54-.35s.72.2.62.52c-.19.65.26.76.63 1 .64.38 1.27.76 1.92 1.12.44.24.49.48.21.93-1.07 1.71-2.09 3.46-3.14 5.19-.21.35-.22.55.16.76.77.44 1.53.9 2.28 1.37.17.11.31.15.42-.06.71-1.32 1.59-2.55 2.21-3.93a1.64 1.64 0 0 0 .55-1.27l-.71 1.26c-.29 0-.62.05-.71-.34a.83.83 0 0 1 .37-1 3.2 3.2 0 0 0 1.15-1.34.47.47 0 0 1 .38-.3c.22.44.83.15 1.06.58l.44.14c.38.13.42.83 1 .62a31.7 31.7 0 0 0 2.2 2.32c.41.3.5.17.49-.25a1.48 1.48 0 0 0 .73-.88h.18a.64.64 0 0 0 .74.29.8.8 0 0 0 .7-.31.82.82 0 0 1 1.27 0c.18.16.37.31.56.46.4.64.57 0 .89-.24-.09.51-.06.83.5.56a1.33 1.33 0 0 1 .5 0c-.06.24.27.69-.34.64-.15 0-.32 0-.32.18s.18.19.33.21c.43.05.73 0 .67-.57h1.45v2.5h-.11l-.46-.3-.59-.32c-.19-.37-.67-.11-.89-.42a.86.86 0 0 0-1.05 0 1.09 1.09 0 0 0-.59.28 22.55 22.55 0 0 0-2.5-.26h-.3c-.18 0-.41-.11-.51.11s.12.29.23.4l.43.36a.77.77 0 0 0 .58.46l.75.29a.81.81 0 0 0 .47.43l.14.14a.56.56 0 0 0 .58.47.43.43 0 0 0 .45.43h.14a.69.69 0 0 0 .6.71h.16a.88.88 0 0 0 1.46.4l.45.31a.64.64 0 0 0 .61.45l.16.14c.48.26-.15.79.18 1 .57.35.64 1.46 1.67 1.12a.14.14 0 0 1 .13 0c.14.49.72.55 1 1a1.06 1.06 0 0 0 1.36.94 3.3 3.3 0 0 1 1.53-.42c.6 0 1.36-.77 1.2-1.13-.31-.71.05-1.39 0-2.09a.41.41 0 0 1 .5-.48c.37.1.3.39.21.66a1.38 1.38 0 0 0 0 .29v.4c0 .17-.11.48.14.5a.81.81 0 0 0 .59-.49.79.79 0 0 0 .46-.75c.67-.41.82-1.22 1.33-1.75a.64.64 0 0 0 .22-.8.81.81 0 0 0-1-.43l-.3.12-.89.18c-.18 0-.47.06-.51-.15-.13-.62-.6-.39-1-.44-.53-.34-.9.15-1.34.27-1.58-.86-3.39-.53-5-1a.61.61 0 0 1-.32-.45v-1.37l.65.48.23.13a.74.74 0 0 0 .75.3 1.14 1.14 0 0 0 1.48 0l.14.15c-.14.29 0 .39.27.45l1.05.29a.53.53 0 0 0 .76 0 8.15 8.15 0 0 1 2.22-.91 1.42 1.42 0 0 1 .44-.24c.83-.11.67-.78.72-1.29a.29.29 0 0 0-.49-.27 2.23 2.23 0 0 1-1.71.2l-.41-.17-.14-.15a1.48 1.48 0 0 0-1.23-.8c-1.19 0-2.41-.06-3.4.82a1.5 1.5 0 0 0-.58.28l-.16.16a.48.48 0 0 0-.45.28h-.15a4.2 4.2 0 0 1-.12-1.21 12.37 12.37 0 0 0 2.53-1.37 3.19 3.19 0 0 1 1.94-.58 2.5 2.5 0 0 0 1.45-.12c.91-.15 1.31.65 1.93 1a4.69 4.69 0 0 0 1.77 1.48c.24-.12.24-.28.08-.47s-.55-.69-.83-1a1.78 1.78 0 0 1 .59-.58 3.13 3.13 0 0 0 .75.76 13 13 0 0 0 1.49 1.62c.17.18.33.12.38-.07s-.19-.39-.38-.53v-.27a.32.32 0 0 0 .29-.29 20.64 20.64 0 0 0-.13-3.88 1.55 1.55 0 0 1 .91.25l1.75 1.09a4.14 4.14 0 0 0 1 1.58c.19.15.28.61.58.41s0-.46-.18-.66-.32-.46 0-.69c1.28-.91 2.39-2 3.74-2.86a1.63 1.63 0 0 0 1.08-1.36 11.23 11.23 0 0 1 2.24-1.62 2.81 2.81 0 0 0 1.34-1 14 14 0 0 1 2.4-1.69 6.21 6.21 0 0 1 1.9-1.26c.65-.31 1.08-1 1.91-1.1a.52.52 0 0 0 .47-.48.5.5 0 0 0 .76 0 9 9 0 0 1 2.67-1 27.43 27.43 0 0 0 3.73-1.13 37.76 37.76 0 0 1 4.81-1.56 11.92 11.92 0 0 0 2.58-.58l.73-.27.59-.18c.08.1.11.32.31.13l.44-.12.9-.3.42-.14c2.16-.73 4.19-1.87 6.54-2a13.32 13.32 0 0 0 3.15-.84c.5-.23.94-.81 1.61-.62.16.38.39.12.6.07a12.47 12.47 0 0 1 4.32-.78c.5 0 .57-.26.61-.63h.04c.16.7.46.95 1.12.43a.9.9 0 0 1 .71-.07c1 .32 1.48-.25 1.76-1.1l.15.15c-.65.95.33 1.82 0 2.77 2.66-.78 2.79-.64 5.21.21.38.13.33.61.65.61.49 0 1 .09 1.47.06 1.54-.08 2.31-1.8 3.88-1.77.39-.66 1.12-.36 1.67-.57h3.4v1.63c0 .19-.06.47.17.52a3 3 0 0 0 1.64-.08.4.4 0 0 0-.28-.14c-1.32-.09-1.33-.09-1.39-1.41v-1.84c0-.2 0-.45.27-.44a3.55 3.55 0 0 1 1.21 0v1a2.2 2.2 0 0 0 .15-1c.7-.24.85-.15.89.52a2.79 2.79 0 0 1 0 .52.57.57 0 0 0 .75.74 3 3 0 0 1 .44 0 19 19 0 0 1 .39 1.89 4.08 4.08 0 0 0-.1-1.91.88.88 0 0 0 .22-1.19 4.68 4.68 0 0 1-.08-1.94v-2.92h-.14v2c-.59 0-1.18.06-1.77.11a4 4 0 0 1-2.39-.08 1.1 1.1 0 0 1-.65-1.4 8.25 8.25 0 0 0 .5-2 .39.39 0 0 1 .19-.37c.82-.23.8-1 1-1.58.57-1.61.87-3.35 2.13-4.65a.37.37 0 0 0 .12-.25c-.44-.61.19-1 .32-1.46s.39-.47.72 0a3.63 3.63 0 0 1-.19-2.22c0-.34.12-.51.5-.37 1.3.47 2.7.78 3.38 2.21a.53.53 0 0 0 .62.41.32.32 0 0 0 .36-.32.86.86 0 0 0-.47-.68zm-88.64 41.09h.06-.05-.01zm.25-.38v.05-.08zm0 .08a.4.4 0 0 1-.11.26.62.62 0 0 0 .09-.26zm1.21.6a.47.47 0 0 1-.17-.07.43.43 0 0 0 .16 0 .17.17 0 0 0-.02.08zm-6.22-.83a.54.54 0 0 0 0-.09.67.67 0 0 0 .46.16 1 1 0 0 0-.07.16c-.09.09-.41-.29-.41-.22zm7.38.44a.34.34 0 0 0-.22-.08.47.47 0 0 0 0 .41l-.22.08a.59.59 0 0 0 .16-.48h.13c.08.01.12.04.12.08zm67.15-43.16a.13.13 0 0 0-.12 0v-.32h-.29a4.11 4.11 0 0 0-.42 0 1 1 0 0 1 .68 0 .81.81 0 0 1 .23.05.35.35 0 0 0-.06.25zm-49.26 28.59zm48.72-28.3a1.3 1.3 0 0 0 .18.5 2.27 2.27 0 0 1-.91-.16h-.08v-.71h.05a1.63 1.63 0 0 1 .33-.2.26.26 0 0 0-.16.24c-.04.34.28.38.57.34zm-1.47-.38a1.73 1.73 0 0 0 0 .86h-.65a.68.68 0 0 0-.05-.81.3.3 0 0 0-.16.3h-.09a.3.3 0 0 0-.33-.34c0 .07-.3 0-.15.21a.21.21 0 0 0 0 .09h-.45l-.3-.11a.38.38 0 0 0 0 .61l.14-.14h.46a.88.88 0 0 0 .63.13.18.18 0 0 0 .07.06 4.83 4.83 0 0 0-1.28.1 2.51 2.51 0 0 0-.46-.13l-.05.12a.69.69 0 0 0-.55-.12l-.15-.09a.63.63 0 0 0-.13-.67v.29a.75.75 0 0 1 0 .29 1.87 1.87 0 0 0-.29-.18v-.28h-.11l-.18-.43a.36.36 0 0 1 .14 0 1.79 1.79 0 0 1 .66 0 .93.93 0 0 0 .79.11c.46-.63.88-.29 1.3 0s1.13-.25 1.66.09a.9.9 0 0 0 0 .7 1.42 1.42 0 0 1-.51.12 1 1 0 0 0 .01-.77zm-38.65 25.49zm32.14-24.33v-.2a3.44 3.44 0 0 0-.16-.73.25.25 0 0 1 0-.29.65.65 0 0 0 .51.24 2.8 2.8 0 0 1-.32.98zm-97.9 15.1v.07a3.43 3.43 0 0 1 .41.19.25.25 0 0 0-.13.1.31.31 0 0 0 0 .05l-.2-.06c-.1 0-.22-.07-.19-.22a1 1 0 0 1 .13-.14zm58.12-32.53zm7 7.75zm6.18 11.23a.61.61 0 0 0 0 .07h-.05a.47.47 0 0 0 .07-.07zm-90.41 6.14a.46.46 0 0 0-.13.07.56.56 0 0 0 0-.15c-.21-.32-.36-.29-.49-.12a.61.61 0 0 1 .55-.06.27.27 0 0 0 .06-.36.59.59 0 0 0 .21.1.85.85 0 0 0-.11.52zm19.23-22.08l14.53 41.29a.13.13 0 0 1 0 .06zm49-25.6zm5.46.55a1.38 1.38 0 0 0-.08.25l.07-.38a.8.8 0 0 0 14.59 41.42zm-65.78 12.66zm-2.18 33.55zm78.89-4.8v-.19a.69.69 0 0 1 0 .21zm7.07-.31a.12.12 0 0 0 .11.08l-.07.07a1.25 1.25 0 0 0-.04-.13zm-55 25.68a.08.08 0 0 1 .06.11.49.49 0 0 0-.06-.08zm-40.21-19.95a.37.37 0 0 0 0 .09h-.09zm6.57-15.45zm77.92 9.48a.16.16 0 0 1 0 .26l-.27.23v-.6zm20.65 8a.11.11 0 0 0 0-.08v.08zm-5-1.17zm7.87-4.16zm.33-1a.66.66 0 0 0-.19.53.5.5 0 0 0-.1-.55zm.73.51a.61.61 0 0 0-.38-.08.31.31 0 0 1 .33.11zm-25.77-14.83c-.09 0 0-.08.06 0h-.06zm-77.47 14.28zm68.56-2.62a.51.51 0 0 0-.06.07c-.06.42-.2.29-.34.14a1.43 1.43 0 0 1 .4-.21zm1.54.43a.25.25 0 0 0 .17.07h.13a.29.29 0 0 1-.18.05.28.28 0 0 0-.33.2.21.21 0 0 0-.3-.11l-.17.16a.12.12 0 0 0 0 .11v-.06a.26.26 0 0 0-.1-.11.94.94 0 0 0-.07-.21 2.2 2.2 0 0 1-.17-.44.2.2 0 0 0 .11-.08.25.25 0 0 0 .15.06.47.47 0 0 0 .2.26.49.49 0 0 0 .37.08 1.1 1.1 0 0 0 .18-.12.36.36 0 0 0 .06.13zm-2.81.38c.07 0 .13-.06.21 0a.61.61 0 0 0-.07.07.33.33 0 0 0-.26 0 .29.29 0 0 0-.08-.11 1.47 1.47 0 0 1 .25.03zm-54.3-9.09v-.07.06zm3.58 8.46v.05zm3.85 4.43zm15.49-5.39a.3.3 0 0 0 0-.06zm-3.15 2.67zm1.06 2.94a.1.1 0 0 1 0-.13 1.09 1.09 0 0 1 .04.13zm4 6.44zm0 .43zm-1.48-2.55h.13c-.02.04-.09.04-.1 0zm4.12 2.37zm-7.35-10a1.17 1.17 0 0 0 .1.27.46.46 0 0 1-.07-.23zm9.46 10zm-7.01-12.29zm-2.75 2.52v-.07l-.01.07zm8.89 9.72a.24.24 0 0 0 .18.24.48.48 0 0 1 .16.1.42.42 0 0 1-.16-.05c-.15 0-.31 0-.32.2h-.07a.24.24 0 0 1 .21-.5zm8.5-8.55v.18a.36.36 0 0 1 0-.19zm4.72-1.45zm-2.71-.19a1.16 1.16 0 0 0 .38.31.28.28 0 0 0 .2 0c.3-.35.24 0 .27.12a.28.28 0 0 0-.1.11.34.34 0 0 0-.38-.14.78.78 0 0 0-.14-.17c-.19-.12-.38-.21-.52.05a.56.56 0 0 1 .29-.28zm12.22 8.7a.4.4 0 0 1 0 .05v-.06zm-.59 0a.64.64 0 0 0-.06-.18.34.34 0 0 1 0-.4c0 .22.07.42.11.57zm-13.42-7.82a.53.53 0 0 1 .22-.51 2.15 2.15 0 0 0-.22.53zm-20 14.43zm-8.86-12.25zm55.19-7.57h.05zm-29.42-1.58l-.13-.17h.06a.13.13 0 0 1 .03.13zm-29.69-3.85zm-3.67-3.75zm-1.95 10.28zm9.5 11.85zm52.92-22.57a.77.77 0 0 0 .13.12h-.21zm-.58-.81a2.38 2.38 0 0 0 0 .75l.09.14c-.45-.11-.39-.4-.07-1.25a.14.14 0 0 0 .06 0 .5.5 0 0 0-.08.36zm-9.73 14.89a.94.94 0 0 1-.74-.33 4.45 4.45 0 0 0 .73.33zm-.9-.42zm1.55.42a1.93 1.93 0 0 0 1.08-1.14c.14 0 .26-.42.41 0a.4.4 0 0 0 .19 0 .33.33 0 0 0 0 .32.27.27 0 0 0-.12-.1.49.49 0 0 0-.4.1.37.37 0 0 0-.11.17c0 .64-.62.74-.94 1.1-.77.87-1.5 1.71-1.31 2.86a6.76 6.76 0 0 1-.26-.78c0-.11-.07-.21-.11-.32.19-.88 1.07-1.41 1.57-2.21zm-39.7-10.3zm56.34 10.83a.61.61 0 0 1 0-.2.75.75 0 0 1-.01.2zm-1.12-.14zm-2.43-.28zm-2.15-14.16a.54.54 0 0 0 0 .08 1.46 1.46 0 0 0-.28 0 .59.59 0 0 0-.05-.43.43.43 0 0 0 .11 0 .25.25 0 0 0 .22.34zm-28.16-7.6zm-35.39 7.38a.38.38 0 0 0 0 .06 1.64 1.64 0 0 0 1 .66 5.17 5.17 0 0 1-.98-.72zm91.39 16a.13.13 0 0 1 .15-.07.33.33 0 0 0-.15.06zm-75.52-11.29zm-31.48 15.35a.41.41 0 0 1-.4.12 1 1 0 0 1-.41-.14 1.3 1.3 0 0 0-.5.06c.19-.13.34-.37.64-.18a.69.69 0 0 0 .2 0 1.44 1.44 0 0 0 .28-.06.53.53 0 0 1 .43.07.51.51 0 0 0-.24.13zm4.86.16h.02zm14 4.06h-.06.06zm4.76 2.71zm1.17 1.61zm68.91-1zm-.89-13.31a1.14 1.14 0 0 0 0-.15h.06a.46.46 0 0 0-.05.15zm-6.41.67zm-.39.09h-.05a.89.89 0 0 0 .32 0 .87.87 0 0 1-.28-.01zm-57.49-14.79l-.08-.08a.28.28 0 0 0 .08.08zm-13.58.49a.18.18 0 0 0 .13 0 1.24 1.24 0 0 0 0 .13h-.42a.32.32 0 0 1 .3-.13zm-10.18-3h.07-.08zm-8 8.3zm3 19.12l.06-.08-.08.07zm1.66-5.38a.87.87 0 0 0 .21 0 .1.1 0 0 0 0 .08.3.3 0 0 0 0 .07l-.12.23-.11-.36zm1.71.25c.1 0 .2-.09.3-.12h.15a.52.52 0 0 1-.48.11zm.74-.21v.11a.22.22 0 0 0-.08-.08zm.81-.28h.1v.18l-.15-.15zm19.71 10.42a.18.18 0 0 0 .11 0 .15.15 0 0 0-.13 0zm63.49-17.86l.09-.21a1.71 1.71 0 0 1-.12.2zm-31.88-31.16zm-20-1.67h-.08zm2.92 3l-.06.07.02-.04zm.46 0zm-39.46 42.92zm90.8-10.82h.08zm-12.32-19.17zm-2.07 1.34zm-79.86 5zm23.08 26.07zm97.17-18.65zm-1.38 2.52h.27a1.88 1.88 0 0 0 .23.05v.07a.79.79 0 0 0-.33.36.7.7 0 0 1-.32.07.37.37 0 0 1-.29-.06.23.23 0 0 1 0-.34.83.83 0 0 1 .44-.1zm-7 4.08zm-6.66-9.13zm-56.39-33.3a.07.07 0 0 1 0 .08.32.32 0 0 0 .03-.02zm-28.53 54.44h.06-.11zm.76 0zm.84.5zm60 8.58zm3.08-3.31zm9-2.39zm20.69-15.84zm-65.13-42.48zm-47.21 15.16zm-3 15zm19.47 26.15zm16.82 11.59a.43.43 0 0 1-.29.08zm82.71-20.16zm-3.28-4.9zm-91-30.77a.13.13 0 0 0-.1 0h.13zm-11.07 44.88zm0 0zm18.32 8.94zm88.77-14.76zm3-5.1zm-137 7.48zm-.9-2.23zm43.78 12.77zm94.35-18.46zm.6-6.42l-.13-.09a1.1 1.1 0 0 1 .14-.27.69.69 0 0 0-.08.14zm.05-.42h.07zm-64.11-36.77zm-67.4 16.09l.16.12a.52.52 0 0 1-.16-.12zm2.38 12.82zm129.18 14.35zm-8.52-10.5zm-124.25 9.58zm11.06 17.93zm16.4-.76c.21.22.51.56.69.79zm93.15-30.75v-.1h.09zm-84.25-21.48v.11-.12zm-16.5-8.35zm-.85.15zm-18.7 23.6zm1 .14zm-6.13 23.36v-.12a.3.3 0 0 0 .07.08zm14.6 10.64a.45.45 0 0 1 0 .06v-.07zm89.77 5.38h-.05zm40.12-25.12zm-55.56-27.89a.64.64 0 0 0-.21-.07.19.19 0 0 0 0-.09zm-18.42 74.34zm57.62-27.77zm16.45-17.91a.53.53 0 0 0-.21.07.28.28 0 0 0-.22 0 1 1 0 0 0-.44-.2l.1-.1h.26l.13.11h.06l.25-.44a.51.51 0 0 0 .18.43 1 1 0 0 0 .13-.74l-.12-.06a.24.24 0 0 0-.14.06l.15-.05v-.24a.46.46 0 0 0 .42-.15.4.4 0 0 0 .2.05c0 .14-.1.29-.15.43l-.08.07v.09a.64.64 0 0 1-.48.67zM408.94 136.95c.24.2.34.39.72.2a.71.71 0 0 1 1 .38.68.68 0 0 0 .66.45 3.56 3.56 0 0 1 2 .77 5.32 5.32 0 0 0 2.12 1.14 2.48 2.48 0 0 1 2 1.57.85.85 0 0 0 1.14.64h.31a2.62 2.62 0 0 1 1 1.17c.15.41.67.28.83.64l.46-.52a1.53 1.53 0 0 1 1-.53v.14a.49.49 0 0 0-.29.3l-.16.17a1.48 1.48 0 0 0-.57.56.66.66 0 0 0-.08.7c.14.23.36.05.54.07a4.63 4.63 0 0 0 2.36-.47c.67 0 1.39.21 1.92-.47a.53.53 0 0 1 .55 0 1.5 1.5 0 0 0 1.54-1.7 2.74 2.74 0 0 0 1.58-.55 1.1 1.1 0 0 1 1.18-.09 3.29 3.29 0 0 0 1.73.2c1-.12 2.05-.3 3.1-.33.33 0 .54-.16.22-.43-.76-.63-.44-1.4-.25-2.09a1.55 1.55 0 0 0-.44-1.69c-.6-.64-1.45-.07-2-.6-.6.53-1.38.24-2 .44a3 3 0 0 1-1.93-.07c-.17-.05-.36-.22-.54 0h-.3a3.4 3.4 0 0 0-2.42-.53 35.42 35.42 0 0 0-3.67.78c-.41.06-.63.19-.61.57a3 3 0 0 0-2.17-1.2 18 18 0 0 1-2.05-.41.23.23 0 0 1-.19-.27 1 1 0 0 0-.67-.94 4.81 4.81 0 0 0-1.76-.69c-1.11-.34-2.12-.91-3.23-1.28a1.64 1.64 0 0 0-1.84.37 3.23 3.23 0 0 1-1.73 1.07c-.67.07-.72.39-.34 1a6.75 6.75 0 0 0 1.28 1.53zm10 4.58zM308.45 187.56c.81.25.86-.28.74-.8a3.28 3.28 0 0 0-1.1-1.61.5.5 0 0 0-.67.12.46.46 0 0 0-.24.63 3.47 3.47 0 0 1 .35 1.71c.14.94.89.34 1.28.6.12.08.37-.06.3-.19-.21-.37-.64-.07-.93-.24l-.08-.09a.3.3 0 0 1 .35-.13zM403 139.43h.07a16.15 16.15 0 0 0 1.53 2.52c.16.25 1 .11 1.17.3a1.94 1.94 0 0 0 1.53.88.92.92 0 0 1 .87.42.62.62 0 0 0 1 .34c.47-.37.25-.78-.12-1.12l-1.5-1.41c-.3-.09-.26-.77-.4-.66a3 3 0 0 0-2.09-1.36v-.08a8 8 0 0 1-1.77-1.64c-.13-.19-.29-.53-.63-.32a.51.51 0 0 0-.05.78 2.26 2.26 0 0 1 .39 1.35zM287.8 157.19c.44.11.8.71 1.34.28s.95-.84.46-1.54c-.07-.49.42-.84.4-1.45a3.25 3.25 0 0 0-.55 1.15c-.32 0-.35 1-.89.27a.43.43 0 0 0-.18.05c.12.53-.39.55-.62.8s-.13.39.04.44zM358.4 203.76a.49.49 0 0 0-.56-.47.64.64 0 0 0-.6.46c0 .32.3.4.64.41.12-.16.59.05.52-.4zM314.61 190.23a.66.66 0 0 0 0-.71.53.53 0 0 0 0 .71zM424.68 151.7a.2.2 0 0 0 .19 0c.18-.19.05-.35-.12-.58-.06.24-.24.39-.07.58zM320.4 125.2a.18.18 0 0 0 .23.12c.12 0 .24-.09.19-.25a.19.19 0 0 0-.23-.13.23.23 0 0 0-.19.26zM303.14 130.13a.17.17 0 0 0 .11-.22.14.14 0 0 0-.19-.14.19.19 0 0 0-.18.18.21.21 0 0 0 .26.18zM281.62 203.58l.73-.43a.72.72 0 0 0-.73.43zM289.28 188.92a.43.43 0 0 0 .3-.43c-.12.13-.43.12-.3.43zM362 210.47c.14.2.21.37.43.29a.37.37 0 0 0-.43-.29zM434.81 161.72c-.09 0-.22 0-.19.12a.33.33 0 0 0 .21.16c.09 0 .2 0 .2-.12a.2.2 0 0 0-.22-.16zM433.61 162.32a2.54 2.54 0 0 0 0 .58c.32-.09 0-.48.29-.59-.11-.19-.24-.2-.29.01z"/><path class="cls-7" d="M281.59 206.91s-64.06 3.42-75.92 9.39c-5.42 2.73-21.41-4-16.8-6.13 9.13-4.22 85.17-3.25 85.17-3.25h7.55z"/></g><g id="Layer_1_copy"><path class="cls-5" d="M431.56 350.34c.19-1 .36-2.08.49-3.15 1.43-12-1.55-22.61-6.93-26.75-.41-2.4 3.3-9.17 2.49-11.33-2.18-5.79-5.25-7.63-9.76-10.66-2.71-1.82-10.6-1.48-13.9-1.88a20.1 20.1 0 0 0-3.21-.1c-.64-16-7.75-28.63-17.85-29.84a14 14 0 0 0-6.59.84 51.11 51.11 0 0 0-29.22-13.87 50.53 50.53 0 0 0-22.27 2.4c-.94-.14-1.89-.29-2.84-.41-28-3.36-54.82 4.43-71.49 22.86-1.79-.61-3.15 1.52-5.1 1.29a27.47 27.47 0 0 0-23.83 9.11 96.44 96.44 0 0 0-13.36 4.15c-18.81 0-35.3 12.26-40.32 29.85a38.41 38.41 0 0 0-6.29-1.29c-16.22-1.94-30.78 6.58-34.31 19.41h-.21c-17.64-2.11-33.45 8.81-35.31 24.39-1.22 10.07 3.78 19.64 12.25 25.71a40.64 40.64 0 0 0 15.69 48.4c3.21 9.95 11.84 18.64 23.51 23.76 5.74 8.41 16.87 14.88 30.25 16.48a52.37 52.37 0 0 0 6.14.37 41.26 41.26 0 0 0 16.2 5.33 43 43 0 0 0 13.61-.48 30 30 0 0 0 7.19 1.79 31 31 0 0 0 20.58-4.93 13.2 13.2 0 0 0 3.08.77 13.64 13.64 0 0 0 14.09-8.34 14.82 14.82 0 0 0 10.76-6.6c5.58.54 11.72-1.41 13.24-5 3.59-.66 12.7-.21 15-1.49 17.66-.19 24.57-9.7 25.9-20.83a14.39 14.39 0 0 0 0-3.18 28.5 28.5 0 0 0 4 .82c10 1.2 21.73-1.43 28.5-8.89 15.85-.48 27.7-8.77 36-19.26a46.27 46.27 0 0 0 43.82-59.45z"/><path class="cls-8" d="M358 428l-69.5 33.5-18.5-1.5 22-7.5s103-37.5 127-94.5c18.23-43.29-33.5-86.5-33.5-86.5l19.5 20.5 21.5 12-2 14 6.5 7 1 55.5-19 22-24 2-5 10z"/><path class="cls-3" d="M229.63 341.7c.17-1 .34-1.67-1-2.29-4.85-2.22-5.76-6.33-2.34-10.38a60.48 60.48 0 0 1 17.53-14.42 23.66 23.66 0 0 0 2.79-1.73c6.38-4.7 13.47-7.69 21.74-7.91a8.57 8.57 0 0 0 2.39-.46c10.93-3.58 22.23-3.94 33.72-3.4 6.58.31 13.12.58 19.25 3a50.28 50.28 0 0 1 10.29 5.62c3.67 2.59 7.91 4.26 11.11 7.71 5.66 6.09 6.78 18.92 2.18 25.77-4.32 6.43-7.2 13.71-12.69 19.48-4.66 4.9-8.59 10.62-15.17 13.45a98.7 98.7 0 0 1-12.26 4.09c-4.88 1.37-9.07 4.21-14.23 5a78.37 78.37 0 0 1-9 1.28 13.08 13.08 0 0 0-6.89 2c-1.8 1.22-2.17 4.66-4.62 4.43-3.53-1.66 4.3-12.89-1.5-15-3-1.11-26.09-16.15-26.93-19.34-2-7.65-6-13.95-14.37-16.9zM248.08 360.36c1.35 3.09 2.24 6.39 3.34 9.59a51.33 51.33 0 0 1-2.14 23.22c-1.16 3.73-3.82 6.2-7.57 6.44s-4.35 2.42-4.21 5.12a13.33 13.33 0 0 1-13.36 14.42c-3.63.07-5.83 3.41-9.36 3.84-1.78.22-3.42 1.37-5 2.43a13.84 13.84 0 0 1-15 .66 11.77 11.77 0 0 0-7.61-1c-10.83 2-11.31-2.19-14-9.13-.56-1.42-.41-3.2-2.54-3.21-5.77 0-8-4.31-10.21-8.53a26.8 26.8 0 0 1-1.41-3.61c-.47-1.32-1.24-2.35-2.73-2.41a7.29 7.29 0 0 1-6.12-3.67c-1-1.56-1.94-1.45-3.5-.67a7.93 7.93 0 0 1-9.47-1.23c-3-2.68-2.57-5.74-1.21-9a37.55 37.55 0 0 1 5.1-8.83c3-3.8 6.11-7.48 8.71-11.51 4.9-7.63 8.81-15 16.94-17.75a61.46 61.46 0 0 1 14-2.92 150.33 150.33 0 0 0 15-1.94c6-1.24 4.24 4 4 2.69-1.06-5.87 2.21-1.72 7.78-2.31 11.06-1.92 28.24 3.37 34.6 8.36 2.23 1.84 3.8 5.97 5.97 10.95zm-89.08 4.85c-.85 5.33-.26 6 4.48 6.66a9.16 9.16 0 0 0 5.14-.87 91 91 0 0 0 15.46-9.12 4.94 4.94 0 0 0 1.95-5 4.55 4.55 0 0 0-3.37-3.65c-7.1-2.63-12.91.51-18.44 4.2-2.76 1.84-5.46 4.2-5.22 7.78zm66.73 27.28c.54-4.25-2.33-6.49-7-5.22a37.81 37.81 0 0 0-20.89 14.2c-1.77 2.39-1 4.22 2 4.64a24.07 24.07 0 0 0 6.34-.07c6.1-.8 10.55-4.81 15.2-8.29 1.89-1.37 4.72-2.29 4.37-5.26zm-9.42-42.25c-.85-.07-1.77-.6-2.17.53a1.51 1.51 0 0 0 1 1.68 16.11 16.11 0 0 0 2.81 1.43 38.05 38.05 0 0 1 19.05 14.57 25.11 25.11 0 0 1 2.64 5 2.06 2.06 0 0 0 2.87 1.23c1-.47.47-1.57.23-2.49-.48-1.9-2-3.14-2.91-4.72-5.42-9.06-14.07-13.68-23.49-17.23zM93.53 381.34c2.27 1.8 3.17 4.91 6.17 6.1 1 .4.94 2 1.27 3.15.88 3-.51 6.09.58 9.29.68 2-2.18 3.53-4 4.83-8.57 6.4-47.07-4.55-46.09-6.43 3.08-.35 9-1.49 11.35-1.91a12.57 12.57 0 0 0 9.27-6.13c2.09-3.41 5.6-5.69 9-7.83 3.92-2.41 8.22-1.79 12.45-1.07z"/><path class="cls-9" d="M420.74 342.59c.41-.91-.32-2.87 1.67-2.36 1.45.37.46 2.11 1.14 2.85-.39 1.14-.67 2-1 2.91-.6 1.62-1.82 3.52-3.36 2.86"/><path class="cls-10" d="M414.37 285.56a5 5 0 0 1-2.4 2c-4.2 2.31-5.06 1.95-8.07-1.76-4.65-5.72-8.7-12-14.4-16.79-2.68-2.26-2.7-4.83-2-7.77s4.3-6.11 7.64-6.61 5.71 1 7.43 3.73c.66 1 1.78 2.31-.57 2.81a1.21 1.21 0 0 0-.56.41c-1.4 1.59-3.06 3.13-2.31 5.57a2.75 2.75 0 0 0 2.81 2.26 5 5 0 0 0 4.63-3.81c.79-4 3.15-3.42 5.71-2.69 2.25.65 4.64 5.12 4.15 7.17-.3 1.27-1.37 1.14-2.18 1.45-1.66.63-3.33 1.53-2.57 3.52s2.72 1.85 4.48.95a10 10 0 0 0 .91-.55 3.11 3.11 0 0 1 4.6.8c1.24 2-.57 3.37-2.13 4.14a15.66 15.66 0 0 1-4.74 1.17c-1.49.21-3.45-1.06-4.16 1.34-.36 1.27.44 1.8 3.73 2.66zM375.14 423.4c-5.77 3.18-11.6 6.22-17.42 9.69 1.45-4.69 10.6-9.92 17.42-9.69zM320.2 457.55c.2-6.07 3.51-10.47 8.24-14zM254.09 283.65l-.58-1a1.36 1.36 0 0 1 1.49.31zM257 470.1c-.4.26-.75 1.11-1.25.44-.34-.45.25-.93.73-1.2z"/><path class="cls-9" d="M159 365.21c-.26-3.58 2.43-5.95 5.23-7.81 5.53-3.69 11.34-6.83 18.44-4.2a4.55 4.55 0 0 1 3.37 3.65 4.94 4.94 0 0 1-1.95 5 91 91 0 0 1-15.44 9.15 9.16 9.16 0 0 1-5.14.87c-4.74-.61-5.33-1.33-4.51-6.66zm9.56-2.78c-1.81.35-3.91.6-4.33 2.81-.18.94 1.59 2.15 2.18 1.74 1.52-1.06 4.41 0 4.71-2.68.2-1.53-1.31-1.66-2.53-1.87zM225.75 392.49c.34 3-2.48 3.89-4.33 5.27-4.65 3.48-9.1 7.49-15.2 8.29a24.07 24.07 0 0 1-6.34.07c-3-.41-3.77-2.25-2-4.64a37.81 37.81 0 0 1 20.89-14.2c4.65-1.28 7.52.96 6.98 5.21zm-16.16 7c-2.86-.43-4.74 0-5.53 2.32a1.43 1.43 0 0 0 1.62 2.05c2.1-.27 4.46-.59 5.3-2.88.55-1.49-1.06-1.41-1.39-1.47zM216.34 350.24c9.42 3.55 18.08 8.17 23.53 17.19 1 1.58 2.43 2.82 2.91 4.72.23.92.82 2-.23 2.49a2.06 2.06 0 0 1-2.87-1.23 25.11 25.11 0 0 0-2.64-5 38.05 38.05 0 0 0-19.04-14.53 16.11 16.11 0 0 1-2.81-1.43 1.51 1.51 0 0 1-1-1.68c.37-1.13 1.3-.61 2.15-.53z"/><path class="cls-10" d="M127.72 454.89c3.58 3 6.23 6.61 9.41 10.09-4.28-1.09-8.92-6.11-9.41-10.09zM168.59 362.43c1.22.22 2.73.34 2.56 1.87-.3 2.72-3.19 1.62-4.71 2.68-.58.4-2.35-.8-2.18-1.74.42-2.24 2.52-2.46 4.33-2.81zM209.59 399.51c.33.06 1.94 0 1.39 1.49-.84 2.29-3.2 2.61-5.3 2.88a1.43 1.43 0 0 1-1.62-2.05c.79-2.29 2.67-2.75 5.53-2.32z"/><path class="cls-9" d="M281.94 464.64c2.86-.13 5.63-.19 8.22-1.63 1.16-.64 2.52-1.22 3.83-.13-2.26 4.83-2.44 5.47-2.16 7.43a11.11 11.11 0 0 0 20.78 3.94c1.71-2.8 2.62-6.21 4.62-8.57a80.21 80.21 0 0 0 10.38-14.8c1.27-2.43 2.48-5.63 5.07-6.42a21.35 21.35 0 0 0 6.56-3.79c2-1.46 4-2.83 6.1-4.2.38-.25.77-.94 1.26.12 1.4 3 3.45 1.93 5.54.76 1.1-.62 1.86-2.07 3.3-1.79 3.61.7 6.32-1 9.06-3a27.89 27.89 0 0 1 4-2.06c4-1.91 8.26-3.49 11.56-6.61 1.51-1.42 2.46-3.08-.84-3.72 4-3.61 6.54-8.11 10.92-10.56 2-1.12 7.1 1.93 9.65 1.78a3.31 3.31 0 0 0 1-.32c7.12-2.91 13.83-6.55 19.32-12a25.86 25.86 0 0 1 11.66-6.89 118.37 118.37 0 0 0 20.5-7.3c5.34-2.44 11.28-2.53 16.65-1.87 4.19.52 5.83-1 7.78-3.56 1.59-2.09 2.31-4.6 3.16-7 2.15-6.11-.19-13.55-5.14-17-3.5-2.43-7.65-2.32-11.31-1.72-10.75 1.76-21.12-1.72-31.88-1.13 3.68-8.09 3.92-8.77 2.47-14.53a63.74 63.74 0 0 1-1.52-9.75c-.31-3.27-.93-6.1-3.8-8.2-1-.76-2.43-1.79-1.42-3.8 2.29-4.56 1.44-9.14-.43-13.63-.64-1.54-1.4-3.16-2.9-3.92-4.35-2.21-9.47-2.49-13.56-5.48-.59-.43-2.18-.09-2-1.22.15-.9 1.53-.82 2.49-.8a6.22 6.22 0 0 0 6.08-3.54c1.08-2.62 3.07-3.85 5.08-5.35 4.41-3.29 4.25-6.93-.43-10a3 3 0 0 1-1.66-2.64c-.5-6.47-3.8-9.61-10.35-10.06a3.59 3.59 0 0 1-3.21-2c-2.42-3.67-5.78-6.44-10.47-6s-9.16 2-11.38 7c-.71 1.61-.21 3.46-1.4 5.31-7.16-5.61-16.11-7-23.93-11.37.52-.36-.58-2.29-.34-2.67 2.33-3.64 3.83-14.42 3.83-15 0-6.05-13.1-9-15.25-9.3-7.26-1.09-22.17 17.69-21.48 21 .42 2-.28 2.53-2.13 3.13-4 1.29-8.08 0-11.92.92-6.94 1.72-33.28 7.35-39 10.34-8.1 4.23-16.66 7.78-22.79 15a6.53 6.53 0 0 1-6.27 2.36c-9.91-1.31-17.89 3.31-25.67 8.41a4.2 4.2 0 0 0-1.37 1.33 21.8 21.8 0 0 0-5 .14c-6.54 1.23-13.47.66-19.49 4.23-1.65 1-3.33.75-5.13.63-8.24-.58-16.57-1.18-24.65.78-3.95 1-13.21.72-17.21-.13-5.51-1.17-6.93 20.36-.84 19 2.49-.57 9.12 3.27 11.55 4.38 3.86 1.76 7.51 1.48 11.28-2.27-.36 2.74 1.41 3.93 2 5.67-1.09.8-2 .24-2.86.09-8.77-1.59-17.56-1.77-25.69 2.12-7.63 3.65-14.93 8.12-15.83 17.81-2.13-.25-4.23-.57-6.34-.74a21.5 21.5 0 0 0-9.42.8c-6.07 2.19-10.5 6.47-13.81 11.52-5.63 8.59-8.28 19.12-1.88 29.24 2.27 1.8 3.17 4.91 6.17 6.1 1 .4.94 2 1.27 3.15.88 3-.51 6.09.58 9.29.68 2-2.18 3.53-4 4.83a40.21 40.21 0 0 0 3.09 20c2.49 5.82 5.19 11.73 11.27 14.77 3.19 1.59 5 4.11 7.24 6.73a22.5 22.5 0 0 1 5 10.9 8.8 8.8 0 0 0 1.36 2.81c4 6.69 11.16 9.35 16.92 13.79 4.37 1.13 8 4.09 12.6 4.82a57.32 57.32 0 0 1 7.87 1.75c3.68 1.13 3.16-2.16 3.52-4.3-4.85-.63-9-2-12.84-5.76-3.32-3.24-6.75-6.58-11-9.1-3.94-2.33-9.42-4.44-9.79-10.62 0-.65-.91-1.95-1.69-1-1.56 1.89-2.47.9-3.43-.38-1.27-1.71-.08-2.52 1.29-3.24a2 2 0 0 0 1.25-2c-.11-1.43-1.37-1-2.16-1.28-4-1.62-8-3.06-11.44-6-4.24-3.6-6.57-8.3-9.15-13.07-5.39-10-5.16-20.26-3.41-30.89.34-2 1.11-2.15 2.82-1.6 2.58.84 5.19 1.75 8.46 1.5-1.72-2.1-3.77-1.46-5.29-2.21-1.83-.9-5.48-.5-3.61-4.47a.79.79 0 0 0-.54-1.13c-2.84-.4-1.79-1.74-.68-3 .7-.77 2-1.41.8-2.5s-2.4-.53-3.4.59c-1.27 1.4-1.55 3.24-2 5.15-4.59-4.47-7.07-8.49-7.45-13.42-.8-10.34 3.8-18.31 11.43-24.89 4.79-4.12 10-4.86 16.15-3.79 4.77.83 9.4 2.68 15 2.54-1.51-1-2.49-1.73-3.57-2.29-1.77-.91-4.3-.9-3.78-4.1.36-2.18.83-4.36 2.55-5.66s3-3.1 4.7-4.22c3.61-2.34 7.2-5.24 11.57-5.67 5.48-.53 11-.83 16.57.25s10.79 2.4 13.35 8.38c.58 1.35 1.57 2.53 1.92 4.08a1.92 1.92 0 0 0 2.36 1.63c1.31-.36 1.82-1.25 1.31-2.72a21.38 21.38 0 0 0-5-8.65c-3.22-3.17-3.32-4.1-.62-7.64a9.58 9.58 0 0 0 2.38-5.77c0-3 1.63-5.32 3.47-7.53 3.53-4.25 8.2-7 12.89-9.66a13.71 13.71 0 0 1 8.17-1.6c3.78.4 13.24-3.82 13.56-3.53 1.65 1.55 8.72-6 10.29-6.88 7.91-4.36 27.91-4 26.84-5.25 3.78-2 7.6-3.74 11.24-5.85a98 98 0 0 1 25.93-10.8c10.59-2.59 21.24-4.89 32.24-5.3 15.88-.6 31.56-.4 46.4 6.46a23.53 23.53 0 0 1 6.64 4.52c1 1 2 2.27 3.28 2.59 2.93.76 4.37 2.86 6 5.09s2.26 5.24 5 6.61c3.64 1.79 7.93 9.85 7.15 13.78-.9 4.57 3.06 8.73 5.28 4.68 1.12-2 6.5-4.21 8-2.54 4 4.56 13.15 2.84 13.86 12.2.14 1.88-5.38 6-6.53 6.89-2.06 1.55-4.17 3-6.3 4.49-1.22.83-2 1.88-1.18 3.24.92 1.54 2.44 1.32 3.72.5a33 33 0 0 0 3.59-2.86c.81-.69 1.55-1.68 2.72-1.31 1.55.49.26 1.83.62 2.72s.16 2.33 1.3 2.75c1.53.55 1.9-1 2.62-1.84a2.65 2.65 0 0 1 .7-.43c1.64 6.27 3 12.31.33 18.59-1.35 3.12 1 3.31 3.67 2.56a30.83 30.83 0 0 1-12.31 16c1.89 1 3.77 0 6.52-.32-1.89 2.92-4.13 4.94-3.9 7.92s2.84 5 4 7.65a3.08 3.08 0 0 1 .46 1.31c-.1 1.25-1.07 3.17-1.57 3-4.09-1.19-3.28 2-3.37 3.82-.13 2.62-.05 5.13-1.76 7.39-1.38 1.83-3.51 2.78-5 4.39a14.79 14.79 0 0 1-11.83 5.13c-3.27-.07-12.38-.84-12.91-.45-3.44 2.58-4.1 6.87-6.42 10-3.88 5.24-9.17 8.57-16.15 8a39.63 39.63 0 0 1-10-2.27c-1.51-.53-3.36-.58-4.21.77s1 2.15 1.73 3.13a10.68 10.68 0 0 0 2 2c1.52 1.18 1.29 2.34.11 3.55a6 6 0 0 1-3 2.13c-.22-.48-.46-.9-.61-1.34-1.34-4-2.38-4.2-5.66-1.57a73.49 73.49 0 0 1-8.48 6.29 21 21 0 0 1-9.6 3.2c-1.28.06-2.35.08-3.11-1.55a10.4 10.4 0 0 0-10.12-6.32c-4.25.11-7.89 1.83-9.84 6.15-2.52 5.57-4.75 11.23-6.86 17-1.13 3.08-1.72 6.58-4.83 8.59l-8.58 3.18c2.36-2.61-12.84-4.77-21.17-.24l-7.45 8.1c-.4.26-.75 1.11-1.25.44-.34-.45.25-.93.73-1.2.71-1.63-.19-4.37 2.21-4.78 4.73-.82 8.73-3.46 12.88-5.36 12.12-5.55 21.49-17.3 16.17-33.23a3.43 3.43 0 0 1-.07-2.71c3.29-7.25 1.43-13.72-3.17-19.73-4.06-2-7.08-5.82-12-6.37 2.52-3.89 3.64-7.68 2.85-12-1.48-8.14-7.76-11.23-14.44-13.76-3.49-1.33-6.27-3-7.22-6.89-2.28-9.41-6.8-17.08-16.47-20.62-8.83-4.59-18.12-7.37-28.18-6.5-3.95.34-8.55-3-9.93-1.9-2.28-5.61-14-9-13.24-8.67a26 26 0 0 1 11.15 8.78c1.15 1.5-.36 5.07 1.55 5.53 2.2.53.42 2.62.86 4 .32 1 2.33-3.44 7.9-4 8.2-.86 15.87.95 23.39 3.9 2.81.25 4.94 1.89 7.12 3.45 5.48 2.22 8 7 10.2 12 1.35 3.09 2.24 6.39 3.34 9.59 2.43 1.56 8.67 5.46 8.67 5.46 4.64 1.63 9.28 3.21 11 8.61 1.07 3.28 1.11 6.34-1 9.24 0 2.37-4.41 3.11-2.58 5.89 1.35 2.05 4.29 1.56 6.44 2.45a4.19 4.19 0 0 0 .66.26c4.4 1 7 4.29 9.27 7.7a8.71 8.71 0 0 1-1.46 11.24 1.86 1.86 0 0 0-.66 1.13c1.62 2.23 0 5.29 1.85 7.36 1.52 1.67 1.52 3.61 1.41 5.62-.47 9-5.82 14.69-12.71 19.57-4.77 3.38-10.31 5.08-15.41 7.74-3.68 1.92-4.37 5.25-3.74 8.3.43 2.08-.28 2.57-1.38 3.35-5.68 4-12.53 5.83-18.39 9.55a8.05 8.05 0 0 1-1.7.31c-5.1 1.66-10.31.9-15.46.6-7.65-.45-15.38.7-23-1.14-1.71 1.14-3.59 2.06-5 3.66 2.57.39 5.12.87 7.7 1.17 9.41 1.08 18.88 0 28.31.82 2.39.21 5 .79 7.36-.3 6.63-3 35.63-23.15 41.7-27m-136.14 3.41c-4.28-1.09-8.92-6.11-9.41-10.09 3.58 2.95 6.28 6.59 9.41 10.09zm266.76-179.23c-4.65-5.72-8.7-12-14.4-16.79-2.68-2.26-2.7-4.83-2-7.77s4.3-6.11 7.64-6.61 5.71 1 7.43 3.73c.66 1 1.78 2.31-.57 2.81a1.21 1.21 0 0 0-.56.41c-1.4 1.59-3.06 3.13-2.31 5.57a2.75 2.75 0 0 0 2.81 2.26 5 5 0 0 0 4.63-3.81c.79-4 3.15-3.42 5.71-2.69 2.25.65 4.64 5.12 4.15 7.17-.3 1.27-1.37 1.14-2.18 1.45-1.66.63-3.33 1.53-2.57 3.52s2.72 1.85 4.48.95a10 10 0 0 0 .91-.55 3.11 3.11 0 0 1 4.6.8c1.24 2-.57 3.37-2.13 4.14a15.66 15.66 0 0 1-4.74 1.17c-1.49.21-3.45-1.06-4.16 1.34-.38 1.3.41 1.83 3.7 2.69a5 5 0 0 1-2.4 2c-4.16 2.28-5.02 1.91-8.04-1.79z"/><path class="cls-3" d="M144.83 482.76c4.37 1.13 21.25-4.68 21.61-6.81a17.17 17.17 0 0 1 13.62-10.43c5.81-.9 18.43 7.09 14.56 14.77-4.91 9.75-17.94 14.2-23.26 13.8-12.36-.9-29.09-7.35-26.53-11.33z"/></g><path class="cls-9" d="M147.66 233a24.67 24.67 0 0 1-17.79-11.73c-2.84-4.71-2.81-9.53-1-14.5.27-.73.38-1.72 1.56-1.45.9.21.89 1 .88 1.68-.08 12.5 14.52 18.33 23.42 17.83 18.46-1 28.88-19.65 22.5-36.61a21 21 0 0 0-8.16-9.91c-7.93-5.37-8.4-11.74-5.42-20.44a27.78 27.78 0 0 1 7.26-11.87c4.34-4 9.33-4.73 14.69-2.59a13 13 0 0 1 8.63 11c.24 1.78-.74 3.16-1.11 4.73a2.37 2.37 0 0 1-2.5 2 2.49 2.49 0 0 1-2.14-2.45 10.4 10.4 0 0 0-5-7.7c-3.6-2.34-6.61-1.85-9.13 1.6a32.47 32.47 0 0 0-5.33 11c-.83 3.17-.34 6 2.64 8.08 6.61 4.62 11.47 10.46 13.69 18.49 6.23 22.56-10.77 45.53-37.69 42.84zM195.26 121.35c1.72-3.44 4-6.08 7.75-7.12 2.22-.62 3.89 0 4.24 2 1.07 6 2 12.07.54 18.18-.29 1.18-.42 2.73-1.85 2.85s-2.45-1.15-3.16-2.35c-1.84-3.1-1.05-6.5-.94-9.81a37.43 37.43 0 0 1 .57-3.85c-2.44 2.64-2.74 5.62-3.6 8.34-.54 1.71-.9 3.47-1.31 5.22a3 3 0 0 1-3.13 2.56 3.18 3.18 0 0 1-3-2.52c-.88-2.66-.86-5.45-1.24-8.18-.12-.88-.24-1.76-.4-3a18.64 18.64 0 0 0-2.23 8.54 18.52 18.52 0 0 1-.17 3.17 2.64 2.64 0 0 1-2.78 2.27 2.53 2.53 0 0 1-2.69-2.33 23.15 23.15 0 0 1 .54-8.26c.38-1.75.91-3.46 1.24-5.22.56-3 3.16-4.05 5.27-5.35 1.4-.86 4.11 1.17 5.52 3.6.28.39.57.79.83 1.26zM162.6 112.75c-2.24-.56-4.53-.36-6.79-.51-1.74-.11-3.43-.41-4.53-2a2.92 2.92 0 0 1-.11-3.44c.81-1.28 1.71-.34 2.72-.15 3.82.73 7.7 1.07 11.51-.16 1.68-.54 3.21-1.57 5.14-1.08s2.4 1.25 1.52 3.14a6.18 6.18 0 0 1-3.43 2.91c-.71.34-1.44.39-1.3 1.64a49.55 49.55 0 0 1-.17 11.23c-.43 3.57-.13 7.13-.22 10.79 2.26-.24 4.4.4 6.58.54a1.65 1.65 0 0 1 1.67 1.17 1.43 1.43 0 0 1-.87 1.8c-5.69 2.94-11.58 4.74-18.06 3a3.15 3.15 0 0 1-.92-.32c-1.17-.76-3.19-.83-3.1-2.67.1-2.12 2.24-1.42 3.49-1.86 1.93-.67 5 0 5.68-1.64s-.09-4 .23-5.92c.9-5.41-.36-10.98.96-16.47zM141.37 168.26a15.67 15.67 0 0 0-5.5 9c-1.25 4.88-2.29 9.82-3.26 14.76-.45 2.31-1.42 3.81-3.94 3.38s-2.88-2.18-2.49-4.27c1.7-8.93 2.44-18.21 8.94-25.47a15.92 15.92 0 0 1 1.44-1.54c4.45-3.8 7.19-3.51 10.29 1.48 5.35 8.62 4.25 17.43.32 26.2a2.22 2.22 0 0 1-2.56 1.41c-1.48-.27-1.73-1.48-1.92-2.63a48.54 48.54 0 0 1-.07-13c.31-3.1.64-6.3-1.25-9.32zM214.49 180.51c-2.55 5.17-4.74 10.14-4.52 15.85.09 2.18-.07 4.56-3 4.66s-3.73-2.26-3.65-4.58a36.63 36.63 0 0 1 8-22c2.46-3.11 6.68-2.56 8.45 1a22.27 22.27 0 0 1-.37 21.73 1.73 1.73 0 0 1-2 1.14 2.28 2.28 0 0 1-1.56-2.16c-.36-3.82-1.62-7.58-.7-11.49a4.62 4.62 0 0 0-.65-4.15zM123.82 179.82c-.4 4.8-4 10.06-6.06 15.85a1.06 1.06 0 0 1-1.42.71c-.95-.4-.81-1.37-.78-2.14.23-7.58-.32-15.25 2.51-22.55a53.35 53.35 0 0 0 1.61-5.38c.37-1.37.52-3 2.49-2.71s1.65 2 1.67 3.38c.06 3.76 0 7.51-.02 12.84zM200.12 186.8c-.34 3.24 0 6.59-1.37 9.68a7.46 7.46 0 0 1-.7 1.58c-1 1.3-2.42 2.78-4 2.46s-1.78-2.36-1.83-3.81c-.19-6.35 1.16-12.59 1.63-18.9.14-1.9 1.75-2.7 3.59-2.56a3.27 3.27 0 0 1 3.24 3.5c.04 2.68-.34 5.36-.56 8.05zM185.77 101l-.49 1.16c-1.91 4.45-3.8 8.92-5.75 13.35-.25.57-.37 1.71-1.39 1.27s-.35-1.25-.13-1.89c1.6-4.67 3.24-9.32 4.81-14 .32-1 .78-1.7 1.84-1.5a1.39 1.39 0 0 1 1.11 1.61zM120.34 146.39a2.18 2.18 0 0 1 1.83 2.91c-.4 1.64-1.26 3.33-3.2 3.07-1.47-.2-1.59-1.81-1.47-3.16a2.74 2.74 0 0 1 2.84-2.82zM198 169.22c-.52.86-.14 2.75-2.08 2.82a1 1 0 0 1-.95-1.5c.37-1.31.53-2.91 2.22-3.14.73-.1 1.14.74.81 1.82zM238 191.69c.1-.38.64-.92.63-.71-.11 2.1.29 4.32-.94 6.25zM285.18 133.53c-1.87-.32-3.43-.83-4.38-2.66-.65-1.25-.3-1.65 1-1.92 4.82-1 7.25-4 7.41-8.86a8 8 0 0 0-5.29-7.71c-2.72-.81-5.52.67-7.4 3.88a19.93 19.93 0 0 0-2.47 6.58c-.21 1.16-.18 2.36-1.89 2.64s-2-.71-2.56-1.68a12.42 12.42 0 0 0-1-1.38c-2.17-2.66-2.13-4.31.29-6.64 1-.93 1.9-2.15 3.13 0a1.43 1.43 0 0 0 2.69-.2 5.27 5.27 0 0 0-.65-5.14 4.37 4.37 0 0 0-4.56-1.62c-5.45.87-10.53 10.76-5.5 16.09 4.25 4.51 3.44 7.92-1.85 10.55-1.6.8-1.84.2-2.24-1.08a29.05 29.05 0 0 1-.91-13.78c.28-1.63.46-3.31-1.4-4.28s-2.84.39-4 1.47a9.53 9.53 0 0 0-2.32-3.51c-2.86-2.7-6.32-2.05-7.88 1.5a31.24 31.24 0 0 0-2.54 10.89 13.58 13.58 0 0 0 1.8 7.73c2.35 4 6.2 4.41 9.37 1 .39-.42.74-.87 1.22-1.44 2 3.14 7.19 6 10.76 6a8.27 8.27 0 0 0 3.84-.49c3.5-1.75 4.91-4.79 4.34-9.2-.08-.58-1-1.67.27-1.95s1 .85 1.14 1.63a17.88 17.88 0 0 0 .81 3.06 8.22 8.22 0 0 0 11.16 4.71 3.32 3.32 0 0 0 1.92-3.16c.01-1.56-1.49-.9-2.31-1.03zm-33.62-8.62c-1.24 2.52-2 5.32-4.13 7.69-3-4.82-1-9.13.15-13.85 1.52 1.91 2 4.12 3.87 5.3a.62.62 0 0 1 .11.85zm30-5.91c.21-.41.5-1 1-.82a2 2 0 0 1 .82 1.12c.77 1.92-.49 3.83-3.36 4.93a9.33 9.33 0 0 1 1.51-5.23zM297 169.91c-3.78-7.67-11.6-7.93-16.77-1-.48.64-1 1.67-1.61 1.7-3.12.14-3.56 2.67-4.48 4.74-1.62 3.66-2.3 7.79-5.79 10.63 1.07-3.21 2.09-6.43 3.22-9.61.58-1.65 1-4-.46-4.48-3.24-1.08-5.44-3.87-8.68-4.64a5.32 5.32 0 0 0-4.32 1c-5 3.49-8.72 12.35-7.45 18.37 1.12 5.33 5.85 8.16 10.6 6 1.58-.71 2.14.21 3 .84 2.27 1.72 4.42 1.82 6.71 0 .64-.51 1.11-1.61 2.33-1.23-.57 7.31.35 14.53 1 21.76.23 2.39 1.45 3.79 3.84 3.58s3.35-1.94 3.31-4.2c-.1-5.4-.37-10.8-.39-16.19 0-7.91.52-15.75 4.86-22.72.57-.92 1-2.54 2.31-2.3s1.88 1.63 2.16 3c.12.57.39 1.11.48 1.68.73 4.86-.06 9.24-3.54 13.05-2.66 2.91-2.26 5.09.7 6.34 2.07.88 6.1-.73 7.81-3.45a22.32 22.32 0 0 0 1.16-22.87zm-38.48 16.46c-1.7.7-1.51-.85-1.67-1.73-.54-2.89 1.42-7.94 4.34-11.37 2.25 2.73.45 11.82-2.66 13.1zM309.31 123.91c.05-6.1-.92-12.19-.07-18.29.24-1.7-.31-3.14-2.29-3.4s-2.94 1-3.19 2.62a43.28 43.28 0 0 0-.33 6c0 3.07.08 6.15.13 9.49-2-1.12-3.56-2.49-5.81-2.25-5.92.64-9.8 6.3-8.45 12.77 1.22 5.88 8.1 11.67 14 6.59.63-.54.77 0 1.12.19 2.88 1.64 5.12.48 5.12-2.76.01-3.62-.26-7.29-.23-10.96zm-13.9 5.82a4.49 4.49 0 0 1-.66-3c.24-1.64 1.53-2.29 2.83-2.71s1.7.77 2.19 1.55c1.74 2.78 2.49 5.93 3.35 9.35a10.42 10.42 0 0 1-7.71-5.18zM239 119.37c-2.25-7-10-8.43-13.83-4.08-.24-4-.46-7.75-.69-11.48-.06-.94-.26-1.87-1.43-1.92s-1.43.84-1.48 1.81c0 .65-.1 1.3-.13 2-.46 10.1-.75 20.21-.57 30.32.08 4.68 3.31 7 7.68 5.51 9.69-3.26 13.06-14.05 10.45-22.16zm-12.72 16.39c.76-4.88.26-9.66 1.68-14.23a10.87 10.87 0 0 1 .71-1.8c1.16-2.23 3.07-2.27 4.44-.11 3.52 5.53 0 14.2-6.84 16.14zM342.95 162c-3.81-2.65-8.1-2.4-12 .37-2.68 1.91-3.72 4.92-5.57 7.47-3.47-4.71-5-5-9.39-1.61a2.9 2.9 0 0 1-2 .51c-3 0-5.06 1.78-6.53 4.15a20.79 20.79 0 0 0-2.21 17.58c2 6.74 8.89 8.37 14.16 3.65 2.28-2 3.61-4.76 5.7-7.81.18 3.7 1.53 6.23 3.91 8 1.48 1.12 3.27 2.21 5.05.46 1.56-1.53.55-2.94-.36-4.4-2.46-3.94-3.6-8-1.93-12.7 2-5.55 5-10 10.55-12.46 1.97-.77 2.98-1.53.62-3.21zm-28.81 26.75c-1.06 1.14-1.83.5-2.46-.55a7 7 0 0 1-.78-4.9 13 13 0 0 1 3.06-7.45 3.11 3.11 0 0 1 3.38-1.32c1.08.34 1.34 1.55 1.41 2.59.25 4.62-1.58 8.39-4.61 11.67zM246.44 179.38c2.25-4.25-1.74-12.55-6.39-13.92-2.11-.62-4.15-.39-5.51 1.22-5.11 6-8 13-6.74 21 .85 5.52 5.91 7.29 10.19 4.05.6 1.89.14 3.72-.32 5.55a57.73 57.73 0 0 1-3.67 13.47c-2.31 5.7-2.32 5.7-6.88 1.72-2.17-1.9-3.1-1.62-3.7 1.11-.82 3.72 2.3 9 6.18 10.39 3.64 1.34 6.83-.32 9.06-4.47 6.17-11.45 6.72-24 7.06-36.54a7.25 7.25 0 0 1 .72-3.58zm-7.82-5.38c-1.62 3.78-2.32 7.94-5 12.15-.12-5.18 1.68-8.95 3.46-12.72a8.91 8.91 0 0 1 .89-1.27 1.61 1.61 0 0 1 .65 1.84zM365.38 190.94c-.5-1.35-2-1-3.11-1.12-3.7-.39-7.45-.55-10.55-3.31 4.44-3.34 8.57-6.73 9.86-12.45 1-4.38-1.28-10.33-4.78-11.83-4.11-1.77-9.14-.06-11.79 4.37a24.15 24.15 0 0 0-3.14 13.52c.24 6.36.81 8.75 2.42 11.16.2.29.36.6.57.89 4.43 6.06 15 7.48 19.24 2.58.96-1.08 1.82-2.36 1.28-3.81zm-14.28-19.49c.31-1 .9-2.52 2.35-2s1.34 2 1 3.27c-.59 2.23-2.15 3.74-4.14 5.49a14.48 14.48 0 0 1 .79-6.76z"/></svg>