<svg xmlns="http://www.w3.org/2000/svg" width="500" height="500" viewBox="0 0 500 500"><defs><style>.cls-1,.cls-8{fill:none;}.cls-2{clip-path:url(#clip-path);}.cls-10,.cls-11,.cls-3,.cls-9{fill:#f9c6ce;}.cls-4{fill:#fff;}.cls-5{fill:#facbd6;}.cls-6{fill:#342f54;}.cls-7{fill:#fefefe;}.cls-10,.cls-8{stroke:#342f54;}.cls-8{stroke-linecap:round;stroke-width:6.57px;}.cls-10,.cls-11,.cls-8,.cls-9{stroke-miterlimit:10;}.cls-9{stroke:#f9c6ce;}.cls-11,.cls-9{stroke-width:1.45px;}.cls-10{stroke-width:3.03px;}.cls-11{stroke:#fff;}</style><clipPath id="clip-path"><circle class="cls-1" cx="240.15" cy="204.29" r="185.61"/></clipPath></defs><title>mehmehv3</title><g class="cls-2" id="Layer_5"><circle class="cls-3" cx="240.15" cy="204.29" r="185.61"/><path class="cls-4" d="M172.17 182c-.54.41-2.17-1.62-2.17-1.62s-1.15 1.77-1.62 1.49l.41-2.51s-1.43-.4-1.22-.88l1.71-.2s.12-2.24.46-2.24l1.26 2.46s1.85-.47 2 0l-1.62 1.49s1.23 1.7.79 2.01z"/></g><g id="Layer_1"><path class="cls-4" d="M431.56 350.34c.19-1 .36-2.08.49-3.15 1.43-12-1.55-22.61-6.93-26.75-.41-2.4 3.3-9.17 2.49-11.33-2.18-5.79-5.25-7.63-9.76-10.66-2.71-1.82-10.6-1.48-13.9-1.88a20.1 20.1 0 0 0-3.21-.1c-.64-16-7.75-28.63-17.85-29.84a14 14 0 0 0-6.59.84 51.11 51.11 0 0 0-29.22-13.87 50.53 50.53 0 0 0-22.27 2.4c-.94-.14-1.89-.29-2.84-.41-28-3.36-54.82 4.43-71.49 22.86-1.79-.61-3.15 1.52-5.1 1.29a27.47 27.47 0 0 0-23.83 9.11 96.44 96.44 0 0 0-13.36 4.15c-18.81 0-35.3 12.26-40.32 29.85a38.41 38.41 0 0 0-6.29-1.29c-16.22-1.94-30.78 6.58-34.31 19.41h-.21c-17.64-2.11-33.45 8.81-35.31 24.39-1.22 10.07 3.78 19.64 12.25 25.71a40.64 40.64 0 0 0 15.69 48.4c3.21 9.95 11.84 18.64 23.51 23.76 5.74 8.41 16.87 14.88 30.25 16.48a52.37 52.37 0 0 0 6.14.37 41.26 41.26 0 0 0 16.2 5.33 43 43 0 0 0 13.61-.48 30 30 0 0 0 7.19 1.79 31 31 0 0 0 20.58-4.93 13.2 13.2 0 0 0 3.08.77 13.64 13.64 0 0 0 14.09-8.34 14.82 14.82 0 0 0 10.76-6.6c5.58.54 11.72-1.41 13.24-5 3.59-.66 12.7-.21 15-1.49 17.66-.19 24.57-9.7 25.9-20.83a14.39 14.39 0 0 0 0-3.18 28.5 28.5 0 0 0 4 .82c10 1.2 21.73-1.43 28.5-8.89 15.85-.48 27.7-8.77 36-19.26a46.27 46.27 0 0 0 43.82-59.45z"/><path class="cls-5" d="M358 428l-69.5 33.5-18.5-1.5 22-7.5s103-37.5 127-94.5c18.23-43.29-33.5-86.5-33.5-86.5l19.5 20.5 21.5 12-2 14 6.5 7 1 55.5-19 22-24 2-5 10z"/><path class="cls-3" d="M229.63 341.7c.17-1 .34-1.67-1-2.29-4.85-2.22-5.76-6.33-2.34-10.38a60.48 60.48 0 0 1 17.53-14.42 23.66 23.66 0 0 0 2.79-1.73c6.38-4.7 13.47-7.69 21.74-7.91a8.57 8.57 0 0 0 2.39-.46c10.93-3.58 22.23-3.94 33.72-3.4 6.58.31 13.12.58 19.25 3a50.28 50.28 0 0 1 10.29 5.62c3.67 2.59 7.91 4.26 11.11 7.71 5.66 6.09 6.78 18.92 2.18 25.77-4.32 6.43-7.2 13.71-12.69 19.48-4.66 4.9-8.59 10.62-15.17 13.45a98.7 98.7 0 0 1-12.26 4.09c-4.88 1.37-9.07 4.21-14.23 5a78.37 78.37 0 0 1-9 1.28 13.08 13.08 0 0 0-6.89 2c-1.8 1.22-2.17 4.66-4.62 4.43-3.53-1.66 4.3-12.89-1.5-15-3-1.11-26.09-16.15-26.93-19.34-2-7.65-6-13.95-14.37-16.9zM248.08 360.36c1.35 3.09 2.24 6.39 3.34 9.59a51.33 51.33 0 0 1-2.14 23.22c-1.16 3.73-3.82 6.2-7.57 6.44s-4.35 2.42-4.21 5.12a13.33 13.33 0 0 1-13.36 14.42c-3.63.07-5.83 3.41-9.36 3.84-1.78.22-3.42 1.37-5 2.43a13.84 13.84 0 0 1-15 .66 11.77 11.77 0 0 0-7.61-1c-10.83 2-11.31-2.19-14-9.13-.56-1.42-.41-3.2-2.54-3.21-5.77 0-8-4.31-10.21-8.53a26.8 26.8 0 0 1-1.41-3.61c-.47-1.32-1.24-2.35-2.73-2.41a7.29 7.29 0 0 1-6.12-3.67c-1-1.56-1.94-1.45-3.5-.67a7.93 7.93 0 0 1-9.47-1.23c-3-2.68-2.57-5.74-1.21-9a37.55 37.55 0 0 1 5.1-8.83c3-3.8 6.11-7.48 8.71-11.51 4.9-7.63 8.81-15 16.94-17.75a61.46 61.46 0 0 1 14-2.92 150.33 150.33 0 0 0 15-1.94c6-1.24 4.24 4 4 2.69-1.06-5.87 2.21-1.72 7.78-2.31 11.06-1.92 28.24 3.37 34.6 8.36 2.23 1.84 3.8 5.97 5.97 10.95zm-89.08 4.85c-.85 5.33-.26 6 4.48 6.66a9.16 9.16 0 0 0 5.14-.87 91 91 0 0 0 15.46-9.12 4.94 4.94 0 0 0 1.95-5 4.55 4.55 0 0 0-3.37-3.65c-7.1-2.63-12.91.51-18.44 4.2-2.76 1.84-5.46 4.2-5.22 7.78zm66.73 27.28c.54-4.25-2.33-6.49-7-5.22a37.81 37.81 0 0 0-20.89 14.2c-1.77 2.39-1 4.22 2 4.64a24.07 24.07 0 0 0 6.34-.07c6.1-.8 10.55-4.81 15.2-8.29 1.89-1.37 4.72-2.29 4.37-5.26zm-9.42-42.25c-.85-.07-1.77-.6-2.17.53a1.51 1.51 0 0 0 1 1.68 16.11 16.11 0 0 0 2.81 1.43 38.05 38.05 0 0 1 19.05 14.57 25.11 25.11 0 0 1 2.64 5 2.06 2.06 0 0 0 2.87 1.23c1-.47.47-1.57.23-2.49-.48-1.9-2-3.14-2.91-4.72-5.42-9.06-14.07-13.68-23.49-17.23zM93.53 381.34c2.27 1.8 3.17 4.91 6.17 6.1 1 .4.94 2 1.27 3.15.88 3-.51 6.09.58 9.29.68 2-2.18 3.53-4 4.83-8.57 6.4-47.07-4.55-46.09-6.43 3.08-.35 9-1.49 11.35-1.91a12.57 12.57 0 0 0 9.27-6.13c2.09-3.41 5.6-5.69 9-7.83 3.92-2.41 8.22-1.79 12.45-1.07z"/><path class="cls-6" d="M420.74 342.59c.41-.91-.32-2.87 1.67-2.36 1.45.37.46 2.11 1.14 2.85-.39 1.14-.67 2-1 2.91-.6 1.62-1.82 3.52-3.36 2.86"/><path class="cls-7" d="M414.37 285.56a5 5 0 0 1-2.4 2c-4.2 2.31-5.06 1.95-8.07-1.76-4.65-5.72-8.7-12-14.4-16.79-2.68-2.26-2.7-4.83-2-7.77s4.3-6.11 7.64-6.61 5.71 1 7.43 3.73c.66 1 1.78 2.31-.57 2.81a1.21 1.21 0 0 0-.56.41c-1.4 1.59-3.06 3.13-2.31 5.57a2.75 2.75 0 0 0 2.81 2.26 5 5 0 0 0 4.63-3.81c.79-4 3.15-3.42 5.71-2.69 2.25.65 4.64 5.12 4.15 7.17-.3 1.27-1.37 1.14-2.18 1.45-1.66.63-3.33 1.53-2.57 3.52s2.72 1.85 4.48.95a10 10 0 0 0 .91-.55 3.11 3.11 0 0 1 4.6.8c1.24 2-.57 3.37-2.13 4.14a15.66 15.66 0 0 1-4.74 1.17c-1.49.21-3.45-1.06-4.16 1.34-.36 1.27.44 1.8 3.73 2.66zM375.14 423.4c-5.77 3.18-11.6 6.22-17.42 9.69 1.45-4.69 10.6-9.92 17.42-9.69zM320.2 457.55c.2-6.07 3.51-10.47 8.24-14zM254.09 283.65l-.58-1a1.36 1.36 0 0 1 1.49.31zM257 470.1c-.4.26-.75 1.11-1.25.44-.34-.45.25-.93.73-1.2z"/><path class="cls-6" d="M159 365.21c-.26-3.58 2.43-5.95 5.23-7.81 5.53-3.69 11.34-6.83 18.44-4.2a4.55 4.55 0 0 1 3.37 3.65 4.94 4.94 0 0 1-1.95 5 91 91 0 0 1-15.44 9.15 9.16 9.16 0 0 1-5.14.87c-4.74-.61-5.33-1.33-4.51-6.66zm9.56-2.78c-1.81.35-3.91.6-4.33 2.81-.18.94 1.59 2.15 2.18 1.74 1.52-1.06 4.41 0 4.71-2.68.2-1.53-1.31-1.66-2.53-1.87zM225.75 392.49c.34 3-2.48 3.89-4.33 5.27-4.65 3.48-9.1 7.49-15.2 8.29a24.07 24.07 0 0 1-6.34.07c-3-.41-3.77-2.25-2-4.64a37.81 37.81 0 0 1 20.89-14.2c4.65-1.28 7.52.96 6.98 5.21zm-16.16 7c-2.86-.43-4.74 0-5.53 2.32a1.43 1.43 0 0 0 1.62 2.05c2.1-.27 4.46-.59 5.3-2.88.55-1.49-1.06-1.41-1.39-1.47zM216.34 350.24c9.42 3.55 18.08 8.17 23.53 17.19 1 1.58 2.43 2.82 2.91 4.72.23.92.82 2-.23 2.49a2.06 2.06 0 0 1-2.87-1.23 25.11 25.11 0 0 0-2.64-5 38.05 38.05 0 0 0-19.04-14.53 16.11 16.11 0 0 1-2.81-1.43 1.51 1.51 0 0 1-1-1.68c.37-1.13 1.3-.61 2.15-.53z"/><path class="cls-7" d="M127.72 454.89c3.58 3 6.23 6.61 9.41 10.09-4.28-1.09-8.92-6.11-9.41-10.09zM168.59 362.43c1.22.22 2.73.34 2.56 1.87-.3 2.72-3.19 1.62-4.71 2.68-.58.4-2.35-.8-2.18-1.74.42-2.24 2.52-2.46 4.33-2.81zM209.59 399.51c.33.06 1.94 0 1.39 1.49-.84 2.29-3.2 2.61-5.3 2.88a1.43 1.43 0 0 1-1.62-2.05c.79-2.29 2.67-2.75 5.53-2.32z"/><path class="cls-6" d="M281.94 464.64c2.86-.13 5.63-.19 8.22-1.63 1.16-.64 2.52-1.22 3.83-.13-2.26 4.83-2.44 5.47-2.16 7.43a11.11 11.11 0 0 0 20.78 3.94c1.71-2.8 2.62-6.21 4.62-8.57a80.21 80.21 0 0 0 10.38-14.8c1.27-2.43 2.48-5.63 5.07-6.42a21.35 21.35 0 0 0 6.56-3.79c2-1.46 4-2.83 6.1-4.2.38-.25.77-.94 1.26.12 1.4 3 3.45 1.93 5.54.76 1.1-.62 1.86-2.07 3.3-1.79 3.61.7 6.32-1 9.06-3a27.89 27.89 0 0 1 4-2.06c4-1.91 8.26-3.49 11.56-6.61 1.51-1.42 2.46-3.08-.84-3.72 4-3.61 6.54-8.11 10.92-10.56 2-1.12 7.1 1.93 9.65 1.78a3.31 3.31 0 0 0 1-.32c7.12-2.91 13.83-6.55 19.32-12a25.86 25.86 0 0 1 11.66-6.89 118.37 118.37 0 0 0 20.5-7.3c5.34-2.44 11.28-2.53 16.65-1.87 4.19.52 5.83-1 7.78-3.56 1.59-2.09 2.31-4.6 3.16-7 2.15-6.11-.19-13.55-5.14-17-3.5-2.43-7.65-2.32-11.31-1.72-10.75 1.76-21.12-1.72-31.88-1.13 3.68-8.09 3.92-8.77 2.47-14.53a63.74 63.74 0 0 1-1.52-9.75c-.31-3.27-.93-6.1-3.8-8.2-1-.76-2.43-1.79-1.42-3.8 2.29-4.56 1.44-9.14-.43-13.63-.64-1.54-1.4-3.16-2.9-3.92-4.35-2.21-9.47-2.49-13.56-5.48-.59-.43-2.18-.09-2-1.22.15-.9 1.53-.82 2.49-.8a6.22 6.22 0 0 0 6.08-3.54c1.08-2.62 3.07-3.85 5.08-5.35 4.41-3.29 4.25-6.93-.43-10a3 3 0 0 1-1.66-2.64c-.5-6.47-3.8-9.61-10.35-10.06a3.59 3.59 0 0 1-3.21-2c-2.42-3.67-5.78-6.44-10.47-6s-9.16 2-11.38 7c-.71 1.61-.21 3.46-1.4 5.31-7.16-5.61-16.11-7-23.93-11.37.52-.36-.58-2.29-.34-2.67 2.33-3.64 3.83-14.42 3.83-15 0-6.05-13.1-9-15.25-9.3-7.26-1.09-22.17 17.69-21.48 21 .42 2-.28 2.53-2.13 3.13-4 1.29-8.08 0-11.92.92-6.94 1.72-33.28 7.35-39 10.34-8.1 4.23-16.66 7.78-22.79 15a6.53 6.53 0 0 1-6.27 2.36c-9.91-1.31-17.89 3.31-25.67 8.41a4.2 4.2 0 0 0-1.37 1.33 21.8 21.8 0 0 0-5 .14c-6.54 1.23-13.47.66-19.49 4.23-1.65 1-3.33.75-5.13.63-8.24-.58-16.07-18.25-20.07-19.1-5.51-1.17-21.59 12.89-15.5 11.5 2.49-.57 11.93 33.08 15.69 29.33-.36 2.74 1.41 3.93 2 5.67-1.09.8-2 .24-2.86.09-8.77-1.59-17.56-1.77-25.69 2.12-7.63 3.65-14.93 8.12-15.83 17.81-2.13-.25-4.23-.57-6.34-.74a21.5 21.5 0 0 0-9.42.8c-6.07 2.19-10.5 6.47-13.81 11.52-5.63 8.59-8.28 19.12-1.88 29.24 2.27 1.8 3.17 4.91 6.17 6.1 1 .4.94 2 1.27 3.15.88 3-.51 6.09.58 9.29.68 2-2.18 3.53-4 4.83a40.21 40.21 0 0 0 3.09 20c2.49 5.82 5.19 11.73 11.27 14.77 3.19 1.59 5 4.11 7.24 6.73a22.5 22.5 0 0 1 5 10.9 8.8 8.8 0 0 0 1.36 2.81c4 6.69 11.16 9.35 16.92 13.79 4.37 1.13 8 4.09 12.6 4.82a57.32 57.32 0 0 1 7.87 1.75c3.68 1.13 3.16-2.16 3.52-4.3-4.85-.63-9-2-12.84-5.76-3.32-3.24-6.75-6.58-11-9.1-3.94-2.33-9.42-4.44-9.79-10.62 0-.65-.91-1.95-1.69-1-1.56 1.89-2.47.9-3.43-.38-1.27-1.71-.08-2.52 1.29-3.24a2 2 0 0 0 1.25-2c-.11-1.43-1.37-1-2.16-1.28-4-1.62-8-3.06-11.44-6-4.24-3.6-6.57-8.3-9.15-13.07-5.39-10-5.16-20.26-3.41-30.89.34-2 1.11-2.15 2.82-1.6 2.58.84 5.19 1.75 8.46 1.5-1.72-2.1-3.77-1.46-5.29-2.21-1.83-.9-5.48-.5-3.61-4.47a.79.79 0 0 0-.54-1.13c-2.84-.4-1.79-1.74-.68-3 .7-.77 2-1.41.8-2.5s-2.4-.53-3.4.59c-1.27 1.4-1.55 3.24-2 5.15-4.59-4.47-7.07-8.49-7.45-13.42-.8-10.34 3.8-18.31 11.43-24.89 4.79-4.12 10-4.86 16.15-3.79 4.77.83 9.4 2.68 15 2.54-1.51-1-2.49-1.73-3.57-2.29-1.77-.91-4.3-.9-3.78-4.1.36-2.18.83-4.36 2.55-5.66s3-3.1 4.7-4.22c3.61-2.34 7.2-5.24 11.57-5.67 5.48-.53 11-.83 16.57.25s10.79 2.4 13.35 8.38c.58 1.35 1.57 2.53 1.92 4.08a1.92 1.92 0 0 0 2.36 1.63c1.31-.36 1.82-1.25 1.31-2.72a21.38 21.38 0 0 0-5-8.65c-3.22-3.17-3.32-4.1-.62-7.64a9.58 9.58 0 0 0 2.38-5.77c0-3 1.63-5.32 3.47-7.53 3.53-4.25 8.2-7 12.89-9.66a13.71 13.71 0 0 1 8.17-1.6c3.78.4 13.24-3.82 13.56-3.53 1.65 1.55 8.72-6 10.29-6.88 7.91-4.36 27.91-4 26.84-5.25 3.78-2 7.6-3.74 11.24-5.85a98 98 0 0 1 25.94-10.77c10.59-2.59 21.24-4.89 32.24-5.3 15.88-.6 31.56-.4 46.4 6.46a23.53 23.53 0 0 1 6.64 4.52c1 1 2 2.27 3.28 2.59 2.93.76 4.37 2.86 6 5.09s2.26 5.24 5 6.61c3.64 1.79 7.93 9.85 7.15 13.78-.9 4.57 3.06 8.73 5.28 4.68 1.12-2 6.5-4.21 8-2.54 4 4.56 13.15 2.84 13.86 12.2.14 1.88-5.38 6-6.53 6.89-2.06 1.55-4.17 3-6.3 4.49-1.22.83-2 1.88-1.18 3.24.92 1.54 2.44 1.32 3.72.5a33 33 0 0 0 3.59-2.86c.81-.69 1.55-1.68 2.72-1.31 1.55.49.26 1.83.62 2.72s.16 2.33 1.3 2.75c1.53.55 1.9-1 2.62-1.84a2.65 2.65 0 0 1 .7-.43c1.64 6.27 3 12.31.33 18.59-1.35 3.12 1 3.31 3.67 2.56a30.83 30.83 0 0 1-12.31 16c1.89 1 3.77 0 6.52-.32-1.89 2.92-4.13 4.94-3.9 7.92s2.84 5 4 7.65a3.08 3.08 0 0 1 .46 1.31c-.1 1.25-1.07 3.17-1.57 3-4.09-1.19-3.28 2-3.37 3.82-.13 2.62-.05 5.13-1.76 7.39-1.38 1.83-3.51 2.78-5 4.39a14.79 14.79 0 0 1-11.83 5.13c-3.27-.07-12.38-.84-12.91-.45-3.44 2.58-4.1 6.87-6.42 10-3.88 5.24-9.17 8.57-16.15 8a39.63 39.63 0 0 1-10-2.27c-1.51-.53-3.36-.58-4.21.77s1 2.15 1.73 3.13a10.68 10.68 0 0 0 2 2c1.52 1.18 1.29 2.34.11 3.55a6 6 0 0 1-3 2.13c-.22-.48-.46-.9-.61-1.34-1.34-4-2.38-4.2-5.66-1.57a73.49 73.49 0 0 1-8.48 6.29 21 21 0 0 1-9.6 3.2c-1.28.06-2.35.08-3.11-1.55a10.4 10.4 0 0 0-10.12-6.32c-4.25.11-7.89 1.83-9.84 6.15-2.52 5.57-4.75 11.23-6.86 17-1.13 3.08-1.72 6.58-4.83 8.59l-8.58 3.18c2.36-2.61-12.84-4.77-21.17-.24l-7.45 8.1c-.4.26-.75 1.11-1.25.44-.34-.45.25-.93.73-1.2.71-1.63-.19-4.37 2.21-4.78 4.73-.82 8.73-3.46 12.88-5.36 12.12-5.55 21.49-17.3 16.17-33.23a3.43 3.43 0 0 1-.07-2.71c3.29-7.25 1.43-13.72-3.17-19.73-4.06-2-7.08-5.82-12-6.37 2.52-3.89 3.64-7.68 2.85-12-1.48-8.14-7.76-11.23-14.44-13.76-3.49-1.33-6.27-3-7.22-6.89-2.28-9.41-6.8-17.08-16.47-20.62-8.83-4.59-18.12-7.37-28.18-6.5-3.95.34-8.55-3-9.93-1.9-2.28-5.61-14-9-13.24-8.67a26 26 0 0 1 11.15 8.78c1.15 1.5-.36 5.07 1.55 5.53 2.2.53.42 2.62.86 4 .32 1 2.33-3.44 7.9-4 8.2-.86 15.87.95 23.39 3.9 2.81.25 4.94 1.89 7.12 3.45 5.48 2.22 8 7 10.2 12 1.35 3.09 2.24 6.39 3.34 9.59 2.43 1.56 8.67 5.46 8.67 5.46 4.64 1.63 9.28 3.21 11 8.61 1.07 3.28 1.11 6.34-1 9.24 0 2.37-4.41 3.11-2.58 5.89 1.35 2.05 4.29 1.56 6.44 2.45a4.19 4.19 0 0 0 .66.26c4.4 1 7 4.29 9.27 7.7a8.71 8.71 0 0 1-1.46 11.24 1.86 1.86 0 0 0-.66 1.13c1.62 2.23 0 5.29 1.85 7.36 1.52 1.67 1.52 3.61 1.41 5.62-.47 9-5.82 14.69-12.71 19.57-4.77 3.38-10.31 5.08-15.41 7.74-3.68 1.92-4.37 5.25-3.74 8.3.43 2.08-.28 2.57-1.38 3.35-5.68 4-12.53 5.83-18.39 9.55a8.05 8.05 0 0 1-1.7.31c-5.1 1.66-10.31.9-15.46.6-7.65-.45-15.38.7-23-1.14-1.71 1.14-3.59 2.06-5 3.66 2.57.39 5.12.87 7.7 1.17 9.41 1.08 18.88 0 28.31.82 2.39.21 5 .79 7.36-.3 6.63-3 35.63-23.15 41.7-27m-136.14 3.41c-4.28-1.09-8.92-6.11-9.41-10.09 3.58 2.95 6.28 6.59 9.41 10.09zm266.76-179.23c-4.65-5.72-8.7-12-14.4-16.79-2.68-2.26-2.7-4.83-2-7.77s4.3-6.11 7.64-6.61 5.71 1 7.43 3.73c.66 1 1.78 2.31-.57 2.81a1.21 1.21 0 0 0-.56.41c-1.4 1.59-3.06 3.13-2.31 5.57a2.75 2.75 0 0 0 2.81 2.26 5 5 0 0 0 4.63-3.81c.79-4 3.15-3.42 5.71-2.69 2.25.65 4.64 5.12 4.15 7.17-.3 1.27-1.37 1.14-2.18 1.45-1.66.63-3.33 1.53-2.57 3.52s2.72 1.85 4.48.95a10 10 0 0 0 .91-.55 3.11 3.11 0 0 1 4.6.8c1.24 2-.57 3.37-2.13 4.14a15.66 15.66 0 0 1-4.74 1.17c-1.49.21-3.45-1.06-4.16 1.34-.38 1.3.41 1.83 3.7 2.69a5 5 0 0 1-2.4 2c-4.16 2.28-5.02 1.91-8.04-1.79z"/><path class="cls-3" d="M144.83 482.76c4.37 1.13 21.25-4.68 21.61-6.81a17.17 17.17 0 0 1 13.62-10.43c5.81-.9 18.43 7.09 14.56 14.77-4.91 9.75-17.94 14.2-23.26 13.8-12.36-.9-29.09-7.35-26.53-11.33z"/></g><g id="Layer_3"><path class="cls-8" d="M161.17 281.89l-33.88-79.23"/><path class="cls-9" d="M161.87 283.9l-33.31-79.21"/><path class="cls-6" d="M209.74 197.15a3.07 3.07 0 0 1-3.31 2.66h-.11a3.09 3.09 0 0 1-1.62-.58l-.29-.18a4.38 4.38 0 0 1-1.4-3.49 4.11 4.11 0 0 1 1.69-3.71 3.43 3.43 0 0 1 1.73-.54 3.73 3.73 0 0 1 1.55.36v-2.74a1.17 1.17 0 0 1 .07-.43.88.88 0 0 1 .86-.58.82.82 0 0 1 .68.32.86.86 0 0 1 .29.68v6.95a5.18 5.18 0 0 1-.14 1.28zm-1.84-3.1a1.4 1.4 0 0 0-.65-.65 3.19 3.19 0 0 0-.83-.22 1.52 1.52 0 0 0-.72.25 2.41 2.41 0 0 0-.79 2.12 2.86 2.86 0 0 0 .79 2.09 3.21 3.21 0 0 0 .72.29h.14a1 1 0 0 0 .68-.18q.76-.32.72-1.87v-1.15a2.85 2.85 0 0 0-.06-.67zM216.87 197.62a1 1 0 0 1 1-.18.93.93 0 0 1 .54.79.79.79 0 0 1-.36.86 3 3 0 0 1-1.26.61 9 9 0 0 1-1.8.07 3 3 0 0 1-1.76-.61 4.3 4.3 0 0 1-1.69-3.49 1.1 1.1 0 0 1 0-.4 4.1 4.1 0 0 1 1.69-3.49 3.34 3.34 0 0 1 2-.61 3 3 0 0 1 1.48.36 3.91 3.91 0 0 1 1.73 3.6v.36a1 1 0 0 1-.07.36.84.84 0 0 1-.86.58h-3.92a1.62 1.62 0 0 0 1.44 1.4h.32a3.51 3.51 0 0 0 1.52-.21zm-1.8-4.5h-.07a1.53 1.53 0 0 0-.72.22 1.75 1.75 0 0 0-.72 1.19h3v-.07a1.48 1.48 0 0 0-.72-1.19 1.21 1.21 0 0 0-.61-.14h-.07zM222.77 191.21a3.83 3.83 0 0 1 1.8.4 1.51 1.51 0 0 1 1 1.55.85.85 0 0 1-.68.72.84.84 0 0 1-.9-.25 1.54 1.54 0 0 0-1.62-.61.15.15 0 0 0-.11 0 .94.94 0 0 0-.83.61.71.71 0 0 0 .07.61 2.44 2.44 0 0 0 1.4.25 3.88 3.88 0 0 1 .86.07 2.49 2.49 0 0 1 1.87 1.15 2.16 2.16 0 0 1 .43 1.4 2.23 2.23 0 0 1-.94 1.91 3 3 0 0 1-.83.43 4.81 4.81 0 0 1-3.38 0 2.37 2.37 0 0 1-1.4-1.37.83.83 0 0 1 .47-1 .81.81 0 0 1 1 0l.11.07a2.12 2.12 0 0 0 2.16.54.9.9 0 0 0 .83-.47.54.54 0 0 0 0-.54 1.5 1.5 0 0 0-1.15-.36 3.49 3.49 0 0 1-2.63-.72 2.27 2.27 0 0 1-.83-2 2.25 2.25 0 0 1 .47-1.4 3 3 0 0 1 2.66-1.12h.07zM229.18 188a1 1 0 0 1 .32.76v.14a.92.92 0 0 1-.47.83.89.89 0 0 1-1 0 .92.92 0 0 1-.47-.83v-.14a.72.72 0 0 1 .07-.32.87.87 0 0 1 .79-.65.82.82 0 0 1 .76.21zm0 3.53a.93.93 0 0 1 .29.68v6.62a.92.92 0 0 1-.47.83.89.89 0 0 1-1 0 .92.92 0 0 1-.47-.83v-6.62a.76.76 0 0 1 .11-.4.82.82 0 0 1 .83-.58.86.86 0 0 1 .74.31zM236.81 202.52a4.8 4.8 0 0 1-.76.43 6.68 6.68 0 0 1-1.87.18h-.18l-.83-.18h-.29a2 2 0 0 1-1.22-.94.87.87 0 0 1 0-.94.86.86 0 0 1 .83-.5.92.92 0 0 1 .83.47v-.11l.43.22a3.59 3.59 0 0 0 .54.11 3 3 0 0 0 1.37-.18 2.38 2.38 0 0 0 .43-1.58 5 5 0 0 1-1.51.36 3.14 3.14 0 0 1-1.76-.58l-.29-.22a4.32 4.32 0 0 1-1.4-3.49 5.44 5.44 0 0 1 .07-.9 3.8 3.8 0 0 1 1.62-2.81 3.49 3.49 0 0 1 2-.58 3.06 3.06 0 0 1 1.94.65 4.19 4.19 0 0 1 1.26 3.31v3.67a4.75 4.75 0 0 1-1.21 3.61zm-2.16-9.36a.14.14 0 0 1-.11 0 1.53 1.53 0 0 0-.72.22 2.42 2.42 0 0 0-.83 2.12v.11q0 2.05 1.55 2.27a2.07 2.07 0 0 0 .83-.25h.18a1.35 1.35 0 0 0 .54-1.26v-1.15a1.88 1.88 0 0 0-.76-1.87 1 1 0 0 0-.61-.18h-.07zM239.69 194.78a3.39 3.39 0 0 1 .76-2.2 3.13 3.13 0 0 1 2.63-1.15 3.29 3.29 0 0 1 3.2 2.34 6.44 6.44 0 0 1 .14 1v4.1a.86.86 0 0 1-.54.83.9.9 0 0 1-.4.11.81.81 0 0 1-.83-.58 1 1 0 0 1-.07-.36v-4.1a1.46 1.46 0 0 0-1.51-1.48 1.35 1.35 0 0 0-1.48 1.15 1.67 1.67 0 0 0 0 .32v4.1a.85.85 0 0 1-.58.83.59.59 0 0 1-.36.11.88.88 0 0 1-.86-.58 1 1 0 0 1-.07-.36v-4.1zM253.33 197.62a1 1 0 0 1 1-.18.93.93 0 0 1 .54.79.79.79 0 0 1-.36.86 3 3 0 0 1-1.26.61 9 9 0 0 1-1.8.07 3 3 0 0 1-1.76-.61 4.3 4.3 0 0 1-1.69-3.49 1.1 1.1 0 0 1 0-.4 4.1 4.1 0 0 1 1.69-3.49 3.34 3.34 0 0 1 2-.61 3 3 0 0 1 1.48.36 3.91 3.91 0 0 1 1.73 3.6v.36a.94.94 0 0 1-.07.36.84.84 0 0 1-.86.58h-3.97a1.62 1.62 0 0 0 1.44 1.4h.32a3.51 3.51 0 0 0 1.57-.21zm-1.8-4.5h-.11a1.53 1.53 0 0 0-.72.22 1.75 1.75 0 0 0-.72 1.19h3v-.07a1.48 1.48 0 0 0-.72-1.19 1.21 1.21 0 0 0-.61-.14h-.07zM260 191.25a3.24 3.24 0 0 1 3 1.76 1 1 0 0 1 0 1 1 1 0 0 1-.9.43.92.92 0 0 1-.79-.61 1.07 1.07 0 0 0-.65-.61 2.68 2.68 0 0 0-.65-.07 1.39 1.39 0 0 0-1.26.5l-.11.18a2.47 2.47 0 0 0-.22.83v4.14a.94.94 0 0 1-.43.83.89.89 0 0 1-1 0 .92.92 0 0 1-.47-.83v-4.14a3.31 3.31 0 0 1 2.2-3.2 3.1 3.1 0 0 1 1.28-.21zM275.58 188.26a1 1 0 0 1 .76.32 1 1 0 0 1 .29.72v2.48h2.48a1 1 0 0 1 .87.47.93.93 0 0 1 0 1 1 1 0 0 1-.87.5h-2.48v2.48a1 1 0 1 1-2.05 0v-2.48h-2.48a.93.93 0 0 1-.86-.5 1 1 0 0 1 0-1 1 1 0 0 1 .86-.47h2.48v-2.48a.92.92 0 0 1 .32-.72.82.82 0 0 1 .68-.32zM292.72 197.62a1 1 0 0 1 1-.18.93.93 0 0 1 .54.79.79.79 0 0 1-.36.86 3 3 0 0 1-1.26.61 9 9 0 0 1-1.8.07 3 3 0 0 1-1.76-.61 4.3 4.3 0 0 1-1.69-3.49 1.12 1.12 0 0 1 0-.4 4.1 4.1 0 0 1 1.69-3.49 3.34 3.34 0 0 1 2-.61 3 3 0 0 1 1.48.36 3.91 3.91 0 0 1 1.73 3.6v.36a1 1 0 0 1-.07.36.84.84 0 0 1-.87.58h-3.92a1.62 1.62 0 0 0 1.44 1.4h.32a3.51 3.51 0 0 0 1.53-.21zm-1.8-4.5h-.11a1.53 1.53 0 0 0-.72.22 1.75 1.75 0 0 0-.72 1.19h3v-.07a1.48 1.48 0 0 0-.72-1.19 1.21 1.21 0 0 0-.61-.14h-.07zM295.92 194.78a3.39 3.39 0 0 1 .76-2.2 3.13 3.13 0 0 1 2.63-1.15 3.29 3.29 0 0 1 3.2 2.34 6.5 6.5 0 0 1 .14 1v4.1a.86.86 0 0 1-.54.83.9.9 0 0 1-.4.11.81.81 0 0 1-.83-.58 1 1 0 0 1-.07-.36v-4.1a1.46 1.46 0 0 0-1.51-1.48 1.35 1.35 0 0 0-1.48 1.15 1.64 1.64 0 0 0 0 .32v4.1a.85.85 0 0 1-.58.83.59.59 0 0 1-.36.11.88.88 0 0 1-.86-.58.94.94 0 0 1-.07-.36v-4.1zM309.92 202.52a4.76 4.76 0 0 1-.76.43 6.67 6.67 0 0 1-1.87.18h-.14l-.83-.18h-.29a2 2 0 0 1-1.22-.94.88.88 0 0 1 0-.94.86.86 0 0 1 .83-.5.92.92 0 0 1 .83.47v-.11l.43.22a3.58 3.58 0 0 0 .54.11 3 3 0 0 0 1.37-.18 2.37 2.37 0 0 0 .43-1.58 5 5 0 0 1-1.51.36 3.14 3.14 0 0 1-1.76-.58l-.37-.28a4.32 4.32 0 0 1-1.4-3.49 5.38 5.38 0 0 1 .07-.9 3.8 3.8 0 0 1 1.62-2.81 3.49 3.49 0 0 1 2-.58 3.06 3.06 0 0 1 1.94.65 4.19 4.19 0 0 1 1.26 3.31v3.67a4.75 4.75 0 0 1-1.17 3.67zm-2.16-9.36a.15.15 0 0 1-.11 0 1.53 1.53 0 0 0-.72.22 2.41 2.41 0 0 0-.83 2.12v.11q0 2.05 1.55 2.27a2.07 2.07 0 0 0 .83-.25h.18a1.35 1.35 0 0 0 .54-1.26v-1.15a1.88 1.88 0 0 0-.76-1.87 1 1 0 0 0-.61-.18h-.07zM314.46 188a1 1 0 0 1 .32.76v.14a.92.92 0 0 1-.47.83.89.89 0 0 1-1 0 .92.92 0 0 1-.47-.83v-.14a.72.72 0 0 1 .07-.32.87.87 0 0 1 .79-.65.82.82 0 0 1 .76.21zm0 3.53a.93.93 0 0 1 .29.68v6.62a.92.92 0 0 1-.47.83.89.89 0 0 1-1 0 .92.92 0 0 1-.47-.83v-6.62a.75.75 0 0 1 .11-.4.82.82 0 0 1 .83-.58.86.86 0 0 1 .74.31zM316.48 194.78a3.39 3.39 0 0 1 .76-2.2 3.13 3.13 0 0 1 2.63-1.15 3.29 3.29 0 0 1 3.2 2.34 6.28 6.28 0 0 1 .14 1v4.1a.85.85 0 0 1-.54.83.9.9 0 0 1-.4.11.81.81 0 0 1-.83-.58 1 1 0 0 1-.07-.36v-4.1a1.46 1.46 0 0 0-1.51-1.48 1.35 1.35 0 0 0-1.48 1.15 1.63 1.63 0 0 0 0 .32v4.1a.86.86 0 0 1-.58.83.59.59 0 0 1-.36.11.88.88 0 0 1-.86-.58 1 1 0 0 1-.07-.36v-4.1zM330.12 197.62a1 1 0 0 1 1-.18.93.93 0 0 1 .54.79.79.79 0 0 1-.36.86 3 3 0 0 1-1.26.61 9 9 0 0 1-1.8.07 3 3 0 0 1-1.76-.61 4.3 4.3 0 0 1-1.69-3.49 1.08 1.08 0 0 1 0-.4 4.1 4.1 0 0 1 1.69-3.49 3.34 3.34 0 0 1 2-.61 3 3 0 0 1 1.48.36 3.91 3.91 0 0 1 1.73 3.6v.36a1 1 0 0 1-.07.36.84.84 0 0 1-.86.58h-3.92a1.62 1.62 0 0 0 1.44 1.4h.32a3.51 3.51 0 0 0 1.52-.21zm-1.8-4.5h-.11a1.53 1.53 0 0 0-.72.22 1.74 1.74 0 0 0-.72 1.19h3v-.07a1.48 1.48 0 0 0-.72-1.19 1.21 1.21 0 0 0-.61-.14h-.07zM338.58 197.62a1 1 0 0 1 1-.18.93.93 0 0 1 .54.79.79.79 0 0 1-.36.86 3 3 0 0 1-1.26.61 9 9 0 0 1-1.8.07 3 3 0 0 1-1.76-.61 4.3 4.3 0 0 1-1.69-3.49 1.08 1.08 0 0 1 0-.4 4.1 4.1 0 0 1 1.69-3.49 3.34 3.34 0 0 1 2-.61 3 3 0 0 1 1.48.36 3.91 3.91 0 0 1 1.73 3.6v.36a1 1 0 0 1-.07.36.84.84 0 0 1-.86.58h-3.92a1.62 1.62 0 0 0 1.44 1.4h.26a3.51 3.51 0 0 0 1.58-.21zm-1.8-4.5h-.11a1.53 1.53 0 0 0-.72.22 1.74 1.74 0 0 0-.72 1.19h3v-.07a1.48 1.48 0 0 0-.72-1.19 1.21 1.21 0 0 0-.61-.14h-.07zM345.24 191.25a3.24 3.24 0 0 1 3 1.76 1 1 0 0 1 0 1 1 1 0 0 1-.9.43.92.92 0 0 1-.79-.61 1.07 1.07 0 0 0-.65-.61 2.68 2.68 0 0 0-.65-.07 1.39 1.39 0 0 0-1.26.5l-.11.18a2.47 2.47 0 0 0-.22.83v4.14a.94.94 0 0 1-.43.83.89.89 0 0 1-1 0 .92.92 0 0 1-.47-.83v-4.14a3.31 3.31 0 0 1 2.2-3.2 3.12 3.12 0 0 1 1.28-.21zM105.61 178h-3.39v-24.4h3.39v24.4zM113.26 155l-2.26 5.59h-1.68l.84-5.51v-3.18h3.07v3.1zM119 159.91l.18 2.46a5.58 5.58 0 0 1 1.82-2.07 4.84 4.84 0 0 1 2.66-.73 4.07 4.07 0 0 1 2.56.83 5.07 5.07 0 0 1 1.63 2.52 6.17 6.17 0 0 1 1.88-2.46 4.48 4.48 0 0 1 2.78-.89 4.22 4.22 0 0 1 3.65 1.9q1.33 1.9 1.33 5.79v10.74h-3.4v-10.75a8 8 0 0 0-.69-3.9 2.23 2.23 0 0 0-2-1.12 2.48 2.48 0 0 0-1.94.88 5.35 5.35 0 0 0-1.13 2.34 1.32 1.32 0 0 0 0 .43v12.120000000000001h-3.33v-10.75a7.85 7.85 0 0 0-.7-3.86 2.25 2.25 0 0 0-2-1.16 2.86 2.86 0 0 0-1.83.59 3.86 3.86 0 0 0-1.17 1.65v13.53h-3.39v-18.09h3.09z"/><path class="cls-4" d="M243.62 53c-.66.51-2.67-2-2.67-2s-1.42 2.18-2 1.83l.5-3.09s-1.76-.49-1.5-1.08l2.1-.24s.15-2.76.56-2.76l1.5 3s2.27-.58 2.5 0l-2 1.83s1.55 2.1 1.01 2.51zM318 76.5c-.66.51-2.67-2-2.67-2s-1.42 2.18-2 1.83l.5-3.09s-1.76-.49-1.5-1.08l2.1-.24s.15-2.76.56-2.76l1.5 3s2.27-.58 2.5 0l-1.99 1.84s1.49 2.09 1 2.5zM376.29 156.23c-.8-.25.09-3.33.09-3.33s-2.59.1-2.65-.57l2.81-1.38s-.61-1.72 0-1.85l1.41 1.58s2.34-1.47 2.58-1.13l-1.58 3s1.79 1.52 1.44 2l-2.65-.57s-.81 2.45-1.45 2.25zM291.27 135.28c-.87.67-3.5-2.62-3.5-2.62s-1.86 2.86-2.62 2.41c-.61-.36.66-4.05.66-4.05s-2.31-.65-2-1.42l2.76-.32s.19-3.62.74-3.62l2 3.94s3-.76 3.28 0l-2.59 2.4s2 2.74 1.27 3.28zM244.77 102.53c-.54.41-2.17-1.62-2.17-1.62s-1.15 1.77-1.62 1.49l.41-2.51s-1.43-.4-1.22-.88l1.71-.2s.12-2.24.46-2.24l1.21 2.43s1.85-.47 2 0l-1.55 1.5s1.2 1.7.77 2.03zM186.34 108.46c-.15.88-3.57.36-3.57.36s.47 2.76-.25 2.91l-1.86-2.81s-1.75.89-2 .24l1.49-1.73s-1.9-2.29-1.57-2.6l3.38 1.28s1.38-2.12 2-1.83l-.25 2.91s2.75.55 2.63 1.27zM220.59 156c.64.81-2.44 3.36-2.44 3.36s2.74 1.72 2.32 2.46c-.33.58-3.86-.56-3.86-.56s-.58 2.2-1.32 1.89l-.29-2.65s-3.44-.13-3.45-.65l3.71-1.93s-.77-2.82 0-3.11l2.32 2.46s2.49-1.95 3.01-1.27zM205 221.13c-.5.38-2-1.5-2-1.5s-1.06 1.63-1.5 1.38l.37-2.31s-1.32-.37-1.12-.81l1.58-.18s.11-2.07.42-2.07l1.12 2.25s1.7-.44 1.87 0l-1.5 1.37s1.12 1.56.76 1.87zM114.23 109.35c.93-.32 2.23 3.24 2.23 3.24s2.4-1.9 2.92-1.3l-1.72 3.26s1.78 1.21 1.27 1.77l-2.44-.52s-1.2 3-1.67 2.87l-.55-3.91s-2.76-.2-2.79-.94l2.92-1.3s-.93-2.92-.17-3.17zM378.46 214.64c-.59-.72 2.14-3.05 2.14-3.05s-2.48-1.51-2.12-2.17l3.47.45s.49-2 1.16-1.71l.34 2.34s3.09.07 3.11.54l-3.3 1.78s.73 2.52.09 2.8l-2.12-2.17s-2.29 1.78-2.77 1.19zM162.28 257.9c.09-1.1 4.35-.83 4.35-.83s-.87-3.34 0-3.6c.68-.21 2.58 3.25 2.58 3.25s2.06-1.28 2.4-.5l-1.61 2.28s2.57 2.61 2.2 3l-4.28-1.21s-1.46 2.75-2.24 2.45v-3.6s-3.47-.35-3.4-1.24zM97.79 197c.26-.7 3 .24 3 .24s0-2.32.64-2.34l1.09 2.57s1.57-.46 1.65.1l-1.48 1.19s1.2 2.16.89 2.36l-2.56-1.55s-1.44 1.52-1.89 1.19l.64-2.34s-2.19-.88-1.98-1.42zM276.13 206.73c.09-.64 2.56-.33 2.56-.33s-.39-2 .12-2.1l1.39 2s1.25-.67 1.42-.21l-1 1.27s1.41 1.61 1.18 1.84l-2.46-.86s-1 1.55-1.39 1.35l.12-2.1s-2.02-.34-1.94-.86zM102.53 262.88c-.29.78-3.32-.28-3.32-.28s0 2.6-.72 2.62l-1.22-2.88s-1.75.51-1.84-.12l1.65-1.32s-1.34-2.42-1-2.64l2.92 1.74s1.62-1.7 2.12-1.33l-.72 2.62s2.36.96 2.13 1.59z"/><path class="cls-10" d="M138.36 207.35l-9.67-1.09-6.39 7.34-1.95-9.54-8.96-3.8 8.47-4.8.85-9.7 7.18 6.58 9.49-2.19-4.03 8.86 5.01 8.34z"/><path class="cls-4" d="M260 260.52c-.38-.74 2.45-2.26 2.45-2.26s-1.89-1.78-1.44-2.3l2.95 1s.8-1.64 1.33-1.28l-.14 2.11s2.69.64 2.61 1.05l-3.22.94s.16 2.34-.45 2.46l-1.44-2.3s-2.34 1.17-2.65.58z"/><path class="cls-11" d="M135.79 205.33l-7.32-.83-4.84 5.56-1.47-7.22-6.78-2.87 6.41-3.64.64-7.34 5.44 4.98 7.18-1.66-3.05 6.71 3.79 6.31z"/><path class="cls-6" d="M160.4 125a17.92 17.92 0 0 0-8.69 3.52c-1.31.9-2.66 1.45-3.72-.1s0-2.6 1.18-3.58c4.4-3.52 9.68-4.23 15-4.62 2-.15 3.5 2.5 3.16 5-.28 2.13-1.55 3.89-2.15 5.87a252.11 252.11 0 0 0-7.9 31.55 99.63 99.63 0 0 0-1.28 26.53 44 44 0 0 0 1.27 8c2.55 8.74 12.62 12.28 20.57 7.26 7.78-4.92 14.5-10.94 18.76-19.31.5-1 1.13-1.94 2.41-1.52s1.32 1.66 1.13 2.82c-2.18 13.14-9.18 22.71-21.23 28.48-6.8 3.26-17 1.32-23.13-4.18-4.61-4.13-6.74-9.33-7.53-15.37-2.8-21.34 1.52-41.64 8.78-61.53.97-2.91 2.18-5.74 3.37-8.82zM283.19 140.78c.11 10.43-1.75 20.48-6.45 29.82-3.33 6.62-8.37 11.47-15.93 13.12a14.29 14.29 0 0 1-9.4-1.25 1.82 1.82 0 0 1-1.27-1.91 1.62 1.62 0 0 1 1.62-1.57c5.44-.42 8.86-3.94 12.22-7.7 8.46-9.45 11.32-20.77 11.23-33.09-.06-8.2-.06-16.39.26-24.58v-1.58a2 2 0 0 1 1.94-2.1 2 2 0 0 1 2.16 1.84c1.86 9.59 3.71 19.22 3.62 29zM184.26 148.08c5-7.06 9.86-5.86 15.3-2a14.43 14.43 0 0 1 4.68 16.55c-.42 1-.77 2-2.13 1.91s-1.5-1.27-1.74-2.29a34.85 34.85 0 0 0-2.9-9c-1.13-2.07-2.45-4.48-5.1-4.06-2.35.37-2.94 2.93-3.51 5a22.22 22.22 0 0 0 .3 11.76c.64 2.39 1.43 4.73 2 7.14a3.57 3.57 0 0 1-2.36 4.45c-2 .52-3.62-.33-4.47-2.44a30.11 30.11 0 0 1-2.6-9.74c-.29-6-2-11.64-3.45-17.37-1.9-7.42-3.89-14.82-3.62-22.59v-1.35c.06-1.23.47-2.29 1.85-2.42s2.18.8 2.45 2.12c.77 3.67 1.47 7.35 2.28 11 .92 4.38 1.94 8.66 3.02 13.33zM256.94 114c1.5.16 2.18 1.11 2.39 2.66a28.35 28.35 0 0 0 7.08 15.69 17.42 17.42 0 0 0 2.46 2.29c1 .75 1.78 1.6 1.06 2.8a2.48 2.48 0 0 1-3.29 1 18.75 18.75 0 0 1-12.29-13.25 17.48 17.48 0 0 1-.07-8.88 2.59 2.59 0 0 1 2.66-2.31zM333.29 135.23v-8.14a1.59 1.59 0 0 1 .44 0c-.25 2.68.54 5.46-.44 8.14zM365.67 102.67a3.74 3.74 0 0 1-.1 2.37 1.13 1.13 0 0 1-.71-1.44c.63.01.51-.6.81-.93zM376.85 113.55c-.17-5.79 0-11.58-.22-17.36a4.94 4.94 0 0 0-5-4.82 5.12 5.12 0 0 0-5.47 4.56c-.26 2.24-.35 4.49-.51 6.74a3.87 3.87 0 0 0-.21.86 3.26 3.26 0 0 0-.07 1 2.59 2.59 0 0 0-.53-.92c-1.39-5.5-5.06-9.11-10-11.47a13.71 13.71 0 0 0-17.21 4.48c-3.25 4.45-4.59 9.51-5 14.92-.35 5.23.61 10.37 1 15.55a47.91 47.91 0 0 0 2.66 5.22c6.08 9.09 19.55 9.81 26.55 2.54 1.2-1.25 2.21-2.68 3.62-4.3.21 10.41.23 20.32-1 30.18a79.2 79.2 0 0 1-7.76 26.64 87.15 87.15 0 0 1-20.29 25.94 68.78 68.78 0 0 1-21.61 13.17c-12.43 4.57-25 3.63-37.51 1-12.88-2.69-25-7.79-37.36-12.18-3.78-1.34-7.42-2.93-9.34-6.86a1.76 1.76 0 0 0-2.62-.94c-1.18.68-.91 1.7-.38 2.74 1.17 2.29 2.94 4.16 4.39 6.26 5.87 8.5 13.95 14.14 23.36 18s19.54 5.57 29.66 7a65.89 65.89 0 0 0 36.06-5c11.14-4.84 20.43-12.22 28.64-21a101.88 101.88 0 0 0 18.13-27c6.3-13.7 8-28.34 8.49-43.17.46-10.59-.15-21.19-.47-31.78zm-12.87.1a28.27 28.27 0 0 1-7.83 15.35c-3.92 3.87-11.77 2.46-13.35-2.76-2.21-7.33-2.93-14.92.35-22.23 2.91-6.48 7.4-7 12.09-1.66 2.41 2.74 3.49 5.78 2.6 9.33-.41 1.63-.15 2.89 1.32 3.63s2.6 0 3.51-1.16c.27-.36.56-.7.84-1.05.42-.02.69.04.49.55zM364 113.65l-.46-.51.62-1.19a1.35 1.35 0 0 1-.16 1.7zM333.32 127.09c-.62-2.68-1.33-5.35-1.84-8.05-.83-4.36-1.68-8.72-4.21-12.47-3-4.44-8.61-4-11.17.66a44.4 44.4 0 0 0-4.6 14.77 103.5 103.5 0 0 0-1 12.41 9.67 9.67 0 0 1-1.14-2c-2.78-5.74-1.91-12.19-3.44-18.19-.8-3.13-2.2-5.46-5.48-6.37a7.72 7.72 0 0 0-8.32 2.49c-.75 1-1.39 2.1-.26 3.2s2.17.58 3.18-.29a2.86 2.86 0 0 1 3.81-.38 76.25 76.25 0 0 0-8.79 9.68c-3.67 5.17-5.64 10.72-3.83 17.13a8.77 8.77 0 0 0 6.9 6.67 8.59 8.59 0 0 0 9-3.26 20.92 20.92 0 0 0 2-3c.51-.93.77-1.32 1.86-.4 1.34 1.14 3 2.33 4.85 1.88a1.9 1.9 0 0 1 2.2.78c1.15 1.23 2.52 1.89 4.23 1.06s1.9-2.47 1.46-4a24.29 24.29 0 0 1-.55-8.93 71 71 0 0 1 .77-7.16c.72-3.61 1.41-7.28 3.47-11 1.57 4 2.93 7.62 3.17 11.54.32 5.31-.08 10.68 1.35 15.9.27 1 .54 2 1.66 2.16s1.66-.76 2.12-1.67c.85-1.67 1.75-3.31 2.62-5a41.29 41.29 0 0 0-.02-8.16zm-35.23 10.76c-.69 1-1.43 2.07-2.84 1.76s-2-1.3-2.26-2.72a8.91 8.91 0 0 1 .33-4.85c1.28-3.84 3.9-6.76 6.79-9.86.97 5.7 1.19 10.91-2.02 15.67zM249.31 125.49c-2.68-2.73-6.67-2.74-10-.76a14.61 14.61 0 0 0-6.22 7.48c-2.34 6-1.23 12.12-.33 18.21.1.7.68 1.37-.27 2a24.73 24.73 0 0 1-9.74 3.86c-1.66.23-2.57-.92-3.13-2.11s.92-1.25 1.51-1.77c5-4.42 7.18-10.4 3.18-15.62-2.68-3.51-6.94-3.91-9.47-.34-4.63 6.54-6.18 13.81-2.54 21.22 3.16 6.4 8.24 8.58 14.8 4.65a22.3 22.3 0 0 0 6.44-5.86c.72-1 1.14-1.13 1.87 0a12.54 12.54 0 0 0 4.45 4 4 4 0 0 0 4.45.17 4.07 4.07 0 0 0 1.77-4.1c-.28-4.07-1.57-7.92-2.46-11.86-.25-1.12-1.07-2-2-1.59-2 .75-1.68-.55-1.72-1.63v-2.28a8.52 8.52 0 0 1 2.5-7.37c1.15-1.18 2.23-1.22 3.38.13a9.55 9.55 0 0 1 1.72 4.08c1 4 1.7 8.1 5.17 10.94.73.6 1.35 1.24 2.36.9s1.06-1.13 1.22-2c1.52-8.09-1.43-14.74-6.94-20.35zm-30.6 20a1.61 1.61 0 0 1 .55-1.92c.51 1.01-.31 1.37-.56 1.93z"/></g><path class="cls-6" d="M224.08 105.49c-.67-.27-1.08-1.14-1.87-1.13a1.21 1.21 0 0 1-.7-.6c-.16-.27-.31-.24-.47 0l-.21-.18c-.11-.6-.58-.38-.87-.56-1.17 0-2.25.65-3.41.75h-.92l.19.07a.47.47 0 0 1-.19-.07h-1.76l-.65-.14a4.07 4.07 0 0 0-1-.77c-.86-.63-.27-1.53-.31-2.31a1.53 1.53 0 0 0 .16-1.18 9.27 9.27 0 0 1-.15-2.24c.5-.54 1.19-.3 1.75-.6a.83.83 0 0 0 .58-.12l.08-.05h.14a3.71 3.71 0 0 0 1.53-.36 2.93 2.93 0 0 0 1.28-.38 3.62 3.62 0 0 0 1.44-.59 8.13 8.13 0 0 0 1.82-1.03c.15-.09.69-.44-.06-.7a2.42 2.42 0 0 1-1.1-.82 4.24 4.24 0 0 0-1.26-1.08 2.79 2.79 0 0 0-.12-.4 1.74 1.74 0 0 1-1.19-.83.5.5 0 0 0-.67-.05l-2.35 1.15a2.66 2.66 0 0 1-1.23.16v-.7c.17-.42.31-.86.51-1.25.78-1.49.75-1.95-.46-2.66-.12-.07-.37-.69-.72-.28a7.49 7.49 0 0 0-2-2c-.4-.39-.61-.15-.79.29a5.35 5.35 0 0 0-1.05 2.5.16.16 0 0 0 0 .17 1.55 1.55 0 0 0-.18 1 18.26 18.26 0 0 0-.44 3.63.83.83 0 0 1-.75 1c-.79.13-1.56.35-2.34.54a1.61 1.61 0 0 0-1 .19 1.5 1.5 0 0 0-.94.19 5.68 5.68 0 0 0-1.92.38h-.9a1.86 1.86 0 0 1-.82.2 1.57 1.57 0 0 1-1.45-.57c-.15 0-.29 0-.28-.32 0-.53-.22-.21-.39-.13h-.28c.16-.38.17-.42 0-.42a1 1 0 0 1-1-1.23l.18-1.33a2.18 2.18 0 0 0 .15-1l.47-1.68h.08a15.14 15.14 0 0 1 1.19-2.51.89.89 0 0 0-.3-1.34 4.52 4.52 0 0 1-1.66-1.22 4 4 0 0 0-1.37-1.25.33.33 0 0 1-.29.22c-.23-.77-.61-.22-.73 0a4.23 4.23 0 0 0-.93 2 3.79 3.79 0 0 0-.48 1.53 2.28 2.28 0 0 0-.32 1.32 1.7 1.7 0 0 0-.16 1 7.17 7.17 0 0 0-.31 2.07c-.21 1.7-.45 3.39-.63 5.09a2 2 0 0 1-.62 1.43l-.84.52a1.36 1.36 0 0 0-.8.42 5.48 5.48 0 0 0-1.59.76 2.38 2.38 0 0 0-.95.59c-.56.26-1.13.51-1.69.78-.18.09-.47.24-.2.51a3.85 3.85 0 0 0 2.28 1.4c-.07.27.07.32.25.44a2.2 2.2 0 0 1 1.24 1.2 5.5 5.5 0 0 0-1.12 1.52 15.5 15.5 0 0 0-1.58 2.14l-1.13 1.31c-1.25-.11-1.92.88-2.56 1.92l-.33.38a.58.58 0 0 0-.16.75c-.67.81-.67.9.15 1.37a3.42 3.42 0 0 0 1.32.73 11 11 0 0 0 1.76 1.34 1 1 0 0 0 1.72-.18 9.1 9.1 0 0 1 .7-.76l1-.93c.45-.09.58-.79 1.09-.86v1a2.12 2.12 0 0 0-.13.44 73.91 73.91 0 0 0-.18 8 2.46 2.46 0 0 0 .89 2.2c1.33.74 2.71 1.35 4.08 2a.51.51 0 0 0 .63.24l-.33-1a.9.9 0 0 0 .52-1c-.06-.5-.05-1-.12-1.5-.25-1.88-.78-3.71-.53-5.66a1.75 1.75 0 0 1 0-1.15.23.23 0 0 0 0-.16 5.31 5.31 0 0 0 .15-1.94l.32-3.43v-.32a2.25 2.25 0 0 0 .15-1.2l.36-2.26a6 6 0 0 1 1.44 0h.16l1.12.57c0 .51-.57.94-.15 1.51a1.78 1.78 0 0 0 .79.59 3.47 3.47 0 0 0 1.27.75.27.27 0 0 0 .32.19l1.13.76c.77.46 1.47 1.39 2.46.59a1 1 0 0 0 .66-.37 2 2 0 0 0 .94-.59 7.41 7.41 0 0 0 1.74-1.16.2.2 0 0 0 .2-.18c.23.14.64-.25.73.33a3.18 3.18 0 0 0-.16 1.33 3.59 3.59 0 0 0-.16 1.32c-.26.45-.55 0-.73-.07-.4-.21-.59-.1-.52.36a14.9 14.9 0 0 0 .48 3 1.66 1.66 0 0 0 1.24 1.87l.52.23a.26.26 0 0 0 .32.19 4.28 4.28 0 0 0 1.29.73 1.69 1.69 0 0 0 1 .73c.74.43.83.34 1-.71a6 6 0 0 0 .34-1.9 8.09 8.09 0 0 0 .32-2.27 6.17 6.17 0 0 0 .15-2.11v-.59a22.2 22.2 0 0 0 0-3.8 6.27 6.27 0 0 0 0-2.37v-1.24h.11a6 6 0 0 0 1.48 1 3.46 3.46 0 0 0 1.28.95 1 1 0 0 0 .75.4.66.66 0 0 0 .52.36 3.57 3.57 0 0 0 1.94.73.19.19 0 0 1 .02-.03l-.12.06a1.55 1.55 0 0 0 1 .18h.64a3 3 0 0 0 1.92 0 9.47 9.47 0 0 0 2.63-1 .38.38 0 0 0 .01-.75zm-28.24-17.89a.16.16 0 0 1-.31-.06.87.87 0 0 0 0-.18zm-9.38 10.3h.15a.18.18 0 0 1-.15-.01zm1 5v-.08a.29.29 0 0 0 .06.07zm.79 16.91zm.84-6.22zm.65 1.43v-.25a1 1 0 0 1 0 .14v.09zm.08 6.34c.09-.1.02.04-.01-.02zm.28-2.1zm.13 2.88v.07-.14l-.01.06zm.21-10.88zm.51-8.48l-.13-.07h.14a.15.15 0 0 1-.02.05zm.17-11.53v.06zm.18-1.33zm.15 5.15zm.32 15zm0 13.32zm0 0zm.16-16.52v-.06.05zm0 13.85v-.31.13zm.28-33.48v-.04.07zm0 31.37zm.55-26.14a2.2 2.2 0 0 0 0-.28.31.31 0 0 1 .05.17zm.15-1.47zm0 1.94zm.2-1.33zm.4 4v.06zm.08-4.22v-.12a.73.73 0 0 1 .01.19zm0 4.91v-.11a.38.38 0 0 0 0 .1v.08zm.1-3.59zm.38 12.89h-.07.08v.05zm12.27 8.76zm-.6-20.53zm-10.37-4.16zm-.43 7.18l.06.15s-.08 0-.06-.08zm-.46-11.05a.06.06 0 0 1-.08-.05zm5.76 22.2zm0 0zm6.56 0zm0-9.83a2.15 2.15 0 0 1-1.33 1c-.62.19-.66.48-.24.95a.42.42 0 0 1 .16.11.67.67 0 0 1 0 .56 2.16 2.16 0 0 0-.62.85l-1.62 1.82v-.05c-.89.24-1.41 1.13-2.13 1.67l-.06.11a4.39 4.39 0 0 1-1.13-.21c-.2 0 0-.89-.42-.42-.11-.74-.48-.74-.9-.39a4.14 4.14 0 0 1-1.17.73.23.23 0 0 0-.08.13.47.47 0 0 0-.75-.07.37.37 0 0 0-.39-.13.74.74 0 0 1-.17-.21 2.59 2.59 0 0 0-1.63-.48 1 1 0 0 0 0 .11v-.05a.15.15 0 0 0 0-.14 4.6 4.6 0 0 0 .17-1.51.61.61 0 0 0 .13-.24 7 7 0 0 1 .19-1.31 2.11 2.11 0 0 0 .06-1.51l.28-.34a9.08 9.08 0 0 0 2.41-1.52l.31-.22a1.56 1.56 0 0 0 .83-.65 1.34 1.34 0 0 1 1.74-.49l.81.72.26.01c.06.78.8.77 1.09 1.3a.66.66 0 0 0 .38 0 3.13 3.13 0 0 0 1.76-.18 1.43 1.43 0 0 0 .94-.16l.06.04a.91.91 0 0 0 1.12-.14v-.07a1.15 1.15 0 0 1-.08.36zm1.65-5.57zm.32 1.92zm.16 14.44zm.5.16v-.12.08zm.13-20.45zm.17 21.44zm0 .06v-.06zm1.27-2.21v-.17h.09zm.63 5.76zm6.35-9.12l.02-.03zm1.2.56zm2.07-.43l-.13.09.13-.09zm-3 2.14zM252.05 108.21a6.71 6.71 0 0 0-1.47.34 1.12 1.12 0 0 0-.83.24h-.33l-.83-.4a4.41 4.41 0 0 0-1-.93l-.79-1a1.71 1.71 0 0 1-.36-1.6c.26-1.28.28-2.62.61-3.88l.35-.11a4.61 4.61 0 0 0 1.69-.23c-.45-.16-.82 0-1.19-.13a2.39 2.39 0 0 1-1 .09l-.11-.11a20.21 20.21 0 0 0 .54-2.61 16.94 16.94 0 0 0 .44-2.37c.11-.61.26-1.21.31-1.82a2.87 2.87 0 0 0-.46-2.45c-.44-.85-.44-.86.23-1.37a.45.45 0 0 1 .14 0c.27.18.19-.09.2-.21a11.89 11.89 0 0 0-.16-1.58 1.11 1.11 0 0 0-.55-.73l-.34-.19a2.19 2.19 0 0 0-.84-.24 3.06 3.06 0 0 0-1.05-.14.53.53 0 0 0-.55-.1 2.73 2.73 0 0 0-1.27-.24 3.61 3.61 0 0 0-1.83 0h-.49a1.2 1.2 0 0 0-.73.12.82.82 0 0 0-.63.11h-.16l.13-1.52a5.91 5.91 0 0 1 .26-1 9.57 9.57 0 0 0 2.19-.59 9.81 9.81 0 0 0 1.71-.57 9.43 9.43 0 0 0-1.64-.37 4.9 4.9 0 0 0-1.65-.35c-.18 0-.26 0-.25-.25s.23-.37-.13-.56a1.2 1.2 0 0 1-.75-.27 2.08 2.08 0 0 0-.85-.27 6.08 6.08 0 0 0-1.08-.21l-.12.2c-.33-.22-.55-.14-.66.27l-.15.56a2.25 2.25 0 0 0-.2.81 1.36 1.36 0 0 1-.32.85h-.31l-.1-.08a.31.31 0 0 0-.44 0h-.52a3.24 3.24 0 0 0-1.47.41h-.11l-1.5.43a.28.28 0 0 0-.17 0h-.19c-.28-.14-.08-.33 0-.48a14.36 14.36 0 0 0 .47-3c.11-.32.23-.65.33-1a.67.67 0 0 0 0-.58c-.26 0-.53-.4-.78 0a1.92 1.92 0 0 0-1-.47 2 2 0 0 0-1 0c-.59-.57-.82-.49-1 .34a8.78 8.78 0 0 0-.44 2.49l-.45 2-.4 1.35-.39 1.06-.61 1.45-1 1.76a6.6 6.6 0 0 0-.79 1.2l-.91 1.4a3 3 0 0 0-.61.83l-.29.38-.19.26-1.72 2.24-1.23 1.29-1 .85a.33.33 0 0 0-.21.22h-.1c-.23-.4-.33.15-.59.06-.53-.19-.75.31-1.06.76h1.78a2.52 2.52 0 0 0 1.17.1 4.22 4.22 0 0 0 3.32-1.43l.22-.21a1 1 0 0 0 .51-.47 6.82 6.82 0 0 0 1.72-2 3.91 3.91 0 0 0 1.12-1.32h.72a13.16 13.16 0 0 0 2.54.23 2.61 2.61 0 0 1 0 .68 18.33 18.33 0 0 0-.33 2.72 1.69 1.69 0 0 0-.07.85 2.48 2.48 0 0 0-.08.93 8.81 8.81 0 0 0 0 2 6.68 6.68 0 0 0 .42 2.6 1.12 1.12 0 0 0 .44.85 1.32 1.32 0 0 0 .88.32l.32.12a14.88 14.88 0 0 0 2.2-.12h1.79l.33-.11 1-.25a6.93 6.93 0 0 0 2.57-2.13.33.33 0 0 1-.08-.14.29.29 0 0 1 .08.14 3.72 3.72 0 0 0 .51-.69.55.55 0 0 0 .3-.25l.21-.55a5.76 5.76 0 0 1-2 .21c-.14-.09-.26-.08-.32.11l-.84.13-.1.1a1 1 0 0 0-.31.19 18.75 18.75 0 0 1-2.65 2.55c-.29.23-.35-.15-.51-.26a.06.06 0 0 0-.05 0l-.31-.83a1.88 1.88 0 0 0-.13-.82v-1.4a1.85 1.85 0 0 0 0-.86c-.22-.43.16-.87 0-1.3.22-1.13.31-2.28.43-3.43a1.7 1.7 0 0 1 .12-.84l.25-.93.53-.06c.81-.14.81-.14 1 .74v-.06a25.22 25.22 0 0 0 .34 3.42c.17.26-.09.72.35.85a2 2 0 0 0 .86 0h.95c.12.18.22 0 .33 0h.85a3.36 3.36 0 0 0 .26-1.91h2.8200000000000003a8.23 8.23 0 0 0 1.84-.04l.62-.08c.05.48-.2.91-.16 1.39a25 25 0 0 0-.71 3.68.6.6 0 0 0-.42.11h-1.72a1.31 1.31 0 0 0-.87.1l-.1.25a2.16 2.16 0 0 0-.82 1.14.79.79 0 0 0-.19.48 5 5 0 0 0-.48 1.31l-.78 1.89a7.27 7.27 0 0 0-.79 1.54 9.6 9.6 0 0 0-.88 1.35 19.83 19.83 0 0 0-1.63 2.44c-.07.1-.15.37.08.28a.91.91 0 0 0 .58-.11l1.06-.12a.77.77 0 0 0 .52-.14.6.6 0 0 0 .75-.08l.18-.1c.29.3.42-.06.55-.19a13.52 13.52 0 0 0 .88-1 7 7 0 0 0 1.15-1.51.87.87 0 0 0 .3-.48 5 5 0 0 0 1-1.67l.3-.59h-.02l.12.1a1.35 1.35 0 0 1 .34 1 .51.51 0 0 0-.09.38 14 14 0 0 1-.4 3c-.06.19-.31.44-.06.63a.58.58 0 0 0 .62 0c.68-.39 1.47-.17 2.17-.41a1.12 1.12 0 0 0 .91-.68.55.55 0 0 1 .24-.28 1.54 1.54 0 0 0 .82.11 13.28 13.28 0 0 0 2.1-.36 3.24 3.24 0 0 0 .94-.12l1.15-.24a3.83 3.83 0 0 0 1.05-.24 2.69 2.69 0 0 0 1-.54 2.18 2.18 0 0 0-.86-.03zm-4.21-14.28v.07zm-.31-.09zm.29-5.29zm-.7 1.61a.48.48 0 0 1 0-.07zm.07 5.57zm0 1.8zm-.42-6.88zm-.07-1.94h.02zm0 .68v.07l-.07-.1zm-.1 9.2zm-.4-10.08v.1-.12l.05.02zm.23 6.49zm-.2.74zm-.47-8.74l.05.09h-.06v-.09zm-14.45-4.4zm-2.22 16.46a.52.52 0 0 1 0-.05v.04zm.13-.8zm.29 4.23zm8.16-1.15zm-7.48-20zm-.26 1.29zm-.39.71zm-.1-2.65a.12.12 0 0 1-.06-.05zm-.32 6.2zm-.52-3.46l.01-.04zm-.08-1.76zm-.52.33zm-.42 3h.01zm-8.4 13.64zm6.62-10.09zm1.77 2.14zm-2.85 3.21zm1.28-2.77zm0-2.36zm-1.34 4.36zm-1.26.13zm4.13-2.62zm-6.71 7.12zm-1.66.81zm10.31-3.65l.05.01zm.08-4c-.13 1.57.09 1.56-1.61 1.84a1.75 1.75 0 0 0-1.19.32.53.53 0 0 0-.43-.14l1-1.5a2.37 2.37 0 0 0 .53-.69 3.08 3.08 0 0 0 1.73 0 1.12 1.12 0 0 0 .03.19zm.24 4.58zm0-.36zm.6 6.28zm.32 1.6zm0-3.18a.28.28 0 0 1 0-.06zm-.14-3.75v-.06.06zm.46-1.18zm0-.25a.23.23 0 0 1-.09-.11h.1v.07zm.35 6.88zm.1-.54zm.12 1.31l.07.02zm-.34-11v-.19h.05a.24.24 0 0 1 0 .07l.02.1zm.32 4.82zm.38 7.46zm-.16-5.16zm2.65-7.4a3.77 3.77 0 0 0-.8 0c0-.77 0-.87-.68-.94a4.14 4.14 0 0 0-.52 0v-.09c.24.23.44 0 .66-.07a2.52 2.52 0 0 0 .82-.34h.19a.34.34 0 0 1 .11.11 4.59 4.59 0 0 0 .09.67 2.59 2.59 0 0 1 .19.63zm.08.56a.42.42 0 0 0 0-.08v.08h-.07zm.33.75zm.28-3.92zm1.14 5.26v-.05zm-.28-8.9a1 1 0 0 0 0 .37 11 11 0 0 0-.12 2.66.61.61 0 0 1-.37.27 1.56 1.56 0 0 0-.75 0h-.07a.57.57 0 0 0-.56-.08c-.42.1-.84.24-1.26.36h-.11a.28.28 0 0 0-.32.1 2.15 2.15 0 0 0-.73.24h-.1a.51.51 0 0 1 0 .11v-.11a.31.31 0 0 0-.31.1 5 5 0 0 0-1.36.36l-1.05.11a7.77 7.77 0 0 0 .69-1.42 9.23 9.23 0 0 0 .78-1.57.78.78 0 0 1 .19-.23 1.69 1.69 0 0 1 .78-.42h.08a2 2 0 0 0 1.53-.24.55.55 0 0 0 0-.08c.1.1.18.08.24 0a.13.13 0 0 0 0-.05h.08a.5.5 0 0 0 .22.09 2.52 2.52 0 0 0 1.28-.44c.08.05.11 0 .14-.08h.14a.49.49 0 0 0 .19.07 2.56 2.56 0 0 0 .83-.18zm.9 11.22zm.1-1.44zm-.41-11.62zm1.05 11.86zm.11-1.4zm1.25 12.54zm.18 4l.05.09a.28.28 0 0 1-.06-.03zm1.58-6.15zm.36-.63zm1.17.24zm1.19-16.73zm-4.57-1.32zm-1.13 1zm6.64 14.49zm-.13-5.41a.91.91 0 0 0-.63.12l-.17-.08a6.06 6.06 0 0 0-2 0 .42.42 0 0 0-.09.18 1.11 1.11 0 0 0-1.08 0 .21.21 0 0 0 0 .16 1.12 1.12 0 0 0-1 0 .79.79 0 0 0 0-.33c-.32-.75-.32-1.48-.47-2.23a.3.3 0 0 0-.06-.1.77.77 0 0 0 .61 0h.2a8.52 8.52 0 0 1 1-.36l1.15-.24a.31.31 0 0 0 .32-.09 2.57 2.57 0 0 0 1.25-.26l1.35-.33v1.28l-.42 2.33h-.06zm.57.44zm.49 13.36zm-.2-8.41zm-.33-12.37c0 .73 0 1.46.08 2.19 0 .25 0 .48-.31.46a1.28 1.28 0 0 1-.65-.06.63.63 0 0 0-.63-.1h-.4l-.09-.11a.47.47 0 0 0-.6 0l-.7.15a10.1 10.1 0 0 0-1.58.42 7.63 7.63 0 0 0-1.54.23v.05a1.35 1.35 0 0 1 0 .13.08.08 0 0 1 0-.13 4 4 0 0 1-.08-1.83c.07 0 .1-.2.2 0 .18.41.41 0 .63.07s.12-.25.09-.42a1.24 1.24 0 0 0 .1-.78l.5-.38v.05a9.23 9.23 0 0 0 2.28-.76l.05-.07a.73.73 0 0 0 .95-.28.59.59 0 0 0 .62.07.74.74 0 0 1 .76.24l.14.12.15.29a.22.22 0 0 0 0 .12 2.21 2.21 0 0 0 .02.36zm.55 7.16zm-.1-3.56zm.07-3.81zm0 1.33zm.49 11.11zm0 0zm0-.66v-.02zm0-8.08v-.08a.18.18 0 0 1 .02.14zm2.09 16.36a.29.29 0 0 1 0-.1.28.28 0 0 1 .19.11h-.19zM259.01 100.04zM276.27 105.56c-.08 0-.19.06-.15.18a.19.19 0 0 0 .23.1.13.13 0 0 0 .12-.15.15.15 0 0 0-.2-.13zM284.38 89.77v-.21a1.34 1.34 0 0 0 0-1.11 7.69 7.69 0 0 0-.2-2 24.23 24.23 0 0 0-.37-2.68 6 6 0 0 0-1.33-3.14 3.66 3.66 0 0 0-1.92-1.38 13.51 13.51 0 0 0-1.58-.53 4.21 4.21 0 0 0 .84 1.11l-.45-.09c0 .21.27.62 0 .54s-.22.21-.35.23a.39.39 0 0 0 0 .45l.42 1.26a1 1 0 0 1 .17.17 3.44 3.44 0 0 0 .21.87l.34 3.49-.12.06a1.07 1.07 0 0 0-.06.57 47.09 47.09 0 0 1 .22 5.65.62.62 0 0 0 0 .2.51.51 0 0 0-.13.45 38.81 38.81 0 0 1-2.33 9.46.5.5 0 0 1-.51.41.48.48 0 0 0-.49.47 4.46 4.46 0 0 0 .21 1.77c1-.29 1.92-.58 2.88-.88a2.79 2.79 0 0 0 1.84-1.27l.53-1a19.53 19.53 0 0 0 1.41-3.93 3.07 3.07 0 0 0 .22-1.13c.19-1 .41-1.94.54-2.92a.9.9 0 0 0 0-.89v-.19a.84.84 0 0 0 .16-.65 9.39 9.39 0 0 0-.15-3.16zm-4.49 14.58zm.33-21zm.19-.93zm2.95 8.23h.07v.1zm.83-2.28a.15.15 0 0 1 0-.12v.12zm0-.35h-.05v.06zm0 .44v-.07l.03.11zM256.24 101.27a2.65 2.65 0 0 0 1.42-.18l3.16-.64.45-.19a1.61 1.61 0 0 0 1.48-1.26 6.73 6.73 0 0 0 .89-3.19 4.38 4.38 0 0 0 .12-1.38 6.88 6.88 0 0 0 .09-.78v-4.3l.11-.11a6.34 6.34 0 0 0 1.22-.75c.17 0 .26-.09.22-.21s-.14-.05-.2 0a4.85 4.85 0 0 0-1.11.08.57.57 0 0 1-.34-.6c0-.7 0-1.4-.11-2.1a.58.58 0 0 1 .54-.78.82.82 0 0 0 .57-.19.22.22 0 0 0 .24-.09 3 3 0 0 0 1.53-.85c-.61.16-1-.48-1.54-.37a9.43 9.43 0 0 0-1.79-.85.56.56 0 0 0-.13-.41 1.72 1.72 0 0 0-.22-.77 3.72 3.72 0 0 0-.31-1.17.28.28 0 0 0 0-.08 7.19 7.19 0 0 0-.44-1.61 8.78 8.78 0 0 0-.46-1.57.82.82 0 0 0-.9-.83c0-.1 0-.2-.21-.13a.79.79 0 0 1-.69 0 .74.74 0 0 0-.77-.09c-.13-.39-.25-.09-.37 0-.1-.27-.36-.18-.56-.21a.42.42 0 0 0-.66-.06c-.29.22 0 .47.08.7a2.06 2.06 0 0 0 .22.85.83.83 0 0 0 .1.53 8.69 8.69 0 0 0 .46 1.8 1.38 1.38 0 0 0 .09.57l.71 3.14c.12.48 0 .69-.57.75-1.32.14-2.62.34-3.94.52l-3.19.3a6.09 6.09 0 0 0-1.58.21 2 2 0 0 0-.88.14.83.83 0 0 0-.66.33c-.05.3.4.21.55.4h.44c.05.26.22.18.38.11h.15a.43.43 0 0 0 .16.2c.37.22.87.21 1.19.45a.91.91 0 0 0 1 .09l1.33-.33a.93.93 0 0 0 .58-.09 1.77 1.77 0 0 0 .79-.1l1.47-.22a4.71 4.71 0 0 0 1.13-.11l1.34-.11c.35 0 .45.12.49.45.13 1 0 2 .19 3.05a.13.13 0 0 0 0 .1 8.51 8.51 0 0 1-1.28.95 13.29 13.29 0 0 0-1.8 1.06l-1.32.65c.09.28.3.13.47.12h2.66a2.2 2.2 0 0 0 1.15-.25.8.8 0 0 1 .11.55v2.5c-.19.7-.1 1.42-.23 2.12a42.19 42.19 0 0 0-.22 1.06.77.77 0 0 0-.12.52c-.33.62-.33.62-.79.11l-.11-.11a.25.25 0 0 0-.37-.08 8.54 8.54 0 0 1-.87.4c-.3-.22-.47.15-.72.14-.17-.24-.3-.42-.59-.15-1.07.53-1.07.53-.45 1.49m10.22-16.9zm-1.51-.67l-.09.07zm-4.75-1.47zm-7 3.75zm.05.54a.07.07 0 0 1 .07.04zm0-.17h.08a.06.06 0 0 1-.01.04zm.59.63zm6.78-7.38zm-.4 21.26zm.68-7.19zm.21-11.81zm.24 14.19zm.13-12.75zm0 10.53zm.05 2v.1a.37.37 0 0 1-.01-.07zm.12-2.15v-.06l-.01.1zm.25 4.24zm0-3.43zm.16-14.29zm0 16.47a1 1 0 0 0 0-.12.39.39 0 0 1 0 .08zm0-4.62zm0 5.22zm.45-11zm0 7.76zm.11 6.7zm.05-9.09zm.36-12.08zm.25 18.1l.04.2c0-.08 0-.17.07-.26v.07zm.23-9.91zm.11.19zm0 6.51a.26.26 0 0 1 .07.08zm.34-3.59zm.26-2.45zM276 78.19c.12 0 .13-.08.15-.16l-.34-.11a.25.25 0 0 0 .19.27zM276.94 78.87zM276.94 91.78a1.05 1.05 0 0 1 .11-.53.42.42 0 0 1 .12-.33.65.65 0 0 0 .12-.52 9 9 0 0 0 .34-1.58 1.79 1.79 0 0 0 .22-1 2 2 0 0 1 .1-.5 5.56 5.56 0 0 0 .35-1.72.66.66 0 0 0 .11-.53 8.63 8.63 0 0 0 .13-3 3.18 3.18 0 0 0-.11-1.17c0-.25 4.28 1.16 4.16.93l-2.74-2.37c-.15-.92-1.77-.29-2.71-.47a.22.22 0 0 1-.19-.17c-.13.1-.24.27-.44.1v-.18c0-.3-.27-.13-.42-.16-.19-.38.35-.06.31-.3h-1.6c.08-.45.57-.2.79-.42a2.42 2.42 0 0 0-1.18-.26 6.37 6.37 0 0 0-2.33 0h-.33c.06.16.31 0 .37.19-.13.18-.56.21-.26.55a1.06 1.06 0 0 0 .66.14 1.62 1.62 0 0 1 1.37.49l.11.42a1 1 0 0 1 .11.23 12.73 12.73 0 0 1 .08 4.71c-.35 2.07-.85 4.12-1.25 6.18-.18.93-.52 1.82-.62 2.77l-.69 2.31-1.35 3.5-.68 1.48a1.46 1.46 0 0 0-.35.62.52.52 0 0 0-.23.53.64.64 0 0 0-.39.47 20.31 20.31 0 0 1-1.39 2l-2 2.67c1-.14 2-.43 2.92-.65a1.66 1.66 0 0 0 .81-.3 27 27 0 0 0 2.45-2.36l.24-.32a10.56 10.56 0 0 0 1.57-2 .67.67 0 0 0 .34-.53 1.2 1.2 0 0 0 .34-.63 1.47 1.47 0 0 0 .34-.74.38.38 0 0 0 .22-.43l.11-.22a.6.6 0 0 0 .23-.52 11.16 11.16 0 0 0 1-2.54 3.56 3.56 0 0 0 .45-1.38 3.07 3.07 0 0 1 .33-.74v-.45l.35-1.27zm1-10zm-.11 4.67v.05l-.06.08zm-.36-3.37l.02.03zm0-1.33v.05zm-.31-.36zm-.38 2.11zm-6.6 18.63zm.16-2.46l.06.03zm1.24 2.66h.06zm.79-5.18zm.12-.32zm.23-3.57zm.32.77zm0 5.56zm.06-3.77l.05-.06zm.17-2zm.05.82zm.08-2.08zm.29 1.26zm.69-3.31zm.23-5.37zm0 2.21a.34.34 0 0 0-.12-.07c0-.07 0-.15.1-.16a.38.38 0 0 1 .09.23zm.64-2.35zm0 10.7zm.44-14.88v.02zm0 0zm.23 13.18zm0-5.81zM276.94 78.87l.58-.08c-.29-.14-.52-.25-.58.08zM276.94 78.87zM265.45 95a2.16 2.16 0 0 0 1 0 1.64 1.64 0 0 0 .68 0c.15 0 .3.18.45 0a1.16 1.16 0 0 0 1-.09 9 9 0 0 0 1-2.23 9.46 9.46 0 0 0 .78-2l.32-.64v-.37a3.57 3.57 0 0 0 .34-1.06l.45-1.38a6.64 6.64 0 0 0 .46-1.48 11 11 0 0 0 .45-1.59c0-.1 0-.2.06-.3a21.61 21.61 0 0 0 .61-2.14 10.77 10.77 0 0 1 .64-2.08c.07-.21 6.72-.53 6.55-.53-.38 0-7.44-1-7.81-1.07-.64-.06-1.13.55-1.73.3-.25-.22-.6-.32-.83-.55a.72.72 0 0 1 .25-.25 9.26 9.26 0 0 0 1.7-1.48v-.06a.68.68 0 0 0 .2-.13l1.46-1.27c.13-.11.23-.3.46-.16a7.52 7.52 0 0 0 1.59-1.69.66.66 0 0 0 .08-.93 1 1 0 0 0-.65-.24 3 3 0 0 0-1.14-.42 18.76 18.76 0 0 0-1.8-.73 3.14 3.14 0 0 0-2-.13 2.82 2.82 0 0 0-1 .1 2.48 2.48 0 0 0-1 .21 6.07 6.07 0 0 0-1.58.32 4.4 4.4 0 0 0-1.27.32 3.08 3.08 0 0 0-1 .32 2.43 2.43 0 0 0-.88.33 2.26 2.26 0 0 0-1.33.87c-.42.38-.4.41.09.64a1.16 1.16 0 0 0 1.14.3 11.35 11.35 0 0 1 1.72.52.79.79 0 0 0 .93-.28 2.15 2.15 0 0 1 .84-.67 5.46 5.46 0 0 0 1.24-.52 1.38 1.38 0 0 0 .68-.2l1.13-.32 1.27-.24c.1.05.37-.06.23.22l-.11.11a1.85 1.85 0 0 0-.56.54l-1.93 1.77a9.4 9.4 0 0 0-1.63 1.24 5.54 5.54 0 0 0-1.35 1.06 5.38 5.38 0 0 0-1.23 1 .35.35 0 0 0-.21.34c.06.21.28.1.43.14l.12.09.56.12a1.26 1.26 0 0 0 .68.21 7.9 7.9 0 0 0 3 .73c.33 0 .43.11.34.42-.17.57-.33 1.15-.47 1.73a17.83 17.83 0 0 0-.71 2.75l-.25 1a1.45 1.45 0 0 0-.23.74 5 5 0 0 0-.45 1.37 1.24 1.24 0 0 0-.22.65 2.64 2.64 0 0 0-.34 1 5.9 5.9 0 0 0-.46 1.36l-1.59 4c-.07.17-.08.36.14.36a1.18 1.18 0 0 0 .69.05zm6.87-13zm-1.16-.73zm-.56 7.6v.09a.38.38 0 0 1 0-.08zm-.55.53a.2.2 0 0 1 .09.13l-.09-.12zm2.52-16.59l.09.06-.1-.05zm-.49-.65zm0 0zm-5.61.21v-.06zm1.16-.44h.11zm-2.51 5.72a.34.34 0 0 1 .14-.22zm4.4 2.25v-.06zm0 11zm0-7zm-.12-6.23zm0 0zm-.21 7.35v.06zm-.36.98zm-.83 2.5zm-.12 1.66v.06l-.07.07a.84.84 0 0 1 .1-.14zm-.77 2.57zm-.24-1z"/></svg>