<svg xmlns="http://www.w3.org/2000/svg" width="120" height="120" viewBox="0 0 120 120"><defs><style>.cls-1,.cls-4{fill:none;}.cls-2{fill:#fff;}.cls-3{clip-path:url(#clip-path);}.cls-4{stroke:#fff;stroke-miterlimit:10;stroke-width:1.92px;}</style><clipPath id="clip-path"><path class="cls-1" d="M.37.34h119.66v119.7h-119.66z"/></clipPath></defs><title>social_github</title><path class="cls-2" d="M0 0h120v120h-120z"/><path d="M47.63 88.29h.16l-.13-.16a.86.86 0 0 1 0 .13z" class="cls-3"/><path d="M21.6 0h-21.6v120h56.41v-10.88h-.1v-1.8c-2.47 0-4.73.15-7 0-4.59-.4-8.13-2.4-9.95-6.9a14.3 14.3 0 0 0-5.6-7 6.78 6.78 0 0 1-1.47-2l2.56-.7a1.24 1.24 0 0 1 .29.07c3.19.56 5.33 2.54 7 5.17 3.11 4.93 7.78 6.49 13.22 4.38a2.08 2.08 0 0 0 1.13-.89c.85-2 1.59-4 2.42-6.2-1-.16-1.92-.3-2.89-.47-5.55-1.06-10.53-3.08-14.3-7.58-4.82-5.79-7.42-20.91-.25-28.92a2.08 2.08 0 0 0 .33-1.62 18.27 18.27 0 0 1 .07-9.93c.71-2.62.94-2.75 3.66-2.22 3.51.68 6.53 2.42 9.57 4.19a3.52 3.52 0 0 0 2.38.45 43.26 43.26 0 0 1 19.47-.45 9.08 9.08 0 0 0 7.73-1.36 17.24 17.24 0 0 1 8.67-3 1.41 1.41 0 0 1 1.65 1.12 19 19 0 0 1 .47 11.11 1.92 1.92 0 0 0 .16 1.52c3.83 4.54 4.86 9.83 4.49 15.62-.68 11.29-6.31 18.17-17.12 20.66-1.63.37-3.3.6-5.19.95 3.14 3.42 3.19 7.52 3.19 11.68-.07 3.62-.07 7.22 0 10.82a2.41 2.41 0 0 0 3.14 2.59 8.17 8.17 0 0 0 1.47-.47 49.18 49.18 0 0 0 13.31-7.3v9.36h21.08v-120h-98.4z"/><path class="cls-4" d="M0 103.33h76.57M75.85 0l.23 104.16M0 94.93h76.57"/></svg>