<svg xmlns="http://www.w3.org/2000/svg" width="120.7" height="120.93" viewBox="0 0 120.7 120.93"><defs><style>.cls-1{fill:none;stroke:#fff;stroke-miterlimit:10;stroke-width:1.93px;}</style></defs><title>social_linkedin</title><path d="M0-.93v120.93000000000002h120.7v-120.7zm39.56 39.83h14.86v5.94a15.94 15.94 0 0 1 12.37-6.93 17.55 17.55 0 0 1 17.32 17.32v28.22h-14.86v-26.24a7.41 7.41 0 0 0-14.83 0v26.24h-14.86v-44.55zm-17.29-26.21a8.9 8.9 0 1 1-8.92 8.92 8.87 8.87 0 0 1 8.92-8.92zm7.42 26.21v44.55h-14.86v-44.55h14.86z" transform="translate(0 .93)"/><path class="cls-1" d="M120.7 17h-77.02M44.41 120.93l-.24-104.78M120.7 25.44h-77.02"/></svg>