<svg xmlns="http://www.w3.org/2000/svg" width="1900" height="596" viewBox="0 0 1900 596"><defs><style>.cls-1{fill:#ec1a3b;}.cls-2{fill:#fefefe;}.cls-3{fill:#f0536b;}.cls-4,.cls-5,.cls-6,.cls-7{fill:#fff;}.cls-10,.cls-5,.cls-7,.cls-8,.cls-9{stroke:#67ad74;}.cls-10,.cls-5,.cls-6,.cls-7,.cls-8,.cls-9{stroke-miterlimit:10;}.cls-6{stroke:#f9c6ce;}.cls-7{stroke-width:0.75px;}.cls-9{fill:#c6f9d0;}.cls-10{fill:#f9c6ce;}.cls-11{fill:#cea5ad;}.cls-12{fill:gray;}</style></defs><title>top-hdbflatv2</title><path class="cls-1" d="M1053.24 15.68h.25a.32.32 0 0 0 .25 0h1.11a.32.32 0 0 0 .25 0h.25c.36 0 .72 0 1.08.08a10 10 0 0 1 2 .42 14 14 0 0 1 4.09 2 14.62 14.62 0 0 1 2.43 2.18 13.91 13.91 0 0 1 2.25 3.4 12.67 12.67 0 0 1 1.18 4 23.48 23.48 0 0 1 .06 3.12 10.77 10.77 0 0 1-.37 2.59 14.29 14.29 0 0 1-7.77 9.25 13.31 13.31 0 0 1-3.87 1.15 10.94 10.94 0 0 1-1.27.07 25.84 25.84 0 0 1-2.83-.06 10.62 10.62 0 0 1-2.07-.44 14.05 14.05 0 0 1-4.09-2 14.56 14.56 0 0 1-2.44-2.19 13.84 13.84 0 0 1-2.21-3.32 13.36 13.36 0 0 1-1.18-3.75c-.05-.36-.05-.74-.08-1.1a.25.25 0 0 0 0-.16v-.34a.32.32 0 0 0 0-.25v-1.11a.32.32 0 0 0 0-.25v-.28c0-.34 0-.69.08-1a9.79 9.79 0 0 1 .4-1.91 14 14 0 0 1 2.36-4.78 14.21 14.21 0 0 1 3.94-3.47 13.8 13.8 0 0 1 4.88-1.78c.37-.06.75-.06 1.12-.08a.37.37 0 0 0 .2.01z"/><path class="cls-2" d="M1053.24 15.68a3.82 3.82 0 0 1-.8.11 14.12 14.12 0 0 0-11.94 11 14.49 14.49 0 0 0-.27 1.74v.14-12.83c0-.15 0-.18.18-.18h12.87z"/><path class="cls-3" d="M1053.74 15.68a.2.2 0 0 1-.25 0h.25zM1055.09 15.68a.2.2 0 0 1-.25 0h.25zM1040.2 29a.2.2 0 0 1 0 .25v-.25zM1040.2 30.33a.2.2 0 0 1 0 .25v-.25z"/><path class="cls-2" d="M1060.85 26.09v1.42a.25.25 0 0 1-.09.24 4.65 4.65 0 0 1-4.73.82 3.51 3.51 0 0 1-2.3-2.88 4 4 0 0 1 4.23-4.75 4.24 4.24 0 0 1 2.48.92c.13.1.12.16 0 .27s-.42.49-.62.74-.14.13-.26 0a2.94 2.94 0 0 0-1.7-.71 2.46 2.46 0 0 0-2.47 1.37 3 3 0 0 0 .36 3.27 2.86 2.86 0 0 0 3.67.29.16.16 0 0 0 .08-.15v-1.19c0-.13-.06-.14-.16-.14h-1.6c-.15 0-.21 0-.2-.19v-.82s0-.18.19-.18h2.9c.15 0 .2 0 .2.19.01.51.02 1 .02 1.48zM1050.7 30.19h2.26c.19 0 .23.06.22.23a7.27 7.27 0 0 0 0 .82c0 .19 0 .25-.24.25h-3.25a.19.19 0 0 0-.23.23c0 .5-.06 1-.1 1.5 0 .16 0 .2.18.15a3.71 3.71 0 0 1 2-.06 2.44 2.44 0 0 1 2 2.66 2.73 2.73 0 0 1-2.65 2.66 4.3 4.3 0 0 1-3.35-1.12c-.1-.09-.12-.15 0-.26q.36-.39.69-.81c.08-.1.13-.1.22 0a3.25 3.25 0 0 0 1.63.86 2 2 0 0 0 1.42-.25 1.32 1.32 0 0 0 .58-1.42 1.3 1.3 0 0 0-1.11-1.07 3 3 0 0 0-1.92.23.31.31 0 0 1-.35 0c-.19-.14-.38-.27-.58-.39a.22.22 0 0 1-.12-.23c.08-1.23.15-2.46.22-3.69a.19.19 0 0 1 .23-.23c.74-.05 1.49-.06 2.25-.06zM1050.57 28.85a4.7 4.7 0 0 1-3-1.11c-.12-.1-.13-.16 0-.27s.4-.45.58-.69.16-.11.27 0a3.54 3.54 0 0 0 1.65.83 2.49 2.49 0 0 0 1.32-.06.89.89 0 0 0 .64-.69.81.81 0 0 0-.45-.92 4.46 4.46 0 0 0-1.18-.4 8 8 0 0 1-1.41-.44 1.86 1.86 0 0 1-1.23-1.71 2.07 2.07 0 0 1 1.09-2 3.52 3.52 0 0 1 2.48-.28 4.2 4.2 0 0 1 1.71.78.13.13 0 0 1 0 .23c-.18.23-.35.47-.51.72s-.16.17-.31.06a3.24 3.24 0 0 0-2-.67 1.39 1.39 0 0 0-.82.24.83.83 0 0 0 .06 1.42 5.14 5.14 0 0 0 1.36.46 8.56 8.56 0 0 1 1.13.36 1.94 1.94 0 0 1 1.38 2 2.14 2.14 0 0 1-1.46 2 3.1 3.1 0 0 1-.6.15 3.7 3.7 0 0 1-.7-.01z"/><path class="cls-1" d="M1055.48 34.2a3.55 3.55 0 0 1 .55-1.94 1.77 1.77 0 0 1 3.09 0 3.79 3.79 0 0 1 .55 2.28 3.67 3.67 0 0 1-.46 1.71 1.81 1.81 0 0 1-2.09 1 2.09 2.09 0 0 1-1.3-1.2 4.08 4.08 0 0 1-.34-1.85z"/><path class="cls-4" d="M1057.76 31.67l-1.51.42-.31-1.2 2.27-.72h1v8.46h-1.46v-7z"/><path class="cls-5" d="M1557.66 486.54l-49.65 15.59-4.72-8.64 45-14.26 9.37 7.31z"/><path class="cls-6" d="M1487.98 484.23l-429.7-415.71 8.96-6.43 465.62 410.19-44.88 11.95z"/><path class="cls-5" d="M841.46 338.7l-327.49-8.79 292.22-301.09 82.72-.4-47.45 310.28zM626.14 215.29l233.82 2.43M664.14 175.18l201.93 2.6M694.09 144.32l176.68 2.76"/><path class="cls-7" d="M719.35 118.3l155.28 3.53M736.54 100.58l140.96 2.48M751.91 84.75l128.02 2.42M764.3 71.98l117.63 2.07M774.51 60.17l109.2 2.25M783.98 51.71l101.17 1.3M791.96 42.4l94.4 2.69"/><path class="cls-5" d="M786.88 481.29l-164.75-15.7 37.22-76.91 144.76 5.39-17.23 87.22z"/><path class="cls-6" d="M759.61 444.88l-84.78-6.31 21.54-48.48 76.81 2.83-13.57 51.96z"/><path class="cls-5" d="M686.79 412.3l79.81 5.82M732.25 391.4l-15.48 49.78M687.36 410.37l79.7 5.97M685.5 414.57l80.95 5.14M729.38 391.13l-15.15 50.32M735.21 390.91l-15.48 50.79"/><path class="cls-5" d="M557.27 439.25l-30.06-10.24 18.94-25.66 32.78 3.02-21.66 32.88zM846.08 432.86l-4.62-94.16 47.45-310.28-.47 59.54-42.36 344.9zM840.71 338.63l-350.32-11.23-15.87 10.25 365.34 10.28.85-9.3zM888.48 508.41l-40.78-33.22-3.54-36.48 44.28-350.75 16.64 15.59-16.6 404.86z"/><path class="cls-6" d="M1016.53 521.06l-128.12-11.82 16.63-405.27 34.14.01 77.35 417.08z"/><path class="cls-5" d="M1150.35 529.22l-133.82-8.16-78.3-428.51 38.09.84 174.03 435.83zM1184.85 532.57l-34.52-3.19-163.29-409.05 7.76-2.35 190.05 414.59z"/><path class="cls-6" d="M44.34 413.12l-13.4-36.22 546.34-281.52 47.88-12.44-580.82 330.18zM833.49 354.37l-356.98-8.5-1.99-8.22 365.46 10.29-6.49 6.43z"/><path class="cls-5" d="M481.16 269.81l-5.88-9.08 12.37-9.59 6.65 10.68-13.14 7.99z"/><path class="cls-8" d="M271.02 434.2l-16.93-1.56 221.17-171.66 3.42 5.42-207.66 167.8z"/><path class="cls-5" d="M453.3 314.44l-13.87-16.69 14.02-11.32 11.14 14.49 27.24 14.9-11.94 12.37-26.59-13.75zM308.4 437.23l-37.33-3.53 168.36-135.95 13.87 16.69-144.9 122.79z"/><path class="cls-6" d="M357.88 441.71l-49.48-4.48 144.9-122.79 26.59 13.75-122.01 113.52z"/><path class="cls-5" d="M832.23 370.66l-366.23-12.03 10.63-12.75 356.61 8.47-1.01 16.31zM404.46 446.51l-22.41-2.07 84.17-85.54 19.06.75-80.82 86.86zM807.78 483.3l-20.9-2.01 22-111.4 23.35.77-24.45 112.64zM610.51 464.52l-40-3.69 58.98-96.58 32.49 1.19-51.47 99.08zM613.99 389.64l-132.88-6.6-1-10.89 140.76 6.21-6.88 11.28zM544.53 439.85l-90.73-4.85 10.14-8.86 86.42 3.7-5.83 10.01z"/><path class="cls-6" d="M548.89 452.56l-85.97-5.68-9.12-11.88 90.73 4.85 4.36 12.71z"/><path class="cls-5" d="M548.89 452.56l-4.36-12.71 5.83-10.01 4.56 10.34-6.03 12.38zM524.61 428.74l-39.15-1.68 21.2-25.52 36.38 1.31-18.43 25.89zM578.93 406.37l-33.74-2.9-17.67 25.27-2.21-.2 17.89-25.24-36.54-1.76 6.3-7.26 33.66 1.92 6.15-9.6 5.51.27-6.1 9.65 32.34 1.84-5.59 8.01zM546.62 396.2l-33.66-1.92 7.44-9.29 32.13 1.99-5.91 9.22zM584.52 398.36l-32.34-1.84 6.1-9.65 32.3 1.6-6.06 9.89zM510.84 397.1l70.69 5.55"/><path class="cls-6" d="M620.87 378.36l-140.76-6.21 5.17-12.5 144.21 4.6-8.62 14.11z"/><path class="cls-5" d="M416.41 447.61l-11.95-1.1 80.17-86.16-4.14 10.87.62 11.82-64.7 64.57zM485.46 427.06l-21.52-.92-10.14 8.86 9.12 11.88 85.96 5.81 6.12-13.38 2.25.21 33.33-51.05 23.41 1.17-43.49 71.32-154.1-13.28 64.71-64.61 39.29 1.93-34.94 42.06zM622.13 465.59l-11.62-1.07 50.99-99.12-2.84 14.43.89 6.61-37.42 79.15zM806.36 382.67l-147.7-2.84 2.84-14.43 147.38 4.49-2.52 12.78z"/><path class="cls-6" d="M804.11 394.07l-144.76-5.39-.69-8.85 147.7 2.84-2.25 11.4z"/><path class="cls-5" d="M754.56 447.86l-93.22-4.57 4.87-9.29 91.06 6.26-2.71 7.6z"/><path class="cls-6" d="M755.19 462.8l-89.3-6.23-4.55-13.28 93.22 4.57.63 14.94z"/><path class="cls-5" d="M755.19 462.8l-.63-14.94 2.71-7.6 1.73 11.53-3.81 11.01zM581.87 322.29l-15.6.4 28.38-34.12 4.25 9.68-17.03 24.04zM650.82 298.77l-51.92-.52-4.25-9.68 61.36 1.39-5.19 8.81zM633.22 323.76l-71.11-2.29-1.82 6.1 69.12 1.94 3.81-5.75z"/><path class="cls-9" d="M604.96 322.85l-23.09-.56 17.03-24.04 26-4.38-19.94 28.98z"/><path class="cls-5" d="M608.7 322.97l-3.74-.12 17.4-23.95 3.4.32-17.06 23.75zM730.32 326.94l-7.65-.7 15.39-34.24 2.2 12.51-9.94 22.43zM797.05 305.73l-56.79-1.22-2.2-12.51 62.11-1.04-3.12 14.77zM756.18 326.97l-25.86-.03 9.94-22.43 28.04-4.19-12.12 26.65zM790.5 327.76l-29.59-.36 9.26-26.91 26.88 5.24-6.55 22.03zM790.02 332.97l-71.18-1.31 2.02-5.59 69.64 1.69-.48 5.21zM761.12 327.05l-4.94-.08 9.94-21.73 2.43.14-7.43 21.67z"/><path class="cls-9" d="M633.22 323.76l-24.52-.79 18.53-28.89 23.59 4.69-17.6 24.99z"/><path class="cls-6" d="M690.65 239.01l-42.46-.65-1.03-11.48 50.71.91-7.22 11.22z"/><path class="cls-5" d="M639.73 250.29l-11.21-1.03 18.64-22.38 1.03 11.48-8.46 11.93zM682.04 251.6l-42.31-1.31 8.46-11.93 42.46.65-8.61 12.59zM678.77 256.16l-55.09-3.33 1.27-2.89 57.09 1.66-3.27 4.56zM818.03 241.64l-50.27-2.13-1.97-11.34 55.1 2.81-2.86 10.66zM756.03 250.98l5.98.55 5.75-12.02-1.97-11.34-9.76 22.81zM813.25 255.26l-51.27-3.48 5.78-12.27 50.27 2.13-4.78 13.62zM811.54 260.25l-58.58-4.53 1.37-4.01 58.92 3.55-1.71 4.99zM777.076 202.534l.276-2.988 50.796 4.692-.276 2.988zM829.59 197.89l-39.26-2.99-1.7-10.2 44.06 1.43-3.1 11.76zM788.16 200.72l-9.09-.84 8.84-14.12 2.42 9.14-2.17 5.82zM827.99 204.4l-39.83-3.68 2.17-5.82 39.08 3.6-1.42 5.9zM719.86 195.42l-34.06-2.72-1.97-8.63 42.49 1.15-6.46 10.2zM680.76 199.18l-9.93-.24 13-14.87 1.97 8.63-5.04 6.48z"/><path class="cls-6" d="M714.4 201.95l-33.61-3.1 5.02-6.32 34.07 2.65-5.48 6.77z"/><path class="cls-5" d="M712.07 204.58l-45.28-2.67 4.04-2.97 43.54 3.34-2.3 2.3zM743.17 160.42l-30.54-2.76-1.21-6.82 38.56 1.09-6.81 8.49zM709.51 163.34l-7.55-.7 9.46-11.8 1.21 6.82-3.12 5.68zM738.21 167.53l-39.31-2.58 1.31-1.47 38.84 2.58-.84 1.47z"/><path class="cls-6" d="M739.05 166.06l-29.54-2.72 3.12-5.74 30.54 2.82-4.12 5.64z"/><path class="cls-5" d="M839.47 161.65l-35.55-1.15-1.17-7.77 38.98.71-2.26 8.21zM802.98 163.93l-5.32.51 5.09-11.71 1.17 7.77-.94 3.43zM838.18 167.43l-35.2-3.5.94-3.43 35.55 1.15-1.29 5.78zM836.23 169.51l-40.39-3.1 1.82-1.97 40.52 2.99-1.95 2.08zM761.31 134.39l-24.2-1.73-3.26-7.25 34.97 1.97-7.51 7.01zM736.5 134.8l-6.64-.11 3.99-9.28 3.26 7.25-.61 2.14zM757.42 138.43l-30.38-1.88 3.3-2.17 28.61 1.97-1.53 2.08zM847.37 135.89l-31-2.86-2.33-5.99 34.84 1.96-1.51 6.89zM814.14 136.84l-3.36-.31 3.26-9.49 2.33 5.99-2.23 3.81zM844.45 141.64l-36.1-3.33 2.43-1.78 35.22 3.25-1.55 1.86zM852.88 112.59l-27.3-1.81-1.66-3.84 30.59.48-1.63 5.17zM824.22 114.67l-1.99-.18 1.69-7.55 1.66 3.84-1.36 3.89zM852.01 118.24l-33.25-1.56 1.47-2.38 31.99 1.62-.21 2.32zM776.96 115.33l-21.91-2.02 1.73-7.87 24.89 2.29-4.71 7.6zM752.65 112.08l-3.23-.29 6.36-6.45-2.31 3.31-.82 3.43zM743.041 114.041l.184-1.992 33.864 3.128-.184 1.992zM788.57 98.33l-20.91-1.93-.36-7.07 26.63 1.71-5.36 7.29zM767.66 96.4l-4.98-.46 4.2-6.56 1.05 4.07-.27 2.95zM787.39 100.23l-25.48-2.35.77-1.94 25.89 2.39-1.18 1.9zM756.04 113.4l-3.48-.32 3.16-6.99 5.89-4.9-5.57 12.21zM774.3 115.09l-7.3-.68 4.08-11.16 4.26 5.99-1.04 5.85zM857.91 97.78l-28.84-1.74 2.42-5.81 28.08.42-1.66 7.13zM856.82 98.72l-31.04-.98 1.18-1.9 31.53 1.15-1.67 1.73z"/><path class="cls-6" d="M862.13 82.02l-25.27-2.34 1.08-4.92 25.27 2.33-1.08 4.93z"/><path class="cls-5" d="M860.11 84.84l-26.28-2.21 1.66-3.07 26.64 2.46-2.02 2.82zM865.46 70.4l-22.95-1.65.35-3.78 22.98 1.32-.38 4.11zM863.71 71.62l-23.96-1.46 1.64-1.48 24.07 1.72-1.75 1.22zM868.56 58.51l-20.91-1.93.19-1.99 22.02.4-1.3 3.52z"/><path class="cls-6" d="M866.39 60.31l-21.41-1.97 1.68-1.85 21.9 2.02-2.17 1.8z"/><path class="cls-5" d="M870.39 49.64l-18.55-1.71.9-2.93 18.92 1.74-1.27 2.9zM869.21 51.54l-19.55-1.81.81-1.93 19.92 1.84-1.18 1.9z"/><path class="cls-6" d="M873.02 42.85l-17.92-1.65.27-2.99 18.02.66-.37 3.98z"/><path class="cls-5" d="M872.84 44.84l-19.92-1.84 1.18-1.9 19.92 1.84-1.18 1.9zM827.07 41.62l-16.56-1.52 1.91-2.34 16.2.62-1.55 3.24zM825.64 43.5l-18.3-1.69 1.68-1.85 17.92 1.65-1.3 1.89zM821.18 49.62l-17.97-1.16 2.77-2.76 17.39.6-2.19 3.32z"/><path class="cls-6" d="M821.2 52.13l-20.79-1.92.81-1.93 20.91 1.93-.93 1.92z"/><path class="cls-5" d="M815.33 58.62l-20.29-1.88 3.82-4.66 19.33 2.78-2.86 3.76zM815.14 60.61l-22.94-1.62 2.09-2.31 21.91 2.02-1.06 1.91zM808.25 70.02l-21.97-2.66 1.52-4.25 23.82 1.69-3.37 5.22zM807.82 71.98l-24.77-2.28 1.3-1.89 24.9 2.3-1.43 1.87z"/><path class="cls-6" d="M800.18 81.32l-23.27-1.31 1.73-4.69 24.43 1.83-2.89 4.17z"/><path class="cls-5" d="M799.9 84.31l-27.46-1.7 1.15-2.4 26.51 1.94-.2 2.16zM758.95 136.35l-21.95-1.61.19-1.99 24.12 1.64-2.36 1.96zM846 139.78l-31.86-2.94 2.23-3.81 31 2.86-1.37 3.89zM852.22 115.92l-28-1.25 1.36-3.89 27.3 1.81-.66 3.33zM571.02 271.12l278.3 6.55"/><path class="cls-5" d="M845.44 53.36l-22.7-.25 10.69-12.91 12.01 13.16zM845.44 53.36l-12.01-13.16 13.84-20.35 9.28 5.58-11.11 27.93zM833.43 40.2l-10.69 12.91 18.04-26.96 5.3-5.14-12.65 19.19zM847.27 19.85l-3.79 3.68 6.37-9.77-2.58 6.09zM845.47 424.94l2.22 50.33 13.9 11.41-17.48-1.62-11.88-114.32 1.27-16.56 6.49-6.33.75-9.49 4.73 86.58z"/><path class="cls-6" d="M844.11 485.06l-8.63-.79-8.61-88.92 5.36-24.69 11.88 114.4z"/><path class="cls-5" d="M835.48 484.27l-27.7-.97 19.09-87.95 8.61 88.92z"/><path class="cls-6" d="M969.26 109.97l-14.93-1.37-.71-3.29 14.65.78.99 3.88z"/><path class="cls-5" d="M973.23 121.39l-16.93-1.56-.7-3.29 16.32.93 1.31 3.92z"/><path class="cls-6" d="M973.22 132.43l-14.94-1.37-.7-3.29 14.64.77 1 3.89z"/><path class="cls-5" d="M983.74 148.97l-19.98-1.17-.5-5.45 18.48 1.13 2 5.49z"/><path class="cls-6" d="M988.14 166.62l-19.98-1.18-1.39-6.7 19.47 1.23 1.9 6.65z"/><path class="cls-5" d="M993.36 186.18l-19.97-1.18-1.39-6.69 19.47 1.22 1.89 6.65z"/><path class="cls-6" d="M1002.79 209.14l-23.84-1.19-.92-8 21.8 1.44 2.96 7.75z"/><path class="cls-5" d="M1012.41 237.31l-24.94-.88-2.7-11.54 24.07 2.22 3.57 10.2zM1021.08 270.41l-27.44-.18-1.74-13.76 25.53.89 3.65 13.05zM1037.13 314.12l-32.2-1.18-2.67-16.35 29.01 1.21 5.86 16.32z"/><path class="cls-6" d="M1055.75 369.85l-35.56-.93-5.41-22.97 32.99 1.57 7.98 22.33z"/><path class="cls-5" d="M1082.36 444.28l-43.18-1.81-7.46-29.81 39.88 1.34 10.76 30.28zM993.58 398.83l105.57 2.34M1133.43 486.84l-124.84-4.98M982.05 335.1l92 3.21M1054.71 289.87l-81.66-3.27M966.46 251.04l73.73 2.45M961.2 222.71l66.81.14M956.28 196.17l61.51 1.21M952.2 174.18l58.16 1.77M949.81 156.6l51.94.48M946.85 140.26l48.5.9M944.41 126.76l47.31 1M942.2 114.51l42.63.2M939.19 103.98l41.44.22"/><path class="cls-5" d="M978.09 95.94l-40.57-1.11.21-2.33 38.21.85 2.15 2.59z"/><path class="cls-6" d="M1292.39 542.49l-107.54-9.92-190.05-414.59 12.97 13.62 11.93-11.32 272.69 422.21z"/><path class="cls-5" d="M1473.16 469.9l-175.46 58.6-16.34-3.1-275.13-424.23 43.45-41.02 423.48 409.75z"/><path class="cls-6" d="M1492.03 474.04l-168.79 55.23-25.54-.77 183.16-64.03 11.17 9.57z"/><path class="cls-5" d="M1491.19 483.15l-146.69 49.67-21.26-3.55 168.79-55.23 11.26 19.45-12.1-10.34z"/><path class="cls-6" d="M1508.24 499.64l-109.82 36.56-53.92-3.38 146.69-49.67 17.05 16.49z"/><path class="cls-5" d="M1433.13 541l-34.71-4.8 109.82-36.56 7.06 10.55-82.17 30.81zM1548.29 479.23l-45 14.26-7.27-12.55 36.84-8.66 15.43 6.95z"/><path class="cls-6" d="M1576.37 506.88l-53.49 13.69-14.87-18.44 49.65-15.59 18.71 20.34z"/><path class="cls-5" d="M1592.84 518.82l-31.32 7.52-38.64-5.77 53.49-13.69 16.47 11.94z"/><path class="cls-6" d="M1577.35 452.69l-29.06 26.54-15.43-6.95 35.21-27.84 9.28 8.25z"/><path class="cls-5" d="M1557.66 486.54l-9.37-7.31 29.06-26.54 7.24 8.63-26.93 25.22zM1576.37 506.88l-18.71-20.34 26.93-25.22 23.13 21.38-31.35 24.18z"/><path class="cls-6" d="M1592.84 518.82l-16.47-11.94 31.35-24.18 16.65 9.99-31.53 26.13z"/><path class="cls-5" d="M1816 467.5l-238.65-14.81-9.28-8.25 309.07 13.41-61.14 9.65zM1778 474.04l-193.41-12.72-7.24-8.64 238.65 14.82-38 6.54zM1680.73 485.93l-56.36 6.76-16.65-9.99-23.13-21.38 193.41 12.72-97.27 11.89z"/><path class="cls-8" d="M1532.86 472.28l-465.62-410.19-2.34-9.07 490.98 401.05-23.02 18.21z"/><path class="cls-9" d="M1877.14 457.85l-309.07-13.41-12.19 9.63-490.98-401.05 81.61 2.51 730.63 402.32z"/><path class="cls-10" d="M513.97 329.91l-23.58-2.59-15.85 10.17 1.97 8.38-94.46 98.57-24.17-2.73 139.93-133.54 12.89 4.49 8.87-10.18 19.06 1.76-24.66 25.67z"/><path class="cls-5" d="M510.7 312.66l-8.29-2.89 18.22-18.74 3.37-1.2 18.8 10.37-4.17 4.04-19.06-1.76-8.87 10.18zM472.75 271.19l5.93-4.79 2.48 3.41-8.41 1.38z"/><path class="cls-10" d="M254.09 432.64l-30.17-2.87 270.38 69.87-166.25 94.36-283.73-180.8 580.84-330.31 19.92 49.06-390.99 300.69z"/><path class="cls-11" d="M907.42 39.26l-.4-.13-.24-.4a21.39 21.39 0 0 1 .84-3.54l-.13-.13q-1.17.57-3 4.07h-1.06a21.83 21.83 0 0 0 1.3-3.83l-.15-.3q-.57.07-1.65 1.78l-1.34 2.31h-.86l1-4.18a.76.76 0 0 1 .92-.42h.18q-.22 1.12-.62 2.55 1.57-2.6 2.6-2.6a.72.72 0 0 1 .74.87q0 .11-.33 1.48 1.39-2.35 2.35-2.35a1.16 1.16 0 0 1 .66.25.69.69 0 0 1 .35.53 3.74 3.74 0 0 1-.39 1.34 3.75 3.75 0 0 0-.38 1.29 4.31 4.31 0 0 0 .07.59 1.36 1.36 0 0 0 .88-.46l.73-.75.31.37-1.1 1a2.16 2.16 0 0 1-1.28.66zM911.29 44a.72.72 0 0 1-.79-.84 3.54 3.54 0 0 1 1.21-2.16 11.51 11.51 0 0 0 1.39-1.58q.31-1 .84-3-1.5 2.82-2.68 2.82-.81 0-.81-1.18a12.88 12.88 0 0 1 .88-3.44l1.06-.15a14 14 0 0 0-1 3.7 1.64 1.64 0 0 0 .09.52h.07q.77 0 2.93-4.18h.95l-.88 3.52.84-.7.09.44-1.21 1.28a11.3 11.3 0 0 0-.62 1.83 10.45 10.45 0 0 1-.79 2.13 1.73 1.73 0 0 1-1.57.99zm-.29-.49l.22.18q1 0 1.58-3.15a4.2 4.2 0 0 0-1.8 2.97zM935.33 23.25l-1.67-.92q5.17-2.82 5.17-4.93 0-1.36-3.33-1.36a13.31 13.31 0 0 0-6.05 1.53q-3.6 1.84-3.6 4.52 0 1.46 2.31 3.26l4.28 3.33a6.26 6.26 0 0 1 2.31 4.52q0 3.47-3.94 5a19.77 19.77 0 0 1-6.87 1 28 28 0 0 1-8.64-1.73l1.22-1.33a21.88 21.88 0 0 0 9.08 2.21 11.7 11.7 0 0 0 5-1 4.08 4.08 0 0 0 2.75-3.84q0-1.73-2.38-3.67l-4.35-3.33q-2.38-2-2.38-4 0-3.81 4.62-5.75a19.74 19.74 0 0 1 7.89-1.5 4.1 4.1 0 0 1 2.21.61 2.06 2.06 0 0 1 1.16 1.84 4.5 4.5 0 0 1-1.73 3.23q-.39.31-3.06 2.31zM938.08 39.34a.93.93 0 0 1-.78-.42 1.51 1.51 0 0 1-.3-.92 26.1 26.1 0 0 1 1.63-5.89l1.6-.34q-.48 1.5-1 3a20.52 20.52 0 0 0-.75 3.09l.52.14q.48 0 1.8-2a3.22 3.22 0 0 1 .17.94 6.19 6.19 0 0 1-1.29 1.45 3 3 0 0 1-1.6.95zm2.35-9.86l-.48-.14a1.08 1.08 0 0 1-.37-.88 1.1 1.1 0 0 1 .71-1 1 1 0 0 1 1.09 1 .92.92 0 0 1-.95 1.02zM948.08 39.34a1.21 1.21 0 0 1-1.33-1.4 5.71 5.71 0 0 1 .83-2.44 5.69 5.69 0 0 0 .83-2.37.62.62 0 0 0-.24-.48 7.3 7.3 0 0 0-2.92 3q-1.05 1.77-2.14 3.54l-1.11-.13 1.9-6.9 1.65-.34-1.16 4.08q.82-1.24 1.66-2.48a3.28 3.28 0 0 1 2.41-1.61 1.35 1.35 0 0 1 .9.42 1.2 1.2 0 0 1 .46.86 6.47 6.47 0 0 1-.71 2.54 9.9 9.9 0 0 0-.92 2.5h.48q.61 0 2.31-2l.14.72q-1.48 2.49-3.04 2.49zM953.45 46.71a1.33 1.33 0 0 1-1.45-1.56 3.51 3.51 0 0 1 1-2.28 15.08 15.08 0 0 1 2-1.87 10.2 10.2 0 0 0 1.8-1.77 8 8 0 0 0 .75-2.52q-1.91 2.72-3.54 2.72a1.55 1.55 0 0 1-1.28-.63 2.23 2.23 0 0 1-.49-1.41 5.06 5.06 0 0 1 2.11-3.88 6.44 6.44 0 0 1 4.15-1.67 7.76 7.76 0 0 1 1.56.2l-.2 1.09a3.51 3.51 0 0 0-1.73-.48 3.85 3.85 0 0 0-3 1.44 4.74 4.74 0 0 0-1.26 3.18q0 1 .71 1 1.43 0 4.22-5l.88.2-.88 4.15 1.46-1.3.29.68-2.18 2.08a15.38 15.38 0 0 0-1.11 2.86 15.33 15.33 0 0 1-1.38 3.3 2.87 2.87 0 0 1-2.43 1.47zm-.58-1.16a.48.48 0 0 0 .51.58q1.56 0 3-5.51-3.51 2.93-3.51 4.94zM968.48 39.23a1.16 1.16 0 0 1-1.29-1.33 4.79 4.79 0 0 1 .31-1.53q-2.21 2.86-3.71 2.86a1.52 1.52 0 0 1-1.67-1.77 5.37 5.37 0 0 1 1.82-3.79 5.37 5.37 0 0 1 3.79-1.82 5.71 5.71 0 0 1 1.36.24l-.61.88a2.52 2.52 0 0 0-1.19-.31 3.14 3.14 0 0 0-2.5 1.65 5.51 5.51 0 0 0-1.14 3.08.67.67 0 0 0 .82.68q1 0 2.75-2.55s.78-1.19 2.21-3.5h1.09l-1 2.72a8.88 8.88 0 0 0-.71 2.65 3.25 3.25 0 0 0 .1.68h.34l1.84-1.46h.58a3.35 3.35 0 0 1-1.21 1.77 3.07 3.07 0 0 1-1.98.85zM976.46 39.4a3 3 0 0 1-1.7-.61l.34-.85a1.78 1.78 0 0 0 1.22.68q1.19 0 2.18-1.82a6.4 6.4 0 0 0 .85-2.92q0-1.27-.78-1.27-1.73 0-4.18 6a81.48 81.48 0 0 0-2.62 7.76l-1.77.44q2.45-7.65 4.28-14.69l1.79-.3q-.5 1.46-1.41 4.45 1.9-4.46 4-4.46a1.94 1.94 0 0 1 1.63.81 3 3 0 0 1 .61 1.87 5.12 5.12 0 0 1-1.33 3.38 4 4 0 0 1-3.11 1.53zM984.9 39.2a2.47 2.47 0 0 1-1.72-.59 2.06 2.06 0 0 1-.66-1.62 5.37 5.37 0 0 1 1.39-3.52 4.14 4.14 0 0 1 3.23-1.65q2.14 0 2.14 2.48a5.09 5.09 0 0 1-1.28 3.35 3.93 3.93 0 0 1-3.1 1.55zm1.9-6.56q-1 0-2 1.84a6.27 6.27 0 0 0-.85 2.75q0 1.43 1 1.43t2.11-1.84a6.22 6.22 0 0 0 .85-2.86 1.09 1.09 0 0 0-1.11-1.32zM995.27 35.53v-2.14l-.27.07a46.72 46.72 0 0 0-3.06 5.68h-1.26l1.32-6.64 1.67-.55-.67 3.34q1.76-3.29 2.88-3.29h.37a2 2 0 0 1 .54 1.43 2.09 2.09 0 0 1-1.52 2.1zM999.14 37.53a.74.74 0 0 0 .82.92q1.33 0 3.13-2.11h.41a3.59 3.59 0 0 1-1.61 2 4.46 4.46 0 0 1-2.46 1 1.72 1.72 0 0 1-1.87-2 5.82 5.82 0 0 1 1.58-3.48q1.58-1.95 3-1.95a1.25 1.25 0 0 1 1.46 1.37q.03 2.33-4.46 4.25zm3-4.86a2.84 2.84 0 0 0-2 1.6 6 6 0 0 0-.92 2.55 8.07 8.07 0 0 0 2.14-1.39 2.94 2.94 0 0 0 1.26-2.07 1.21 1.21 0 0 0-.52-.69zM1018.84 30.9l-3.26.09-.81 2.75q1.72-.2 2-.2a1.73 1.73 0 0 1 1.42.64 2.4 2.4 0 0 1 .52 1.56 2.92 2.92 0 0 1-1.52 2.6 5.59 5.59 0 0 1-3 .81 9.85 9.85 0 0 1-2.4-.31l.21-.84a4.23 4.23 0 0 0 2.22.7 3.68 3.68 0 0 0 3.48-3.48 1.19 1.19 0 0 0-1.45-1.21 3.81 3.81 0 0 0-2.13.77l-.11-.22 1.34-4.53h3.74zM1024.82 36.58h1.39l-.29.92h-1.43l-.64 2-1 .27.59-2.22h-3.78l5-7.57h.88l-4.64 6.56h2.93l1.59-5.21 1.11-.33zM1029.09 38.16h3.78l-.31.92h-5.56a29.71 29.71 0 0 0 3.65-2.95q2.18-2.13 2.18-3.89a2.07 2.07 0 0 0-.42-1.26 1.29 1.29 0 0 0-1.08-.56q-1.63 0-2.6 2.73l-.86-.33a4.56 4.56 0 0 1 1.4-2 3.34 3.34 0 0 1 2.21-.82 2.21 2.21 0 0 1 1.71.7 2.5 2.5 0 0 1 .65 1.76 4.8 4.8 0 0 1-1.67 3.32 27.43 27.43 0 0 1-3.08 2.38zM1036.39 38.16h3.78l-.31.92h-5.61a29.71 29.71 0 0 0 3.65-2.95q2.18-2.13 2.18-3.89a2.07 2.07 0 0 0-.42-1.26 1.29 1.29 0 0 0-1.08-.56q-1.63 0-2.6 2.73l-.86-.33a4.56 4.56 0 0 1 1.4-2 3.34 3.34 0 0 1 2.21-.82 2.21 2.21 0 0 1 1.71.7 2.5 2.5 0 0 1 .65 1.76 4.8 4.8 0 0 1-1.67 3.32 27.43 27.43 0 0 1-3.03 2.38z"/><path class="cls-12" d="M951 22l-.4-.13-.24-.4a21.39 21.39 0 0 1 .84-3.54l-.13-.13q-1.17.57-3 4.07h-1.07a21.83 21.83 0 0 0 1.3-3.83l-.15-.26q-.57.07-1.65 1.78l-1.34 2.31h-.86l1-4.18a.76.76 0 0 1 .92-.42h.18q-.22 1.12-.62 2.55 1.57-2.6 2.6-2.6a.72.72 0 0 1 .74.87q0 .11-.33 1.48 1.39-2.35 2.35-2.35a1.16 1.16 0 0 1 .66.25.68.68 0 0 1 .35.53 3.74 3.74 0 0 1-.38 1.34 3.74 3.74 0 0 0-.38 1.29 4.28 4.28 0 0 0 .07.59 1.36 1.36 0 0 0 .88-.46l.76-.76.31.37-1.1 1a2.16 2.16 0 0 1-1.31.63zM954.88 26.78a.72.72 0 0 1-.79-.84 3.54 3.54 0 0 1 1.21-2.18 11.48 11.48 0 0 0 1.39-1.58q.31-1 .84-3-1.53 2.82-2.69 2.82-.84 0-.84-1.17a12.89 12.89 0 0 1 .88-3.44l1.06-.15a14 14 0 0 0-1 3.7 1.63 1.63 0 0 0 .09.52h.07q.77 0 2.93-4.18h.97l-.88 3.52.84-.7.04.44-1.21 1.28a11.32 11.32 0 0 0-.62 1.83 10.48 10.48 0 0 1-.79 2.13 1.73 1.73 0 0 1-1.5 1zm-.29-.53l.22.18q1 0 1.58-3.15a4.2 4.2 0 0 0-1.79 2.97zM971 22.09a4 4 0 0 1-.74-.14 1.63 1.63 0 0 1-.49-1l1.68-5.35-.28-.46q-1.12 0-2.94 2.8a21.42 21.42 0 0 0-2.07 3.92h-1.37q2.42-10.46 6-21l1.82-.42-5.08 17.25q2.31-3.46 3.88-3.46 1.29 0 1.29 1.92a6.17 6.17 0 0 1-.56 2.35q-.49 1.16-1 2.27l.26.23q1.09 0 2.1-1.82l.91-.35a4.64 4.64 0 0 1-1.23 2.17 3 3 0 0 1-2.18 1.09zM977.84 21.95a2.54 2.54 0 0 1-1.77-.61 2.12 2.12 0 0 1-.68-1.66 5.53 5.53 0 0 1 1.43-3.68 4.26 4.26 0 0 1 3.33-1.7q2.2 0 2.21 2.55a5.24 5.24 0 0 1-1.36 3.5 4 4 0 0 1-3.16 1.6zm2-6.75q-1 0-2 1.89a6.45 6.45 0 0 0-.87 2.83q0 1.47 1 1.47t2.17-1.89a6.41 6.41 0 0 0 .88-2.94 1.12 1.12 0 0 0-1.22-1.37zM994.25 22.09l-.63-.21-.39-.63a34 34 0 0 1 1.33-5.64l-.21-.21q-1.85.91-4.76 6.48h-1.68a34.74 34.74 0 0 0 2.09-6.09l-.25-.42q-.91.1-2.62 2.83l-2.13 3.68h-1.37l1.61-6.65q.18-.74 1.47-.67h.29q-.35 1.78-1 4.06 2.5-4.13 4.14-4.13a1.14 1.14 0 0 1 1.18 1.39q0 .17-.52 2.36 2.2-3.74 3.75-3.74a1.85 1.85 0 0 1 1 .4 1.09 1.09 0 0 1 .56.85 6 6 0 0 1-.61 2.13 6 6 0 0 0-.61 2.06 6.93 6.93 0 0 0 .1.93 2.16 2.16 0 0 0 1.4-.73q.59-.59 1.16-1.19l.49.59-1.75 1.61a3.44 3.44 0 0 1-2.04.94zM1000.17 20.23a.76.76 0 0 0 .84.95q1.37 0 3.22-2.17h.42a3.7 3.7 0 0 1-1.65 2.09 4.6 4.6 0 0 1-2.54 1 1.77 1.77 0 0 1-1.94-2.1 6 6 0 0 1 1.63-3.59q1.63-2 3.13-2a1.29 1.29 0 0 1 1.5 1.41q.01 2.44-4.61 4.41zm3-5a2.93 2.93 0 0 0-2 1.65 6.21 6.21 0 0 0-.95 2.63 8.32 8.32 0 0 0 2.21-1.44 3 3 0 0 0 1.29-2.14 1.25 1.25 0 0 0-.51-.7z"/></svg>